G04 #@! TF.GenerationSoftware,KiCad,Pcbnew,(5.1.9)-1*
G04 #@! TF.CreationDate,2022-03-23T20:51:23-07:00*
G04 #@! TF.ProjectId,alphalpha_plus_v2,616c7068-616c-4706-9861-5f706c75735f,rev?*
G04 #@! TF.SameCoordinates,Original*
G04 #@! TF.FileFunction,Legend,Top*
G04 #@! TF.FilePolarity,Positive*
%FSLAX46Y46*%
G04 Gerber Fmt 4.6, Leading zero omitted, Abs format (unit mm)*
G04 Created by KiCad (PCBNEW (5.1.9)-1) date 2022-03-23 20:51:23*
%MOMM*%
%LPD*%
G01*
G04 APERTURE LIST*
G04 #@! TA.AperFunction,Profile*
%ADD10C,0.200000*%
G04 #@! TD*
%ADD11C,0.010000*%
G04 APERTURE END LIST*
D10*
X19050000Y-19000000D02*
X19050000Y-70000000D01*
X33020000Y-99900000D02*
X196000000Y-99900000D01*
X21050000Y-13500000D02*
X31050000Y-13500000D01*
X209550000Y-19000000D02*
X209550000Y-70000000D01*
X19050000Y-70000000D02*
X33020000Y-99900000D01*
X196000000Y-99900000D02*
X209550000Y-70000000D01*
X19050000Y-19000000D02*
X21050000Y-13500000D01*
X31050000Y-13500000D02*
X36050000Y-19000000D01*
X209550000Y-19000000D02*
X207550000Y-13500000D01*
X197550000Y-13500000D02*
X207550000Y-13500000D01*
X197550000Y-13500000D02*
X192550000Y-19000000D01*
X36050000Y-19000000D02*
X192550000Y-19000000D01*
D11*
G36*
X45398830Y-78665790D02*
G01*
X45665447Y-78720184D01*
X45867129Y-78771248D01*
X46280857Y-78900900D01*
X46587388Y-79061890D01*
X46840495Y-79273301D01*
X47050584Y-79509464D01*
X47202573Y-79737132D01*
X47245234Y-79839891D01*
X47299612Y-79985885D01*
X47420320Y-80265643D01*
X47594860Y-80651661D01*
X47810733Y-81116430D01*
X48055443Y-81632445D01*
X48134078Y-81796177D01*
X48384956Y-82320484D01*
X48611200Y-82799929D01*
X48800308Y-83207488D01*
X48939783Y-83516137D01*
X49017124Y-83698849D01*
X49026578Y-83725859D01*
X49102376Y-83934722D01*
X49239276Y-84267247D01*
X49420399Y-84685412D01*
X49628866Y-85151196D01*
X49847798Y-85626579D01*
X50060315Y-86073539D01*
X50150577Y-86257727D01*
X50309576Y-86589380D01*
X50431596Y-86864855D01*
X50498167Y-87041502D01*
X50505146Y-87076397D01*
X50545709Y-87193024D01*
X50656332Y-87427829D01*
X50818455Y-87742882D01*
X50952445Y-87990494D01*
X51139030Y-88334529D01*
X51287677Y-88619692D01*
X51379976Y-88809992D01*
X51401208Y-88867869D01*
X51437499Y-88982232D01*
X51535482Y-89222536D01*
X51678825Y-89553064D01*
X51851193Y-89938097D01*
X52036252Y-90341917D01*
X52217670Y-90728806D01*
X52379111Y-91063044D01*
X52504244Y-91308914D01*
X52567590Y-91418504D01*
X52683318Y-91625952D01*
X52820781Y-91927269D01*
X52915682Y-92166016D01*
X53053206Y-92513324D01*
X53200035Y-92847565D01*
X53284049Y-93018666D01*
X53395711Y-93244558D01*
X53552298Y-93581080D01*
X53728666Y-93973599D01*
X53828143Y-94200836D01*
X54011932Y-94619886D01*
X54196878Y-95032740D01*
X54354443Y-95376037D01*
X54414879Y-95503538D01*
X54535306Y-95768567D01*
X54614262Y-95972538D01*
X54632303Y-96047055D01*
X54681886Y-96172149D01*
X54806068Y-96372998D01*
X54860692Y-96449654D01*
X55096617Y-96867414D01*
X55279669Y-97379275D01*
X55389850Y-97911390D01*
X55407164Y-98389912D01*
X55401325Y-98446153D01*
X55356486Y-98731089D01*
X55306040Y-98945817D01*
X55279259Y-99012580D01*
X55163384Y-99094073D01*
X54934516Y-99197417D01*
X54753461Y-99262861D01*
X54443592Y-99329369D01*
X53997351Y-99378838D01*
X53455976Y-99411198D01*
X52860704Y-99426377D01*
X52252774Y-99424305D01*
X51673421Y-99404912D01*
X51163884Y-99368125D01*
X50765401Y-99313874D01*
X50587915Y-99270028D01*
X50113628Y-99042289D01*
X49697825Y-98685787D01*
X49325073Y-98183728D01*
X48980997Y-97521684D01*
X48867678Y-97399785D01*
X48655945Y-97255552D01*
X48567815Y-97207550D01*
X48462599Y-97158994D01*
X48344463Y-97119771D01*
X48193516Y-97088697D01*
X47989869Y-97064589D01*
X47713631Y-97046266D01*
X47344912Y-97032542D01*
X46863822Y-97022237D01*
X46250471Y-97014166D01*
X45484969Y-97007148D01*
X45154416Y-97004544D01*
X44292865Y-96997465D01*
X43591778Y-96993805D01*
X43032115Y-96998093D01*
X42594837Y-97014852D01*
X42260906Y-97048611D01*
X42011283Y-97103894D01*
X41826928Y-97185229D01*
X41688804Y-97297141D01*
X41577871Y-97444157D01*
X41475090Y-97630803D01*
X41361423Y-97861605D01*
X41336311Y-97912252D01*
X41006831Y-98471862D01*
X40637981Y-98886757D01*
X40196233Y-99191630D01*
X40013891Y-99280690D01*
X39746396Y-99393603D01*
X39548485Y-99464891D01*
X39475376Y-99479168D01*
X39372110Y-99470890D01*
X39118200Y-99458043D01*
X38742414Y-99441861D01*
X38273518Y-99423582D01*
X37740281Y-99404439D01*
X37713929Y-99403532D01*
X37154259Y-99379311D01*
X36634761Y-99347573D01*
X36190664Y-99311184D01*
X35857202Y-99273012D01*
X35674566Y-99237576D01*
X35450238Y-99140678D01*
X35324619Y-98994195D01*
X35243810Y-98752258D01*
X35174520Y-98489943D01*
X35118481Y-98292165D01*
X35106647Y-98254741D01*
X35105634Y-98071745D01*
X35112245Y-98038861D01*
X36239175Y-98038861D01*
X36252957Y-98209570D01*
X36270174Y-98233305D01*
X36404337Y-98271884D01*
X36681399Y-98303443D01*
X37064875Y-98327577D01*
X37518280Y-98343882D01*
X38005129Y-98351954D01*
X38488938Y-98351389D01*
X38933221Y-98341782D01*
X39301495Y-98322730D01*
X39557274Y-98293829D01*
X39643611Y-98270672D01*
X39872766Y-98124701D01*
X40059807Y-97956537D01*
X40217587Y-97746275D01*
X40390488Y-97462972D01*
X40453604Y-97343989D01*
X40817119Y-96751065D01*
X41230152Y-96315174D01*
X41613800Y-96075672D01*
X41879297Y-95968826D01*
X42091707Y-95903246D01*
X42156685Y-95893459D01*
X43377001Y-95891458D01*
X44431159Y-95892029D01*
X45332496Y-95895569D01*
X46094345Y-95902474D01*
X46730043Y-95913144D01*
X47252923Y-95927973D01*
X47676322Y-95947360D01*
X48013574Y-95971702D01*
X48278014Y-96001395D01*
X48482977Y-96036838D01*
X48641798Y-96078426D01*
X48668870Y-96087403D01*
X49104070Y-96279366D01*
X49493683Y-96528441D01*
X49799209Y-96803878D01*
X49982147Y-97074929D01*
X50008944Y-97157678D01*
X50141035Y-97493777D01*
X50365328Y-97823108D01*
X50634905Y-98088148D01*
X50879244Y-98224729D01*
X51117411Y-98269663D01*
X51497832Y-98307147D01*
X51983351Y-98335554D01*
X52536809Y-98353258D01*
X53121051Y-98358630D01*
X53698919Y-98350043D01*
X53723810Y-98349313D01*
X54385988Y-98329458D01*
X54327262Y-97962211D01*
X54239770Y-97627793D01*
X54104019Y-97298475D01*
X54087027Y-97266628D01*
X53936743Y-96994759D01*
X53800533Y-96748324D01*
X53781514Y-96713911D01*
X53608614Y-96373792D01*
X53382693Y-95885749D01*
X53112957Y-95270232D01*
X52832257Y-94604723D01*
X52659779Y-94197748D01*
X52493235Y-93819405D01*
X52355687Y-93521378D01*
X52291607Y-93393063D01*
X52161127Y-93123934D01*
X52013543Y-92783733D01*
X51937261Y-92592622D01*
X51804426Y-92277391D01*
X51665985Y-91996693D01*
X51593562Y-91874600D01*
X51482548Y-91681283D01*
X51332317Y-91381109D01*
X51172180Y-91033130D01*
X51144463Y-90969741D01*
X50999736Y-90637874D01*
X50857584Y-90317283D01*
X50707654Y-89985840D01*
X50539592Y-89621414D01*
X50343044Y-89201875D01*
X50107656Y-88705094D01*
X49823073Y-88108942D01*
X49478943Y-87391287D01*
X49149805Y-86706490D01*
X48971823Y-86329784D01*
X48806023Y-85967401D01*
X48681864Y-85684028D01*
X48659303Y-85629458D01*
X48339385Y-84842533D01*
X48074658Y-84201519D01*
X47855843Y-83684800D01*
X47673658Y-83270758D01*
X47518824Y-82937777D01*
X47407011Y-82712497D01*
X47187602Y-82277716D01*
X46963896Y-81822162D01*
X46750322Y-81376666D01*
X46561309Y-80972061D01*
X46411284Y-80639178D01*
X46314677Y-80408848D01*
X46285307Y-80315573D01*
X46205937Y-80152066D01*
X46002485Y-79987125D01*
X45726936Y-79854278D01*
X45472453Y-79791327D01*
X45056696Y-79805979D01*
X44685381Y-79941442D01*
X44409492Y-80175331D01*
X44338384Y-80289176D01*
X43835295Y-81315958D01*
X43351256Y-82316256D01*
X42893634Y-83274130D01*
X42469796Y-84173640D01*
X42087109Y-84998845D01*
X41752938Y-85733805D01*
X41474651Y-86362580D01*
X41259613Y-86869229D01*
X41115192Y-87237812D01*
X41079442Y-87341178D01*
X40960648Y-87636609D01*
X40818577Y-87901234D01*
X40797937Y-87932006D01*
X40682494Y-88111667D01*
X40631060Y-88221415D01*
X40630890Y-88224100D01*
X40593539Y-88318347D01*
X40489798Y-88547201D01*
X40332129Y-88884015D01*
X40132998Y-89302139D01*
X39923735Y-89736040D01*
X39681863Y-90241250D01*
X39456248Y-90724433D01*
X39263657Y-91148784D01*
X39120853Y-91477498D01*
X39055152Y-91642886D01*
X38951727Y-91896167D01*
X38786889Y-92261010D01*
X38582694Y-92690058D01*
X38361197Y-93135952D01*
X38344539Y-93168681D01*
X38088670Y-93688998D01*
X37818076Y-94269848D01*
X37568060Y-94833928D01*
X37401864Y-95232992D01*
X37225135Y-95654704D01*
X37047228Y-96042224D01*
X36890624Y-96348554D01*
X36791069Y-96509968D01*
X36642889Y-96757005D01*
X36500118Y-97078050D01*
X36376247Y-97428464D01*
X36284769Y-97763614D01*
X36239175Y-98038861D01*
X35112245Y-98038861D01*
X35166436Y-97769308D01*
X35274174Y-97390283D01*
X35413965Y-96977524D01*
X35570930Y-96573884D01*
X35730186Y-96222219D01*
X35876855Y-95965381D01*
X35922188Y-95906137D01*
X36001175Y-95771004D01*
X36125812Y-95508314D01*
X36277825Y-95158246D01*
X36412093Y-94829105D01*
X36622336Y-94324460D01*
X36871063Y-93765820D01*
X37117685Y-93243133D01*
X37222055Y-93034052D01*
X37423173Y-92630884D01*
X37629214Y-92200530D01*
X37824895Y-91777032D01*
X37994933Y-91394434D01*
X38124044Y-91086777D01*
X38196946Y-90888106D01*
X38207568Y-90838859D01*
X38245314Y-90745476D01*
X38351074Y-90514682D01*
X38513636Y-90170140D01*
X38721784Y-89735514D01*
X38964305Y-89234468D01*
X39093649Y-88969097D01*
X39401935Y-88330189D01*
X39729077Y-87638723D01*
X40050485Y-86947586D01*
X40341571Y-86309664D01*
X40577747Y-85777844D01*
X40583724Y-85764087D01*
X40803743Y-85268713D01*
X41082739Y-84657993D01*
X41399564Y-83977210D01*
X41733071Y-83271650D01*
X42062111Y-82586597D01*
X42197446Y-82308610D01*
X42478667Y-81729568D01*
X42738131Y-81187564D01*
X42963741Y-80708487D01*
X43143399Y-80318227D01*
X43265007Y-80042671D01*
X43311887Y-79923695D01*
X43540611Y-79505946D01*
X43924834Y-79151800D01*
X44447422Y-78875669D01*
X44640271Y-78806398D01*
X44961121Y-78706751D01*
X45189014Y-78660597D01*
X45398830Y-78665790D01*
G37*
X45398830Y-78665790D02*
X45665447Y-78720184D01*
X45867129Y-78771248D01*
X46280857Y-78900900D01*
X46587388Y-79061890D01*
X46840495Y-79273301D01*
X47050584Y-79509464D01*
X47202573Y-79737132D01*
X47245234Y-79839891D01*
X47299612Y-79985885D01*
X47420320Y-80265643D01*
X47594860Y-80651661D01*
X47810733Y-81116430D01*
X48055443Y-81632445D01*
X48134078Y-81796177D01*
X48384956Y-82320484D01*
X48611200Y-82799929D01*
X48800308Y-83207488D01*
X48939783Y-83516137D01*
X49017124Y-83698849D01*
X49026578Y-83725859D01*
X49102376Y-83934722D01*
X49239276Y-84267247D01*
X49420399Y-84685412D01*
X49628866Y-85151196D01*
X49847798Y-85626579D01*
X50060315Y-86073539D01*
X50150577Y-86257727D01*
X50309576Y-86589380D01*
X50431596Y-86864855D01*
X50498167Y-87041502D01*
X50505146Y-87076397D01*
X50545709Y-87193024D01*
X50656332Y-87427829D01*
X50818455Y-87742882D01*
X50952445Y-87990494D01*
X51139030Y-88334529D01*
X51287677Y-88619692D01*
X51379976Y-88809992D01*
X51401208Y-88867869D01*
X51437499Y-88982232D01*
X51535482Y-89222536D01*
X51678825Y-89553064D01*
X51851193Y-89938097D01*
X52036252Y-90341917D01*
X52217670Y-90728806D01*
X52379111Y-91063044D01*
X52504244Y-91308914D01*
X52567590Y-91418504D01*
X52683318Y-91625952D01*
X52820781Y-91927269D01*
X52915682Y-92166016D01*
X53053206Y-92513324D01*
X53200035Y-92847565D01*
X53284049Y-93018666D01*
X53395711Y-93244558D01*
X53552298Y-93581080D01*
X53728666Y-93973599D01*
X53828143Y-94200836D01*
X54011932Y-94619886D01*
X54196878Y-95032740D01*
X54354443Y-95376037D01*
X54414879Y-95503538D01*
X54535306Y-95768567D01*
X54614262Y-95972538D01*
X54632303Y-96047055D01*
X54681886Y-96172149D01*
X54806068Y-96372998D01*
X54860692Y-96449654D01*
X55096617Y-96867414D01*
X55279669Y-97379275D01*
X55389850Y-97911390D01*
X55407164Y-98389912D01*
X55401325Y-98446153D01*
X55356486Y-98731089D01*
X55306040Y-98945817D01*
X55279259Y-99012580D01*
X55163384Y-99094073D01*
X54934516Y-99197417D01*
X54753461Y-99262861D01*
X54443592Y-99329369D01*
X53997351Y-99378838D01*
X53455976Y-99411198D01*
X52860704Y-99426377D01*
X52252774Y-99424305D01*
X51673421Y-99404912D01*
X51163884Y-99368125D01*
X50765401Y-99313874D01*
X50587915Y-99270028D01*
X50113628Y-99042289D01*
X49697825Y-98685787D01*
X49325073Y-98183728D01*
X48980997Y-97521684D01*
X48867678Y-97399785D01*
X48655945Y-97255552D01*
X48567815Y-97207550D01*
X48462599Y-97158994D01*
X48344463Y-97119771D01*
X48193516Y-97088697D01*
X47989869Y-97064589D01*
X47713631Y-97046266D01*
X47344912Y-97032542D01*
X46863822Y-97022237D01*
X46250471Y-97014166D01*
X45484969Y-97007148D01*
X45154416Y-97004544D01*
X44292865Y-96997465D01*
X43591778Y-96993805D01*
X43032115Y-96998093D01*
X42594837Y-97014852D01*
X42260906Y-97048611D01*
X42011283Y-97103894D01*
X41826928Y-97185229D01*
X41688804Y-97297141D01*
X41577871Y-97444157D01*
X41475090Y-97630803D01*
X41361423Y-97861605D01*
X41336311Y-97912252D01*
X41006831Y-98471862D01*
X40637981Y-98886757D01*
X40196233Y-99191630D01*
X40013891Y-99280690D01*
X39746396Y-99393603D01*
X39548485Y-99464891D01*
X39475376Y-99479168D01*
X39372110Y-99470890D01*
X39118200Y-99458043D01*
X38742414Y-99441861D01*
X38273518Y-99423582D01*
X37740281Y-99404439D01*
X37713929Y-99403532D01*
X37154259Y-99379311D01*
X36634761Y-99347573D01*
X36190664Y-99311184D01*
X35857202Y-99273012D01*
X35674566Y-99237576D01*
X35450238Y-99140678D01*
X35324619Y-98994195D01*
X35243810Y-98752258D01*
X35174520Y-98489943D01*
X35118481Y-98292165D01*
X35106647Y-98254741D01*
X35105634Y-98071745D01*
X35112245Y-98038861D01*
X36239175Y-98038861D01*
X36252957Y-98209570D01*
X36270174Y-98233305D01*
X36404337Y-98271884D01*
X36681399Y-98303443D01*
X37064875Y-98327577D01*
X37518280Y-98343882D01*
X38005129Y-98351954D01*
X38488938Y-98351389D01*
X38933221Y-98341782D01*
X39301495Y-98322730D01*
X39557274Y-98293829D01*
X39643611Y-98270672D01*
X39872766Y-98124701D01*
X40059807Y-97956537D01*
X40217587Y-97746275D01*
X40390488Y-97462972D01*
X40453604Y-97343989D01*
X40817119Y-96751065D01*
X41230152Y-96315174D01*
X41613800Y-96075672D01*
X41879297Y-95968826D01*
X42091707Y-95903246D01*
X42156685Y-95893459D01*
X43377001Y-95891458D01*
X44431159Y-95892029D01*
X45332496Y-95895569D01*
X46094345Y-95902474D01*
X46730043Y-95913144D01*
X47252923Y-95927973D01*
X47676322Y-95947360D01*
X48013574Y-95971702D01*
X48278014Y-96001395D01*
X48482977Y-96036838D01*
X48641798Y-96078426D01*
X48668870Y-96087403D01*
X49104070Y-96279366D01*
X49493683Y-96528441D01*
X49799209Y-96803878D01*
X49982147Y-97074929D01*
X50008944Y-97157678D01*
X50141035Y-97493777D01*
X50365328Y-97823108D01*
X50634905Y-98088148D01*
X50879244Y-98224729D01*
X51117411Y-98269663D01*
X51497832Y-98307147D01*
X51983351Y-98335554D01*
X52536809Y-98353258D01*
X53121051Y-98358630D01*
X53698919Y-98350043D01*
X53723810Y-98349313D01*
X54385988Y-98329458D01*
X54327262Y-97962211D01*
X54239770Y-97627793D01*
X54104019Y-97298475D01*
X54087027Y-97266628D01*
X53936743Y-96994759D01*
X53800533Y-96748324D01*
X53781514Y-96713911D01*
X53608614Y-96373792D01*
X53382693Y-95885749D01*
X53112957Y-95270232D01*
X52832257Y-94604723D01*
X52659779Y-94197748D01*
X52493235Y-93819405D01*
X52355687Y-93521378D01*
X52291607Y-93393063D01*
X52161127Y-93123934D01*
X52013543Y-92783733D01*
X51937261Y-92592622D01*
X51804426Y-92277391D01*
X51665985Y-91996693D01*
X51593562Y-91874600D01*
X51482548Y-91681283D01*
X51332317Y-91381109D01*
X51172180Y-91033130D01*
X51144463Y-90969741D01*
X50999736Y-90637874D01*
X50857584Y-90317283D01*
X50707654Y-89985840D01*
X50539592Y-89621414D01*
X50343044Y-89201875D01*
X50107656Y-88705094D01*
X49823073Y-88108942D01*
X49478943Y-87391287D01*
X49149805Y-86706490D01*
X48971823Y-86329784D01*
X48806023Y-85967401D01*
X48681864Y-85684028D01*
X48659303Y-85629458D01*
X48339385Y-84842533D01*
X48074658Y-84201519D01*
X47855843Y-83684800D01*
X47673658Y-83270758D01*
X47518824Y-82937777D01*
X47407011Y-82712497D01*
X47187602Y-82277716D01*
X46963896Y-81822162D01*
X46750322Y-81376666D01*
X46561309Y-80972061D01*
X46411284Y-80639178D01*
X46314677Y-80408848D01*
X46285307Y-80315573D01*
X46205937Y-80152066D01*
X46002485Y-79987125D01*
X45726936Y-79854278D01*
X45472453Y-79791327D01*
X45056696Y-79805979D01*
X44685381Y-79941442D01*
X44409492Y-80175331D01*
X44338384Y-80289176D01*
X43835295Y-81315958D01*
X43351256Y-82316256D01*
X42893634Y-83274130D01*
X42469796Y-84173640D01*
X42087109Y-84998845D01*
X41752938Y-85733805D01*
X41474651Y-86362580D01*
X41259613Y-86869229D01*
X41115192Y-87237812D01*
X41079442Y-87341178D01*
X40960648Y-87636609D01*
X40818577Y-87901234D01*
X40797937Y-87932006D01*
X40682494Y-88111667D01*
X40631060Y-88221415D01*
X40630890Y-88224100D01*
X40593539Y-88318347D01*
X40489798Y-88547201D01*
X40332129Y-88884015D01*
X40132998Y-89302139D01*
X39923735Y-89736040D01*
X39681863Y-90241250D01*
X39456248Y-90724433D01*
X39263657Y-91148784D01*
X39120853Y-91477498D01*
X39055152Y-91642886D01*
X38951727Y-91896167D01*
X38786889Y-92261010D01*
X38582694Y-92690058D01*
X38361197Y-93135952D01*
X38344539Y-93168681D01*
X38088670Y-93688998D01*
X37818076Y-94269848D01*
X37568060Y-94833928D01*
X37401864Y-95232992D01*
X37225135Y-95654704D01*
X37047228Y-96042224D01*
X36890624Y-96348554D01*
X36791069Y-96509968D01*
X36642889Y-96757005D01*
X36500118Y-97078050D01*
X36376247Y-97428464D01*
X36284769Y-97763614D01*
X36239175Y-98038861D01*
X35112245Y-98038861D01*
X35166436Y-97769308D01*
X35274174Y-97390283D01*
X35413965Y-96977524D01*
X35570930Y-96573884D01*
X35730186Y-96222219D01*
X35876855Y-95965381D01*
X35922188Y-95906137D01*
X36001175Y-95771004D01*
X36125812Y-95508314D01*
X36277825Y-95158246D01*
X36412093Y-94829105D01*
X36622336Y-94324460D01*
X36871063Y-93765820D01*
X37117685Y-93243133D01*
X37222055Y-93034052D01*
X37423173Y-92630884D01*
X37629214Y-92200530D01*
X37824895Y-91777032D01*
X37994933Y-91394434D01*
X38124044Y-91086777D01*
X38196946Y-90888106D01*
X38207568Y-90838859D01*
X38245314Y-90745476D01*
X38351074Y-90514682D01*
X38513636Y-90170140D01*
X38721784Y-89735514D01*
X38964305Y-89234468D01*
X39093649Y-88969097D01*
X39401935Y-88330189D01*
X39729077Y-87638723D01*
X40050485Y-86947586D01*
X40341571Y-86309664D01*
X40577747Y-85777844D01*
X40583724Y-85764087D01*
X40803743Y-85268713D01*
X41082739Y-84657993D01*
X41399564Y-83977210D01*
X41733071Y-83271650D01*
X42062111Y-82586597D01*
X42197446Y-82308610D01*
X42478667Y-81729568D01*
X42738131Y-81187564D01*
X42963741Y-80708487D01*
X43143399Y-80318227D01*
X43265007Y-80042671D01*
X43311887Y-79923695D01*
X43540611Y-79505946D01*
X43924834Y-79151800D01*
X44447422Y-78875669D01*
X44640271Y-78806398D01*
X44961121Y-78706751D01*
X45189014Y-78660597D01*
X45398830Y-78665790D01*
G36*
X113847863Y-78664752D02*
G01*
X114118872Y-78727574D01*
X114286920Y-78773626D01*
X114705693Y-78916521D01*
X115025471Y-79100035D01*
X115272000Y-79313459D01*
X115489189Y-79553441D01*
X115649776Y-79780190D01*
X115704591Y-79899748D01*
X115759799Y-80047131D01*
X115880336Y-80325733D01*
X116052608Y-80705551D01*
X116263020Y-81156579D01*
X116481846Y-81615362D01*
X116734242Y-82144636D01*
X116978918Y-82667738D01*
X117197004Y-83143601D01*
X117369633Y-83531153D01*
X117460155Y-83744653D01*
X117747370Y-84447480D01*
X117981888Y-85008688D01*
X118175247Y-85454276D01*
X118338984Y-85810245D01*
X118484637Y-86102594D01*
X118604644Y-86323682D01*
X118754447Y-86606730D01*
X118859361Y-86838715D01*
X118895201Y-86961021D01*
X118934980Y-87104678D01*
X119037193Y-87342577D01*
X119127598Y-87523334D01*
X119385930Y-88015545D01*
X119592574Y-88420201D01*
X119774888Y-88794072D01*
X119960228Y-89193931D01*
X120175952Y-89676550D01*
X120290991Y-89937586D01*
X120494889Y-90394335D01*
X120692112Y-90823549D01*
X120862679Y-91182566D01*
X120986610Y-91428724D01*
X121005567Y-91463381D01*
X121161656Y-91774207D01*
X121317905Y-92135405D01*
X121369786Y-92271154D01*
X121484474Y-92565058D01*
X121595042Y-92812382D01*
X121641460Y-92899423D01*
X121711186Y-93036044D01*
X121839355Y-93307869D01*
X122012540Y-93685613D01*
X122217313Y-94139989D01*
X122439856Y-94640823D01*
X122670677Y-95155667D01*
X122892274Y-95635011D01*
X123088959Y-96046027D01*
X123245041Y-96355889D01*
X123340738Y-96525629D01*
X123473831Y-96782086D01*
X123613301Y-97134277D01*
X123720553Y-97476808D01*
X123810325Y-97856012D01*
X123842110Y-98146981D01*
X123820956Y-98429555D01*
X123791349Y-98596465D01*
X123727247Y-98880324D01*
X123646835Y-99045706D01*
X123502401Y-99150874D01*
X123255693Y-99250578D01*
X122959209Y-99321294D01*
X122524072Y-99374602D01*
X121990298Y-99410412D01*
X121397901Y-99428635D01*
X120786898Y-99429179D01*
X120197304Y-99411956D01*
X119669134Y-99376874D01*
X119242403Y-99323844D01*
X118976808Y-99260216D01*
X118506677Y-99005837D01*
X118064847Y-98604853D01*
X117684774Y-98090091D01*
X117565544Y-97875496D01*
X117365673Y-97542579D01*
X117144081Y-97320867D01*
X116918023Y-97184125D01*
X116807076Y-97129716D01*
X116697218Y-97086185D01*
X116568369Y-97052492D01*
X116400447Y-97027595D01*
X116173372Y-97010454D01*
X115867063Y-97000029D01*
X115461439Y-96995278D01*
X114936420Y-96995162D01*
X114271923Y-96998638D01*
X113454189Y-97004620D01*
X110388788Y-97028045D01*
X110196949Y-97252427D01*
X110049247Y-97456531D01*
X109869636Y-97747469D01*
X109746007Y-97970448D01*
X109376901Y-98528987D01*
X108925788Y-98974852D01*
X108425637Y-99275887D01*
X108394141Y-99288902D01*
X108237508Y-99344739D01*
X108068263Y-99384505D01*
X107857466Y-99409631D01*
X107576175Y-99421549D01*
X107195450Y-99421690D01*
X106686350Y-99411486D01*
X106195201Y-99397677D01*
X105622994Y-99375898D01*
X105092326Y-99347032D01*
X104636913Y-99313590D01*
X104290468Y-99278083D01*
X104086707Y-99243019D01*
X104076377Y-99239926D01*
X103880037Y-99158637D01*
X103759312Y-99037812D01*
X103671102Y-98822389D01*
X103626618Y-98665347D01*
X103500631Y-98194829D01*
X103291583Y-98532662D01*
X103088830Y-98787009D01*
X102813605Y-99045961D01*
X102678166Y-99148709D01*
X102273796Y-99426923D01*
X100510528Y-99412013D01*
X99898938Y-99405653D01*
X99436272Y-99396207D01*
X99091948Y-99380461D01*
X98835385Y-99355202D01*
X98636001Y-99317215D01*
X98463214Y-99263289D01*
X98286443Y-99190209D01*
X98251561Y-99174646D01*
X97879584Y-98968531D01*
X97616123Y-98715089D01*
X97510337Y-98564099D01*
X97264812Y-98176007D01*
X97264812Y-95080424D01*
X97264516Y-94253370D01*
X97262910Y-93587179D01*
X97258916Y-93063210D01*
X97251456Y-92662819D01*
X97239453Y-92367366D01*
X97221829Y-92158209D01*
X97197506Y-92016705D01*
X97165407Y-91924212D01*
X97124453Y-91862089D01*
X97075967Y-91813864D01*
X96999578Y-91757276D01*
X96895486Y-91713852D01*
X96739493Y-91681321D01*
X96507397Y-91657415D01*
X96174998Y-91639866D01*
X95718097Y-91626405D01*
X95112493Y-91614764D01*
X94918361Y-91611607D01*
X94330159Y-91604697D01*
X93792950Y-91602973D01*
X93336070Y-91606163D01*
X92988858Y-91613993D01*
X92780652Y-91626188D01*
X92744148Y-91631893D01*
X92634024Y-91669314D01*
X92544668Y-91732259D01*
X92474079Y-91837992D01*
X92420259Y-92003776D01*
X92381208Y-92246874D01*
X92354926Y-92584550D01*
X92339414Y-93034066D01*
X92332671Y-93612685D01*
X92332698Y-94337672D01*
X92336972Y-95147055D01*
X92341663Y-95964963D01*
X92343302Y-96624021D01*
X92340967Y-97144870D01*
X92333734Y-97548152D01*
X92320682Y-97854509D01*
X92300888Y-98084582D01*
X92273429Y-98259014D01*
X92237383Y-98398446D01*
X92191828Y-98523520D01*
X92185358Y-98539318D01*
X92036316Y-98824667D01*
X91833657Y-99031046D01*
X91565519Y-99198440D01*
X91409645Y-99281161D01*
X91268276Y-99342848D01*
X91112669Y-99386651D01*
X90914081Y-99415726D01*
X90643767Y-99433225D01*
X90272985Y-99442302D01*
X89772991Y-99446110D01*
X89296114Y-99447405D01*
X88673219Y-99447566D01*
X88201495Y-99443328D01*
X87852616Y-99432232D01*
X87598260Y-99411819D01*
X87410100Y-99379631D01*
X87259814Y-99333207D01*
X87119076Y-99270090D01*
X87090991Y-99255964D01*
X86779576Y-99040273D01*
X86509242Y-98758493D01*
X86470316Y-98703647D01*
X86234121Y-98346733D01*
X86233386Y-97980260D01*
X87245902Y-97980260D01*
X87434665Y-98183940D01*
X87510574Y-98257491D01*
X87599935Y-98311001D01*
X87730674Y-98347834D01*
X87930716Y-98371354D01*
X88227989Y-98384927D01*
X88650418Y-98391917D01*
X89190587Y-98395513D01*
X89712553Y-98395713D01*
X90179408Y-98391331D01*
X90558428Y-98383035D01*
X90816888Y-98371491D01*
X90914907Y-98360354D01*
X91010669Y-98323983D01*
X91088032Y-98261020D01*
X91148775Y-98153950D01*
X91194675Y-97985255D01*
X91227511Y-97737419D01*
X91249060Y-97392925D01*
X91261099Y-96934256D01*
X91265408Y-96343895D01*
X91263763Y-95604325D01*
X91259837Y-94961801D01*
X91254804Y-94145302D01*
X91252920Y-93487375D01*
X91255116Y-92967099D01*
X91262322Y-92563555D01*
X91275469Y-92255821D01*
X91295488Y-92022979D01*
X91323311Y-91844109D01*
X91359869Y-91698289D01*
X91406092Y-91564601D01*
X91411672Y-91550084D01*
X91576308Y-91221384D01*
X91809518Y-90966264D01*
X92023619Y-90806407D01*
X92463045Y-90508443D01*
X97130183Y-90572831D01*
X97537297Y-90813432D01*
X97911830Y-91112437D01*
X98143128Y-91463052D01*
X98196658Y-91578866D01*
X98239600Y-91696070D01*
X98273121Y-91834931D01*
X98298385Y-92015717D01*
X98316557Y-92258698D01*
X98328804Y-92584142D01*
X98336290Y-93012317D01*
X98340180Y-93563492D01*
X98341641Y-94257936D01*
X98341844Y-94919190D01*
X98341844Y-97966310D01*
X98584172Y-98125446D01*
X98703512Y-98185956D01*
X98870571Y-98232023D01*
X99113089Y-98266768D01*
X99458807Y-98293316D01*
X99935466Y-98314790D01*
X100396053Y-98329458D01*
X100969318Y-98344278D01*
X101391378Y-98349841D01*
X101690381Y-98344269D01*
X101894475Y-98325680D01*
X102031809Y-98292195D01*
X102130532Y-98241933D01*
X102173159Y-98210753D01*
X102364587Y-98059881D01*
X104654432Y-98059881D01*
X104660253Y-98203342D01*
X104709469Y-98249281D01*
X104831517Y-98283067D01*
X105048505Y-98306336D01*
X105382541Y-98320722D01*
X105855735Y-98327863D01*
X106365003Y-98329458D01*
X108021357Y-98329458D01*
X108302257Y-98093097D01*
X108499201Y-97880655D01*
X108712267Y-97580852D01*
X108844775Y-97352637D01*
X109036427Y-97023039D01*
X109251728Y-96710319D01*
X109383739Y-96549603D01*
X109587120Y-96375060D01*
X109862685Y-96194277D01*
X110163522Y-96031154D01*
X110442715Y-95909594D01*
X110653350Y-95853500D01*
X110730913Y-95863240D01*
X110837363Y-95875370D01*
X111101246Y-95886331D01*
X111500492Y-95895763D01*
X112013032Y-95903304D01*
X112616796Y-95908593D01*
X113289713Y-95911268D01*
X113677956Y-95911496D01*
X114482298Y-95911788D01*
X115129062Y-95914479D01*
X115640169Y-95920708D01*
X116037541Y-95931614D01*
X116343101Y-95948337D01*
X116578770Y-95972015D01*
X116766471Y-96003788D01*
X116928125Y-96044794D01*
X117059873Y-96087225D01*
X117449388Y-96252730D01*
X117821281Y-96465186D01*
X118133504Y-96695176D01*
X118344013Y-96913282D01*
X118404550Y-97028045D01*
X118613260Y-97551457D01*
X118890675Y-97948262D01*
X119010201Y-98058871D01*
X119189164Y-98177235D01*
X119403121Y-98255659D01*
X119703022Y-98307899D01*
X120056792Y-98341469D01*
X120495369Y-98365800D01*
X120944055Y-98375060D01*
X121314543Y-98367632D01*
X121354126Y-98365237D01*
X121741461Y-98344525D01*
X122138827Y-98331608D01*
X122318967Y-98329458D01*
X122580777Y-98321207D01*
X122709570Y-98281363D01*
X122751613Y-98187294D01*
X122754565Y-98116361D01*
X122710156Y-97822477D01*
X122597647Y-97469943D01*
X122448115Y-97141507D01*
X122313083Y-96940848D01*
X122157561Y-96712970D01*
X122080142Y-96534405D01*
X121998133Y-96320707D01*
X121867436Y-96038065D01*
X121800568Y-95906851D01*
X121678296Y-95661810D01*
X121601352Y-95481894D01*
X121587780Y-95430542D01*
X121551805Y-95325297D01*
X121451748Y-95083626D01*
X121299414Y-94731777D01*
X121106609Y-94296002D01*
X120885136Y-93802548D01*
X120646800Y-93277665D01*
X120403406Y-92747603D01*
X120166759Y-92238611D01*
X119948663Y-91776939D01*
X119884431Y-91642886D01*
X119521195Y-90882544D01*
X119237863Y-90277200D01*
X119032310Y-89822185D01*
X118902412Y-89512830D01*
X118855899Y-89382250D01*
X118788794Y-89221023D01*
X118656553Y-88947900D01*
X118481398Y-88607800D01*
X118367498Y-88394971D01*
X118176894Y-88031615D01*
X118016663Y-87703490D01*
X117909244Y-87457690D01*
X117880170Y-87372162D01*
X117803355Y-87162148D01*
X117669849Y-86877304D01*
X117575012Y-86699018D01*
X117412345Y-86386846D01*
X117219682Y-85974768D01*
X116988919Y-85444298D01*
X116711954Y-84776952D01*
X116471967Y-84182822D01*
X116317446Y-83817992D01*
X116113486Y-83365171D01*
X115892756Y-82895993D01*
X115776094Y-82657027D01*
X115582020Y-82259443D01*
X115406464Y-81888262D01*
X115272471Y-81592832D01*
X115215145Y-81455960D01*
X115084073Y-81168858D01*
X114934702Y-80909871D01*
X114930414Y-80903589D01*
X114814342Y-80692839D01*
X114766579Y-80523556D01*
X114688619Y-80300073D01*
X114488740Y-80072675D01*
X114217940Y-79885624D01*
X113927219Y-79783183D01*
X113910719Y-79780756D01*
X113441646Y-79789874D01*
X113062861Y-79953345D01*
X112778342Y-80269011D01*
X112689306Y-80443211D01*
X112596273Y-80648148D01*
X112438104Y-80984555D01*
X112228947Y-81422857D01*
X111982953Y-81933478D01*
X111714270Y-82486843D01*
X111582172Y-82757374D01*
X111270536Y-83402545D01*
X110942248Y-84096346D01*
X110620699Y-84788367D01*
X110329281Y-85428195D01*
X110091386Y-85965419D01*
X110062061Y-86033345D01*
X109799782Y-86631366D01*
X109498741Y-87298490D01*
X109191983Y-87962560D01*
X108912552Y-88551419D01*
X108849554Y-88681048D01*
X108463155Y-89473493D01*
X108153076Y-90114711D01*
X107915014Y-90613858D01*
X107744671Y-90980088D01*
X107637744Y-91222559D01*
X107589935Y-91350426D01*
X107586367Y-91370321D01*
X107545961Y-91511955D01*
X107431335Y-91790543D01*
X107252379Y-92184455D01*
X107018980Y-92672063D01*
X106741026Y-93231739D01*
X106682092Y-93348186D01*
X106433713Y-93857021D01*
X106168867Y-94431366D01*
X105926023Y-94986441D01*
X105800324Y-95291399D01*
X105625189Y-95708827D01*
X105447760Y-96093749D01*
X105291427Y-96397334D01*
X105199294Y-96546100D01*
X105065629Y-96777330D01*
X104927690Y-97095421D01*
X104802097Y-97449275D01*
X104705471Y-97787794D01*
X104654432Y-98059881D01*
X102364587Y-98059881D01*
X102380713Y-98047172D01*
X102380713Y-89185328D01*
X102380263Y-87662385D01*
X102378838Y-86310131D01*
X102376329Y-85119754D01*
X102372626Y-84082441D01*
X102367619Y-83189377D01*
X102361199Y-82431751D01*
X102353256Y-81800749D01*
X102343679Y-81287556D01*
X102332359Y-80883361D01*
X102319187Y-80579350D01*
X102304052Y-80366710D01*
X102286844Y-80236627D01*
X102268522Y-80181547D01*
X102196698Y-80127542D01*
X102061434Y-80085975D01*
X101838058Y-80054083D01*
X101501893Y-80029103D01*
X101028267Y-80008271D01*
X100599117Y-79994601D01*
X99914039Y-79979769D01*
X99386960Y-79982042D01*
X98996905Y-80004715D01*
X98722900Y-80051084D01*
X98543969Y-80124444D01*
X98439140Y-80228092D01*
X98392934Y-80341249D01*
X98380010Y-80487898D01*
X98371933Y-80788838D01*
X98368721Y-81218918D01*
X98370394Y-81752990D01*
X98376970Y-82365903D01*
X98388469Y-83032507D01*
X98390807Y-83144373D01*
X98445977Y-85719211D01*
X98206139Y-86146597D01*
X97868278Y-86581481D01*
X97569397Y-86806584D01*
X97172493Y-87039185D01*
X94862645Y-87048808D01*
X94153401Y-87050976D01*
X93599217Y-87049775D01*
X93175659Y-87043582D01*
X92858291Y-87030777D01*
X92622678Y-87009738D01*
X92444384Y-86978842D01*
X92298974Y-86936468D01*
X92162012Y-86880995D01*
X92132154Y-86867582D01*
X91805331Y-86674659D01*
X91581133Y-86414580D01*
X91509179Y-86287725D01*
X91452578Y-86173277D01*
X91407602Y-86057548D01*
X91372869Y-85919311D01*
X91346998Y-85737342D01*
X91328607Y-85490414D01*
X91316315Y-85157302D01*
X91308742Y-84716781D01*
X91304505Y-84147625D01*
X91302223Y-83428610D01*
X91301554Y-83097171D01*
X91299082Y-82301220D01*
X91294367Y-81665852D01*
X91286460Y-81172147D01*
X91274411Y-80801188D01*
X91257271Y-80534055D01*
X91234089Y-80351831D01*
X91203917Y-80235596D01*
X91165804Y-80166433D01*
X91153776Y-80153121D01*
X91071272Y-80100239D01*
X90926879Y-80059219D01*
X90696351Y-80027548D01*
X90355438Y-80002712D01*
X89879894Y-79982198D01*
X89351317Y-79966270D01*
X88763125Y-79951745D01*
X88326921Y-79945424D01*
X88015300Y-79949225D01*
X87800856Y-79965067D01*
X87656183Y-79994867D01*
X87553875Y-80040542D01*
X87474367Y-80097619D01*
X87257392Y-80273314D01*
X87245902Y-97980260D01*
X86233386Y-97980260D01*
X86197623Y-80154547D01*
X86427131Y-79703459D01*
X86591228Y-79421785D01*
X86769849Y-79242231D01*
X87032566Y-79101503D01*
X87136520Y-79058064D01*
X87311220Y-78991897D01*
X87481058Y-78943477D01*
X87675788Y-78910718D01*
X87925166Y-78891530D01*
X88258948Y-78883826D01*
X88706887Y-78885518D01*
X89298739Y-78894519D01*
X89432746Y-78896934D01*
X90054026Y-78909461D01*
X90523946Y-78923304D01*
X90870645Y-78941564D01*
X91122260Y-78967340D01*
X91306927Y-79003733D01*
X91452786Y-79053841D01*
X91587972Y-79120766D01*
X91618512Y-79137737D01*
X91965432Y-79413576D01*
X92177681Y-79705079D01*
X92230764Y-79813234D01*
X92272946Y-79928156D01*
X92305502Y-80070851D01*
X92329708Y-80262325D01*
X92346840Y-80523584D01*
X92358174Y-80875633D01*
X92364985Y-81339479D01*
X92368550Y-81936126D01*
X92370144Y-82686581D01*
X92370360Y-82877317D01*
X92373293Y-85689839D01*
X92594054Y-85868779D01*
X92680725Y-85930878D01*
X92782476Y-85975543D01*
X92926279Y-86004602D01*
X93139102Y-86019882D01*
X93447915Y-86023213D01*
X93879689Y-86016422D01*
X94461392Y-86001337D01*
X94523736Y-85999587D01*
X95087830Y-85984051D01*
X95615478Y-85970166D01*
X96070434Y-85958836D01*
X96416454Y-85950966D01*
X96610609Y-85947524D01*
X96936272Y-85901337D01*
X97163459Y-85755515D01*
X97176598Y-85741759D01*
X97229960Y-85679560D01*
X97271675Y-85607132D01*
X97302712Y-85504111D01*
X97324038Y-85350130D01*
X97336619Y-85124824D01*
X97341423Y-84807828D01*
X97339417Y-84378777D01*
X97331568Y-83817305D01*
X97318843Y-83103046D01*
X97314056Y-82847236D01*
X97263476Y-80154547D01*
X97510964Y-79664241D01*
X97662353Y-79385969D01*
X97798335Y-79223350D01*
X97975254Y-79127496D01*
X98207215Y-79060142D01*
X98498743Y-79013493D01*
X98951867Y-78978057D01*
X99548974Y-78954765D01*
X100272451Y-78944543D01*
X100406155Y-78944173D01*
X101152303Y-78948117D01*
X101741645Y-78966074D01*
X102196706Y-79004134D01*
X102540009Y-79068383D01*
X102794079Y-79164909D01*
X102981440Y-79299801D01*
X103124616Y-79479147D01*
X103246131Y-79709033D01*
X103247562Y-79712150D01*
X103456188Y-80167280D01*
X103459504Y-89068864D01*
X103460323Y-90316237D01*
X103461800Y-91511655D01*
X103463880Y-92643050D01*
X103466512Y-93698359D01*
X103469640Y-94665514D01*
X103473213Y-95532450D01*
X103477177Y-96287101D01*
X103481479Y-96917402D01*
X103486065Y-97411287D01*
X103490882Y-97756689D01*
X103495878Y-97941543D01*
X103498790Y-97970448D01*
X103539852Y-97891603D01*
X103610061Y-97686833D01*
X103678842Y-97454370D01*
X103912901Y-96733033D01*
X104166310Y-96179996D01*
X104310332Y-95951013D01*
X104430833Y-95743832D01*
X104585528Y-95425401D01*
X104747130Y-95053118D01*
X104801003Y-94918858D01*
X104944326Y-94573394D01*
X105146228Y-94114240D01*
X105385421Y-93588467D01*
X105640614Y-93043141D01*
X105795570Y-92719918D01*
X106025972Y-92239051D01*
X106231456Y-91800326D01*
X106397806Y-91434874D01*
X106510808Y-91173829D01*
X106553697Y-91059494D01*
X106619306Y-90879551D01*
X106741454Y-90587709D01*
X106897930Y-90233377D01*
X107066525Y-89865967D01*
X107225026Y-89534887D01*
X107340421Y-89309317D01*
X107437914Y-89119615D01*
X107602356Y-88788174D01*
X107823735Y-88335421D01*
X108092038Y-87781787D01*
X108264242Y-87424511D01*
X108370741Y-87195217D01*
X108532111Y-86837792D01*
X108732017Y-86388885D01*
X108954124Y-85885145D01*
X109145713Y-85446868D01*
X109400445Y-84873533D01*
X109709841Y-84195686D01*
X110047907Y-83469180D01*
X110388649Y-82749865D01*
X110706074Y-82093594D01*
X110712178Y-82081143D01*
X110975172Y-81539913D01*
X111213060Y-81040835D01*
X111413586Y-80610396D01*
X111564492Y-80275084D01*
X111653520Y-80061387D01*
X111670605Y-80010073D01*
X111814893Y-79720515D01*
X112087282Y-79412944D01*
X112444817Y-79123768D01*
X112844542Y-78889395D01*
X113124106Y-78778162D01*
X113424464Y-78689757D01*
X113641055Y-78652050D01*
X113847863Y-78664752D01*
G37*
X113847863Y-78664752D02*
X114118872Y-78727574D01*
X114286920Y-78773626D01*
X114705693Y-78916521D01*
X115025471Y-79100035D01*
X115272000Y-79313459D01*
X115489189Y-79553441D01*
X115649776Y-79780190D01*
X115704591Y-79899748D01*
X115759799Y-80047131D01*
X115880336Y-80325733D01*
X116052608Y-80705551D01*
X116263020Y-81156579D01*
X116481846Y-81615362D01*
X116734242Y-82144636D01*
X116978918Y-82667738D01*
X117197004Y-83143601D01*
X117369633Y-83531153D01*
X117460155Y-83744653D01*
X117747370Y-84447480D01*
X117981888Y-85008688D01*
X118175247Y-85454276D01*
X118338984Y-85810245D01*
X118484637Y-86102594D01*
X118604644Y-86323682D01*
X118754447Y-86606730D01*
X118859361Y-86838715D01*
X118895201Y-86961021D01*
X118934980Y-87104678D01*
X119037193Y-87342577D01*
X119127598Y-87523334D01*
X119385930Y-88015545D01*
X119592574Y-88420201D01*
X119774888Y-88794072D01*
X119960228Y-89193931D01*
X120175952Y-89676550D01*
X120290991Y-89937586D01*
X120494889Y-90394335D01*
X120692112Y-90823549D01*
X120862679Y-91182566D01*
X120986610Y-91428724D01*
X121005567Y-91463381D01*
X121161656Y-91774207D01*
X121317905Y-92135405D01*
X121369786Y-92271154D01*
X121484474Y-92565058D01*
X121595042Y-92812382D01*
X121641460Y-92899423D01*
X121711186Y-93036044D01*
X121839355Y-93307869D01*
X122012540Y-93685613D01*
X122217313Y-94139989D01*
X122439856Y-94640823D01*
X122670677Y-95155667D01*
X122892274Y-95635011D01*
X123088959Y-96046027D01*
X123245041Y-96355889D01*
X123340738Y-96525629D01*
X123473831Y-96782086D01*
X123613301Y-97134277D01*
X123720553Y-97476808D01*
X123810325Y-97856012D01*
X123842110Y-98146981D01*
X123820956Y-98429555D01*
X123791349Y-98596465D01*
X123727247Y-98880324D01*
X123646835Y-99045706D01*
X123502401Y-99150874D01*
X123255693Y-99250578D01*
X122959209Y-99321294D01*
X122524072Y-99374602D01*
X121990298Y-99410412D01*
X121397901Y-99428635D01*
X120786898Y-99429179D01*
X120197304Y-99411956D01*
X119669134Y-99376874D01*
X119242403Y-99323844D01*
X118976808Y-99260216D01*
X118506677Y-99005837D01*
X118064847Y-98604853D01*
X117684774Y-98090091D01*
X117565544Y-97875496D01*
X117365673Y-97542579D01*
X117144081Y-97320867D01*
X116918023Y-97184125D01*
X116807076Y-97129716D01*
X116697218Y-97086185D01*
X116568369Y-97052492D01*
X116400447Y-97027595D01*
X116173372Y-97010454D01*
X115867063Y-97000029D01*
X115461439Y-96995278D01*
X114936420Y-96995162D01*
X114271923Y-96998638D01*
X113454189Y-97004620D01*
X110388788Y-97028045D01*
X110196949Y-97252427D01*
X110049247Y-97456531D01*
X109869636Y-97747469D01*
X109746007Y-97970448D01*
X109376901Y-98528987D01*
X108925788Y-98974852D01*
X108425637Y-99275887D01*
X108394141Y-99288902D01*
X108237508Y-99344739D01*
X108068263Y-99384505D01*
X107857466Y-99409631D01*
X107576175Y-99421549D01*
X107195450Y-99421690D01*
X106686350Y-99411486D01*
X106195201Y-99397677D01*
X105622994Y-99375898D01*
X105092326Y-99347032D01*
X104636913Y-99313590D01*
X104290468Y-99278083D01*
X104086707Y-99243019D01*
X104076377Y-99239926D01*
X103880037Y-99158637D01*
X103759312Y-99037812D01*
X103671102Y-98822389D01*
X103626618Y-98665347D01*
X103500631Y-98194829D01*
X103291583Y-98532662D01*
X103088830Y-98787009D01*
X102813605Y-99045961D01*
X102678166Y-99148709D01*
X102273796Y-99426923D01*
X100510528Y-99412013D01*
X99898938Y-99405653D01*
X99436272Y-99396207D01*
X99091948Y-99380461D01*
X98835385Y-99355202D01*
X98636001Y-99317215D01*
X98463214Y-99263289D01*
X98286443Y-99190209D01*
X98251561Y-99174646D01*
X97879584Y-98968531D01*
X97616123Y-98715089D01*
X97510337Y-98564099D01*
X97264812Y-98176007D01*
X97264812Y-95080424D01*
X97264516Y-94253370D01*
X97262910Y-93587179D01*
X97258916Y-93063210D01*
X97251456Y-92662819D01*
X97239453Y-92367366D01*
X97221829Y-92158209D01*
X97197506Y-92016705D01*
X97165407Y-91924212D01*
X97124453Y-91862089D01*
X97075967Y-91813864D01*
X96999578Y-91757276D01*
X96895486Y-91713852D01*
X96739493Y-91681321D01*
X96507397Y-91657415D01*
X96174998Y-91639866D01*
X95718097Y-91626405D01*
X95112493Y-91614764D01*
X94918361Y-91611607D01*
X94330159Y-91604697D01*
X93792950Y-91602973D01*
X93336070Y-91606163D01*
X92988858Y-91613993D01*
X92780652Y-91626188D01*
X92744148Y-91631893D01*
X92634024Y-91669314D01*
X92544668Y-91732259D01*
X92474079Y-91837992D01*
X92420259Y-92003776D01*
X92381208Y-92246874D01*
X92354926Y-92584550D01*
X92339414Y-93034066D01*
X92332671Y-93612685D01*
X92332698Y-94337672D01*
X92336972Y-95147055D01*
X92341663Y-95964963D01*
X92343302Y-96624021D01*
X92340967Y-97144870D01*
X92333734Y-97548152D01*
X92320682Y-97854509D01*
X92300888Y-98084582D01*
X92273429Y-98259014D01*
X92237383Y-98398446D01*
X92191828Y-98523520D01*
X92185358Y-98539318D01*
X92036316Y-98824667D01*
X91833657Y-99031046D01*
X91565519Y-99198440D01*
X91409645Y-99281161D01*
X91268276Y-99342848D01*
X91112669Y-99386651D01*
X90914081Y-99415726D01*
X90643767Y-99433225D01*
X90272985Y-99442302D01*
X89772991Y-99446110D01*
X89296114Y-99447405D01*
X88673219Y-99447566D01*
X88201495Y-99443328D01*
X87852616Y-99432232D01*
X87598260Y-99411819D01*
X87410100Y-99379631D01*
X87259814Y-99333207D01*
X87119076Y-99270090D01*
X87090991Y-99255964D01*
X86779576Y-99040273D01*
X86509242Y-98758493D01*
X86470316Y-98703647D01*
X86234121Y-98346733D01*
X86233386Y-97980260D01*
X87245902Y-97980260D01*
X87434665Y-98183940D01*
X87510574Y-98257491D01*
X87599935Y-98311001D01*
X87730674Y-98347834D01*
X87930716Y-98371354D01*
X88227989Y-98384927D01*
X88650418Y-98391917D01*
X89190587Y-98395513D01*
X89712553Y-98395713D01*
X90179408Y-98391331D01*
X90558428Y-98383035D01*
X90816888Y-98371491D01*
X90914907Y-98360354D01*
X91010669Y-98323983D01*
X91088032Y-98261020D01*
X91148775Y-98153950D01*
X91194675Y-97985255D01*
X91227511Y-97737419D01*
X91249060Y-97392925D01*
X91261099Y-96934256D01*
X91265408Y-96343895D01*
X91263763Y-95604325D01*
X91259837Y-94961801D01*
X91254804Y-94145302D01*
X91252920Y-93487375D01*
X91255116Y-92967099D01*
X91262322Y-92563555D01*
X91275469Y-92255821D01*
X91295488Y-92022979D01*
X91323311Y-91844109D01*
X91359869Y-91698289D01*
X91406092Y-91564601D01*
X91411672Y-91550084D01*
X91576308Y-91221384D01*
X91809518Y-90966264D01*
X92023619Y-90806407D01*
X92463045Y-90508443D01*
X97130183Y-90572831D01*
X97537297Y-90813432D01*
X97911830Y-91112437D01*
X98143128Y-91463052D01*
X98196658Y-91578866D01*
X98239600Y-91696070D01*
X98273121Y-91834931D01*
X98298385Y-92015717D01*
X98316557Y-92258698D01*
X98328804Y-92584142D01*
X98336290Y-93012317D01*
X98340180Y-93563492D01*
X98341641Y-94257936D01*
X98341844Y-94919190D01*
X98341844Y-97966310D01*
X98584172Y-98125446D01*
X98703512Y-98185956D01*
X98870571Y-98232023D01*
X99113089Y-98266768D01*
X99458807Y-98293316D01*
X99935466Y-98314790D01*
X100396053Y-98329458D01*
X100969318Y-98344278D01*
X101391378Y-98349841D01*
X101690381Y-98344269D01*
X101894475Y-98325680D01*
X102031809Y-98292195D01*
X102130532Y-98241933D01*
X102173159Y-98210753D01*
X102364587Y-98059881D01*
X104654432Y-98059881D01*
X104660253Y-98203342D01*
X104709469Y-98249281D01*
X104831517Y-98283067D01*
X105048505Y-98306336D01*
X105382541Y-98320722D01*
X105855735Y-98327863D01*
X106365003Y-98329458D01*
X108021357Y-98329458D01*
X108302257Y-98093097D01*
X108499201Y-97880655D01*
X108712267Y-97580852D01*
X108844775Y-97352637D01*
X109036427Y-97023039D01*
X109251728Y-96710319D01*
X109383739Y-96549603D01*
X109587120Y-96375060D01*
X109862685Y-96194277D01*
X110163522Y-96031154D01*
X110442715Y-95909594D01*
X110653350Y-95853500D01*
X110730913Y-95863240D01*
X110837363Y-95875370D01*
X111101246Y-95886331D01*
X111500492Y-95895763D01*
X112013032Y-95903304D01*
X112616796Y-95908593D01*
X113289713Y-95911268D01*
X113677956Y-95911496D01*
X114482298Y-95911788D01*
X115129062Y-95914479D01*
X115640169Y-95920708D01*
X116037541Y-95931614D01*
X116343101Y-95948337D01*
X116578770Y-95972015D01*
X116766471Y-96003788D01*
X116928125Y-96044794D01*
X117059873Y-96087225D01*
X117449388Y-96252730D01*
X117821281Y-96465186D01*
X118133504Y-96695176D01*
X118344013Y-96913282D01*
X118404550Y-97028045D01*
X118613260Y-97551457D01*
X118890675Y-97948262D01*
X119010201Y-98058871D01*
X119189164Y-98177235D01*
X119403121Y-98255659D01*
X119703022Y-98307899D01*
X120056792Y-98341469D01*
X120495369Y-98365800D01*
X120944055Y-98375060D01*
X121314543Y-98367632D01*
X121354126Y-98365237D01*
X121741461Y-98344525D01*
X122138827Y-98331608D01*
X122318967Y-98329458D01*
X122580777Y-98321207D01*
X122709570Y-98281363D01*
X122751613Y-98187294D01*
X122754565Y-98116361D01*
X122710156Y-97822477D01*
X122597647Y-97469943D01*
X122448115Y-97141507D01*
X122313083Y-96940848D01*
X122157561Y-96712970D01*
X122080142Y-96534405D01*
X121998133Y-96320707D01*
X121867436Y-96038065D01*
X121800568Y-95906851D01*
X121678296Y-95661810D01*
X121601352Y-95481894D01*
X121587780Y-95430542D01*
X121551805Y-95325297D01*
X121451748Y-95083626D01*
X121299414Y-94731777D01*
X121106609Y-94296002D01*
X120885136Y-93802548D01*
X120646800Y-93277665D01*
X120403406Y-92747603D01*
X120166759Y-92238611D01*
X119948663Y-91776939D01*
X119884431Y-91642886D01*
X119521195Y-90882544D01*
X119237863Y-90277200D01*
X119032310Y-89822185D01*
X118902412Y-89512830D01*
X118855899Y-89382250D01*
X118788794Y-89221023D01*
X118656553Y-88947900D01*
X118481398Y-88607800D01*
X118367498Y-88394971D01*
X118176894Y-88031615D01*
X118016663Y-87703490D01*
X117909244Y-87457690D01*
X117880170Y-87372162D01*
X117803355Y-87162148D01*
X117669849Y-86877304D01*
X117575012Y-86699018D01*
X117412345Y-86386846D01*
X117219682Y-85974768D01*
X116988919Y-85444298D01*
X116711954Y-84776952D01*
X116471967Y-84182822D01*
X116317446Y-83817992D01*
X116113486Y-83365171D01*
X115892756Y-82895993D01*
X115776094Y-82657027D01*
X115582020Y-82259443D01*
X115406464Y-81888262D01*
X115272471Y-81592832D01*
X115215145Y-81455960D01*
X115084073Y-81168858D01*
X114934702Y-80909871D01*
X114930414Y-80903589D01*
X114814342Y-80692839D01*
X114766579Y-80523556D01*
X114688619Y-80300073D01*
X114488740Y-80072675D01*
X114217940Y-79885624D01*
X113927219Y-79783183D01*
X113910719Y-79780756D01*
X113441646Y-79789874D01*
X113062861Y-79953345D01*
X112778342Y-80269011D01*
X112689306Y-80443211D01*
X112596273Y-80648148D01*
X112438104Y-80984555D01*
X112228947Y-81422857D01*
X111982953Y-81933478D01*
X111714270Y-82486843D01*
X111582172Y-82757374D01*
X111270536Y-83402545D01*
X110942248Y-84096346D01*
X110620699Y-84788367D01*
X110329281Y-85428195D01*
X110091386Y-85965419D01*
X110062061Y-86033345D01*
X109799782Y-86631366D01*
X109498741Y-87298490D01*
X109191983Y-87962560D01*
X108912552Y-88551419D01*
X108849554Y-88681048D01*
X108463155Y-89473493D01*
X108153076Y-90114711D01*
X107915014Y-90613858D01*
X107744671Y-90980088D01*
X107637744Y-91222559D01*
X107589935Y-91350426D01*
X107586367Y-91370321D01*
X107545961Y-91511955D01*
X107431335Y-91790543D01*
X107252379Y-92184455D01*
X107018980Y-92672063D01*
X106741026Y-93231739D01*
X106682092Y-93348186D01*
X106433713Y-93857021D01*
X106168867Y-94431366D01*
X105926023Y-94986441D01*
X105800324Y-95291399D01*
X105625189Y-95708827D01*
X105447760Y-96093749D01*
X105291427Y-96397334D01*
X105199294Y-96546100D01*
X105065629Y-96777330D01*
X104927690Y-97095421D01*
X104802097Y-97449275D01*
X104705471Y-97787794D01*
X104654432Y-98059881D01*
X102364587Y-98059881D01*
X102380713Y-98047172D01*
X102380713Y-89185328D01*
X102380263Y-87662385D01*
X102378838Y-86310131D01*
X102376329Y-85119754D01*
X102372626Y-84082441D01*
X102367619Y-83189377D01*
X102361199Y-82431751D01*
X102353256Y-81800749D01*
X102343679Y-81287556D01*
X102332359Y-80883361D01*
X102319187Y-80579350D01*
X102304052Y-80366710D01*
X102286844Y-80236627D01*
X102268522Y-80181547D01*
X102196698Y-80127542D01*
X102061434Y-80085975D01*
X101838058Y-80054083D01*
X101501893Y-80029103D01*
X101028267Y-80008271D01*
X100599117Y-79994601D01*
X99914039Y-79979769D01*
X99386960Y-79982042D01*
X98996905Y-80004715D01*
X98722900Y-80051084D01*
X98543969Y-80124444D01*
X98439140Y-80228092D01*
X98392934Y-80341249D01*
X98380010Y-80487898D01*
X98371933Y-80788838D01*
X98368721Y-81218918D01*
X98370394Y-81752990D01*
X98376970Y-82365903D01*
X98388469Y-83032507D01*
X98390807Y-83144373D01*
X98445977Y-85719211D01*
X98206139Y-86146597D01*
X97868278Y-86581481D01*
X97569397Y-86806584D01*
X97172493Y-87039185D01*
X94862645Y-87048808D01*
X94153401Y-87050976D01*
X93599217Y-87049775D01*
X93175659Y-87043582D01*
X92858291Y-87030777D01*
X92622678Y-87009738D01*
X92444384Y-86978842D01*
X92298974Y-86936468D01*
X92162012Y-86880995D01*
X92132154Y-86867582D01*
X91805331Y-86674659D01*
X91581133Y-86414580D01*
X91509179Y-86287725D01*
X91452578Y-86173277D01*
X91407602Y-86057548D01*
X91372869Y-85919311D01*
X91346998Y-85737342D01*
X91328607Y-85490414D01*
X91316315Y-85157302D01*
X91308742Y-84716781D01*
X91304505Y-84147625D01*
X91302223Y-83428610D01*
X91301554Y-83097171D01*
X91299082Y-82301220D01*
X91294367Y-81665852D01*
X91286460Y-81172147D01*
X91274411Y-80801188D01*
X91257271Y-80534055D01*
X91234089Y-80351831D01*
X91203917Y-80235596D01*
X91165804Y-80166433D01*
X91153776Y-80153121D01*
X91071272Y-80100239D01*
X90926879Y-80059219D01*
X90696351Y-80027548D01*
X90355438Y-80002712D01*
X89879894Y-79982198D01*
X89351317Y-79966270D01*
X88763125Y-79951745D01*
X88326921Y-79945424D01*
X88015300Y-79949225D01*
X87800856Y-79965067D01*
X87656183Y-79994867D01*
X87553875Y-80040542D01*
X87474367Y-80097619D01*
X87257392Y-80273314D01*
X87245902Y-97980260D01*
X86233386Y-97980260D01*
X86197623Y-80154547D01*
X86427131Y-79703459D01*
X86591228Y-79421785D01*
X86769849Y-79242231D01*
X87032566Y-79101503D01*
X87136520Y-79058064D01*
X87311220Y-78991897D01*
X87481058Y-78943477D01*
X87675788Y-78910718D01*
X87925166Y-78891530D01*
X88258948Y-78883826D01*
X88706887Y-78885518D01*
X89298739Y-78894519D01*
X89432746Y-78896934D01*
X90054026Y-78909461D01*
X90523946Y-78923304D01*
X90870645Y-78941564D01*
X91122260Y-78967340D01*
X91306927Y-79003733D01*
X91452786Y-79053841D01*
X91587972Y-79120766D01*
X91618512Y-79137737D01*
X91965432Y-79413576D01*
X92177681Y-79705079D01*
X92230764Y-79813234D01*
X92272946Y-79928156D01*
X92305502Y-80070851D01*
X92329708Y-80262325D01*
X92346840Y-80523584D01*
X92358174Y-80875633D01*
X92364985Y-81339479D01*
X92368550Y-81936126D01*
X92370144Y-82686581D01*
X92370360Y-82877317D01*
X92373293Y-85689839D01*
X92594054Y-85868779D01*
X92680725Y-85930878D01*
X92782476Y-85975543D01*
X92926279Y-86004602D01*
X93139102Y-86019882D01*
X93447915Y-86023213D01*
X93879689Y-86016422D01*
X94461392Y-86001337D01*
X94523736Y-85999587D01*
X95087830Y-85984051D01*
X95615478Y-85970166D01*
X96070434Y-85958836D01*
X96416454Y-85950966D01*
X96610609Y-85947524D01*
X96936272Y-85901337D01*
X97163459Y-85755515D01*
X97176598Y-85741759D01*
X97229960Y-85679560D01*
X97271675Y-85607132D01*
X97302712Y-85504111D01*
X97324038Y-85350130D01*
X97336619Y-85124824D01*
X97341423Y-84807828D01*
X97339417Y-84378777D01*
X97331568Y-83817305D01*
X97318843Y-83103046D01*
X97314056Y-82847236D01*
X97263476Y-80154547D01*
X97510964Y-79664241D01*
X97662353Y-79385969D01*
X97798335Y-79223350D01*
X97975254Y-79127496D01*
X98207215Y-79060142D01*
X98498743Y-79013493D01*
X98951867Y-78978057D01*
X99548974Y-78954765D01*
X100272451Y-78944543D01*
X100406155Y-78944173D01*
X101152303Y-78948117D01*
X101741645Y-78966074D01*
X102196706Y-79004134D01*
X102540009Y-79068383D01*
X102794079Y-79164909D01*
X102981440Y-79299801D01*
X103124616Y-79479147D01*
X103246131Y-79709033D01*
X103247562Y-79712150D01*
X103456188Y-80167280D01*
X103459504Y-89068864D01*
X103460323Y-90316237D01*
X103461800Y-91511655D01*
X103463880Y-92643050D01*
X103466512Y-93698359D01*
X103469640Y-94665514D01*
X103473213Y-95532450D01*
X103477177Y-96287101D01*
X103481479Y-96917402D01*
X103486065Y-97411287D01*
X103490882Y-97756689D01*
X103495878Y-97941543D01*
X103498790Y-97970448D01*
X103539852Y-97891603D01*
X103610061Y-97686833D01*
X103678842Y-97454370D01*
X103912901Y-96733033D01*
X104166310Y-96179996D01*
X104310332Y-95951013D01*
X104430833Y-95743832D01*
X104585528Y-95425401D01*
X104747130Y-95053118D01*
X104801003Y-94918858D01*
X104944326Y-94573394D01*
X105146228Y-94114240D01*
X105385421Y-93588467D01*
X105640614Y-93043141D01*
X105795570Y-92719918D01*
X106025972Y-92239051D01*
X106231456Y-91800326D01*
X106397806Y-91434874D01*
X106510808Y-91173829D01*
X106553697Y-91059494D01*
X106619306Y-90879551D01*
X106741454Y-90587709D01*
X106897930Y-90233377D01*
X107066525Y-89865967D01*
X107225026Y-89534887D01*
X107340421Y-89309317D01*
X107437914Y-89119615D01*
X107602356Y-88788174D01*
X107823735Y-88335421D01*
X108092038Y-87781787D01*
X108264242Y-87424511D01*
X108370741Y-87195217D01*
X108532111Y-86837792D01*
X108732017Y-86388885D01*
X108954124Y-85885145D01*
X109145713Y-85446868D01*
X109400445Y-84873533D01*
X109709841Y-84195686D01*
X110047907Y-83469180D01*
X110388649Y-82749865D01*
X110706074Y-82093594D01*
X110712178Y-82081143D01*
X110975172Y-81539913D01*
X111213060Y-81040835D01*
X111413586Y-80610396D01*
X111564492Y-80275084D01*
X111653520Y-80061387D01*
X111670605Y-80010073D01*
X111814893Y-79720515D01*
X112087282Y-79412944D01*
X112444817Y-79123768D01*
X112844542Y-78889395D01*
X113124106Y-78778162D01*
X113424464Y-78689757D01*
X113641055Y-78652050D01*
X113847863Y-78664752D01*
G36*
X169878441Y-78922118D02*
G01*
X170204059Y-78940426D01*
X170455895Y-78973284D01*
X170669164Y-79023713D01*
X170861985Y-79088372D01*
X171169384Y-79220656D01*
X171371925Y-79373622D01*
X171540008Y-79606781D01*
X171600630Y-79712757D01*
X171680238Y-79866022D01*
X171742796Y-80020946D01*
X171790284Y-80200538D01*
X171824680Y-80427810D01*
X171847962Y-80725774D01*
X171862109Y-81117439D01*
X171869098Y-81625818D01*
X171870908Y-82273921D01*
X171870099Y-82847126D01*
X171869614Y-83228729D01*
X171869477Y-83767248D01*
X171869660Y-84440095D01*
X171870132Y-85224680D01*
X171870865Y-86098416D01*
X171871828Y-87038713D01*
X171872992Y-88022983D01*
X171874327Y-89028637D01*
X171875804Y-90033087D01*
X171877393Y-91013743D01*
X171879065Y-91948018D01*
X171880790Y-92813322D01*
X171882538Y-93587067D01*
X171884281Y-94246665D01*
X171885554Y-94649600D01*
X171886499Y-95330554D01*
X171884753Y-95981717D01*
X171880601Y-96572777D01*
X171874326Y-97073421D01*
X171866213Y-97453335D01*
X171857178Y-97673108D01*
X171740637Y-98272029D01*
X171477787Y-98767079D01*
X171068843Y-99157902D01*
X170891494Y-99269856D01*
X170458098Y-99515483D01*
X168663045Y-99454471D01*
X167946581Y-99425753D01*
X167385514Y-99388819D01*
X166955733Y-99335698D01*
X166633129Y-99258423D01*
X166393595Y-99149023D01*
X166213019Y-98999528D01*
X166067294Y-98801971D01*
X165934289Y-98552465D01*
X165872047Y-98419396D01*
X165822859Y-98291081D01*
X165785039Y-98145124D01*
X165756902Y-97959128D01*
X165736763Y-97710694D01*
X165722934Y-97377426D01*
X165713730Y-96936926D01*
X165707466Y-96366798D01*
X165702455Y-95644644D01*
X165701319Y-95457374D01*
X165696021Y-94577119D01*
X165691047Y-93858808D01*
X165685325Y-93284886D01*
X165677786Y-92837796D01*
X165667357Y-92499982D01*
X165652968Y-92253890D01*
X165633548Y-92081962D01*
X165608026Y-91966644D01*
X165575330Y-91890378D01*
X165534391Y-91835611D01*
X165484136Y-91784785D01*
X165476826Y-91777515D01*
X165410325Y-91720386D01*
X165324348Y-91676832D01*
X165195604Y-91645023D01*
X165000801Y-91623125D01*
X164716647Y-91609308D01*
X164319851Y-91601739D01*
X163787120Y-91598586D01*
X163194545Y-91598010D01*
X162511193Y-91599521D01*
X161985360Y-91604976D01*
X161595076Y-91615755D01*
X161318371Y-91633240D01*
X161133277Y-91658811D01*
X161017826Y-91693849D01*
X160950728Y-91739049D01*
X160834900Y-91896957D01*
X160805540Y-91985869D01*
X160804536Y-92097940D01*
X160803581Y-92367890D01*
X160802706Y-92774097D01*
X160801946Y-93294935D01*
X160801334Y-93908779D01*
X160800902Y-94594005D01*
X160800720Y-95129256D01*
X160799395Y-96044962D01*
X160793676Y-96798916D01*
X160780277Y-97408868D01*
X160755915Y-97892568D01*
X160717305Y-98267764D01*
X160661163Y-98552207D01*
X160584204Y-98763647D01*
X160483144Y-98919833D01*
X160354699Y-99038516D01*
X160195584Y-99137444D01*
X160044919Y-99213845D01*
X159886884Y-99285863D01*
X159730995Y-99339738D01*
X159548241Y-99378390D01*
X159309609Y-99404735D01*
X158986089Y-99421693D01*
X158548668Y-99432182D01*
X157968335Y-99439119D01*
X157789517Y-99440709D01*
X157154676Y-99444409D01*
X156669678Y-99441779D01*
X156304912Y-99430748D01*
X156030767Y-99409244D01*
X155817630Y-99375193D01*
X155635890Y-99326524D01*
X155507086Y-99280975D01*
X155216057Y-99151159D01*
X155033549Y-99000947D01*
X154893007Y-98770307D01*
X154857570Y-98695101D01*
X154818969Y-98606475D01*
X154785984Y-98512665D01*
X154758122Y-98399446D01*
X154734888Y-98252594D01*
X154715789Y-98057886D01*
X154700331Y-97801095D01*
X154688018Y-97468000D01*
X154678357Y-97044374D01*
X154670854Y-96515995D01*
X154665014Y-95868637D01*
X154660343Y-95088077D01*
X154656347Y-94160091D01*
X154652533Y-93070454D01*
X154651528Y-92764794D01*
X154648016Y-91753705D01*
X154644201Y-90771234D01*
X154640183Y-89836389D01*
X154636061Y-88968182D01*
X154631937Y-88185621D01*
X154627908Y-87507718D01*
X154624076Y-86953481D01*
X154620540Y-86541921D01*
X154617584Y-86302603D01*
X154615255Y-85821329D01*
X155676130Y-85821329D01*
X155676678Y-85943593D01*
X155677747Y-86070569D01*
X155678984Y-86361305D01*
X155680355Y-86800057D01*
X155681826Y-87371081D01*
X155683361Y-88058630D01*
X155684927Y-88846960D01*
X155686489Y-89720328D01*
X155688012Y-90662987D01*
X155689462Y-91659193D01*
X155689866Y-91957020D01*
X155691988Y-92966834D01*
X155695512Y-93928438D01*
X155700283Y-94825987D01*
X155706146Y-95643635D01*
X155712944Y-96365537D01*
X155720525Y-96975848D01*
X155728731Y-97458722D01*
X155737409Y-97798313D01*
X155746402Y-97978776D01*
X155749011Y-97998905D01*
X155840368Y-98204481D01*
X155966108Y-98313039D01*
X156105616Y-98332168D01*
X156393045Y-98348204D01*
X156796827Y-98360200D01*
X157285389Y-98367209D01*
X157809195Y-98368351D01*
X158401925Y-98364846D01*
X158840721Y-98357542D01*
X159151148Y-98343994D01*
X159358770Y-98321758D01*
X159489154Y-98288392D01*
X159567864Y-98241452D01*
X159607964Y-98196419D01*
X159641438Y-98116946D01*
X159668340Y-97968811D01*
X159689232Y-97735858D01*
X159704674Y-97401932D01*
X159715227Y-96950875D01*
X159721452Y-96366533D01*
X159723910Y-95632748D01*
X159723440Y-94870325D01*
X159722294Y-94031144D01*
X159722964Y-93351881D01*
X159726455Y-92812951D01*
X159733773Y-92394768D01*
X159745922Y-92077748D01*
X159763910Y-91842304D01*
X159788740Y-91668852D01*
X159821418Y-91537805D01*
X159862950Y-91429580D01*
X159904468Y-91343833D01*
X160182704Y-90975747D01*
X160480850Y-90749231D01*
X160870336Y-90520978D01*
X165495247Y-90520978D01*
X165925370Y-90762762D01*
X166274808Y-91013447D01*
X166513575Y-91331997D01*
X166555755Y-91413468D01*
X166609736Y-91529725D01*
X166653227Y-91648359D01*
X166687528Y-91789633D01*
X166713940Y-91973806D01*
X166733762Y-92221140D01*
X166748296Y-92551896D01*
X166758840Y-92986335D01*
X166766696Y-93544716D01*
X166773163Y-94247302D01*
X166777834Y-94873981D01*
X166784825Y-95601908D01*
X166794721Y-96276452D01*
X166806935Y-96875633D01*
X166820883Y-97377469D01*
X166835977Y-97759980D01*
X166851632Y-98001184D01*
X166863200Y-98075699D01*
X166907321Y-98158169D01*
X166976720Y-98220809D01*
X167095983Y-98267667D01*
X167289695Y-98302790D01*
X167582442Y-98330225D01*
X167998809Y-98354019D01*
X168563381Y-98378220D01*
X168744154Y-98385339D01*
X170304595Y-98446245D01*
X170529028Y-98221812D01*
X170635781Y-98095794D01*
X170708682Y-97944286D01*
X170758824Y-97724974D01*
X170797300Y-97395547D01*
X170820817Y-97108825D01*
X170835707Y-96791281D01*
X170845038Y-96325663D01*
X170848803Y-95743312D01*
X170846993Y-95075574D01*
X170839600Y-94353793D01*
X170826616Y-93609311D01*
X170821790Y-93393063D01*
X170806792Y-92612009D01*
X170794786Y-91696783D01*
X170786027Y-90692700D01*
X170780767Y-89645073D01*
X170779261Y-88599214D01*
X170781762Y-87600436D01*
X170785844Y-86975748D01*
X170792292Y-86159579D01*
X170797609Y-85373961D01*
X170801697Y-84642941D01*
X170804457Y-83990566D01*
X170805791Y-83440883D01*
X170805602Y-83017939D01*
X170803791Y-82745782D01*
X170803244Y-82712497D01*
X170795983Y-82301377D01*
X170788159Y-81801062D01*
X170781162Y-81301849D01*
X170779424Y-81165156D01*
X170771386Y-80772777D01*
X170743285Y-80477543D01*
X170672661Y-80265959D01*
X170537050Y-80124530D01*
X170313991Y-80039761D01*
X169981022Y-79998157D01*
X169515681Y-79986224D01*
X168895505Y-79990465D01*
X168825474Y-79991244D01*
X168151116Y-80005973D01*
X167646492Y-80033717D01*
X167302251Y-80075216D01*
X167117604Y-80126923D01*
X166867992Y-80246400D01*
X166804960Y-82982805D01*
X166786890Y-83755170D01*
X166770853Y-84369950D01*
X166754786Y-84849019D01*
X166736628Y-85214253D01*
X166714318Y-85487524D01*
X166685794Y-85690707D01*
X166648993Y-85845677D01*
X166601854Y-85974307D01*
X166542315Y-86098472D01*
X166504447Y-86171052D01*
X166220139Y-86579745D01*
X165929700Y-86816998D01*
X165817760Y-86876668D01*
X165699145Y-86922738D01*
X165550060Y-86957004D01*
X165346713Y-86981263D01*
X165065311Y-86997309D01*
X164682061Y-87006938D01*
X164173169Y-87011947D01*
X163514844Y-87014130D01*
X163313252Y-87014461D01*
X162606718Y-87014591D01*
X162054590Y-87011511D01*
X161631776Y-87003511D01*
X161313183Y-86988884D01*
X161073718Y-86965922D01*
X160888288Y-86932917D01*
X160731801Y-86888160D01*
X160579164Y-86829945D01*
X160574545Y-86828039D01*
X160301608Y-86700314D01*
X160129423Y-86560143D01*
X159999096Y-86347141D01*
X159912192Y-86148903D01*
X159840160Y-85965542D01*
X159788835Y-85795179D01*
X159755947Y-85605612D01*
X159739229Y-85364641D01*
X159736409Y-85040062D01*
X159745221Y-84599675D01*
X159762814Y-84028954D01*
X159777215Y-83405091D01*
X159782045Y-82748515D01*
X159777538Y-82118487D01*
X159763933Y-81574265D01*
X159752022Y-81322231D01*
X159723505Y-80867980D01*
X159696422Y-80559720D01*
X159662067Y-80364225D01*
X159611731Y-80248268D01*
X159536708Y-80178621D01*
X159438843Y-80127096D01*
X159239925Y-80072225D01*
X158901999Y-80035087D01*
X158411171Y-80014655D01*
X157848171Y-80009672D01*
X157106992Y-80023494D01*
X156534619Y-80063989D01*
X156122131Y-80132624D01*
X155860605Y-80230864D01*
X155742711Y-80355868D01*
X155727252Y-80484401D01*
X155715099Y-80761120D01*
X155706925Y-81154724D01*
X155703406Y-81633913D01*
X155704799Y-82115682D01*
X155707609Y-82729819D01*
X155707377Y-83367307D01*
X155704333Y-83971876D01*
X155698707Y-84487252D01*
X155694148Y-84731932D01*
X155685193Y-85158156D01*
X155678957Y-85537300D01*
X155676130Y-85821329D01*
X154615255Y-85821329D01*
X154615211Y-85812444D01*
X154622332Y-85298470D01*
X154637467Y-84843604D01*
X154646516Y-84680037D01*
X154660847Y-84225491D01*
X154653953Y-83710996D01*
X154630276Y-83288871D01*
X154610797Y-82921139D01*
X154602131Y-82435568D01*
X154604600Y-81893516D01*
X154618528Y-81356341D01*
X154619908Y-81321331D01*
X154642660Y-80813857D01*
X154667608Y-80448790D01*
X154701362Y-80189084D01*
X154750534Y-79997696D01*
X154821736Y-79837580D01*
X154911523Y-79687393D01*
X155068039Y-79471957D01*
X155239961Y-79326933D01*
X155485932Y-79212933D01*
X155746688Y-79126439D01*
X155999282Y-79056310D01*
X156254900Y-79006610D01*
X156550598Y-78974271D01*
X156923432Y-78956225D01*
X157410459Y-78949405D01*
X157879743Y-78949842D01*
X158594988Y-78959721D01*
X159155945Y-78986811D01*
X159587543Y-79038152D01*
X159914712Y-79120783D01*
X160162382Y-79241745D01*
X160355480Y-79408076D01*
X160518937Y-79626816D01*
X160569214Y-79709302D01*
X160826688Y-80147531D01*
X160831817Y-82918150D01*
X160834624Y-83722908D01*
X160840290Y-84366006D01*
X160849629Y-84865279D01*
X160863457Y-85238560D01*
X160882590Y-85503685D01*
X160907844Y-85678487D01*
X160940033Y-85780800D01*
X160964357Y-85816181D01*
X161037714Y-85857841D01*
X161177484Y-85889777D01*
X161403910Y-85913123D01*
X161737238Y-85929015D01*
X162197712Y-85938588D01*
X162805578Y-85942976D01*
X163237352Y-85943593D01*
X165382935Y-85943593D01*
X165524521Y-85727506D01*
X165567224Y-85636861D01*
X165601975Y-85495537D01*
X165630079Y-85283730D01*
X165652841Y-84981637D01*
X165671566Y-84569457D01*
X165687559Y-84027386D01*
X165702125Y-83335622D01*
X165709359Y-82922735D01*
X165724685Y-82117975D01*
X165742226Y-81467369D01*
X165763955Y-80945566D01*
X165791845Y-80527216D01*
X165827869Y-80186967D01*
X165873997Y-79899469D01*
X165932205Y-79639370D01*
X165977904Y-79471416D01*
X166089314Y-79365049D01*
X166353224Y-79241189D01*
X166690602Y-79127583D01*
X166979916Y-79049548D01*
X167265243Y-78993742D01*
X167586630Y-78956287D01*
X167984127Y-78933308D01*
X168497779Y-78920927D01*
X168865008Y-78917071D01*
X169443828Y-78915340D01*
X169878441Y-78922118D01*
G37*
X169878441Y-78922118D02*
X170204059Y-78940426D01*
X170455895Y-78973284D01*
X170669164Y-79023713D01*
X170861985Y-79088372D01*
X171169384Y-79220656D01*
X171371925Y-79373622D01*
X171540008Y-79606781D01*
X171600630Y-79712757D01*
X171680238Y-79866022D01*
X171742796Y-80020946D01*
X171790284Y-80200538D01*
X171824680Y-80427810D01*
X171847962Y-80725774D01*
X171862109Y-81117439D01*
X171869098Y-81625818D01*
X171870908Y-82273921D01*
X171870099Y-82847126D01*
X171869614Y-83228729D01*
X171869477Y-83767248D01*
X171869660Y-84440095D01*
X171870132Y-85224680D01*
X171870865Y-86098416D01*
X171871828Y-87038713D01*
X171872992Y-88022983D01*
X171874327Y-89028637D01*
X171875804Y-90033087D01*
X171877393Y-91013743D01*
X171879065Y-91948018D01*
X171880790Y-92813322D01*
X171882538Y-93587067D01*
X171884281Y-94246665D01*
X171885554Y-94649600D01*
X171886499Y-95330554D01*
X171884753Y-95981717D01*
X171880601Y-96572777D01*
X171874326Y-97073421D01*
X171866213Y-97453335D01*
X171857178Y-97673108D01*
X171740637Y-98272029D01*
X171477787Y-98767079D01*
X171068843Y-99157902D01*
X170891494Y-99269856D01*
X170458098Y-99515483D01*
X168663045Y-99454471D01*
X167946581Y-99425753D01*
X167385514Y-99388819D01*
X166955733Y-99335698D01*
X166633129Y-99258423D01*
X166393595Y-99149023D01*
X166213019Y-98999528D01*
X166067294Y-98801971D01*
X165934289Y-98552465D01*
X165872047Y-98419396D01*
X165822859Y-98291081D01*
X165785039Y-98145124D01*
X165756902Y-97959128D01*
X165736763Y-97710694D01*
X165722934Y-97377426D01*
X165713730Y-96936926D01*
X165707466Y-96366798D01*
X165702455Y-95644644D01*
X165701319Y-95457374D01*
X165696021Y-94577119D01*
X165691047Y-93858808D01*
X165685325Y-93284886D01*
X165677786Y-92837796D01*
X165667357Y-92499982D01*
X165652968Y-92253890D01*
X165633548Y-92081962D01*
X165608026Y-91966644D01*
X165575330Y-91890378D01*
X165534391Y-91835611D01*
X165484136Y-91784785D01*
X165476826Y-91777515D01*
X165410325Y-91720386D01*
X165324348Y-91676832D01*
X165195604Y-91645023D01*
X165000801Y-91623125D01*
X164716647Y-91609308D01*
X164319851Y-91601739D01*
X163787120Y-91598586D01*
X163194545Y-91598010D01*
X162511193Y-91599521D01*
X161985360Y-91604976D01*
X161595076Y-91615755D01*
X161318371Y-91633240D01*
X161133277Y-91658811D01*
X161017826Y-91693849D01*
X160950728Y-91739049D01*
X160834900Y-91896957D01*
X160805540Y-91985869D01*
X160804536Y-92097940D01*
X160803581Y-92367890D01*
X160802706Y-92774097D01*
X160801946Y-93294935D01*
X160801334Y-93908779D01*
X160800902Y-94594005D01*
X160800720Y-95129256D01*
X160799395Y-96044962D01*
X160793676Y-96798916D01*
X160780277Y-97408868D01*
X160755915Y-97892568D01*
X160717305Y-98267764D01*
X160661163Y-98552207D01*
X160584204Y-98763647D01*
X160483144Y-98919833D01*
X160354699Y-99038516D01*
X160195584Y-99137444D01*
X160044919Y-99213845D01*
X159886884Y-99285863D01*
X159730995Y-99339738D01*
X159548241Y-99378390D01*
X159309609Y-99404735D01*
X158986089Y-99421693D01*
X158548668Y-99432182D01*
X157968335Y-99439119D01*
X157789517Y-99440709D01*
X157154676Y-99444409D01*
X156669678Y-99441779D01*
X156304912Y-99430748D01*
X156030767Y-99409244D01*
X155817630Y-99375193D01*
X155635890Y-99326524D01*
X155507086Y-99280975D01*
X155216057Y-99151159D01*
X155033549Y-99000947D01*
X154893007Y-98770307D01*
X154857570Y-98695101D01*
X154818969Y-98606475D01*
X154785984Y-98512665D01*
X154758122Y-98399446D01*
X154734888Y-98252594D01*
X154715789Y-98057886D01*
X154700331Y-97801095D01*
X154688018Y-97468000D01*
X154678357Y-97044374D01*
X154670854Y-96515995D01*
X154665014Y-95868637D01*
X154660343Y-95088077D01*
X154656347Y-94160091D01*
X154652533Y-93070454D01*
X154651528Y-92764794D01*
X154648016Y-91753705D01*
X154644201Y-90771234D01*
X154640183Y-89836389D01*
X154636061Y-88968182D01*
X154631937Y-88185621D01*
X154627908Y-87507718D01*
X154624076Y-86953481D01*
X154620540Y-86541921D01*
X154617584Y-86302603D01*
X154615255Y-85821329D01*
X155676130Y-85821329D01*
X155676678Y-85943593D01*
X155677747Y-86070569D01*
X155678984Y-86361305D01*
X155680355Y-86800057D01*
X155681826Y-87371081D01*
X155683361Y-88058630D01*
X155684927Y-88846960D01*
X155686489Y-89720328D01*
X155688012Y-90662987D01*
X155689462Y-91659193D01*
X155689866Y-91957020D01*
X155691988Y-92966834D01*
X155695512Y-93928438D01*
X155700283Y-94825987D01*
X155706146Y-95643635D01*
X155712944Y-96365537D01*
X155720525Y-96975848D01*
X155728731Y-97458722D01*
X155737409Y-97798313D01*
X155746402Y-97978776D01*
X155749011Y-97998905D01*
X155840368Y-98204481D01*
X155966108Y-98313039D01*
X156105616Y-98332168D01*
X156393045Y-98348204D01*
X156796827Y-98360200D01*
X157285389Y-98367209D01*
X157809195Y-98368351D01*
X158401925Y-98364846D01*
X158840721Y-98357542D01*
X159151148Y-98343994D01*
X159358770Y-98321758D01*
X159489154Y-98288392D01*
X159567864Y-98241452D01*
X159607964Y-98196419D01*
X159641438Y-98116946D01*
X159668340Y-97968811D01*
X159689232Y-97735858D01*
X159704674Y-97401932D01*
X159715227Y-96950875D01*
X159721452Y-96366533D01*
X159723910Y-95632748D01*
X159723440Y-94870325D01*
X159722294Y-94031144D01*
X159722964Y-93351881D01*
X159726455Y-92812951D01*
X159733773Y-92394768D01*
X159745922Y-92077748D01*
X159763910Y-91842304D01*
X159788740Y-91668852D01*
X159821418Y-91537805D01*
X159862950Y-91429580D01*
X159904468Y-91343833D01*
X160182704Y-90975747D01*
X160480850Y-90749231D01*
X160870336Y-90520978D01*
X165495247Y-90520978D01*
X165925370Y-90762762D01*
X166274808Y-91013447D01*
X166513575Y-91331997D01*
X166555755Y-91413468D01*
X166609736Y-91529725D01*
X166653227Y-91648359D01*
X166687528Y-91789633D01*
X166713940Y-91973806D01*
X166733762Y-92221140D01*
X166748296Y-92551896D01*
X166758840Y-92986335D01*
X166766696Y-93544716D01*
X166773163Y-94247302D01*
X166777834Y-94873981D01*
X166784825Y-95601908D01*
X166794721Y-96276452D01*
X166806935Y-96875633D01*
X166820883Y-97377469D01*
X166835977Y-97759980D01*
X166851632Y-98001184D01*
X166863200Y-98075699D01*
X166907321Y-98158169D01*
X166976720Y-98220809D01*
X167095983Y-98267667D01*
X167289695Y-98302790D01*
X167582442Y-98330225D01*
X167998809Y-98354019D01*
X168563381Y-98378220D01*
X168744154Y-98385339D01*
X170304595Y-98446245D01*
X170529028Y-98221812D01*
X170635781Y-98095794D01*
X170708682Y-97944286D01*
X170758824Y-97724974D01*
X170797300Y-97395547D01*
X170820817Y-97108825D01*
X170835707Y-96791281D01*
X170845038Y-96325663D01*
X170848803Y-95743312D01*
X170846993Y-95075574D01*
X170839600Y-94353793D01*
X170826616Y-93609311D01*
X170821790Y-93393063D01*
X170806792Y-92612009D01*
X170794786Y-91696783D01*
X170786027Y-90692700D01*
X170780767Y-89645073D01*
X170779261Y-88599214D01*
X170781762Y-87600436D01*
X170785844Y-86975748D01*
X170792292Y-86159579D01*
X170797609Y-85373961D01*
X170801697Y-84642941D01*
X170804457Y-83990566D01*
X170805791Y-83440883D01*
X170805602Y-83017939D01*
X170803791Y-82745782D01*
X170803244Y-82712497D01*
X170795983Y-82301377D01*
X170788159Y-81801062D01*
X170781162Y-81301849D01*
X170779424Y-81165156D01*
X170771386Y-80772777D01*
X170743285Y-80477543D01*
X170672661Y-80265959D01*
X170537050Y-80124530D01*
X170313991Y-80039761D01*
X169981022Y-79998157D01*
X169515681Y-79986224D01*
X168895505Y-79990465D01*
X168825474Y-79991244D01*
X168151116Y-80005973D01*
X167646492Y-80033717D01*
X167302251Y-80075216D01*
X167117604Y-80126923D01*
X166867992Y-80246400D01*
X166804960Y-82982805D01*
X166786890Y-83755170D01*
X166770853Y-84369950D01*
X166754786Y-84849019D01*
X166736628Y-85214253D01*
X166714318Y-85487524D01*
X166685794Y-85690707D01*
X166648993Y-85845677D01*
X166601854Y-85974307D01*
X166542315Y-86098472D01*
X166504447Y-86171052D01*
X166220139Y-86579745D01*
X165929700Y-86816998D01*
X165817760Y-86876668D01*
X165699145Y-86922738D01*
X165550060Y-86957004D01*
X165346713Y-86981263D01*
X165065311Y-86997309D01*
X164682061Y-87006938D01*
X164173169Y-87011947D01*
X163514844Y-87014130D01*
X163313252Y-87014461D01*
X162606718Y-87014591D01*
X162054590Y-87011511D01*
X161631776Y-87003511D01*
X161313183Y-86988884D01*
X161073718Y-86965922D01*
X160888288Y-86932917D01*
X160731801Y-86888160D01*
X160579164Y-86829945D01*
X160574545Y-86828039D01*
X160301608Y-86700314D01*
X160129423Y-86560143D01*
X159999096Y-86347141D01*
X159912192Y-86148903D01*
X159840160Y-85965542D01*
X159788835Y-85795179D01*
X159755947Y-85605612D01*
X159739229Y-85364641D01*
X159736409Y-85040062D01*
X159745221Y-84599675D01*
X159762814Y-84028954D01*
X159777215Y-83405091D01*
X159782045Y-82748515D01*
X159777538Y-82118487D01*
X159763933Y-81574265D01*
X159752022Y-81322231D01*
X159723505Y-80867980D01*
X159696422Y-80559720D01*
X159662067Y-80364225D01*
X159611731Y-80248268D01*
X159536708Y-80178621D01*
X159438843Y-80127096D01*
X159239925Y-80072225D01*
X158901999Y-80035087D01*
X158411171Y-80014655D01*
X157848171Y-80009672D01*
X157106992Y-80023494D01*
X156534619Y-80063989D01*
X156122131Y-80132624D01*
X155860605Y-80230864D01*
X155742711Y-80355868D01*
X155727252Y-80484401D01*
X155715099Y-80761120D01*
X155706925Y-81154724D01*
X155703406Y-81633913D01*
X155704799Y-82115682D01*
X155707609Y-82729819D01*
X155707377Y-83367307D01*
X155704333Y-83971876D01*
X155698707Y-84487252D01*
X155694148Y-84731932D01*
X155685193Y-85158156D01*
X155678957Y-85537300D01*
X155676130Y-85821329D01*
X154615255Y-85821329D01*
X154615211Y-85812444D01*
X154622332Y-85298470D01*
X154637467Y-84843604D01*
X154646516Y-84680037D01*
X154660847Y-84225491D01*
X154653953Y-83710996D01*
X154630276Y-83288871D01*
X154610797Y-82921139D01*
X154602131Y-82435568D01*
X154604600Y-81893516D01*
X154618528Y-81356341D01*
X154619908Y-81321331D01*
X154642660Y-80813857D01*
X154667608Y-80448790D01*
X154701362Y-80189084D01*
X154750534Y-79997696D01*
X154821736Y-79837580D01*
X154911523Y-79687393D01*
X155068039Y-79471957D01*
X155239961Y-79326933D01*
X155485932Y-79212933D01*
X155746688Y-79126439D01*
X155999282Y-79056310D01*
X156254900Y-79006610D01*
X156550598Y-78974271D01*
X156923432Y-78956225D01*
X157410459Y-78949405D01*
X157879743Y-78949842D01*
X158594988Y-78959721D01*
X159155945Y-78986811D01*
X159587543Y-79038152D01*
X159914712Y-79120783D01*
X160162382Y-79241745D01*
X160355480Y-79408076D01*
X160518937Y-79626816D01*
X160569214Y-79709302D01*
X160826688Y-80147531D01*
X160831817Y-82918150D01*
X160834624Y-83722908D01*
X160840290Y-84366006D01*
X160849629Y-84865279D01*
X160863457Y-85238560D01*
X160882590Y-85503685D01*
X160907844Y-85678487D01*
X160940033Y-85780800D01*
X160964357Y-85816181D01*
X161037714Y-85857841D01*
X161177484Y-85889777D01*
X161403910Y-85913123D01*
X161737238Y-85929015D01*
X162197712Y-85938588D01*
X162805578Y-85942976D01*
X163237352Y-85943593D01*
X165382935Y-85943593D01*
X165524521Y-85727506D01*
X165567224Y-85636861D01*
X165601975Y-85495537D01*
X165630079Y-85283730D01*
X165652841Y-84981637D01*
X165671566Y-84569457D01*
X165687559Y-84027386D01*
X165702125Y-83335622D01*
X165709359Y-82922735D01*
X165724685Y-82117975D01*
X165742226Y-81467369D01*
X165763955Y-80945566D01*
X165791845Y-80527216D01*
X165827869Y-80186967D01*
X165873997Y-79899469D01*
X165932205Y-79639370D01*
X165977904Y-79471416D01*
X166089314Y-79365049D01*
X166353224Y-79241189D01*
X166690602Y-79127583D01*
X166979916Y-79049548D01*
X167265243Y-78993742D01*
X167586630Y-78956287D01*
X167984127Y-78933308D01*
X168497779Y-78920927D01*
X168865008Y-78917071D01*
X169443828Y-78915340D01*
X169878441Y-78922118D01*
G36*
X182271223Y-78662856D02*
G01*
X182532626Y-78720623D01*
X182751851Y-78780035D01*
X183125458Y-78898294D01*
X183388300Y-79030090D01*
X183607409Y-79213667D01*
X183715225Y-79329707D01*
X183899060Y-79550511D01*
X184021556Y-79722531D01*
X184051798Y-79788443D01*
X184068124Y-79852565D01*
X184118472Y-79980578D01*
X184210085Y-80188064D01*
X184350207Y-80490608D01*
X184546081Y-80903792D01*
X184804952Y-81443199D01*
X185134061Y-82124412D01*
X185223275Y-82308610D01*
X185439171Y-82760153D01*
X185629910Y-83170212D01*
X185779996Y-83504623D01*
X185873932Y-83729220D01*
X185894964Y-83789529D01*
X185966057Y-83990701D01*
X186098262Y-84318126D01*
X186275936Y-84735790D01*
X186483435Y-85207679D01*
X186705114Y-85697778D01*
X186925331Y-86170074D01*
X186967104Y-86257727D01*
X187375346Y-87112101D01*
X187717098Y-87830479D01*
X188004235Y-88438359D01*
X188248632Y-88961241D01*
X188462162Y-89424625D01*
X188656702Y-89854010D01*
X188844124Y-90274897D01*
X188952412Y-90520978D01*
X189118786Y-90887578D01*
X189277279Y-91214699D01*
X189402219Y-91450141D01*
X189437923Y-91508257D01*
X189575741Y-91753212D01*
X189700953Y-92036427D01*
X189704804Y-92046773D01*
X189806428Y-92299026D01*
X189951176Y-92631136D01*
X190074236Y-92899423D01*
X190225185Y-93226686D01*
X190415418Y-93648594D01*
X190613367Y-94094861D01*
X190699028Y-94290589D01*
X191002520Y-94982278D01*
X191251599Y-95538479D01*
X191442149Y-95950187D01*
X191570051Y-96208398D01*
X191601820Y-96265147D01*
X191889058Y-96793552D01*
X192085698Y-97288937D01*
X192167344Y-97571944D01*
X192243794Y-97929402D01*
X192256134Y-98219510D01*
X192207049Y-98541534D01*
X192195051Y-98596503D01*
X192123283Y-98880556D01*
X192037295Y-99046695D01*
X191888185Y-99153126D01*
X191644772Y-99251484D01*
X191458089Y-99310864D01*
X191244681Y-99354335D01*
X190974266Y-99384192D01*
X190616561Y-99402730D01*
X190141282Y-99412245D01*
X189518147Y-99415034D01*
X189487290Y-99415038D01*
X188876897Y-99413338D01*
X188415359Y-99406442D01*
X188072040Y-99391660D01*
X187816306Y-99366301D01*
X187617523Y-99327673D01*
X187445056Y-99273084D01*
X187326570Y-99225214D01*
X187026593Y-99076811D01*
X186764483Y-98913652D01*
X186671355Y-98839491D01*
X186437196Y-98583002D01*
X186198165Y-98259295D01*
X185999987Y-97935409D01*
X185894974Y-97701190D01*
X185767480Y-97471886D01*
X185638710Y-97342179D01*
X185498270Y-97248726D01*
X185348718Y-97173219D01*
X185170071Y-97113769D01*
X184942348Y-97068490D01*
X184645568Y-97035492D01*
X184259748Y-97012888D01*
X183764906Y-96998790D01*
X183141062Y-96991310D01*
X182368233Y-96988559D01*
X181894282Y-96988372D01*
X178939261Y-96989059D01*
X178638699Y-97252956D01*
X178435586Y-97483409D01*
X178226838Y-97801150D01*
X178103087Y-98040616D01*
X177810593Y-98516654D01*
X177406726Y-98932552D01*
X176938310Y-99248680D01*
X176471526Y-99421482D01*
X176328635Y-99430372D01*
X176037393Y-99432711D01*
X175628826Y-99428808D01*
X175133955Y-99418974D01*
X174583806Y-99403519D01*
X174541844Y-99402164D01*
X173887201Y-99375048D01*
X173323628Y-99340185D01*
X172875846Y-99299633D01*
X172568573Y-99255453D01*
X172464795Y-99229091D01*
X172275001Y-99147093D01*
X172160908Y-99035782D01*
X172085137Y-98841510D01*
X172030166Y-98605294D01*
X171981340Y-98332316D01*
X171974029Y-98162788D01*
X173045616Y-98162788D01*
X173052444Y-98205091D01*
X173102526Y-98250042D01*
X173227746Y-98283250D01*
X173449662Y-98306253D01*
X173789829Y-98320588D01*
X174269804Y-98327792D01*
X174796181Y-98329458D01*
X175442854Y-98327564D01*
X175937220Y-98315009D01*
X176306477Y-98281482D01*
X176577822Y-98216672D01*
X176778454Y-98110270D01*
X176935569Y-97951965D01*
X177076367Y-97731447D01*
X177228045Y-97438405D01*
X177247023Y-97400375D01*
X177436752Y-97060870D01*
X177649385Y-96740689D01*
X177804666Y-96548015D01*
X178010219Y-96372110D01*
X178285371Y-96190692D01*
X178583228Y-96027982D01*
X178856893Y-95908207D01*
X179059470Y-95855591D01*
X179126023Y-95865460D01*
X179231571Y-95877047D01*
X179494589Y-95887513D01*
X179893042Y-95896515D01*
X180404897Y-95903708D01*
X181008121Y-95908747D01*
X181680679Y-95911287D01*
X182069475Y-95911496D01*
X182875304Y-95911833D01*
X183523461Y-95914643D01*
X184035775Y-95921039D01*
X184434072Y-95932133D01*
X184740182Y-95949039D01*
X184975932Y-95972869D01*
X185163152Y-96004736D01*
X185323668Y-96045753D01*
X185440044Y-96083321D01*
X186065899Y-96359536D01*
X186527100Y-96700339D01*
X186821916Y-97104318D01*
X186885820Y-97261420D01*
X187065193Y-97624843D01*
X187329256Y-97951439D01*
X187630774Y-98191130D01*
X187849320Y-98282896D01*
X188098133Y-98318458D01*
X188461258Y-98343309D01*
X188902490Y-98357849D01*
X189385619Y-98362478D01*
X189874440Y-98357598D01*
X190332743Y-98343608D01*
X190724322Y-98320907D01*
X191012970Y-98289897D01*
X191162478Y-98250978D01*
X191168902Y-98246207D01*
X191188014Y-98123669D01*
X191144732Y-97890735D01*
X191055627Y-97598215D01*
X190937270Y-97296915D01*
X190806232Y-97037644D01*
X190744008Y-96943459D01*
X190586752Y-96697236D01*
X190477871Y-96463779D01*
X190471763Y-96444653D01*
X190389692Y-96230951D01*
X190258957Y-95948304D01*
X190192088Y-95817098D01*
X190069815Y-95572057D01*
X189992871Y-95392141D01*
X189979300Y-95340789D01*
X189943344Y-95234883D01*
X189843423Y-94992828D01*
X189691461Y-94641150D01*
X189499380Y-94206376D01*
X189279101Y-93715032D01*
X189042548Y-93193645D01*
X188801642Y-92668742D01*
X188568306Y-92166848D01*
X188354462Y-91714491D01*
X188276943Y-91553133D01*
X188068882Y-91118344D01*
X187861282Y-90677422D01*
X187684199Y-90294520D01*
X187604114Y-90117091D01*
X187470380Y-89824808D01*
X187281638Y-89423932D01*
X187062691Y-88966656D01*
X186838340Y-88505176D01*
X186832201Y-88492658D01*
X186635798Y-88085298D01*
X186472036Y-87732234D01*
X186355691Y-87466343D01*
X186301544Y-87320504D01*
X186299441Y-87307385D01*
X186256618Y-87180191D01*
X186146216Y-86956862D01*
X186040565Y-86768974D01*
X185841983Y-86393165D01*
X185595747Y-85861038D01*
X185308360Y-85187417D01*
X184986326Y-84387126D01*
X184910652Y-84193416D01*
X184803864Y-83938827D01*
X184634888Y-83560066D01*
X184420688Y-83094069D01*
X184178228Y-82577776D01*
X183941944Y-82084229D01*
X183702202Y-81584997D01*
X183487290Y-81131114D01*
X183310496Y-80751156D01*
X183185107Y-80473698D01*
X183124412Y-80327316D01*
X183123157Y-80323451D01*
X182968509Y-80042306D01*
X182703416Y-79872302D01*
X182306967Y-79801940D01*
X182168688Y-79798528D01*
X181765314Y-79838575D01*
X181459082Y-79976325D01*
X181214874Y-80238189D01*
X180997571Y-80650579D01*
X180979415Y-80692947D01*
X180879000Y-80916367D01*
X180714767Y-81265846D01*
X180503238Y-81706923D01*
X180260938Y-82205133D01*
X180011092Y-82712497D01*
X179783510Y-83178310D01*
X179531305Y-83705683D01*
X179265534Y-84270321D01*
X178997253Y-84847926D01*
X178737520Y-85414201D01*
X178497390Y-85944849D01*
X178287921Y-86415574D01*
X178120168Y-86802077D01*
X178005190Y-87080063D01*
X177954042Y-87225233D01*
X177952445Y-87236365D01*
X177914382Y-87329032D01*
X177807342Y-87560169D01*
X177642040Y-87907401D01*
X177429196Y-88348354D01*
X177179526Y-88860655D01*
X176965165Y-89297316D01*
X176693411Y-89853780D01*
X176450275Y-90360437D01*
X176246566Y-90794043D01*
X176093091Y-91131353D01*
X176000660Y-91349121D01*
X175977886Y-91420621D01*
X175939970Y-91535255D01*
X175834461Y-91783373D01*
X175673721Y-92137743D01*
X175470110Y-92571132D01*
X175235989Y-93056309D01*
X175228395Y-93071846D01*
X174965886Y-93617455D01*
X174708081Y-94168884D01*
X174474971Y-94682254D01*
X174286547Y-95113686D01*
X174182474Y-95367621D01*
X174023759Y-95747893D01*
X173859025Y-96096733D01*
X173716609Y-96355438D01*
X173677886Y-96413004D01*
X173549600Y-96632646D01*
X173408435Y-96944242D01*
X173270922Y-97300423D01*
X173153593Y-97653820D01*
X173072981Y-97957065D01*
X173045616Y-98162788D01*
X171974029Y-98162788D01*
X171971275Y-98098938D01*
X172004842Y-97842256D01*
X172086913Y-97499362D01*
X172127430Y-97349414D01*
X172265574Y-96922457D01*
X172440383Y-96488070D01*
X172616846Y-96132193D01*
X172637794Y-96096655D01*
X172805600Y-95788714D01*
X173004250Y-95378244D01*
X173202609Y-94931180D01*
X173299947Y-94694476D01*
X173501806Y-94214429D01*
X173737520Y-93695575D01*
X173967708Y-93223365D01*
X174054565Y-93057083D01*
X174257822Y-92665991D01*
X174450258Y-92273323D01*
X174598785Y-91947255D01*
X174631737Y-91867860D01*
X174776905Y-91503915D01*
X174936134Y-91104344D01*
X174998667Y-90947303D01*
X175095675Y-90722385D01*
X175257016Y-90369462D01*
X175467269Y-89921343D01*
X175711011Y-89410840D01*
X175972820Y-88870759D01*
X176021720Y-88770801D01*
X176325634Y-88141760D01*
X176650973Y-87453505D01*
X176971226Y-86763109D01*
X177259879Y-86127646D01*
X177460148Y-85674335D01*
X177679922Y-85179278D01*
X177959025Y-84568980D01*
X178276297Y-83888649D01*
X178610577Y-83183491D01*
X178940706Y-82498713D01*
X179077553Y-82218858D01*
X179356874Y-81646085D01*
X179611421Y-81115767D01*
X179829726Y-80652465D01*
X180000325Y-80280743D01*
X180111749Y-80025161D01*
X180150826Y-79919851D01*
X180305130Y-79615574D01*
X180594291Y-79309284D01*
X180977237Y-79034611D01*
X181412893Y-78825181D01*
X181540190Y-78782369D01*
X181846938Y-78693590D01*
X182066638Y-78653799D01*
X182271223Y-78662856D01*
G37*
X182271223Y-78662856D02*
X182532626Y-78720623D01*
X182751851Y-78780035D01*
X183125458Y-78898294D01*
X183388300Y-79030090D01*
X183607409Y-79213667D01*
X183715225Y-79329707D01*
X183899060Y-79550511D01*
X184021556Y-79722531D01*
X184051798Y-79788443D01*
X184068124Y-79852565D01*
X184118472Y-79980578D01*
X184210085Y-80188064D01*
X184350207Y-80490608D01*
X184546081Y-80903792D01*
X184804952Y-81443199D01*
X185134061Y-82124412D01*
X185223275Y-82308610D01*
X185439171Y-82760153D01*
X185629910Y-83170212D01*
X185779996Y-83504623D01*
X185873932Y-83729220D01*
X185894964Y-83789529D01*
X185966057Y-83990701D01*
X186098262Y-84318126D01*
X186275936Y-84735790D01*
X186483435Y-85207679D01*
X186705114Y-85697778D01*
X186925331Y-86170074D01*
X186967104Y-86257727D01*
X187375346Y-87112101D01*
X187717098Y-87830479D01*
X188004235Y-88438359D01*
X188248632Y-88961241D01*
X188462162Y-89424625D01*
X188656702Y-89854010D01*
X188844124Y-90274897D01*
X188952412Y-90520978D01*
X189118786Y-90887578D01*
X189277279Y-91214699D01*
X189402219Y-91450141D01*
X189437923Y-91508257D01*
X189575741Y-91753212D01*
X189700953Y-92036427D01*
X189704804Y-92046773D01*
X189806428Y-92299026D01*
X189951176Y-92631136D01*
X190074236Y-92899423D01*
X190225185Y-93226686D01*
X190415418Y-93648594D01*
X190613367Y-94094861D01*
X190699028Y-94290589D01*
X191002520Y-94982278D01*
X191251599Y-95538479D01*
X191442149Y-95950187D01*
X191570051Y-96208398D01*
X191601820Y-96265147D01*
X191889058Y-96793552D01*
X192085698Y-97288937D01*
X192167344Y-97571944D01*
X192243794Y-97929402D01*
X192256134Y-98219510D01*
X192207049Y-98541534D01*
X192195051Y-98596503D01*
X192123283Y-98880556D01*
X192037295Y-99046695D01*
X191888185Y-99153126D01*
X191644772Y-99251484D01*
X191458089Y-99310864D01*
X191244681Y-99354335D01*
X190974266Y-99384192D01*
X190616561Y-99402730D01*
X190141282Y-99412245D01*
X189518147Y-99415034D01*
X189487290Y-99415038D01*
X188876897Y-99413338D01*
X188415359Y-99406442D01*
X188072040Y-99391660D01*
X187816306Y-99366301D01*
X187617523Y-99327673D01*
X187445056Y-99273084D01*
X187326570Y-99225214D01*
X187026593Y-99076811D01*
X186764483Y-98913652D01*
X186671355Y-98839491D01*
X186437196Y-98583002D01*
X186198165Y-98259295D01*
X185999987Y-97935409D01*
X185894974Y-97701190D01*
X185767480Y-97471886D01*
X185638710Y-97342179D01*
X185498270Y-97248726D01*
X185348718Y-97173219D01*
X185170071Y-97113769D01*
X184942348Y-97068490D01*
X184645568Y-97035492D01*
X184259748Y-97012888D01*
X183764906Y-96998790D01*
X183141062Y-96991310D01*
X182368233Y-96988559D01*
X181894282Y-96988372D01*
X178939261Y-96989059D01*
X178638699Y-97252956D01*
X178435586Y-97483409D01*
X178226838Y-97801150D01*
X178103087Y-98040616D01*
X177810593Y-98516654D01*
X177406726Y-98932552D01*
X176938310Y-99248680D01*
X176471526Y-99421482D01*
X176328635Y-99430372D01*
X176037393Y-99432711D01*
X175628826Y-99428808D01*
X175133955Y-99418974D01*
X174583806Y-99403519D01*
X174541844Y-99402164D01*
X173887201Y-99375048D01*
X173323628Y-99340185D01*
X172875846Y-99299633D01*
X172568573Y-99255453D01*
X172464795Y-99229091D01*
X172275001Y-99147093D01*
X172160908Y-99035782D01*
X172085137Y-98841510D01*
X172030166Y-98605294D01*
X171981340Y-98332316D01*
X171974029Y-98162788D01*
X173045616Y-98162788D01*
X173052444Y-98205091D01*
X173102526Y-98250042D01*
X173227746Y-98283250D01*
X173449662Y-98306253D01*
X173789829Y-98320588D01*
X174269804Y-98327792D01*
X174796181Y-98329458D01*
X175442854Y-98327564D01*
X175937220Y-98315009D01*
X176306477Y-98281482D01*
X176577822Y-98216672D01*
X176778454Y-98110270D01*
X176935569Y-97951965D01*
X177076367Y-97731447D01*
X177228045Y-97438405D01*
X177247023Y-97400375D01*
X177436752Y-97060870D01*
X177649385Y-96740689D01*
X177804666Y-96548015D01*
X178010219Y-96372110D01*
X178285371Y-96190692D01*
X178583228Y-96027982D01*
X178856893Y-95908207D01*
X179059470Y-95855591D01*
X179126023Y-95865460D01*
X179231571Y-95877047D01*
X179494589Y-95887513D01*
X179893042Y-95896515D01*
X180404897Y-95903708D01*
X181008121Y-95908747D01*
X181680679Y-95911287D01*
X182069475Y-95911496D01*
X182875304Y-95911833D01*
X183523461Y-95914643D01*
X184035775Y-95921039D01*
X184434072Y-95932133D01*
X184740182Y-95949039D01*
X184975932Y-95972869D01*
X185163152Y-96004736D01*
X185323668Y-96045753D01*
X185440044Y-96083321D01*
X186065899Y-96359536D01*
X186527100Y-96700339D01*
X186821916Y-97104318D01*
X186885820Y-97261420D01*
X187065193Y-97624843D01*
X187329256Y-97951439D01*
X187630774Y-98191130D01*
X187849320Y-98282896D01*
X188098133Y-98318458D01*
X188461258Y-98343309D01*
X188902490Y-98357849D01*
X189385619Y-98362478D01*
X189874440Y-98357598D01*
X190332743Y-98343608D01*
X190724322Y-98320907D01*
X191012970Y-98289897D01*
X191162478Y-98250978D01*
X191168902Y-98246207D01*
X191188014Y-98123669D01*
X191144732Y-97890735D01*
X191055627Y-97598215D01*
X190937270Y-97296915D01*
X190806232Y-97037644D01*
X190744008Y-96943459D01*
X190586752Y-96697236D01*
X190477871Y-96463779D01*
X190471763Y-96444653D01*
X190389692Y-96230951D01*
X190258957Y-95948304D01*
X190192088Y-95817098D01*
X190069815Y-95572057D01*
X189992871Y-95392141D01*
X189979300Y-95340789D01*
X189943344Y-95234883D01*
X189843423Y-94992828D01*
X189691461Y-94641150D01*
X189499380Y-94206376D01*
X189279101Y-93715032D01*
X189042548Y-93193645D01*
X188801642Y-92668742D01*
X188568306Y-92166848D01*
X188354462Y-91714491D01*
X188276943Y-91553133D01*
X188068882Y-91118344D01*
X187861282Y-90677422D01*
X187684199Y-90294520D01*
X187604114Y-90117091D01*
X187470380Y-89824808D01*
X187281638Y-89423932D01*
X187062691Y-88966656D01*
X186838340Y-88505176D01*
X186832201Y-88492658D01*
X186635798Y-88085298D01*
X186472036Y-87732234D01*
X186355691Y-87466343D01*
X186301544Y-87320504D01*
X186299441Y-87307385D01*
X186256618Y-87180191D01*
X186146216Y-86956862D01*
X186040565Y-86768974D01*
X185841983Y-86393165D01*
X185595747Y-85861038D01*
X185308360Y-85187417D01*
X184986326Y-84387126D01*
X184910652Y-84193416D01*
X184803864Y-83938827D01*
X184634888Y-83560066D01*
X184420688Y-83094069D01*
X184178228Y-82577776D01*
X183941944Y-82084229D01*
X183702202Y-81584997D01*
X183487290Y-81131114D01*
X183310496Y-80751156D01*
X183185107Y-80473698D01*
X183124412Y-80327316D01*
X183123157Y-80323451D01*
X182968509Y-80042306D01*
X182703416Y-79872302D01*
X182306967Y-79801940D01*
X182168688Y-79798528D01*
X181765314Y-79838575D01*
X181459082Y-79976325D01*
X181214874Y-80238189D01*
X180997571Y-80650579D01*
X180979415Y-80692947D01*
X180879000Y-80916367D01*
X180714767Y-81265846D01*
X180503238Y-81706923D01*
X180260938Y-82205133D01*
X180011092Y-82712497D01*
X179783510Y-83178310D01*
X179531305Y-83705683D01*
X179265534Y-84270321D01*
X178997253Y-84847926D01*
X178737520Y-85414201D01*
X178497390Y-85944849D01*
X178287921Y-86415574D01*
X178120168Y-86802077D01*
X178005190Y-87080063D01*
X177954042Y-87225233D01*
X177952445Y-87236365D01*
X177914382Y-87329032D01*
X177807342Y-87560169D01*
X177642040Y-87907401D01*
X177429196Y-88348354D01*
X177179526Y-88860655D01*
X176965165Y-89297316D01*
X176693411Y-89853780D01*
X176450275Y-90360437D01*
X176246566Y-90794043D01*
X176093091Y-91131353D01*
X176000660Y-91349121D01*
X175977886Y-91420621D01*
X175939970Y-91535255D01*
X175834461Y-91783373D01*
X175673721Y-92137743D01*
X175470110Y-92571132D01*
X175235989Y-93056309D01*
X175228395Y-93071846D01*
X174965886Y-93617455D01*
X174708081Y-94168884D01*
X174474971Y-94682254D01*
X174286547Y-95113686D01*
X174182474Y-95367621D01*
X174023759Y-95747893D01*
X173859025Y-96096733D01*
X173716609Y-96355438D01*
X173677886Y-96413004D01*
X173549600Y-96632646D01*
X173408435Y-96944242D01*
X173270922Y-97300423D01*
X173153593Y-97653820D01*
X173072981Y-97957065D01*
X173045616Y-98162788D01*
X171974029Y-98162788D01*
X171971275Y-98098938D01*
X172004842Y-97842256D01*
X172086913Y-97499362D01*
X172127430Y-97349414D01*
X172265574Y-96922457D01*
X172440383Y-96488070D01*
X172616846Y-96132193D01*
X172637794Y-96096655D01*
X172805600Y-95788714D01*
X173004250Y-95378244D01*
X173202609Y-94931180D01*
X173299947Y-94694476D01*
X173501806Y-94214429D01*
X173737520Y-93695575D01*
X173967708Y-93223365D01*
X174054565Y-93057083D01*
X174257822Y-92665991D01*
X174450258Y-92273323D01*
X174598785Y-91947255D01*
X174631737Y-91867860D01*
X174776905Y-91503915D01*
X174936134Y-91104344D01*
X174998667Y-90947303D01*
X175095675Y-90722385D01*
X175257016Y-90369462D01*
X175467269Y-89921343D01*
X175711011Y-89410840D01*
X175972820Y-88870759D01*
X176021720Y-88770801D01*
X176325634Y-88141760D01*
X176650973Y-87453505D01*
X176971226Y-86763109D01*
X177259879Y-86127646D01*
X177460148Y-85674335D01*
X177679922Y-85179278D01*
X177959025Y-84568980D01*
X178276297Y-83888649D01*
X178610577Y-83183491D01*
X178940706Y-82498713D01*
X179077553Y-82218858D01*
X179356874Y-81646085D01*
X179611421Y-81115767D01*
X179829726Y-80652465D01*
X180000325Y-80280743D01*
X180111749Y-80025161D01*
X180150826Y-79919851D01*
X180305130Y-79615574D01*
X180594291Y-79309284D01*
X180977237Y-79034611D01*
X181412893Y-78825181D01*
X181540190Y-78782369D01*
X181846938Y-78693590D01*
X182066638Y-78653799D01*
X182271223Y-78662856D01*
G36*
X60780360Y-79092676D02*
G01*
X61074537Y-79242397D01*
X61256173Y-79376828D01*
X61377009Y-79553031D01*
X61488782Y-79828068D01*
X61516066Y-79904060D01*
X61563208Y-80041981D01*
X61602273Y-80178967D01*
X61634098Y-80332850D01*
X61659525Y-80521461D01*
X61679392Y-80762631D01*
X61694539Y-81074191D01*
X61705805Y-81473973D01*
X61714029Y-81979809D01*
X61720052Y-82609528D01*
X61724713Y-83380964D01*
X61728850Y-84311947D01*
X61729348Y-84434452D01*
X61732810Y-85346698D01*
X61735906Y-86273955D01*
X61738563Y-87185525D01*
X61740708Y-88050712D01*
X61742267Y-88838818D01*
X61743165Y-89519147D01*
X61743330Y-90061001D01*
X61743208Y-90206843D01*
X61743821Y-91138632D01*
X61748537Y-91904481D01*
X61757866Y-92517924D01*
X61772317Y-92992491D01*
X61792400Y-93341713D01*
X61818626Y-93579121D01*
X61851505Y-93718247D01*
X61877242Y-93762948D01*
X61996166Y-93792150D01*
X62286571Y-93818505D01*
X62740451Y-93841679D01*
X63349802Y-93861339D01*
X64106615Y-93877149D01*
X64857122Y-93887282D01*
X65709495Y-93897038D01*
X66401790Y-93908871D01*
X66953424Y-93926829D01*
X67383813Y-93954959D01*
X67712374Y-93997308D01*
X67958523Y-94057922D01*
X68141677Y-94140849D01*
X68281252Y-94250135D01*
X68396666Y-94389828D01*
X68507334Y-94563974D01*
X68563803Y-94659849D01*
X68645883Y-94805582D01*
X68705389Y-94940858D01*
X68745534Y-95096224D01*
X68769528Y-95302233D01*
X68780585Y-95589432D01*
X68781915Y-95988374D01*
X68776731Y-96529606D01*
X68775055Y-96669164D01*
X68767013Y-97247118D01*
X68756430Y-97675766D01*
X68739518Y-97985301D01*
X68712489Y-98205917D01*
X68671553Y-98367807D01*
X68612923Y-98501167D01*
X68532809Y-98636189D01*
X68527121Y-98645184D01*
X68362323Y-98864324D01*
X68163495Y-99019998D01*
X67870855Y-99154122D01*
X67725786Y-99207047D01*
X67600069Y-99250142D01*
X67477990Y-99286573D01*
X67344100Y-99316872D01*
X67182952Y-99341571D01*
X66979100Y-99361202D01*
X66717096Y-99376298D01*
X66381493Y-99387391D01*
X65956844Y-99395013D01*
X65427703Y-99399697D01*
X64778621Y-99401974D01*
X63994153Y-99402378D01*
X63058850Y-99401439D01*
X62126650Y-99399972D01*
X61048647Y-99398009D01*
X60134851Y-99395615D01*
X59369961Y-99392239D01*
X58738680Y-99387325D01*
X58225708Y-99380323D01*
X57815745Y-99370679D01*
X57493493Y-99357839D01*
X57243653Y-99341251D01*
X57050925Y-99320363D01*
X56900010Y-99294620D01*
X56775610Y-99263470D01*
X56662425Y-99226361D01*
X56590550Y-99199883D01*
X56289972Y-99073036D01*
X56101652Y-98940548D01*
X55964753Y-98749232D01*
X55879077Y-98577871D01*
X55677555Y-98147613D01*
X55657915Y-91341648D01*
X56749160Y-91341648D01*
X56749393Y-92393213D01*
X56750170Y-93400549D01*
X56751506Y-94348740D01*
X56753415Y-95222870D01*
X56755912Y-96008024D01*
X56759012Y-96689286D01*
X56762730Y-97251740D01*
X56767080Y-97680471D01*
X56772076Y-97960564D01*
X56777400Y-98075159D01*
X56806621Y-98126014D01*
X56886355Y-98169426D01*
X57029333Y-98205983D01*
X57248289Y-98236271D01*
X57555954Y-98260879D01*
X57965058Y-98280394D01*
X58488336Y-98295403D01*
X59138518Y-98306493D01*
X59928336Y-98314252D01*
X60870522Y-98319268D01*
X61977808Y-98322127D01*
X62135694Y-98322373D01*
X63331477Y-98322683D01*
X64355135Y-98319776D01*
X65214024Y-98313513D01*
X65915498Y-98303758D01*
X66466912Y-98290375D01*
X66875620Y-98273227D01*
X67148979Y-98252176D01*
X67294341Y-98227086D01*
X67296472Y-98226381D01*
X67508664Y-98149727D01*
X67632854Y-98095577D01*
X67639961Y-98090749D01*
X67654362Y-97994461D01*
X67668885Y-97750214D01*
X67682247Y-97389546D01*
X67693164Y-96943998D01*
X67697691Y-96672078D01*
X67700124Y-96048665D01*
X67687178Y-95593314D01*
X67658232Y-95295189D01*
X67612665Y-95143457D01*
X67609856Y-95139405D01*
X67562000Y-95097828D01*
X67473045Y-95064006D01*
X67324325Y-95036742D01*
X67097173Y-95014841D01*
X66772923Y-94997107D01*
X66332908Y-94982343D01*
X65758462Y-94969355D01*
X65030918Y-94956945D01*
X64680041Y-94951688D01*
X63884845Y-94939362D01*
X63247400Y-94927075D01*
X62745960Y-94913304D01*
X62358776Y-94896528D01*
X62064103Y-94875228D01*
X61840193Y-94847882D01*
X61665299Y-94812969D01*
X61517674Y-94768968D01*
X61393878Y-94721858D01*
X61266347Y-94670442D01*
X61155069Y-94619008D01*
X61058902Y-94555659D01*
X60976708Y-94468497D01*
X60907345Y-94345624D01*
X60849673Y-94175144D01*
X60802553Y-93945158D01*
X60764844Y-93643770D01*
X60735405Y-93259081D01*
X60713098Y-92779194D01*
X60696781Y-92192212D01*
X60685314Y-91486238D01*
X60677557Y-90649373D01*
X60672370Y-89669720D01*
X60668613Y-88535382D01*
X60665146Y-87234462D01*
X60664824Y-87114483D01*
X60659656Y-85676696D01*
X60652354Y-84416347D01*
X60642882Y-83331379D01*
X60631207Y-82419736D01*
X60617292Y-81679362D01*
X60601102Y-81108202D01*
X60582601Y-80704199D01*
X60561756Y-80465297D01*
X60549701Y-80404783D01*
X60436172Y-80175798D01*
X60294066Y-80024166D01*
X60285433Y-80019229D01*
X60119886Y-79980704D01*
X59815324Y-79953463D01*
X59411870Y-79937275D01*
X58949645Y-79931914D01*
X58468772Y-79937150D01*
X58009370Y-79952756D01*
X57611563Y-79978502D01*
X57315472Y-80014162D01*
X57214502Y-80036702D01*
X56941264Y-80162085D01*
X56796804Y-80322970D01*
X56794831Y-80328398D01*
X56788984Y-80433034D01*
X56783476Y-80702259D01*
X56778322Y-81121159D01*
X56773536Y-81674816D01*
X56769133Y-82348316D01*
X56765128Y-83126742D01*
X56761535Y-83995180D01*
X56758369Y-84938714D01*
X56755645Y-85942427D01*
X56753377Y-86991405D01*
X56751580Y-88070732D01*
X56750268Y-89165492D01*
X56749456Y-90260769D01*
X56749160Y-91341648D01*
X55657915Y-91341648D01*
X55652240Y-89375462D01*
X55648475Y-88134430D01*
X55644505Y-86943406D01*
X55640389Y-85814757D01*
X55636191Y-84760851D01*
X55631970Y-83794058D01*
X55627788Y-82926746D01*
X55623706Y-82171283D01*
X55619785Y-81540039D01*
X55616087Y-81045381D01*
X55612672Y-80699678D01*
X55609601Y-80515299D01*
X55608295Y-80487889D01*
X55635244Y-80351672D01*
X55723959Y-80110280D01*
X55841916Y-79844698D01*
X55995475Y-79547453D01*
X56139218Y-79361714D01*
X56330212Y-79232404D01*
X56597334Y-79115688D01*
X56807504Y-79039838D01*
X57025955Y-78983556D01*
X57286885Y-78942861D01*
X57624492Y-78913775D01*
X58072975Y-78892320D01*
X58666530Y-78874516D01*
X58671172Y-78874397D01*
X60241844Y-78834346D01*
X60780360Y-79092676D01*
G37*
X60780360Y-79092676D02*
X61074537Y-79242397D01*
X61256173Y-79376828D01*
X61377009Y-79553031D01*
X61488782Y-79828068D01*
X61516066Y-79904060D01*
X61563208Y-80041981D01*
X61602273Y-80178967D01*
X61634098Y-80332850D01*
X61659525Y-80521461D01*
X61679392Y-80762631D01*
X61694539Y-81074191D01*
X61705805Y-81473973D01*
X61714029Y-81979809D01*
X61720052Y-82609528D01*
X61724713Y-83380964D01*
X61728850Y-84311947D01*
X61729348Y-84434452D01*
X61732810Y-85346698D01*
X61735906Y-86273955D01*
X61738563Y-87185525D01*
X61740708Y-88050712D01*
X61742267Y-88838818D01*
X61743165Y-89519147D01*
X61743330Y-90061001D01*
X61743208Y-90206843D01*
X61743821Y-91138632D01*
X61748537Y-91904481D01*
X61757866Y-92517924D01*
X61772317Y-92992491D01*
X61792400Y-93341713D01*
X61818626Y-93579121D01*
X61851505Y-93718247D01*
X61877242Y-93762948D01*
X61996166Y-93792150D01*
X62286571Y-93818505D01*
X62740451Y-93841679D01*
X63349802Y-93861339D01*
X64106615Y-93877149D01*
X64857122Y-93887282D01*
X65709495Y-93897038D01*
X66401790Y-93908871D01*
X66953424Y-93926829D01*
X67383813Y-93954959D01*
X67712374Y-93997308D01*
X67958523Y-94057922D01*
X68141677Y-94140849D01*
X68281252Y-94250135D01*
X68396666Y-94389828D01*
X68507334Y-94563974D01*
X68563803Y-94659849D01*
X68645883Y-94805582D01*
X68705389Y-94940858D01*
X68745534Y-95096224D01*
X68769528Y-95302233D01*
X68780585Y-95589432D01*
X68781915Y-95988374D01*
X68776731Y-96529606D01*
X68775055Y-96669164D01*
X68767013Y-97247118D01*
X68756430Y-97675766D01*
X68739518Y-97985301D01*
X68712489Y-98205917D01*
X68671553Y-98367807D01*
X68612923Y-98501167D01*
X68532809Y-98636189D01*
X68527121Y-98645184D01*
X68362323Y-98864324D01*
X68163495Y-99019998D01*
X67870855Y-99154122D01*
X67725786Y-99207047D01*
X67600069Y-99250142D01*
X67477990Y-99286573D01*
X67344100Y-99316872D01*
X67182952Y-99341571D01*
X66979100Y-99361202D01*
X66717096Y-99376298D01*
X66381493Y-99387391D01*
X65956844Y-99395013D01*
X65427703Y-99399697D01*
X64778621Y-99401974D01*
X63994153Y-99402378D01*
X63058850Y-99401439D01*
X62126650Y-99399972D01*
X61048647Y-99398009D01*
X60134851Y-99395615D01*
X59369961Y-99392239D01*
X58738680Y-99387325D01*
X58225708Y-99380323D01*
X57815745Y-99370679D01*
X57493493Y-99357839D01*
X57243653Y-99341251D01*
X57050925Y-99320363D01*
X56900010Y-99294620D01*
X56775610Y-99263470D01*
X56662425Y-99226361D01*
X56590550Y-99199883D01*
X56289972Y-99073036D01*
X56101652Y-98940548D01*
X55964753Y-98749232D01*
X55879077Y-98577871D01*
X55677555Y-98147613D01*
X55657915Y-91341648D01*
X56749160Y-91341648D01*
X56749393Y-92393213D01*
X56750170Y-93400549D01*
X56751506Y-94348740D01*
X56753415Y-95222870D01*
X56755912Y-96008024D01*
X56759012Y-96689286D01*
X56762730Y-97251740D01*
X56767080Y-97680471D01*
X56772076Y-97960564D01*
X56777400Y-98075159D01*
X56806621Y-98126014D01*
X56886355Y-98169426D01*
X57029333Y-98205983D01*
X57248289Y-98236271D01*
X57555954Y-98260879D01*
X57965058Y-98280394D01*
X58488336Y-98295403D01*
X59138518Y-98306493D01*
X59928336Y-98314252D01*
X60870522Y-98319268D01*
X61977808Y-98322127D01*
X62135694Y-98322373D01*
X63331477Y-98322683D01*
X64355135Y-98319776D01*
X65214024Y-98313513D01*
X65915498Y-98303758D01*
X66466912Y-98290375D01*
X66875620Y-98273227D01*
X67148979Y-98252176D01*
X67294341Y-98227086D01*
X67296472Y-98226381D01*
X67508664Y-98149727D01*
X67632854Y-98095577D01*
X67639961Y-98090749D01*
X67654362Y-97994461D01*
X67668885Y-97750214D01*
X67682247Y-97389546D01*
X67693164Y-96943998D01*
X67697691Y-96672078D01*
X67700124Y-96048665D01*
X67687178Y-95593314D01*
X67658232Y-95295189D01*
X67612665Y-95143457D01*
X67609856Y-95139405D01*
X67562000Y-95097828D01*
X67473045Y-95064006D01*
X67324325Y-95036742D01*
X67097173Y-95014841D01*
X66772923Y-94997107D01*
X66332908Y-94982343D01*
X65758462Y-94969355D01*
X65030918Y-94956945D01*
X64680041Y-94951688D01*
X63884845Y-94939362D01*
X63247400Y-94927075D01*
X62745960Y-94913304D01*
X62358776Y-94896528D01*
X62064103Y-94875228D01*
X61840193Y-94847882D01*
X61665299Y-94812969D01*
X61517674Y-94768968D01*
X61393878Y-94721858D01*
X61266347Y-94670442D01*
X61155069Y-94619008D01*
X61058902Y-94555659D01*
X60976708Y-94468497D01*
X60907345Y-94345624D01*
X60849673Y-94175144D01*
X60802553Y-93945158D01*
X60764844Y-93643770D01*
X60735405Y-93259081D01*
X60713098Y-92779194D01*
X60696781Y-92192212D01*
X60685314Y-91486238D01*
X60677557Y-90649373D01*
X60672370Y-89669720D01*
X60668613Y-88535382D01*
X60665146Y-87234462D01*
X60664824Y-87114483D01*
X60659656Y-85676696D01*
X60652354Y-84416347D01*
X60642882Y-83331379D01*
X60631207Y-82419736D01*
X60617292Y-81679362D01*
X60601102Y-81108202D01*
X60582601Y-80704199D01*
X60561756Y-80465297D01*
X60549701Y-80404783D01*
X60436172Y-80175798D01*
X60294066Y-80024166D01*
X60285433Y-80019229D01*
X60119886Y-79980704D01*
X59815324Y-79953463D01*
X59411870Y-79937275D01*
X58949645Y-79931914D01*
X58468772Y-79937150D01*
X58009370Y-79952756D01*
X57611563Y-79978502D01*
X57315472Y-80014162D01*
X57214502Y-80036702D01*
X56941264Y-80162085D01*
X56796804Y-80322970D01*
X56794831Y-80328398D01*
X56788984Y-80433034D01*
X56783476Y-80702259D01*
X56778322Y-81121159D01*
X56773536Y-81674816D01*
X56769133Y-82348316D01*
X56765128Y-83126742D01*
X56761535Y-83995180D01*
X56758369Y-84938714D01*
X56755645Y-85942427D01*
X56753377Y-86991405D01*
X56751580Y-88070732D01*
X56750268Y-89165492D01*
X56749456Y-90260769D01*
X56749160Y-91341648D01*
X55657915Y-91341648D01*
X55652240Y-89375462D01*
X55648475Y-88134430D01*
X55644505Y-86943406D01*
X55640389Y-85814757D01*
X55636191Y-84760851D01*
X55631970Y-83794058D01*
X55627788Y-82926746D01*
X55623706Y-82171283D01*
X55619785Y-81540039D01*
X55616087Y-81045381D01*
X55612672Y-80699678D01*
X55609601Y-80515299D01*
X55608295Y-80487889D01*
X55635244Y-80351672D01*
X55723959Y-80110280D01*
X55841916Y-79844698D01*
X55995475Y-79547453D01*
X56139218Y-79361714D01*
X56330212Y-79232404D01*
X56597334Y-79115688D01*
X56807504Y-79039838D01*
X57025955Y-78983556D01*
X57286885Y-78942861D01*
X57624492Y-78913775D01*
X58072975Y-78892320D01*
X58666530Y-78874516D01*
X58671172Y-78874397D01*
X60241844Y-78834346D01*
X60780360Y-79092676D01*
G36*
X73506504Y-78950985D02*
G01*
X74386109Y-78954882D01*
X75275413Y-78960076D01*
X76283275Y-78966525D01*
X77128490Y-78972755D01*
X77827913Y-78979559D01*
X78398397Y-78987728D01*
X78856798Y-78998054D01*
X79219971Y-79011331D01*
X79504771Y-79028350D01*
X79728052Y-79049904D01*
X79906669Y-79076784D01*
X80057477Y-79109784D01*
X80197331Y-79149694D01*
X80343086Y-79197308D01*
X80346437Y-79198432D01*
X80876988Y-79382789D01*
X81294626Y-79547924D01*
X81659417Y-79722575D01*
X82031427Y-79935481D01*
X82467469Y-80213251D01*
X83073243Y-80674448D01*
X83686310Y-81255731D01*
X84259692Y-81906082D01*
X84746415Y-82574483D01*
X84945230Y-82904240D01*
X85264675Y-83619043D01*
X85510287Y-84458795D01*
X85677323Y-85382770D01*
X85761043Y-86350242D01*
X85756707Y-87320484D01*
X85659572Y-88252771D01*
X85603514Y-88558978D01*
X85470876Y-89134589D01*
X85320849Y-89614508D01*
X85128101Y-90057457D01*
X84867298Y-90522155D01*
X84535975Y-91033468D01*
X83818561Y-91958957D01*
X83021157Y-92724596D01*
X82140765Y-93332687D01*
X81174386Y-93785536D01*
X80782588Y-93917821D01*
X80015764Y-94139229D01*
X79365582Y-94296250D01*
X78784014Y-94395952D01*
X78223030Y-94445405D01*
X77634602Y-94451677D01*
X77249971Y-94437733D01*
X76540546Y-94420530D01*
X76001569Y-94448064D01*
X75629534Y-94520775D01*
X75420937Y-94639104D01*
X75396948Y-94670786D01*
X75376198Y-94790119D01*
X75357553Y-95058680D01*
X75342223Y-95446193D01*
X75331413Y-95922383D01*
X75326391Y-96440077D01*
X75317794Y-97169066D01*
X75293499Y-97742424D01*
X75246787Y-98183803D01*
X75170942Y-98516852D01*
X75059247Y-98765221D01*
X74904984Y-98952561D01*
X74701437Y-99102523D01*
X74545972Y-99187895D01*
X74386606Y-99264538D01*
X74235253Y-99320610D01*
X74061457Y-99359125D01*
X73834760Y-99383094D01*
X73524705Y-99395530D01*
X73100837Y-99399447D01*
X72532697Y-99397855D01*
X72428750Y-99397303D01*
X71877759Y-99390865D01*
X71372345Y-99378564D01*
X70946453Y-99361726D01*
X70634028Y-99341676D01*
X70473646Y-99320963D01*
X70043655Y-99191923D01*
X69752698Y-99040782D01*
X69560470Y-98837725D01*
X69426668Y-98552935D01*
X69423609Y-98544183D01*
X69396308Y-98467415D01*
X69372003Y-98396356D01*
X69350553Y-98320711D01*
X69331817Y-98230188D01*
X69315656Y-98114495D01*
X69301928Y-97963337D01*
X69290492Y-97766422D01*
X69281208Y-97513456D01*
X69273936Y-97194147D01*
X69268534Y-96798202D01*
X69264862Y-96315327D01*
X69262779Y-95735229D01*
X69262145Y-95047616D01*
X69262819Y-94242194D01*
X69264660Y-93308669D01*
X69267528Y-92236750D01*
X69271282Y-91016143D01*
X69275781Y-89636554D01*
X69280852Y-88097656D01*
X69297893Y-82893359D01*
X70287348Y-82893359D01*
X70297859Y-82987771D01*
X70303908Y-83085177D01*
X70309631Y-83347937D01*
X70314949Y-83761901D01*
X70319785Y-84312918D01*
X70324063Y-84986838D01*
X70327704Y-85769511D01*
X70330633Y-86646785D01*
X70332771Y-87604511D01*
X70334041Y-88628537D01*
X70334370Y-89679164D01*
X70334012Y-91111251D01*
X70333560Y-92374435D01*
X70333329Y-93479315D01*
X70333636Y-94436492D01*
X70334796Y-95256567D01*
X70337125Y-95950140D01*
X70340937Y-96527813D01*
X70346549Y-97000186D01*
X70354276Y-97377860D01*
X70364434Y-97671435D01*
X70377339Y-97891512D01*
X70393305Y-98048692D01*
X70412648Y-98153576D01*
X70435685Y-98216763D01*
X70462730Y-98248856D01*
X70494099Y-98260454D01*
X70530108Y-98262158D01*
X70571072Y-98264569D01*
X70590054Y-98268402D01*
X70725892Y-98281858D01*
X71009476Y-98294580D01*
X71409047Y-98305669D01*
X71892845Y-98314225D01*
X72378821Y-98319047D01*
X72957821Y-98321997D01*
X73383595Y-98320494D01*
X73682417Y-98311690D01*
X73880560Y-98292737D01*
X74004294Y-98260789D01*
X74079895Y-98212998D01*
X74133634Y-98146517D01*
X74146164Y-98127515D01*
X74194871Y-98014331D01*
X74230774Y-97830052D01*
X74255541Y-97550988D01*
X74270842Y-97153446D01*
X74278347Y-96613738D01*
X74279779Y-96231345D01*
X74284195Y-95513703D01*
X74300472Y-94952583D01*
X74336270Y-94525050D01*
X74399250Y-94208168D01*
X74497069Y-93979005D01*
X74637389Y-93814623D01*
X74827869Y-93692090D01*
X75076167Y-93588470D01*
X75173989Y-93553864D01*
X75426129Y-93472786D01*
X75659150Y-93417396D01*
X75914110Y-93383907D01*
X76232064Y-93368534D01*
X76654069Y-93367491D01*
X77115342Y-93374846D01*
X77798249Y-93379144D01*
X78368371Y-93356374D01*
X78885876Y-93298155D01*
X79410935Y-93196104D01*
X80003717Y-93041839D01*
X80452823Y-92909905D01*
X81360425Y-92542973D01*
X82191740Y-92014406D01*
X82944016Y-91326319D01*
X83614500Y-90480831D01*
X83617717Y-90476101D01*
X83909901Y-90035382D01*
X84118846Y-89683952D01*
X84269521Y-89367880D01*
X84386895Y-89033229D01*
X84495935Y-88626066D01*
X84519852Y-88527384D01*
X84647337Y-87771797D01*
X84695173Y-86942117D01*
X84667658Y-86082372D01*
X84569091Y-85236589D01*
X84403771Y-84448792D01*
X84175995Y-83763010D01*
X84023215Y-83440774D01*
X83732093Y-82981245D01*
X83322219Y-82445239D01*
X82818154Y-81864372D01*
X82697167Y-81733817D01*
X82160489Y-81268272D01*
X81467179Y-80842350D01*
X80637845Y-80467244D01*
X79897674Y-80213483D01*
X79738878Y-80168423D01*
X79576903Y-80130800D01*
X79393775Y-80099729D01*
X79171520Y-80074325D01*
X78892163Y-80053704D01*
X78537730Y-80036980D01*
X78090247Y-80023269D01*
X77531739Y-80011686D01*
X76844231Y-80001346D01*
X76009750Y-79991365D01*
X75214112Y-79982940D01*
X74177913Y-79973344D01*
X73306581Y-79968207D01*
X72585515Y-79968410D01*
X72000112Y-79974832D01*
X71535770Y-79988352D01*
X71177887Y-80009849D01*
X70911862Y-80040205D01*
X70723091Y-80080298D01*
X70596973Y-80131008D01*
X70518905Y-80193214D01*
X70474286Y-80267797D01*
X70474006Y-80268491D01*
X70446628Y-80408967D01*
X70415301Y-80681852D01*
X70382578Y-81047746D01*
X70351011Y-81467250D01*
X70323152Y-81900963D01*
X70301554Y-82309485D01*
X70288768Y-82653417D01*
X70287348Y-82893359D01*
X69297893Y-82893359D01*
X69306862Y-80154547D01*
X69546961Y-79699590D01*
X69698325Y-79437620D01*
X69845978Y-79278704D01*
X70053458Y-79171949D01*
X70309859Y-79088512D01*
X70443245Y-79052774D01*
X70593631Y-79023144D01*
X70777495Y-78999197D01*
X71011315Y-78980507D01*
X71311570Y-78966647D01*
X71694738Y-78957191D01*
X72177297Y-78951713D01*
X72775727Y-78949786D01*
X73506504Y-78950985D01*
G37*
X73506504Y-78950985D02*
X74386109Y-78954882D01*
X75275413Y-78960076D01*
X76283275Y-78966525D01*
X77128490Y-78972755D01*
X77827913Y-78979559D01*
X78398397Y-78987728D01*
X78856798Y-78998054D01*
X79219971Y-79011331D01*
X79504771Y-79028350D01*
X79728052Y-79049904D01*
X79906669Y-79076784D01*
X80057477Y-79109784D01*
X80197331Y-79149694D01*
X80343086Y-79197308D01*
X80346437Y-79198432D01*
X80876988Y-79382789D01*
X81294626Y-79547924D01*
X81659417Y-79722575D01*
X82031427Y-79935481D01*
X82467469Y-80213251D01*
X83073243Y-80674448D01*
X83686310Y-81255731D01*
X84259692Y-81906082D01*
X84746415Y-82574483D01*
X84945230Y-82904240D01*
X85264675Y-83619043D01*
X85510287Y-84458795D01*
X85677323Y-85382770D01*
X85761043Y-86350242D01*
X85756707Y-87320484D01*
X85659572Y-88252771D01*
X85603514Y-88558978D01*
X85470876Y-89134589D01*
X85320849Y-89614508D01*
X85128101Y-90057457D01*
X84867298Y-90522155D01*
X84535975Y-91033468D01*
X83818561Y-91958957D01*
X83021157Y-92724596D01*
X82140765Y-93332687D01*
X81174386Y-93785536D01*
X80782588Y-93917821D01*
X80015764Y-94139229D01*
X79365582Y-94296250D01*
X78784014Y-94395952D01*
X78223030Y-94445405D01*
X77634602Y-94451677D01*
X77249971Y-94437733D01*
X76540546Y-94420530D01*
X76001569Y-94448064D01*
X75629534Y-94520775D01*
X75420937Y-94639104D01*
X75396948Y-94670786D01*
X75376198Y-94790119D01*
X75357553Y-95058680D01*
X75342223Y-95446193D01*
X75331413Y-95922383D01*
X75326391Y-96440077D01*
X75317794Y-97169066D01*
X75293499Y-97742424D01*
X75246787Y-98183803D01*
X75170942Y-98516852D01*
X75059247Y-98765221D01*
X74904984Y-98952561D01*
X74701437Y-99102523D01*
X74545972Y-99187895D01*
X74386606Y-99264538D01*
X74235253Y-99320610D01*
X74061457Y-99359125D01*
X73834760Y-99383094D01*
X73524705Y-99395530D01*
X73100837Y-99399447D01*
X72532697Y-99397855D01*
X72428750Y-99397303D01*
X71877759Y-99390865D01*
X71372345Y-99378564D01*
X70946453Y-99361726D01*
X70634028Y-99341676D01*
X70473646Y-99320963D01*
X70043655Y-99191923D01*
X69752698Y-99040782D01*
X69560470Y-98837725D01*
X69426668Y-98552935D01*
X69423609Y-98544183D01*
X69396308Y-98467415D01*
X69372003Y-98396356D01*
X69350553Y-98320711D01*
X69331817Y-98230188D01*
X69315656Y-98114495D01*
X69301928Y-97963337D01*
X69290492Y-97766422D01*
X69281208Y-97513456D01*
X69273936Y-97194147D01*
X69268534Y-96798202D01*
X69264862Y-96315327D01*
X69262779Y-95735229D01*
X69262145Y-95047616D01*
X69262819Y-94242194D01*
X69264660Y-93308669D01*
X69267528Y-92236750D01*
X69271282Y-91016143D01*
X69275781Y-89636554D01*
X69280852Y-88097656D01*
X69297893Y-82893359D01*
X70287348Y-82893359D01*
X70297859Y-82987771D01*
X70303908Y-83085177D01*
X70309631Y-83347937D01*
X70314949Y-83761901D01*
X70319785Y-84312918D01*
X70324063Y-84986838D01*
X70327704Y-85769511D01*
X70330633Y-86646785D01*
X70332771Y-87604511D01*
X70334041Y-88628537D01*
X70334370Y-89679164D01*
X70334012Y-91111251D01*
X70333560Y-92374435D01*
X70333329Y-93479315D01*
X70333636Y-94436492D01*
X70334796Y-95256567D01*
X70337125Y-95950140D01*
X70340937Y-96527813D01*
X70346549Y-97000186D01*
X70354276Y-97377860D01*
X70364434Y-97671435D01*
X70377339Y-97891512D01*
X70393305Y-98048692D01*
X70412648Y-98153576D01*
X70435685Y-98216763D01*
X70462730Y-98248856D01*
X70494099Y-98260454D01*
X70530108Y-98262158D01*
X70571072Y-98264569D01*
X70590054Y-98268402D01*
X70725892Y-98281858D01*
X71009476Y-98294580D01*
X71409047Y-98305669D01*
X71892845Y-98314225D01*
X72378821Y-98319047D01*
X72957821Y-98321997D01*
X73383595Y-98320494D01*
X73682417Y-98311690D01*
X73880560Y-98292737D01*
X74004294Y-98260789D01*
X74079895Y-98212998D01*
X74133634Y-98146517D01*
X74146164Y-98127515D01*
X74194871Y-98014331D01*
X74230774Y-97830052D01*
X74255541Y-97550988D01*
X74270842Y-97153446D01*
X74278347Y-96613738D01*
X74279779Y-96231345D01*
X74284195Y-95513703D01*
X74300472Y-94952583D01*
X74336270Y-94525050D01*
X74399250Y-94208168D01*
X74497069Y-93979005D01*
X74637389Y-93814623D01*
X74827869Y-93692090D01*
X75076167Y-93588470D01*
X75173989Y-93553864D01*
X75426129Y-93472786D01*
X75659150Y-93417396D01*
X75914110Y-93383907D01*
X76232064Y-93368534D01*
X76654069Y-93367491D01*
X77115342Y-93374846D01*
X77798249Y-93379144D01*
X78368371Y-93356374D01*
X78885876Y-93298155D01*
X79410935Y-93196104D01*
X80003717Y-93041839D01*
X80452823Y-92909905D01*
X81360425Y-92542973D01*
X82191740Y-92014406D01*
X82944016Y-91326319D01*
X83614500Y-90480831D01*
X83617717Y-90476101D01*
X83909901Y-90035382D01*
X84118846Y-89683952D01*
X84269521Y-89367880D01*
X84386895Y-89033229D01*
X84495935Y-88626066D01*
X84519852Y-88527384D01*
X84647337Y-87771797D01*
X84695173Y-86942117D01*
X84667658Y-86082372D01*
X84569091Y-85236589D01*
X84403771Y-84448792D01*
X84175995Y-83763010D01*
X84023215Y-83440774D01*
X83732093Y-82981245D01*
X83322219Y-82445239D01*
X82818154Y-81864372D01*
X82697167Y-81733817D01*
X82160489Y-81268272D01*
X81467179Y-80842350D01*
X80637845Y-80467244D01*
X79897674Y-80213483D01*
X79738878Y-80168423D01*
X79576903Y-80130800D01*
X79393775Y-80099729D01*
X79171520Y-80074325D01*
X78892163Y-80053704D01*
X78537730Y-80036980D01*
X78090247Y-80023269D01*
X77531739Y-80011686D01*
X76844231Y-80001346D01*
X76009750Y-79991365D01*
X75214112Y-79982940D01*
X74177913Y-79973344D01*
X73306581Y-79968207D01*
X72585515Y-79968410D01*
X72000112Y-79974832D01*
X71535770Y-79988352D01*
X71177887Y-80009849D01*
X70911862Y-80040205D01*
X70723091Y-80080298D01*
X70596973Y-80131008D01*
X70518905Y-80193214D01*
X70474286Y-80267797D01*
X70474006Y-80268491D01*
X70446628Y-80408967D01*
X70415301Y-80681852D01*
X70382578Y-81047746D01*
X70351011Y-81467250D01*
X70323152Y-81900963D01*
X70301554Y-82309485D01*
X70288768Y-82653417D01*
X70287348Y-82893359D01*
X69297893Y-82893359D01*
X69306862Y-80154547D01*
X69546961Y-79699590D01*
X69698325Y-79437620D01*
X69845978Y-79278704D01*
X70053458Y-79171949D01*
X70309859Y-79088512D01*
X70443245Y-79052774D01*
X70593631Y-79023144D01*
X70777495Y-78999197D01*
X71011315Y-78980507D01*
X71311570Y-78966647D01*
X71694738Y-78957191D01*
X72177297Y-78951713D01*
X72775727Y-78949786D01*
X73506504Y-78950985D01*
G36*
X128404654Y-78862312D02*
G01*
X128632467Y-78884664D01*
X128817190Y-78925180D01*
X128992912Y-78987284D01*
X129193724Y-79074405D01*
X129204715Y-79079336D01*
X129491590Y-79214294D01*
X129669779Y-79334142D01*
X129786224Y-79491794D01*
X129887862Y-79740163D01*
X129948939Y-79918275D01*
X129986980Y-80032880D01*
X130019909Y-80144614D01*
X130048105Y-80266680D01*
X130071948Y-80412281D01*
X130091818Y-80594620D01*
X130108096Y-80826899D01*
X130121162Y-81122322D01*
X130131395Y-81494091D01*
X130139175Y-81955409D01*
X130144884Y-82519480D01*
X130148901Y-83199506D01*
X130151605Y-84008689D01*
X130153377Y-84960233D01*
X130154598Y-86067341D01*
X130155447Y-87091681D01*
X130156914Y-88363976D01*
X130159300Y-89468070D01*
X130162823Y-90415265D01*
X130167702Y-91216863D01*
X130174156Y-91884167D01*
X130182404Y-92428479D01*
X130192664Y-92861102D01*
X130205154Y-93193338D01*
X130220094Y-93436489D01*
X130237703Y-93601859D01*
X130258198Y-93700749D01*
X130281799Y-93744461D01*
X130284204Y-93746150D01*
X130413844Y-93773944D01*
X130694304Y-93801546D01*
X131096897Y-93828109D01*
X131592939Y-93852785D01*
X132153744Y-93874728D01*
X132750627Y-93893089D01*
X133354903Y-93907022D01*
X133937887Y-93915679D01*
X134470893Y-93918212D01*
X134925237Y-93913775D01*
X135272233Y-93901520D01*
X135354436Y-93895927D01*
X135724665Y-93870826D01*
X135971336Y-93873542D01*
X136149381Y-93912832D01*
X136313732Y-93997451D01*
X136416270Y-94065173D01*
X136673557Y-94291123D01*
X136912826Y-94580249D01*
X136972878Y-94673613D01*
X137052936Y-94817569D01*
X137110982Y-94955362D01*
X137150391Y-95117799D01*
X137174538Y-95335692D01*
X137186798Y-95639848D01*
X137190545Y-96061077D01*
X137189155Y-96630188D01*
X137189081Y-96647337D01*
X137185841Y-97218237D01*
X137179217Y-97640373D01*
X137165249Y-97944488D01*
X137139976Y-98161321D01*
X137099439Y-98321615D01*
X137039677Y-98456109D01*
X136956729Y-98595546D01*
X136933333Y-98632528D01*
X136764576Y-98864850D01*
X136578217Y-99021454D01*
X136311641Y-99147198D01*
X136119447Y-99215650D01*
X135993644Y-99256544D01*
X135867871Y-99291105D01*
X135726679Y-99319837D01*
X135554619Y-99343242D01*
X135336240Y-99361825D01*
X135056093Y-99376090D01*
X134698728Y-99386540D01*
X134248695Y-99393678D01*
X133690546Y-99398009D01*
X133008829Y-99400037D01*
X132188096Y-99400264D01*
X131212897Y-99399195D01*
X130523180Y-99398101D01*
X129445638Y-99396168D01*
X128532376Y-99393873D01*
X127768167Y-99390649D01*
X127137786Y-99385928D01*
X126626006Y-99379141D01*
X126217602Y-99369721D01*
X125897347Y-99357100D01*
X125650016Y-99340709D01*
X125460383Y-99319981D01*
X125313221Y-99294347D01*
X125193306Y-99263240D01*
X125085411Y-99226091D01*
X124998381Y-99191986D01*
X124678166Y-99040741D01*
X124466629Y-98867790D01*
X124296240Y-98617180D01*
X124289070Y-98604287D01*
X124073398Y-98214313D01*
X124062243Y-89274183D01*
X124054560Y-83116162D01*
X125122709Y-83116162D01*
X125138552Y-83249428D01*
X125157620Y-83387057D01*
X125171273Y-83665443D01*
X125178367Y-84045888D01*
X125177760Y-84489694D01*
X125177025Y-84552427D01*
X125170484Y-85166463D01*
X125165281Y-85884113D01*
X125161361Y-86688947D01*
X125158670Y-87564532D01*
X125157154Y-88494438D01*
X125156757Y-89462234D01*
X125157427Y-90451489D01*
X125159108Y-91445771D01*
X125161746Y-92428651D01*
X125165286Y-93383696D01*
X125169676Y-94294476D01*
X125174859Y-95144560D01*
X125180782Y-95917517D01*
X125187391Y-96596916D01*
X125194631Y-97166326D01*
X125202448Y-97609316D01*
X125210787Y-97909454D01*
X125219594Y-98050310D01*
X125221687Y-98058461D01*
X125351718Y-98173694D01*
X125478767Y-98240306D01*
X125614112Y-98258897D01*
X125908689Y-98275155D01*
X126342238Y-98289093D01*
X126894500Y-98300724D01*
X127545216Y-98310058D01*
X128274128Y-98317109D01*
X129060977Y-98321890D01*
X129885503Y-98324411D01*
X130727449Y-98324686D01*
X131566554Y-98322726D01*
X132382560Y-98318545D01*
X133155208Y-98312153D01*
X133864240Y-98303565D01*
X134489396Y-98292791D01*
X135010417Y-98279844D01*
X135407045Y-98264737D01*
X135659020Y-98247481D01*
X135738591Y-98234091D01*
X135940783Y-98132337D01*
X136053440Y-98035149D01*
X136086419Y-97890229D01*
X136108278Y-97607619D01*
X136119656Y-97227428D01*
X136121190Y-96789766D01*
X136113520Y-96334744D01*
X136097286Y-95902473D01*
X136073125Y-95533062D01*
X136041677Y-95266622D01*
X136007447Y-95147708D01*
X135960360Y-95105134D01*
X135875251Y-95070500D01*
X135733323Y-95042555D01*
X135515783Y-95020043D01*
X135203834Y-95001711D01*
X134778683Y-94986306D01*
X134221534Y-94972574D01*
X133513591Y-94959261D01*
X133073176Y-94951984D01*
X132283288Y-94938812D01*
X131651250Y-94926275D01*
X131155422Y-94912710D01*
X130774165Y-94896452D01*
X130485837Y-94875836D01*
X130268800Y-94849197D01*
X130101413Y-94814872D01*
X129962035Y-94771195D01*
X129829028Y-94716502D01*
X129791166Y-94699524D01*
X129666529Y-94644208D01*
X129557817Y-94590655D01*
X129463906Y-94526909D01*
X129383673Y-94441010D01*
X129315994Y-94321001D01*
X129259745Y-94154922D01*
X129213803Y-93930816D01*
X129177044Y-93636725D01*
X129148345Y-93260689D01*
X129126582Y-92790752D01*
X129110632Y-92214953D01*
X129099370Y-91521336D01*
X129091674Y-90697942D01*
X129086419Y-89732813D01*
X129082482Y-88613989D01*
X129078740Y-87329514D01*
X129078092Y-87110377D01*
X129072443Y-85655821D01*
X129064710Y-84379706D01*
X129054874Y-83280976D01*
X129042918Y-82358581D01*
X129028823Y-81611465D01*
X129012572Y-81038576D01*
X128994146Y-80638861D01*
X128973527Y-80411265D01*
X128962496Y-80361947D01*
X128830077Y-80148812D01*
X128688436Y-80025375D01*
X128531619Y-79989237D01*
X128228485Y-79959963D01*
X127812162Y-79939673D01*
X127315776Y-79930486D01*
X127200339Y-79930165D01*
X126516561Y-79939125D01*
X125993154Y-79974089D01*
X125611519Y-80047182D01*
X125353059Y-80170530D01*
X125199177Y-80356257D01*
X125131273Y-80616490D01*
X125130752Y-80963353D01*
X125160060Y-81260392D01*
X125197041Y-81802359D01*
X125184785Y-82335156D01*
X125164318Y-82532736D01*
X125130933Y-82854258D01*
X125122709Y-83116162D01*
X124054560Y-83116162D01*
X124051088Y-80334052D01*
X124263217Y-79827178D01*
X124388443Y-79549043D01*
X124509633Y-79375552D01*
X124681231Y-79255850D01*
X124957679Y-79139083D01*
X125028559Y-79112276D01*
X125258762Y-79033247D01*
X125489842Y-78975192D01*
X125757736Y-78933952D01*
X126098382Y-78905368D01*
X126547718Y-78885278D01*
X127121774Y-78869963D01*
X127683397Y-78858388D01*
X128099661Y-78854695D01*
X128404654Y-78862312D01*
G37*
X128404654Y-78862312D02*
X128632467Y-78884664D01*
X128817190Y-78925180D01*
X128992912Y-78987284D01*
X129193724Y-79074405D01*
X129204715Y-79079336D01*
X129491590Y-79214294D01*
X129669779Y-79334142D01*
X129786224Y-79491794D01*
X129887862Y-79740163D01*
X129948939Y-79918275D01*
X129986980Y-80032880D01*
X130019909Y-80144614D01*
X130048105Y-80266680D01*
X130071948Y-80412281D01*
X130091818Y-80594620D01*
X130108096Y-80826899D01*
X130121162Y-81122322D01*
X130131395Y-81494091D01*
X130139175Y-81955409D01*
X130144884Y-82519480D01*
X130148901Y-83199506D01*
X130151605Y-84008689D01*
X130153377Y-84960233D01*
X130154598Y-86067341D01*
X130155447Y-87091681D01*
X130156914Y-88363976D01*
X130159300Y-89468070D01*
X130162823Y-90415265D01*
X130167702Y-91216863D01*
X130174156Y-91884167D01*
X130182404Y-92428479D01*
X130192664Y-92861102D01*
X130205154Y-93193338D01*
X130220094Y-93436489D01*
X130237703Y-93601859D01*
X130258198Y-93700749D01*
X130281799Y-93744461D01*
X130284204Y-93746150D01*
X130413844Y-93773944D01*
X130694304Y-93801546D01*
X131096897Y-93828109D01*
X131592939Y-93852785D01*
X132153744Y-93874728D01*
X132750627Y-93893089D01*
X133354903Y-93907022D01*
X133937887Y-93915679D01*
X134470893Y-93918212D01*
X134925237Y-93913775D01*
X135272233Y-93901520D01*
X135354436Y-93895927D01*
X135724665Y-93870826D01*
X135971336Y-93873542D01*
X136149381Y-93912832D01*
X136313732Y-93997451D01*
X136416270Y-94065173D01*
X136673557Y-94291123D01*
X136912826Y-94580249D01*
X136972878Y-94673613D01*
X137052936Y-94817569D01*
X137110982Y-94955362D01*
X137150391Y-95117799D01*
X137174538Y-95335692D01*
X137186798Y-95639848D01*
X137190545Y-96061077D01*
X137189155Y-96630188D01*
X137189081Y-96647337D01*
X137185841Y-97218237D01*
X137179217Y-97640373D01*
X137165249Y-97944488D01*
X137139976Y-98161321D01*
X137099439Y-98321615D01*
X137039677Y-98456109D01*
X136956729Y-98595546D01*
X136933333Y-98632528D01*
X136764576Y-98864850D01*
X136578217Y-99021454D01*
X136311641Y-99147198D01*
X136119447Y-99215650D01*
X135993644Y-99256544D01*
X135867871Y-99291105D01*
X135726679Y-99319837D01*
X135554619Y-99343242D01*
X135336240Y-99361825D01*
X135056093Y-99376090D01*
X134698728Y-99386540D01*
X134248695Y-99393678D01*
X133690546Y-99398009D01*
X133008829Y-99400037D01*
X132188096Y-99400264D01*
X131212897Y-99399195D01*
X130523180Y-99398101D01*
X129445638Y-99396168D01*
X128532376Y-99393873D01*
X127768167Y-99390649D01*
X127137786Y-99385928D01*
X126626006Y-99379141D01*
X126217602Y-99369721D01*
X125897347Y-99357100D01*
X125650016Y-99340709D01*
X125460383Y-99319981D01*
X125313221Y-99294347D01*
X125193306Y-99263240D01*
X125085411Y-99226091D01*
X124998381Y-99191986D01*
X124678166Y-99040741D01*
X124466629Y-98867790D01*
X124296240Y-98617180D01*
X124289070Y-98604287D01*
X124073398Y-98214313D01*
X124062243Y-89274183D01*
X124054560Y-83116162D01*
X125122709Y-83116162D01*
X125138552Y-83249428D01*
X125157620Y-83387057D01*
X125171273Y-83665443D01*
X125178367Y-84045888D01*
X125177760Y-84489694D01*
X125177025Y-84552427D01*
X125170484Y-85166463D01*
X125165281Y-85884113D01*
X125161361Y-86688947D01*
X125158670Y-87564532D01*
X125157154Y-88494438D01*
X125156757Y-89462234D01*
X125157427Y-90451489D01*
X125159108Y-91445771D01*
X125161746Y-92428651D01*
X125165286Y-93383696D01*
X125169676Y-94294476D01*
X125174859Y-95144560D01*
X125180782Y-95917517D01*
X125187391Y-96596916D01*
X125194631Y-97166326D01*
X125202448Y-97609316D01*
X125210787Y-97909454D01*
X125219594Y-98050310D01*
X125221687Y-98058461D01*
X125351718Y-98173694D01*
X125478767Y-98240306D01*
X125614112Y-98258897D01*
X125908689Y-98275155D01*
X126342238Y-98289093D01*
X126894500Y-98300724D01*
X127545216Y-98310058D01*
X128274128Y-98317109D01*
X129060977Y-98321890D01*
X129885503Y-98324411D01*
X130727449Y-98324686D01*
X131566554Y-98322726D01*
X132382560Y-98318545D01*
X133155208Y-98312153D01*
X133864240Y-98303565D01*
X134489396Y-98292791D01*
X135010417Y-98279844D01*
X135407045Y-98264737D01*
X135659020Y-98247481D01*
X135738591Y-98234091D01*
X135940783Y-98132337D01*
X136053440Y-98035149D01*
X136086419Y-97890229D01*
X136108278Y-97607619D01*
X136119656Y-97227428D01*
X136121190Y-96789766D01*
X136113520Y-96334744D01*
X136097286Y-95902473D01*
X136073125Y-95533062D01*
X136041677Y-95266622D01*
X136007447Y-95147708D01*
X135960360Y-95105134D01*
X135875251Y-95070500D01*
X135733323Y-95042555D01*
X135515783Y-95020043D01*
X135203834Y-95001711D01*
X134778683Y-94986306D01*
X134221534Y-94972574D01*
X133513591Y-94959261D01*
X133073176Y-94951984D01*
X132283288Y-94938812D01*
X131651250Y-94926275D01*
X131155422Y-94912710D01*
X130774165Y-94896452D01*
X130485837Y-94875836D01*
X130268800Y-94849197D01*
X130101413Y-94814872D01*
X129962035Y-94771195D01*
X129829028Y-94716502D01*
X129791166Y-94699524D01*
X129666529Y-94644208D01*
X129557817Y-94590655D01*
X129463906Y-94526909D01*
X129383673Y-94441010D01*
X129315994Y-94321001D01*
X129259745Y-94154922D01*
X129213803Y-93930816D01*
X129177044Y-93636725D01*
X129148345Y-93260689D01*
X129126582Y-92790752D01*
X129110632Y-92214953D01*
X129099370Y-91521336D01*
X129091674Y-90697942D01*
X129086419Y-89732813D01*
X129082482Y-88613989D01*
X129078740Y-87329514D01*
X129078092Y-87110377D01*
X129072443Y-85655821D01*
X129064710Y-84379706D01*
X129054874Y-83280976D01*
X129042918Y-82358581D01*
X129028823Y-81611465D01*
X129012572Y-81038576D01*
X128994146Y-80638861D01*
X128973527Y-80411265D01*
X128962496Y-80361947D01*
X128830077Y-80148812D01*
X128688436Y-80025375D01*
X128531619Y-79989237D01*
X128228485Y-79959963D01*
X127812162Y-79939673D01*
X127315776Y-79930486D01*
X127200339Y-79930165D01*
X126516561Y-79939125D01*
X125993154Y-79974089D01*
X125611519Y-80047182D01*
X125353059Y-80170530D01*
X125199177Y-80356257D01*
X125131273Y-80616490D01*
X125130752Y-80963353D01*
X125160060Y-81260392D01*
X125197041Y-81802359D01*
X125184785Y-82335156D01*
X125164318Y-82532736D01*
X125130933Y-82854258D01*
X125122709Y-83116162D01*
X124054560Y-83116162D01*
X124051088Y-80334052D01*
X124263217Y-79827178D01*
X124388443Y-79549043D01*
X124509633Y-79375552D01*
X124681231Y-79255850D01*
X124957679Y-79139083D01*
X125028559Y-79112276D01*
X125258762Y-79033247D01*
X125489842Y-78975192D01*
X125757736Y-78933952D01*
X126098382Y-78905368D01*
X126547718Y-78885278D01*
X127121774Y-78869963D01*
X127683397Y-78858388D01*
X128099661Y-78854695D01*
X128404654Y-78862312D01*
G36*
X148620224Y-79173495D02*
G01*
X149534818Y-79491019D01*
X150313274Y-79846248D01*
X150998731Y-80267806D01*
X151634328Y-80784312D01*
X152263202Y-81424390D01*
X152601381Y-81814971D01*
X153085349Y-82465231D01*
X153461418Y-83145261D01*
X153756441Y-83909636D01*
X153923702Y-84502383D01*
X154035410Y-84972409D01*
X154109058Y-85360741D01*
X154151556Y-85730453D01*
X154169815Y-86144617D01*
X154170743Y-86666309D01*
X154169902Y-86749790D01*
X154130131Y-87702322D01*
X154025022Y-88526592D01*
X153841991Y-89265915D01*
X153568452Y-89963610D01*
X153191820Y-90662991D01*
X152901332Y-91115983D01*
X152237215Y-91958587D01*
X151463713Y-92691884D01*
X150606448Y-93296737D01*
X149691043Y-93754011D01*
X149096968Y-93957436D01*
X148354125Y-94157958D01*
X147733190Y-94301465D01*
X147188131Y-94394327D01*
X146672916Y-94442918D01*
X146141512Y-94453609D01*
X145631632Y-94437110D01*
X144972287Y-94419173D01*
X144470510Y-94440654D01*
X144108289Y-94503632D01*
X143867611Y-94610188D01*
X143821756Y-94646142D01*
X143799901Y-94751367D01*
X143780862Y-95007008D01*
X143765794Y-95383980D01*
X143755854Y-95853203D01*
X143752198Y-96385593D01*
X143752197Y-96395085D01*
X143750385Y-97000908D01*
X143743131Y-97458146D01*
X143727711Y-97797699D01*
X143701400Y-98050468D01*
X143661473Y-98247353D01*
X143605205Y-98419254D01*
X143565063Y-98517236D01*
X143367158Y-98866101D01*
X143093628Y-99114727D01*
X142990371Y-99179366D01*
X142850523Y-99257799D01*
X142717887Y-99315651D01*
X142563419Y-99355978D01*
X142358076Y-99381836D01*
X142072814Y-99396281D01*
X141678592Y-99402370D01*
X141146366Y-99403158D01*
X140868618Y-99402630D01*
X140242593Y-99399062D01*
X139763458Y-99389708D01*
X139398624Y-99371847D01*
X139115503Y-99342759D01*
X138881506Y-99299725D01*
X138664043Y-99240024D01*
X138575468Y-99211230D01*
X138272057Y-99102916D01*
X138087952Y-99001771D01*
X137971360Y-98860675D01*
X137870489Y-98632503D01*
X137834417Y-98536999D01*
X137768173Y-98348168D01*
X137720112Y-98167542D01*
X137687357Y-97962176D01*
X137667032Y-97699124D01*
X137656259Y-97345442D01*
X137652164Y-96868186D01*
X137651729Y-96444653D01*
X137652115Y-96336869D01*
X137653221Y-96062531D01*
X137654993Y-95634586D01*
X137657375Y-95065985D01*
X137658168Y-94878039D01*
X138762587Y-94878039D01*
X138764038Y-95591474D01*
X138767180Y-96189466D01*
X138772185Y-96682693D01*
X138779223Y-97081831D01*
X138788466Y-97397557D01*
X138800086Y-97640548D01*
X138814254Y-97821481D01*
X138831141Y-97951033D01*
X138850919Y-98039881D01*
X138873760Y-98098702D01*
X138899834Y-98138172D01*
X138918449Y-98158360D01*
X138993012Y-98219117D01*
X139095012Y-98263608D01*
X139251083Y-98294326D01*
X139487859Y-98313768D01*
X139831974Y-98324428D01*
X140310060Y-98328801D01*
X140744882Y-98329458D01*
X141328236Y-98328650D01*
X141758320Y-98324280D01*
X142061367Y-98313435D01*
X142263610Y-98293199D01*
X142391283Y-98260656D01*
X142470620Y-98212892D01*
X142527854Y-98146991D01*
X142539935Y-98129982D01*
X142590093Y-98028878D01*
X142627108Y-97872694D01*
X142652776Y-97636579D01*
X142668892Y-97295682D01*
X142677252Y-96825149D01*
X142679653Y-96200131D01*
X142679653Y-96196725D01*
X142683171Y-95492946D01*
X142699240Y-94944831D01*
X142736137Y-94528589D01*
X142802138Y-94220431D01*
X142905517Y-93996566D01*
X143054550Y-93833203D01*
X143257513Y-93706552D01*
X143522682Y-93592824D01*
X143594973Y-93565380D01*
X143815006Y-93488284D01*
X144024687Y-93432163D01*
X144258404Y-93393568D01*
X144550547Y-93369051D01*
X144935502Y-93355163D01*
X145447660Y-93348457D01*
X145776119Y-93346661D01*
X146377698Y-93341926D01*
X146840886Y-93330626D01*
X147206779Y-93308649D01*
X147516475Y-93271883D01*
X147811071Y-93216217D01*
X148131664Y-93137538D01*
X148289194Y-93095212D01*
X148746292Y-92957186D01*
X149211014Y-92794692D01*
X149609114Y-92634483D01*
X149748286Y-92569491D01*
X150498307Y-92103793D01*
X151201994Y-91493627D01*
X151831040Y-90773123D01*
X152357142Y-89976408D01*
X152751993Y-89137613D01*
X152861510Y-88815677D01*
X152927925Y-88527500D01*
X152995590Y-88116775D01*
X153056216Y-87640208D01*
X153098497Y-87194333D01*
X153132836Y-86719603D01*
X153147148Y-86360406D01*
X153136741Y-86058116D01*
X153096919Y-85754105D01*
X153022989Y-85389744D01*
X152917897Y-84938553D01*
X152749598Y-84295546D01*
X152568677Y-83771925D01*
X152346771Y-83310914D01*
X152055516Y-82855736D01*
X151666548Y-82349617D01*
X151559104Y-82218611D01*
X151167580Y-81777453D01*
X150781971Y-81423204D01*
X150348111Y-81113505D01*
X149811833Y-80805995D01*
X149635483Y-80714280D01*
X149333956Y-80562876D01*
X149058510Y-80435494D01*
X148790469Y-80329861D01*
X148511154Y-80243707D01*
X148201885Y-80174760D01*
X147843984Y-80120749D01*
X147418773Y-80079402D01*
X146907572Y-80048449D01*
X146291704Y-80025618D01*
X145552488Y-80008638D01*
X144671247Y-79995238D01*
X143629302Y-79983146D01*
X143622056Y-79983067D01*
X142584277Y-79972926D01*
X141711351Y-79967410D01*
X140988665Y-79967431D01*
X140401605Y-79973897D01*
X139935556Y-79987720D01*
X139575906Y-80009809D01*
X139308040Y-80041074D01*
X139117346Y-80082425D01*
X138989208Y-80134771D01*
X138909014Y-80199023D01*
X138862150Y-80276091D01*
X138860727Y-80279539D01*
X138852158Y-80387972D01*
X138843416Y-80663494D01*
X138834619Y-81093691D01*
X138825889Y-81666147D01*
X138817343Y-82368447D01*
X138809103Y-83188176D01*
X138801287Y-84112917D01*
X138794016Y-85130256D01*
X138787409Y-86227778D01*
X138781586Y-87393067D01*
X138776666Y-88613708D01*
X138774691Y-89205533D01*
X138770260Y-90656335D01*
X138766663Y-91938310D01*
X138764070Y-93062134D01*
X138762655Y-94038485D01*
X138762587Y-94878039D01*
X137658168Y-94878039D01*
X137660313Y-94369677D01*
X137663752Y-93558609D01*
X137667637Y-92645731D01*
X137671913Y-91643993D01*
X137676526Y-90566342D01*
X137681419Y-89425728D01*
X137686539Y-88235100D01*
X137686551Y-88232285D01*
X137721325Y-80154547D01*
X137985218Y-79706083D01*
X138080553Y-79545117D01*
X138171761Y-79408887D01*
X138273855Y-79295313D01*
X138401853Y-79202315D01*
X138570768Y-79127812D01*
X138795616Y-79069726D01*
X139091412Y-79025975D01*
X139473171Y-78994481D01*
X139955910Y-78973162D01*
X140554642Y-78959940D01*
X141284383Y-78952733D01*
X142160148Y-78949462D01*
X143196953Y-78948048D01*
X143459447Y-78947767D01*
X147874223Y-78942886D01*
X148620224Y-79173495D01*
G37*
X148620224Y-79173495D02*
X149534818Y-79491019D01*
X150313274Y-79846248D01*
X150998731Y-80267806D01*
X151634328Y-80784312D01*
X152263202Y-81424390D01*
X152601381Y-81814971D01*
X153085349Y-82465231D01*
X153461418Y-83145261D01*
X153756441Y-83909636D01*
X153923702Y-84502383D01*
X154035410Y-84972409D01*
X154109058Y-85360741D01*
X154151556Y-85730453D01*
X154169815Y-86144617D01*
X154170743Y-86666309D01*
X154169902Y-86749790D01*
X154130131Y-87702322D01*
X154025022Y-88526592D01*
X153841991Y-89265915D01*
X153568452Y-89963610D01*
X153191820Y-90662991D01*
X152901332Y-91115983D01*
X152237215Y-91958587D01*
X151463713Y-92691884D01*
X150606448Y-93296737D01*
X149691043Y-93754011D01*
X149096968Y-93957436D01*
X148354125Y-94157958D01*
X147733190Y-94301465D01*
X147188131Y-94394327D01*
X146672916Y-94442918D01*
X146141512Y-94453609D01*
X145631632Y-94437110D01*
X144972287Y-94419173D01*
X144470510Y-94440654D01*
X144108289Y-94503632D01*
X143867611Y-94610188D01*
X143821756Y-94646142D01*
X143799901Y-94751367D01*
X143780862Y-95007008D01*
X143765794Y-95383980D01*
X143755854Y-95853203D01*
X143752198Y-96385593D01*
X143752197Y-96395085D01*
X143750385Y-97000908D01*
X143743131Y-97458146D01*
X143727711Y-97797699D01*
X143701400Y-98050468D01*
X143661473Y-98247353D01*
X143605205Y-98419254D01*
X143565063Y-98517236D01*
X143367158Y-98866101D01*
X143093628Y-99114727D01*
X142990371Y-99179366D01*
X142850523Y-99257799D01*
X142717887Y-99315651D01*
X142563419Y-99355978D01*
X142358076Y-99381836D01*
X142072814Y-99396281D01*
X141678592Y-99402370D01*
X141146366Y-99403158D01*
X140868618Y-99402630D01*
X140242593Y-99399062D01*
X139763458Y-99389708D01*
X139398624Y-99371847D01*
X139115503Y-99342759D01*
X138881506Y-99299725D01*
X138664043Y-99240024D01*
X138575468Y-99211230D01*
X138272057Y-99102916D01*
X138087952Y-99001771D01*
X137971360Y-98860675D01*
X137870489Y-98632503D01*
X137834417Y-98536999D01*
X137768173Y-98348168D01*
X137720112Y-98167542D01*
X137687357Y-97962176D01*
X137667032Y-97699124D01*
X137656259Y-97345442D01*
X137652164Y-96868186D01*
X137651729Y-96444653D01*
X137652115Y-96336869D01*
X137653221Y-96062531D01*
X137654993Y-95634586D01*
X137657375Y-95065985D01*
X137658168Y-94878039D01*
X138762587Y-94878039D01*
X138764038Y-95591474D01*
X138767180Y-96189466D01*
X138772185Y-96682693D01*
X138779223Y-97081831D01*
X138788466Y-97397557D01*
X138800086Y-97640548D01*
X138814254Y-97821481D01*
X138831141Y-97951033D01*
X138850919Y-98039881D01*
X138873760Y-98098702D01*
X138899834Y-98138172D01*
X138918449Y-98158360D01*
X138993012Y-98219117D01*
X139095012Y-98263608D01*
X139251083Y-98294326D01*
X139487859Y-98313768D01*
X139831974Y-98324428D01*
X140310060Y-98328801D01*
X140744882Y-98329458D01*
X141328236Y-98328650D01*
X141758320Y-98324280D01*
X142061367Y-98313435D01*
X142263610Y-98293199D01*
X142391283Y-98260656D01*
X142470620Y-98212892D01*
X142527854Y-98146991D01*
X142539935Y-98129982D01*
X142590093Y-98028878D01*
X142627108Y-97872694D01*
X142652776Y-97636579D01*
X142668892Y-97295682D01*
X142677252Y-96825149D01*
X142679653Y-96200131D01*
X142679653Y-96196725D01*
X142683171Y-95492946D01*
X142699240Y-94944831D01*
X142736137Y-94528589D01*
X142802138Y-94220431D01*
X142905517Y-93996566D01*
X143054550Y-93833203D01*
X143257513Y-93706552D01*
X143522682Y-93592824D01*
X143594973Y-93565380D01*
X143815006Y-93488284D01*
X144024687Y-93432163D01*
X144258404Y-93393568D01*
X144550547Y-93369051D01*
X144935502Y-93355163D01*
X145447660Y-93348457D01*
X145776119Y-93346661D01*
X146377698Y-93341926D01*
X146840886Y-93330626D01*
X147206779Y-93308649D01*
X147516475Y-93271883D01*
X147811071Y-93216217D01*
X148131664Y-93137538D01*
X148289194Y-93095212D01*
X148746292Y-92957186D01*
X149211014Y-92794692D01*
X149609114Y-92634483D01*
X149748286Y-92569491D01*
X150498307Y-92103793D01*
X151201994Y-91493627D01*
X151831040Y-90773123D01*
X152357142Y-89976408D01*
X152751993Y-89137613D01*
X152861510Y-88815677D01*
X152927925Y-88527500D01*
X152995590Y-88116775D01*
X153056216Y-87640208D01*
X153098497Y-87194333D01*
X153132836Y-86719603D01*
X153147148Y-86360406D01*
X153136741Y-86058116D01*
X153096919Y-85754105D01*
X153022989Y-85389744D01*
X152917897Y-84938553D01*
X152749598Y-84295546D01*
X152568677Y-83771925D01*
X152346771Y-83310914D01*
X152055516Y-82855736D01*
X151666548Y-82349617D01*
X151559104Y-82218611D01*
X151167580Y-81777453D01*
X150781971Y-81423204D01*
X150348111Y-81113505D01*
X149811833Y-80805995D01*
X149635483Y-80714280D01*
X149333956Y-80562876D01*
X149058510Y-80435494D01*
X148790469Y-80329861D01*
X148511154Y-80243707D01*
X148201885Y-80174760D01*
X147843984Y-80120749D01*
X147418773Y-80079402D01*
X146907572Y-80048449D01*
X146291704Y-80025618D01*
X145552488Y-80008638D01*
X144671247Y-79995238D01*
X143629302Y-79983146D01*
X143622056Y-79983067D01*
X142584277Y-79972926D01*
X141711351Y-79967410D01*
X140988665Y-79967431D01*
X140401605Y-79973897D01*
X139935556Y-79987720D01*
X139575906Y-80009809D01*
X139308040Y-80041074D01*
X139117346Y-80082425D01*
X138989208Y-80134771D01*
X138909014Y-80199023D01*
X138862150Y-80276091D01*
X138860727Y-80279539D01*
X138852158Y-80387972D01*
X138843416Y-80663494D01*
X138834619Y-81093691D01*
X138825889Y-81666147D01*
X138817343Y-82368447D01*
X138809103Y-83188176D01*
X138801287Y-84112917D01*
X138794016Y-85130256D01*
X138787409Y-86227778D01*
X138781586Y-87393067D01*
X138776666Y-88613708D01*
X138774691Y-89205533D01*
X138770260Y-90656335D01*
X138766663Y-91938310D01*
X138764070Y-93062134D01*
X138762655Y-94038485D01*
X138762587Y-94878039D01*
X137658168Y-94878039D01*
X137660313Y-94369677D01*
X137663752Y-93558609D01*
X137667637Y-92645731D01*
X137671913Y-91643993D01*
X137676526Y-90566342D01*
X137681419Y-89425728D01*
X137686539Y-88235100D01*
X137686551Y-88232285D01*
X137721325Y-80154547D01*
X137985218Y-79706083D01*
X138080553Y-79545117D01*
X138171761Y-79408887D01*
X138273855Y-79295313D01*
X138401853Y-79202315D01*
X138570768Y-79127812D01*
X138795616Y-79069726D01*
X139091412Y-79025975D01*
X139473171Y-78994481D01*
X139955910Y-78973162D01*
X140554642Y-78959940D01*
X141284383Y-78952733D01*
X142160148Y-78949462D01*
X143196953Y-78948048D01*
X143459447Y-78947767D01*
X147874223Y-78942886D01*
X148620224Y-79173495D01*
G36*
X45652776Y-86048394D02*
G01*
X45864264Y-86078237D01*
X46026203Y-86137890D01*
X46088068Y-86171776D01*
X46312772Y-86380157D01*
X46460811Y-86704990D01*
X46538549Y-87165710D01*
X46554565Y-87596071D01*
X46563892Y-87937672D01*
X46602249Y-88158191D01*
X46685202Y-88315548D01*
X46774867Y-88415870D01*
X46899614Y-88523975D01*
X47039472Y-88589649D01*
X47241177Y-88623251D01*
X47551466Y-88635136D01*
X47769050Y-88636172D01*
X48148737Y-88639912D01*
X48397334Y-88659297D01*
X48563223Y-88706578D01*
X48694787Y-88794004D01*
X48805285Y-88898526D01*
X48919918Y-89019845D01*
X48995096Y-89136009D01*
X49039138Y-89286733D01*
X49060365Y-89511731D01*
X49067096Y-89850715D01*
X49067639Y-90150840D01*
X49059026Y-90576068D01*
X49035734Y-90952700D01*
X49001585Y-91233420D01*
X48970473Y-91354055D01*
X48777759Y-91567270D01*
X48437374Y-91709927D01*
X47969735Y-91774464D01*
X47827168Y-91777515D01*
X47549352Y-91787629D01*
X47408714Y-91827628D01*
X47363588Y-91912001D01*
X47362339Y-91939136D01*
X47277563Y-92090353D01*
X47036863Y-92256885D01*
X46958452Y-92296980D01*
X46746423Y-92414944D01*
X46613878Y-92546766D01*
X46545876Y-92733558D01*
X46527477Y-93016432D01*
X46543740Y-93436499D01*
X46543822Y-93437939D01*
X46479627Y-93765605D01*
X46272969Y-94043753D01*
X45960685Y-94231460D01*
X45788885Y-94276637D01*
X45528489Y-94298140D01*
X45160186Y-94301955D01*
X44754736Y-94287726D01*
X44669759Y-94282291D01*
X44301069Y-94250260D01*
X43989677Y-94211758D01*
X43788273Y-94173671D01*
X43756066Y-94162875D01*
X43586691Y-93994471D01*
X43493088Y-93669418D01*
X43474560Y-93184753D01*
X43483594Y-93006916D01*
X43496389Y-92643945D01*
X43471360Y-92412275D01*
X43402540Y-92266550D01*
X43383267Y-92244018D01*
X43212329Y-92057955D01*
X43067945Y-91899273D01*
X42950765Y-91794834D01*
X42806900Y-91743981D01*
X42582057Y-91736216D01*
X42313866Y-91753452D01*
X41753311Y-91756062D01*
X41336907Y-91658578D01*
X41056571Y-91456026D01*
X40904223Y-91143428D01*
X40869576Y-90864192D01*
X40868424Y-90627221D01*
X40872256Y-90281784D01*
X40880250Y-89898828D01*
X40881188Y-89863367D01*
X40896698Y-89499315D01*
X40929530Y-89261675D01*
X40995160Y-89097362D01*
X41109066Y-88953291D01*
X41162502Y-88898526D01*
X41306672Y-88767011D01*
X41448020Y-88688776D01*
X41637997Y-88650089D01*
X41928052Y-88637220D01*
X42145558Y-88636172D01*
X42668701Y-88616493D01*
X43039938Y-88541609D01*
X43284094Y-88387747D01*
X43425995Y-88131138D01*
X43490465Y-87748008D01*
X43502975Y-87336378D01*
X43522637Y-86833128D01*
X43585678Y-86484012D01*
X43698182Y-86267576D01*
X43832672Y-86173643D01*
X43988983Y-86142072D01*
X44277460Y-86108498D01*
X44650895Y-86077811D01*
X44909063Y-86062135D01*
X45348717Y-86044360D01*
X45652776Y-86048394D01*
G37*
X45652776Y-86048394D02*
X45864264Y-86078237D01*
X46026203Y-86137890D01*
X46088068Y-86171776D01*
X46312772Y-86380157D01*
X46460811Y-86704990D01*
X46538549Y-87165710D01*
X46554565Y-87596071D01*
X46563892Y-87937672D01*
X46602249Y-88158191D01*
X46685202Y-88315548D01*
X46774867Y-88415870D01*
X46899614Y-88523975D01*
X47039472Y-88589649D01*
X47241177Y-88623251D01*
X47551466Y-88635136D01*
X47769050Y-88636172D01*
X48148737Y-88639912D01*
X48397334Y-88659297D01*
X48563223Y-88706578D01*
X48694787Y-88794004D01*
X48805285Y-88898526D01*
X48919918Y-89019845D01*
X48995096Y-89136009D01*
X49039138Y-89286733D01*
X49060365Y-89511731D01*
X49067096Y-89850715D01*
X49067639Y-90150840D01*
X49059026Y-90576068D01*
X49035734Y-90952700D01*
X49001585Y-91233420D01*
X48970473Y-91354055D01*
X48777759Y-91567270D01*
X48437374Y-91709927D01*
X47969735Y-91774464D01*
X47827168Y-91777515D01*
X47549352Y-91787629D01*
X47408714Y-91827628D01*
X47363588Y-91912001D01*
X47362339Y-91939136D01*
X47277563Y-92090353D01*
X47036863Y-92256885D01*
X46958452Y-92296980D01*
X46746423Y-92414944D01*
X46613878Y-92546766D01*
X46545876Y-92733558D01*
X46527477Y-93016432D01*
X46543740Y-93436499D01*
X46543822Y-93437939D01*
X46479627Y-93765605D01*
X46272969Y-94043753D01*
X45960685Y-94231460D01*
X45788885Y-94276637D01*
X45528489Y-94298140D01*
X45160186Y-94301955D01*
X44754736Y-94287726D01*
X44669759Y-94282291D01*
X44301069Y-94250260D01*
X43989677Y-94211758D01*
X43788273Y-94173671D01*
X43756066Y-94162875D01*
X43586691Y-93994471D01*
X43493088Y-93669418D01*
X43474560Y-93184753D01*
X43483594Y-93006916D01*
X43496389Y-92643945D01*
X43471360Y-92412275D01*
X43402540Y-92266550D01*
X43383267Y-92244018D01*
X43212329Y-92057955D01*
X43067945Y-91899273D01*
X42950765Y-91794834D01*
X42806900Y-91743981D01*
X42582057Y-91736216D01*
X42313866Y-91753452D01*
X41753311Y-91756062D01*
X41336907Y-91658578D01*
X41056571Y-91456026D01*
X40904223Y-91143428D01*
X40869576Y-90864192D01*
X40868424Y-90627221D01*
X40872256Y-90281784D01*
X40880250Y-89898828D01*
X40881188Y-89863367D01*
X40896698Y-89499315D01*
X40929530Y-89261675D01*
X40995160Y-89097362D01*
X41109066Y-88953291D01*
X41162502Y-88898526D01*
X41306672Y-88767011D01*
X41448020Y-88688776D01*
X41637997Y-88650089D01*
X41928052Y-88637220D01*
X42145558Y-88636172D01*
X42668701Y-88616493D01*
X43039938Y-88541609D01*
X43284094Y-88387747D01*
X43425995Y-88131138D01*
X43490465Y-87748008D01*
X43502975Y-87336378D01*
X43522637Y-86833128D01*
X43585678Y-86484012D01*
X43698182Y-86267576D01*
X43832672Y-86173643D01*
X43988983Y-86142072D01*
X44277460Y-86108498D01*
X44650895Y-86077811D01*
X44909063Y-86062135D01*
X45348717Y-86044360D01*
X45652776Y-86048394D01*
G36*
X114574067Y-86077918D02*
G01*
X114828106Y-86115550D01*
X114874959Y-86130814D01*
X115131803Y-86319225D01*
X115299740Y-86641078D01*
X115383262Y-87107569D01*
X115394847Y-87426086D01*
X115436118Y-87945262D01*
X115558104Y-88317223D01*
X115758068Y-88535220D01*
X115862454Y-88578662D01*
X116057019Y-88607288D01*
X116361850Y-88627639D01*
X116678280Y-88634947D01*
X117216300Y-88677730D01*
X117596979Y-88803332D01*
X117819292Y-89011347D01*
X117859570Y-89103779D01*
X117890508Y-89280276D01*
X117920808Y-89585348D01*
X117945977Y-89968110D01*
X117956166Y-90197691D01*
X117956989Y-90767727D01*
X117898671Y-91185094D01*
X117761520Y-91472241D01*
X117525845Y-91651617D01*
X117171956Y-91745669D01*
X116680161Y-91776847D01*
X116570385Y-91777515D01*
X116241073Y-91784780D01*
X116029741Y-91820026D01*
X115875034Y-91903432D01*
X115715597Y-92055174D01*
X115710867Y-92060180D01*
X115566008Y-92234310D01*
X115480897Y-92412937D01*
X115436052Y-92656436D01*
X115414058Y-92980144D01*
X115364711Y-93515670D01*
X115272884Y-93887215D01*
X115135115Y-94106014D01*
X115050057Y-94160755D01*
X114657956Y-94265560D01*
X114132004Y-94314429D01*
X113689547Y-94312508D01*
X113168892Y-94277955D01*
X112801293Y-94206956D01*
X112560844Y-94076981D01*
X112421636Y-93865504D01*
X112357761Y-93549995D01*
X112343257Y-93141835D01*
X112343257Y-92441844D01*
X112021463Y-92325482D01*
X111731106Y-92150635D01*
X111615849Y-91968672D01*
X111541291Y-91814810D01*
X111422203Y-91755270D01*
X111194904Y-91760418D01*
X111172761Y-91762486D01*
X110649492Y-91757647D01*
X110220798Y-91641235D01*
X109954784Y-91461512D01*
X109858696Y-91352370D01*
X109796532Y-91229426D01*
X109760981Y-91052945D01*
X109744736Y-90783190D01*
X109740486Y-90380427D01*
X109740430Y-90296219D01*
X109756444Y-89709343D01*
X109817751Y-89277304D01*
X109944245Y-88977236D01*
X110155823Y-88786275D01*
X110472382Y-88681558D01*
X110913817Y-88640219D01*
X111184982Y-88636172D01*
X111551238Y-88631216D01*
X111787435Y-88608021D01*
X111942925Y-88554092D01*
X112067062Y-88456937D01*
X112123161Y-88398685D01*
X112233415Y-88260983D01*
X112299407Y-88108644D01*
X112332174Y-87892374D01*
X112342754Y-87562876D01*
X112343257Y-87415629D01*
X112363132Y-86896128D01*
X112427262Y-86530701D01*
X112542409Y-86297876D01*
X112715333Y-86176180D01*
X112735647Y-86169424D01*
X113001341Y-86117041D01*
X113371356Y-86080737D01*
X113792366Y-86061474D01*
X114211045Y-86060213D01*
X114574067Y-86077918D01*
G37*
X114574067Y-86077918D02*
X114828106Y-86115550D01*
X114874959Y-86130814D01*
X115131803Y-86319225D01*
X115299740Y-86641078D01*
X115383262Y-87107569D01*
X115394847Y-87426086D01*
X115436118Y-87945262D01*
X115558104Y-88317223D01*
X115758068Y-88535220D01*
X115862454Y-88578662D01*
X116057019Y-88607288D01*
X116361850Y-88627639D01*
X116678280Y-88634947D01*
X117216300Y-88677730D01*
X117596979Y-88803332D01*
X117819292Y-89011347D01*
X117859570Y-89103779D01*
X117890508Y-89280276D01*
X117920808Y-89585348D01*
X117945977Y-89968110D01*
X117956166Y-90197691D01*
X117956989Y-90767727D01*
X117898671Y-91185094D01*
X117761520Y-91472241D01*
X117525845Y-91651617D01*
X117171956Y-91745669D01*
X116680161Y-91776847D01*
X116570385Y-91777515D01*
X116241073Y-91784780D01*
X116029741Y-91820026D01*
X115875034Y-91903432D01*
X115715597Y-92055174D01*
X115710867Y-92060180D01*
X115566008Y-92234310D01*
X115480897Y-92412937D01*
X115436052Y-92656436D01*
X115414058Y-92980144D01*
X115364711Y-93515670D01*
X115272884Y-93887215D01*
X115135115Y-94106014D01*
X115050057Y-94160755D01*
X114657956Y-94265560D01*
X114132004Y-94314429D01*
X113689547Y-94312508D01*
X113168892Y-94277955D01*
X112801293Y-94206956D01*
X112560844Y-94076981D01*
X112421636Y-93865504D01*
X112357761Y-93549995D01*
X112343257Y-93141835D01*
X112343257Y-92441844D01*
X112021463Y-92325482D01*
X111731106Y-92150635D01*
X111615849Y-91968672D01*
X111541291Y-91814810D01*
X111422203Y-91755270D01*
X111194904Y-91760418D01*
X111172761Y-91762486D01*
X110649492Y-91757647D01*
X110220798Y-91641235D01*
X109954784Y-91461512D01*
X109858696Y-91352370D01*
X109796532Y-91229426D01*
X109760981Y-91052945D01*
X109744736Y-90783190D01*
X109740486Y-90380427D01*
X109740430Y-90296219D01*
X109756444Y-89709343D01*
X109817751Y-89277304D01*
X109944245Y-88977236D01*
X110155823Y-88786275D01*
X110472382Y-88681558D01*
X110913817Y-88640219D01*
X111184982Y-88636172D01*
X111551238Y-88631216D01*
X111787435Y-88608021D01*
X111942925Y-88554092D01*
X112067062Y-88456937D01*
X112123161Y-88398685D01*
X112233415Y-88260983D01*
X112299407Y-88108644D01*
X112332174Y-87892374D01*
X112342754Y-87562876D01*
X112343257Y-87415629D01*
X112363132Y-86896128D01*
X112427262Y-86530701D01*
X112542409Y-86297876D01*
X112715333Y-86176180D01*
X112735647Y-86169424D01*
X113001341Y-86117041D01*
X113371356Y-86080737D01*
X113792366Y-86061474D01*
X114211045Y-86060213D01*
X114574067Y-86077918D01*
G36*
X182673959Y-86058178D02*
G01*
X182881976Y-86091190D01*
X183043268Y-86154331D01*
X183117805Y-86197310D01*
X183360168Y-86437738D01*
X183518674Y-86811075D01*
X183597434Y-87329576D01*
X183608236Y-87659306D01*
X183618724Y-87973147D01*
X183644666Y-88218591D01*
X183675550Y-88331040D01*
X183859958Y-88490184D01*
X184171453Y-88589584D01*
X184629514Y-88634400D01*
X184835060Y-88638168D01*
X185289220Y-88659605D01*
X185607255Y-88732341D01*
X185829279Y-88873584D01*
X185995406Y-89100542D01*
X186019678Y-89146349D01*
X186066076Y-89331442D01*
X186097782Y-89643071D01*
X186114615Y-90030678D01*
X186116394Y-90443703D01*
X186102938Y-90831587D01*
X186074065Y-91143769D01*
X186029594Y-91329691D01*
X186027522Y-91333723D01*
X185801930Y-91567697D01*
X185426745Y-91716556D01*
X184912436Y-91776444D01*
X184822979Y-91777515D01*
X184493093Y-91786653D01*
X184309331Y-91818980D01*
X184239012Y-91881865D01*
X184235130Y-91910075D01*
X184165067Y-92045756D01*
X183995743Y-92190828D01*
X183988310Y-92195491D01*
X183747081Y-92368695D01*
X183604567Y-92553928D01*
X183536153Y-92804745D01*
X183517227Y-93174702D01*
X183517109Y-93220768D01*
X183491331Y-93625991D01*
X183400634Y-93925768D01*
X183224970Y-94131660D01*
X182944295Y-94255226D01*
X182538561Y-94308026D01*
X181987723Y-94301620D01*
X181677180Y-94281757D01*
X181319624Y-94248695D01*
X181020455Y-94209587D01*
X180834233Y-94171836D01*
X180814248Y-94164628D01*
X180635892Y-94001255D01*
X180521992Y-93690078D01*
X180469770Y-93221808D01*
X180465519Y-92999359D01*
X180460715Y-92657719D01*
X180437731Y-92450945D01*
X180383707Y-92334476D01*
X180285785Y-92263751D01*
X180248044Y-92245756D01*
X180072096Y-92097143D01*
X180001224Y-91939653D01*
X179973782Y-91830056D01*
X179902930Y-91771250D01*
X179746817Y-91751550D01*
X179463590Y-91759273D01*
X179371765Y-91763924D01*
X178796395Y-91753230D01*
X178370106Y-91651656D01*
X178085891Y-91456969D01*
X177995760Y-91325733D01*
X177921590Y-91075022D01*
X177876671Y-90704108D01*
X177861117Y-90269915D01*
X177875043Y-89829363D01*
X177918565Y-89439376D01*
X177991374Y-89157889D01*
X178129653Y-88924146D01*
X178334397Y-88768293D01*
X178637571Y-88677656D01*
X179071139Y-88639558D01*
X179307037Y-88636172D01*
X179677458Y-88630417D01*
X179918199Y-88605376D01*
X180078923Y-88549388D01*
X180209295Y-88450791D01*
X180245217Y-88415870D01*
X180361342Y-88278428D01*
X180427960Y-88121320D01*
X180458282Y-87891529D01*
X180465518Y-87536037D01*
X180465519Y-87531737D01*
X180495510Y-86957685D01*
X180587349Y-86543483D01*
X180743834Y-86279464D01*
X180851511Y-86198410D01*
X181019090Y-86151998D01*
X181317022Y-86108930D01*
X181696179Y-86075339D01*
X181941540Y-86062313D01*
X182375164Y-86050237D01*
X182673959Y-86058178D01*
G37*
X182673959Y-86058178D02*
X182881976Y-86091190D01*
X183043268Y-86154331D01*
X183117805Y-86197310D01*
X183360168Y-86437738D01*
X183518674Y-86811075D01*
X183597434Y-87329576D01*
X183608236Y-87659306D01*
X183618724Y-87973147D01*
X183644666Y-88218591D01*
X183675550Y-88331040D01*
X183859958Y-88490184D01*
X184171453Y-88589584D01*
X184629514Y-88634400D01*
X184835060Y-88638168D01*
X185289220Y-88659605D01*
X185607255Y-88732341D01*
X185829279Y-88873584D01*
X185995406Y-89100542D01*
X186019678Y-89146349D01*
X186066076Y-89331442D01*
X186097782Y-89643071D01*
X186114615Y-90030678D01*
X186116394Y-90443703D01*
X186102938Y-90831587D01*
X186074065Y-91143769D01*
X186029594Y-91329691D01*
X186027522Y-91333723D01*
X185801930Y-91567697D01*
X185426745Y-91716556D01*
X184912436Y-91776444D01*
X184822979Y-91777515D01*
X184493093Y-91786653D01*
X184309331Y-91818980D01*
X184239012Y-91881865D01*
X184235130Y-91910075D01*
X184165067Y-92045756D01*
X183995743Y-92190828D01*
X183988310Y-92195491D01*
X183747081Y-92368695D01*
X183604567Y-92553928D01*
X183536153Y-92804745D01*
X183517227Y-93174702D01*
X183517109Y-93220768D01*
X183491331Y-93625991D01*
X183400634Y-93925768D01*
X183224970Y-94131660D01*
X182944295Y-94255226D01*
X182538561Y-94308026D01*
X181987723Y-94301620D01*
X181677180Y-94281757D01*
X181319624Y-94248695D01*
X181020455Y-94209587D01*
X180834233Y-94171836D01*
X180814248Y-94164628D01*
X180635892Y-94001255D01*
X180521992Y-93690078D01*
X180469770Y-93221808D01*
X180465519Y-92999359D01*
X180460715Y-92657719D01*
X180437731Y-92450945D01*
X180383707Y-92334476D01*
X180285785Y-92263751D01*
X180248044Y-92245756D01*
X180072096Y-92097143D01*
X180001224Y-91939653D01*
X179973782Y-91830056D01*
X179902930Y-91771250D01*
X179746817Y-91751550D01*
X179463590Y-91759273D01*
X179371765Y-91763924D01*
X178796395Y-91753230D01*
X178370106Y-91651656D01*
X178085891Y-91456969D01*
X177995760Y-91325733D01*
X177921590Y-91075022D01*
X177876671Y-90704108D01*
X177861117Y-90269915D01*
X177875043Y-89829363D01*
X177918565Y-89439376D01*
X177991374Y-89157889D01*
X178129653Y-88924146D01*
X178334397Y-88768293D01*
X178637571Y-88677656D01*
X179071139Y-88639558D01*
X179307037Y-88636172D01*
X179677458Y-88630417D01*
X179918199Y-88605376D01*
X180078923Y-88549388D01*
X180209295Y-88450791D01*
X180245217Y-88415870D01*
X180361342Y-88278428D01*
X180427960Y-88121320D01*
X180458282Y-87891529D01*
X180465518Y-87536037D01*
X180465519Y-87531737D01*
X180495510Y-86957685D01*
X180587349Y-86543483D01*
X180743834Y-86279464D01*
X180851511Y-86198410D01*
X181019090Y-86151998D01*
X181317022Y-86108930D01*
X181696179Y-86075339D01*
X181941540Y-86062313D01*
X182375164Y-86050237D01*
X182673959Y-86058178D01*
G36*
X76848368Y-83351185D02*
G01*
X77184702Y-83359799D01*
X77791334Y-83378615D01*
X78254843Y-83405011D01*
X78611589Y-83449546D01*
X78897931Y-83522781D01*
X79150227Y-83635275D01*
X79404836Y-83797589D01*
X79698118Y-84020284D01*
X79835885Y-84129817D01*
X80211407Y-84485484D01*
X80488684Y-84890892D01*
X80692434Y-85390808D01*
X80826314Y-85923696D01*
X80900947Y-86302817D01*
X80937457Y-86575590D01*
X80934274Y-86810200D01*
X80889824Y-87074833D01*
X80802535Y-87437676D01*
X80790277Y-87486407D01*
X80671528Y-87911531D01*
X80547554Y-88224457D01*
X80386912Y-88490568D01*
X80185964Y-88742944D01*
X79885889Y-89048814D01*
X79532991Y-89345544D01*
X79284089Y-89517840D01*
X79060933Y-89645535D01*
X78859963Y-89734719D01*
X78636447Y-89795976D01*
X78345649Y-89839891D01*
X77942835Y-89877048D01*
X77683516Y-89896540D01*
X77066694Y-89937765D01*
X76593778Y-89959960D01*
X76230228Y-89963572D01*
X75941503Y-89949051D01*
X75724176Y-89921996D01*
X75195738Y-89757163D01*
X74776772Y-89450674D01*
X74569071Y-89183882D01*
X74309779Y-88770801D01*
X74256401Y-86726183D01*
X74219894Y-85327755D01*
X75278562Y-85327755D01*
X75285016Y-85708763D01*
X75300711Y-86228613D01*
X75313474Y-86606178D01*
X75334374Y-87164923D01*
X75356534Y-87667969D01*
X75378376Y-88085616D01*
X75398321Y-88388166D01*
X75414791Y-88545920D01*
X75417080Y-88556023D01*
X75486376Y-88688398D01*
X75621224Y-88781467D01*
X75845393Y-88839358D01*
X76182653Y-88866198D01*
X76656775Y-88866115D01*
X77115342Y-88850915D01*
X77633114Y-88826346D01*
X78008682Y-88798409D01*
X78279326Y-88760999D01*
X78482325Y-88708010D01*
X78654961Y-88633339D01*
X78744845Y-88584065D01*
X79222072Y-88212181D01*
X79564826Y-87733799D01*
X79767351Y-87167535D01*
X79823891Y-86532007D01*
X79728690Y-85845832D01*
X79663461Y-85612941D01*
X79520946Y-85353558D01*
X79268455Y-85060497D01*
X78955130Y-84783171D01*
X78630114Y-84570989D01*
X78624061Y-84567866D01*
X78370853Y-84494454D01*
X77941214Y-84443678D01*
X77334333Y-84415447D01*
X77294847Y-84414525D01*
X76714203Y-84403175D01*
X76284906Y-84400756D01*
X75978897Y-84410216D01*
X75768116Y-84434506D01*
X75624506Y-84476574D01*
X75520007Y-84539370D01*
X75443040Y-84609181D01*
X75378373Y-84680049D01*
X75331253Y-84761736D01*
X75300019Y-84879846D01*
X75283009Y-85059984D01*
X75278562Y-85327755D01*
X74219894Y-85327755D01*
X74203024Y-84681565D01*
X74442045Y-84194211D01*
X74600798Y-83903432D01*
X74761229Y-83721060D01*
X74986694Y-83586926D01*
X75159790Y-83512557D01*
X75347861Y-83441512D01*
X75528400Y-83391512D01*
X75735064Y-83360018D01*
X76001508Y-83344492D01*
X76361391Y-83342394D01*
X76848368Y-83351185D01*
G37*
X76848368Y-83351185D02*
X77184702Y-83359799D01*
X77791334Y-83378615D01*
X78254843Y-83405011D01*
X78611589Y-83449546D01*
X78897931Y-83522781D01*
X79150227Y-83635275D01*
X79404836Y-83797589D01*
X79698118Y-84020284D01*
X79835885Y-84129817D01*
X80211407Y-84485484D01*
X80488684Y-84890892D01*
X80692434Y-85390808D01*
X80826314Y-85923696D01*
X80900947Y-86302817D01*
X80937457Y-86575590D01*
X80934274Y-86810200D01*
X80889824Y-87074833D01*
X80802535Y-87437676D01*
X80790277Y-87486407D01*
X80671528Y-87911531D01*
X80547554Y-88224457D01*
X80386912Y-88490568D01*
X80185964Y-88742944D01*
X79885889Y-89048814D01*
X79532991Y-89345544D01*
X79284089Y-89517840D01*
X79060933Y-89645535D01*
X78859963Y-89734719D01*
X78636447Y-89795976D01*
X78345649Y-89839891D01*
X77942835Y-89877048D01*
X77683516Y-89896540D01*
X77066694Y-89937765D01*
X76593778Y-89959960D01*
X76230228Y-89963572D01*
X75941503Y-89949051D01*
X75724176Y-89921996D01*
X75195738Y-89757163D01*
X74776772Y-89450674D01*
X74569071Y-89183882D01*
X74309779Y-88770801D01*
X74256401Y-86726183D01*
X74219894Y-85327755D01*
X75278562Y-85327755D01*
X75285016Y-85708763D01*
X75300711Y-86228613D01*
X75313474Y-86606178D01*
X75334374Y-87164923D01*
X75356534Y-87667969D01*
X75378376Y-88085616D01*
X75398321Y-88388166D01*
X75414791Y-88545920D01*
X75417080Y-88556023D01*
X75486376Y-88688398D01*
X75621224Y-88781467D01*
X75845393Y-88839358D01*
X76182653Y-88866198D01*
X76656775Y-88866115D01*
X77115342Y-88850915D01*
X77633114Y-88826346D01*
X78008682Y-88798409D01*
X78279326Y-88760999D01*
X78482325Y-88708010D01*
X78654961Y-88633339D01*
X78744845Y-88584065D01*
X79222072Y-88212181D01*
X79564826Y-87733799D01*
X79767351Y-87167535D01*
X79823891Y-86532007D01*
X79728690Y-85845832D01*
X79663461Y-85612941D01*
X79520946Y-85353558D01*
X79268455Y-85060497D01*
X78955130Y-84783171D01*
X78630114Y-84570989D01*
X78624061Y-84567866D01*
X78370853Y-84494454D01*
X77941214Y-84443678D01*
X77334333Y-84415447D01*
X77294847Y-84414525D01*
X76714203Y-84403175D01*
X76284906Y-84400756D01*
X75978897Y-84410216D01*
X75768116Y-84434506D01*
X75624506Y-84476574D01*
X75520007Y-84539370D01*
X75443040Y-84609181D01*
X75378373Y-84680049D01*
X75331253Y-84761736D01*
X75300019Y-84879846D01*
X75283009Y-85059984D01*
X75278562Y-85327755D01*
X74219894Y-85327755D01*
X74203024Y-84681565D01*
X74442045Y-84194211D01*
X74600798Y-83903432D01*
X74761229Y-83721060D01*
X74986694Y-83586926D01*
X75159790Y-83512557D01*
X75347861Y-83441512D01*
X75528400Y-83391512D01*
X75735064Y-83360018D01*
X76001508Y-83344492D01*
X76361391Y-83342394D01*
X76848368Y-83351185D01*
G36*
X145437078Y-83353342D02*
G01*
X145590564Y-83356905D01*
X146154409Y-83371976D01*
X146571087Y-83388248D01*
X146872902Y-83410474D01*
X147092158Y-83443404D01*
X147261159Y-83491789D01*
X147412209Y-83560382D01*
X147566761Y-83647570D01*
X148090999Y-84005577D01*
X148542926Y-84412175D01*
X148872820Y-84822333D01*
X148884651Y-84841206D01*
X148994786Y-85079519D01*
X149112129Y-85428853D01*
X149215133Y-85823040D01*
X149235863Y-85919594D01*
X149308834Y-86295024D01*
X149343343Y-86569183D01*
X149338245Y-86811928D01*
X149292391Y-87093117D01*
X149210620Y-87456979D01*
X149102711Y-87873500D01*
X148989269Y-88177852D01*
X148839482Y-88435580D01*
X148622539Y-88712232D01*
X148618154Y-88717406D01*
X148169177Y-89170375D01*
X147683624Y-89528059D01*
X147206307Y-89759029D01*
X147078913Y-89797046D01*
X146869262Y-89830237D01*
X146531036Y-89862517D01*
X146106826Y-89891996D01*
X145639220Y-89916783D01*
X145170810Y-89934989D01*
X144744184Y-89944723D01*
X144401932Y-89944096D01*
X144186645Y-89931217D01*
X144160572Y-89926557D01*
X143621032Y-89733546D01*
X143184341Y-89435712D01*
X142921491Y-89118987D01*
X142679653Y-88718608D01*
X142679653Y-86073559D01*
X143741589Y-86073559D01*
X143743959Y-86630042D01*
X143744797Y-86706490D01*
X143765901Y-88501543D01*
X144002326Y-88713505D01*
X144100018Y-88795652D01*
X144199756Y-88851626D01*
X144333656Y-88884509D01*
X144533831Y-88897386D01*
X144832396Y-88893342D01*
X145261465Y-88875461D01*
X145545951Y-88861761D01*
X146090915Y-88831194D01*
X146489119Y-88797534D01*
X146773299Y-88755848D01*
X146976191Y-88701201D01*
X147130531Y-88628659D01*
X147143302Y-88620997D01*
X147600937Y-88243872D01*
X147958486Y-87752250D01*
X148171706Y-87217961D01*
X148241041Y-86818892D01*
X148240105Y-86415206D01*
X148166303Y-85942120D01*
X148110839Y-85698419D01*
X147986843Y-85444484D01*
X147750167Y-85150648D01*
X147444918Y-84864418D01*
X147129864Y-84641803D01*
X146966013Y-84553884D01*
X146801142Y-84492484D01*
X146598160Y-84452222D01*
X146319978Y-84427721D01*
X145929504Y-84413602D01*
X145504188Y-84406065D01*
X144921063Y-84401945D01*
X144491706Y-84411664D01*
X144190617Y-84439802D01*
X143992296Y-84490941D01*
X143871244Y-84569662D01*
X143801962Y-84680545D01*
X143789656Y-84714085D01*
X143770400Y-84862103D01*
X143755506Y-85158648D01*
X143745670Y-85572781D01*
X143741589Y-86073559D01*
X142679653Y-86073559D01*
X142679653Y-84452941D01*
X142936098Y-84048569D01*
X143107986Y-83809847D01*
X143298649Y-83628803D01*
X143533901Y-83498711D01*
X143839556Y-83412846D01*
X144241428Y-83364480D01*
X144765331Y-83346887D01*
X145437078Y-83353342D01*
G37*
X145437078Y-83353342D02*
X145590564Y-83356905D01*
X146154409Y-83371976D01*
X146571087Y-83388248D01*
X146872902Y-83410474D01*
X147092158Y-83443404D01*
X147261159Y-83491789D01*
X147412209Y-83560382D01*
X147566761Y-83647570D01*
X148090999Y-84005577D01*
X148542926Y-84412175D01*
X148872820Y-84822333D01*
X148884651Y-84841206D01*
X148994786Y-85079519D01*
X149112129Y-85428853D01*
X149215133Y-85823040D01*
X149235863Y-85919594D01*
X149308834Y-86295024D01*
X149343343Y-86569183D01*
X149338245Y-86811928D01*
X149292391Y-87093117D01*
X149210620Y-87456979D01*
X149102711Y-87873500D01*
X148989269Y-88177852D01*
X148839482Y-88435580D01*
X148622539Y-88712232D01*
X148618154Y-88717406D01*
X148169177Y-89170375D01*
X147683624Y-89528059D01*
X147206307Y-89759029D01*
X147078913Y-89797046D01*
X146869262Y-89830237D01*
X146531036Y-89862517D01*
X146106826Y-89891996D01*
X145639220Y-89916783D01*
X145170810Y-89934989D01*
X144744184Y-89944723D01*
X144401932Y-89944096D01*
X144186645Y-89931217D01*
X144160572Y-89926557D01*
X143621032Y-89733546D01*
X143184341Y-89435712D01*
X142921491Y-89118987D01*
X142679653Y-88718608D01*
X142679653Y-86073559D01*
X143741589Y-86073559D01*
X143743959Y-86630042D01*
X143744797Y-86706490D01*
X143765901Y-88501543D01*
X144002326Y-88713505D01*
X144100018Y-88795652D01*
X144199756Y-88851626D01*
X144333656Y-88884509D01*
X144533831Y-88897386D01*
X144832396Y-88893342D01*
X145261465Y-88875461D01*
X145545951Y-88861761D01*
X146090915Y-88831194D01*
X146489119Y-88797534D01*
X146773299Y-88755848D01*
X146976191Y-88701201D01*
X147130531Y-88628659D01*
X147143302Y-88620997D01*
X147600937Y-88243872D01*
X147958486Y-87752250D01*
X148171706Y-87217961D01*
X148241041Y-86818892D01*
X148240105Y-86415206D01*
X148166303Y-85942120D01*
X148110839Y-85698419D01*
X147986843Y-85444484D01*
X147750167Y-85150648D01*
X147444918Y-84864418D01*
X147129864Y-84641803D01*
X146966013Y-84553884D01*
X146801142Y-84492484D01*
X146598160Y-84452222D01*
X146319978Y-84427721D01*
X145929504Y-84413602D01*
X145504188Y-84406065D01*
X144921063Y-84401945D01*
X144491706Y-84411664D01*
X144190617Y-84439802D01*
X143992296Y-84490941D01*
X143871244Y-84569662D01*
X143801962Y-84680545D01*
X143789656Y-84714085D01*
X143770400Y-84862103D01*
X143755506Y-85158648D01*
X143745670Y-85572781D01*
X143741589Y-86073559D01*
X142679653Y-86073559D01*
X142679653Y-84452941D01*
X142936098Y-84048569D01*
X143107986Y-83809847D01*
X143298649Y-83628803D01*
X143533901Y-83498711D01*
X143839556Y-83412846D01*
X144241428Y-83364480D01*
X144765331Y-83346887D01*
X145437078Y-83353342D01*
M02*
