M48
; DRILL file {KiCad (5.1.9)-1} date 03/23/22 20:51:26
; FORMAT={-:-/ absolute / metric / decimal}
; #@! TF.CreationDate,2022-03-23T20:51:26-07:00
; #@! TF.GenerationSoftware,Kicad,Pcbnew,(5.1.9)-1
FMAT,2
METRIC
T1C1.092
T2C1.250
T3C1.470
T4C2.500
T5C0.800
T6C1.750
T7C3.048
T8C3.988
%
G90
G05
T1
X32.055Y-57.077
X34.595Y-57.077
X97.142Y-20.841
X97.142Y-23.381
X97.142Y-25.921
X97.142Y-28.461
X97.142Y-31.001
X97.142Y-33.541
X97.142Y-36.081
X97.142Y-38.621
X97.142Y-41.161
X97.142Y-43.701
X97.142Y-46.241
X97.142Y-48.781
X112.382Y-20.841
X112.382Y-23.381
X112.382Y-25.921
X112.382Y-28.461
X112.382Y-31.001
X112.382Y-33.541
X112.382Y-36.081
X112.382Y-38.621
X112.382Y-41.161
X112.382Y-43.701
X112.382Y-46.241
X112.382Y-48.781
X205.0Y-58.941
X205.0Y-61.481
X205.0Y-64.021
T2
X24.765Y-26.035
X24.765Y-45.085
X31.115Y-23.495
X31.115Y-42.545
X34.29Y-64.135
X40.64Y-61.595
X43.815Y-26.035
X43.815Y-45.085
X50.165Y-23.495
X50.165Y-42.545
X53.34Y-64.135
X59.69Y-61.595
X62.865Y-26.035
X62.865Y-45.085
X62.865Y-87.685
X69.215Y-23.495
X69.215Y-42.545
X69.215Y-85.145
X72.39Y-64.135
X78.74Y-61.595
X81.915Y-26.035
X81.915Y-45.085
X81.915Y-87.685
X88.265Y-23.495
X88.265Y-42.545
X88.265Y-85.145
X91.44Y-64.135
X97.79Y-61.595
X100.965Y-26.035
X100.965Y-45.085
X107.315Y-23.495
X107.315Y-42.545
X110.49Y-64.135
X110.49Y-87.685
X116.84Y-61.595
X116.84Y-85.145
X120.015Y-26.035
X120.015Y-45.085
X126.365Y-23.495
X126.365Y-42.545
X129.54Y-64.135
X135.89Y-61.595
X139.065Y-26.035
X139.065Y-45.085
X139.065Y-87.685
X145.415Y-23.495
X145.415Y-42.545
X145.415Y-85.145
X148.59Y-64.135
X154.94Y-61.595
X158.115Y-26.035
X158.115Y-45.085
X158.115Y-87.685
X164.465Y-23.495
X164.465Y-42.545
X164.465Y-85.145
X167.64Y-64.135
X173.99Y-61.595
X177.165Y-26.035
X177.165Y-45.085
X183.515Y-23.495
X183.515Y-42.545
X186.69Y-64.135
X193.04Y-61.595
X196.215Y-26.035
X196.215Y-45.085
X202.565Y-23.495
X202.565Y-42.545
T3
X91.44Y-87.685
X97.79Y-85.145
X129.54Y-87.685
X135.89Y-85.145
T4
X26.575Y-16.5
X38.113Y-97.193
X191.452Y-96.482
X202.025Y-16.5
T6
X23.495Y-28.575
X23.495Y-47.625
X33.02Y-66.675
X33.655Y-28.575
X33.655Y-47.625
X42.545Y-28.575
X42.545Y-47.625
X43.18Y-66.675
X52.07Y-66.675
X52.705Y-28.575
X52.705Y-47.625
X61.595Y-28.575
X61.595Y-47.625
X61.595Y-90.225
X62.23Y-66.675
X71.12Y-66.675
X71.755Y-28.575
X71.755Y-47.625
X71.755Y-90.225
X80.645Y-28.575
X80.645Y-47.625
X80.645Y-90.225
X81.28Y-66.675
X90.17Y-66.675
X90.17Y-90.225
X90.805Y-28.575
X90.805Y-47.625
X90.805Y-90.225
X99.695Y-28.575
X99.695Y-47.625
X100.33Y-66.675
X100.33Y-90.225
X109.22Y-66.675
X109.22Y-90.225
X109.855Y-28.575
X109.855Y-47.625
X118.745Y-28.575
X118.745Y-47.625
X119.38Y-66.675
X119.38Y-90.225
X128.27Y-66.675
X128.27Y-90.225
X128.905Y-28.575
X128.905Y-47.625
X137.795Y-28.575
X137.795Y-47.625
X137.795Y-90.225
X138.43Y-66.675
X138.43Y-90.225
X147.32Y-66.675
X147.955Y-28.575
X147.955Y-47.625
X147.955Y-90.225
X156.845Y-28.575
X156.845Y-47.625
X156.845Y-90.225
X157.48Y-66.675
X166.37Y-66.675
X167.005Y-28.575
X167.005Y-47.625
X167.005Y-90.225
X175.895Y-28.575
X175.895Y-47.625
X176.53Y-66.675
X185.42Y-66.675
X186.055Y-28.575
X186.055Y-47.625
X194.945Y-28.575
X194.945Y-47.625
X195.58Y-66.675
X205.105Y-28.575
X205.105Y-47.625
T7
X66.675Y-97.21
X66.675Y-97.21
X83.312Y-97.21
X104.775Y-97.21
X107.188Y-97.21
X121.412Y-97.21
X123.825Y-97.21
X145.288Y-97.21
X161.925Y-97.21
X161.925Y-97.21
T8
X28.575Y-28.575
X28.575Y-47.625
X38.1Y-66.675
X47.625Y-28.575
X47.625Y-47.625
X57.15Y-66.675
X66.675Y-28.575
X66.675Y-47.625
X66.675Y-81.97
X66.675Y-81.97
X66.675Y-90.225
X76.2Y-66.675
X83.312Y-81.97
X85.725Y-28.575
X85.725Y-47.625
X85.725Y-90.225
X95.25Y-66.675
X95.25Y-90.225
X104.775Y-28.575
X104.775Y-47.625
X104.775Y-81.97
X107.188Y-81.97
X114.3Y-66.675
X114.3Y-90.225
X121.412Y-81.97
X123.825Y-28.575
X123.825Y-47.625
X123.825Y-81.97
X133.35Y-66.675
X133.35Y-90.225
X142.875Y-28.575
X142.875Y-47.625
X142.875Y-90.225
X145.288Y-81.97
X152.4Y-66.675
X161.925Y-28.575
X161.925Y-47.625
X161.925Y-81.97
X161.925Y-81.97
X161.925Y-90.225
X171.45Y-66.675
X180.975Y-28.575
X180.975Y-47.625
X190.5Y-66.675
X200.025Y-28.575
X200.025Y-47.625
T5
G00X48.025Y-77.5
M15
G01X180.575Y-77.5
M16
G05
T0
M30
