G04 #@! TF.GenerationSoftware,KiCad,Pcbnew,(5.1.9)-1*
G04 #@! TF.CreationDate,2022-03-23T20:51:23-07:00*
G04 #@! TF.ProjectId,alphalpha_plus_v2,616c7068-616c-4706-9861-5f706c75735f,rev?*
G04 #@! TF.SameCoordinates,Original*
G04 #@! TF.FileFunction,Soldermask,Top*
G04 #@! TF.FilePolarity,Negative*
%FSLAX46Y46*%
G04 Gerber Fmt 4.6, Leading zero omitted, Abs format (unit mm)*
G04 Created by KiCad (PCBNEW (5.1.9)-1) date 2022-03-23 20:51:23*
%MOMM*%
%LPD*%
G01*
G04 APERTURE LIST*
G04 #@! TA.AperFunction,Profile*
%ADD10C,0.200000*%
G04 #@! TD*
%ADD11C,3.987800*%
%ADD12C,1.750000*%
%ADD13C,1.752600*%
%ADD14O,133.350000X0.800000*%
%ADD15C,2.900000*%
%ADD16C,5.000000*%
%ADD17R,1.752600X1.752600*%
%ADD18C,3.048000*%
G04 APERTURE END LIST*
D10*
X19050000Y-19000000D02*
X19050000Y-70000000D01*
X33020000Y-99900000D02*
X196000000Y-99900000D01*
X21050000Y-13500000D02*
X31050000Y-13500000D01*
X209550000Y-19000000D02*
X209550000Y-70000000D01*
X19050000Y-70000000D02*
X33020000Y-99900000D01*
X196000000Y-99900000D02*
X209550000Y-70000000D01*
X19050000Y-19000000D02*
X21050000Y-13500000D01*
X31050000Y-13500000D02*
X36050000Y-19000000D01*
X209550000Y-19000000D02*
X207550000Y-13500000D01*
X197550000Y-13500000D02*
X207550000Y-13500000D01*
X197550000Y-13500000D02*
X192550000Y-19000000D01*
X36050000Y-19000000D02*
X192550000Y-19000000D01*
D11*
X28575000Y-28575000D03*
D12*
X23495000Y-28575000D03*
X33655000Y-28575000D03*
D11*
X47625000Y-28575000D03*
D12*
X42545000Y-28575000D03*
X52705000Y-28575000D03*
D11*
X66675000Y-28575000D03*
D12*
X61595000Y-28575000D03*
X71755000Y-28575000D03*
D11*
X85725000Y-28575000D03*
D12*
X80645000Y-28575000D03*
X90805000Y-28575000D03*
D11*
X104775000Y-28575000D03*
D12*
X99695000Y-28575000D03*
X109855000Y-28575000D03*
D11*
X123825000Y-28575000D03*
D12*
X118745000Y-28575000D03*
X128905000Y-28575000D03*
D11*
X142875000Y-28575000D03*
D12*
X137795000Y-28575000D03*
X147955000Y-28575000D03*
D11*
X161925000Y-28575000D03*
D12*
X156845000Y-28575000D03*
X167005000Y-28575000D03*
D11*
X180975000Y-28575000D03*
D12*
X175895000Y-28575000D03*
X186055000Y-28575000D03*
D11*
X200025000Y-28575000D03*
D12*
X194945000Y-28575000D03*
X205105000Y-28575000D03*
D11*
X28575000Y-47625000D03*
D12*
X23495000Y-47625000D03*
X33655000Y-47625000D03*
D11*
X47625000Y-47625000D03*
D12*
X42545000Y-47625000D03*
X52705000Y-47625000D03*
D11*
X66675000Y-47625000D03*
D12*
X61595000Y-47625000D03*
X71755000Y-47625000D03*
D11*
X85725000Y-47625000D03*
D12*
X80645000Y-47625000D03*
X90805000Y-47625000D03*
D11*
X104775000Y-47625000D03*
D12*
X99695000Y-47625000D03*
X109855000Y-47625000D03*
D11*
X123825000Y-47625000D03*
D12*
X118745000Y-47625000D03*
X128905000Y-47625000D03*
D11*
X142875000Y-47625000D03*
D12*
X137795000Y-47625000D03*
X147955000Y-47625000D03*
D11*
X161925000Y-47625000D03*
D12*
X156845000Y-47625000D03*
X167005000Y-47625000D03*
D11*
X180975000Y-47625000D03*
D12*
X175895000Y-47625000D03*
X186055000Y-47625000D03*
D11*
X200025000Y-47625000D03*
D12*
X194945000Y-47625000D03*
X205105000Y-47625000D03*
D11*
X38100000Y-66675000D03*
D12*
X33020000Y-66675000D03*
X43180000Y-66675000D03*
D11*
X57150000Y-66675000D03*
D12*
X52070000Y-66675000D03*
X62230000Y-66675000D03*
D11*
X76200000Y-66675000D03*
D12*
X71120000Y-66675000D03*
X81280000Y-66675000D03*
D11*
X95250000Y-66675000D03*
D12*
X90170000Y-66675000D03*
X100330000Y-66675000D03*
D11*
X114300000Y-66675000D03*
D12*
X109220000Y-66675000D03*
X119380000Y-66675000D03*
D11*
X133350000Y-66675000D03*
D12*
X128270000Y-66675000D03*
X138430000Y-66675000D03*
D11*
X152400000Y-66675000D03*
D12*
X147320000Y-66675000D03*
X157480000Y-66675000D03*
D11*
X171450000Y-66675000D03*
D12*
X166370000Y-66675000D03*
X176530000Y-66675000D03*
D11*
X190500000Y-66675000D03*
D12*
X185420000Y-66675000D03*
X195580000Y-66675000D03*
D11*
X66675000Y-90225000D03*
D12*
X61595000Y-90225000D03*
X71755000Y-90225000D03*
D11*
X161925000Y-90225000D03*
D12*
X156845000Y-90225000D03*
X167005000Y-90225000D03*
D13*
X32054800Y-57077200D03*
X34594800Y-57077200D03*
D14*
X114300000Y-77500000D03*
D15*
X26575000Y-16500000D03*
D16*
X26575000Y-16500000D03*
X202025000Y-16500000D03*
D15*
X202025000Y-16500000D03*
X191452500Y-96481900D03*
D16*
X191452500Y-96481900D03*
X38112700Y-97193100D03*
D15*
X38112700Y-97193100D03*
D13*
X112382300Y-20840700D03*
X97142300Y-48780700D03*
X112382300Y-23380700D03*
X112382300Y-25920700D03*
X112382300Y-28460700D03*
X112382300Y-31000700D03*
X112382300Y-33540700D03*
X112382300Y-36080700D03*
X112382300Y-38620700D03*
X112382300Y-41160700D03*
X112382300Y-43700700D03*
X112382300Y-46240700D03*
X112382300Y-48780700D03*
X97142300Y-46240700D03*
X97142300Y-43700700D03*
X97142300Y-41160700D03*
X97142300Y-38620700D03*
X97142300Y-36080700D03*
X97142300Y-33540700D03*
X97142300Y-31000700D03*
X97142300Y-28460700D03*
X97142300Y-25920700D03*
X97142300Y-23380700D03*
D17*
X97142300Y-20840700D03*
D11*
X95250000Y-90225000D03*
D12*
X90170000Y-90225000D03*
X100330000Y-90225000D03*
D18*
X83312000Y-97210000D03*
X107188000Y-97210000D03*
D11*
X83312000Y-81970000D03*
X107188000Y-81970000D03*
X133350000Y-90225000D03*
D12*
X128270000Y-90225000D03*
X138430000Y-90225000D03*
D18*
X121412000Y-97210000D03*
X145288000Y-97210000D03*
D11*
X121412000Y-81970000D03*
X145288000Y-81970000D03*
X114300000Y-90225000D03*
D12*
X109220000Y-90225000D03*
X119380000Y-90225000D03*
D18*
X66675000Y-97210000D03*
X161925000Y-97210000D03*
D11*
X66675000Y-81970000D03*
X161925000Y-81970000D03*
X104775000Y-81970000D03*
X66675000Y-81970000D03*
D18*
X104775000Y-97210000D03*
X66675000Y-97210000D03*
D12*
X90805000Y-90225000D03*
X80645000Y-90225000D03*
D11*
X85725000Y-90225000D03*
X161925000Y-81970000D03*
X123825000Y-81970000D03*
D18*
X161925000Y-97210000D03*
X123825000Y-97210000D03*
D12*
X147955000Y-90225000D03*
X137795000Y-90225000D03*
D11*
X142875000Y-90225000D03*
M02*
