G04 #@! TF.GenerationSoftware,KiCad,Pcbnew,(5.1.9)-1*
G04 #@! TF.CreationDate,2022-03-23T20:51:23-07:00*
G04 #@! TF.ProjectId,alphalpha_plus_v2,616c7068-616c-4706-9861-5f706c75735f,rev?*
G04 #@! TF.SameCoordinates,Original*
G04 #@! TF.FileFunction,Legend,Bot*
G04 #@! TF.FilePolarity,Positive*
%FSLAX46Y46*%
G04 Gerber Fmt 4.6, Leading zero omitted, Abs format (unit mm)*
G04 Created by KiCad (PCBNEW (5.1.9)-1) date 2022-03-23 20:51:23*
%MOMM*%
%LPD*%
G01*
G04 APERTURE LIST*
%ADD10C,0.300000*%
G04 #@! TA.AperFunction,Profile*
%ADD11C,0.200000*%
G04 #@! TD*
%ADD12C,0.010000*%
%ADD13C,0.120000*%
%ADD14C,0.150000*%
G04 APERTURE END LIST*
D10*
X201644628Y-38168971D02*
X201546414Y-37383257D01*
X201599985Y-37240400D01*
X201733914Y-37168971D01*
X202019628Y-37168971D01*
X202171414Y-37240400D01*
X201635700Y-38097542D02*
X201787485Y-38168971D01*
X202144628Y-38168971D01*
X202278557Y-38097542D01*
X202332128Y-37954685D01*
X202314271Y-37811828D01*
X202224985Y-37668971D01*
X202073200Y-37597542D01*
X201716057Y-37597542D01*
X201564271Y-37526114D01*
X200716057Y-38168971D02*
X200849985Y-38097542D01*
X200903557Y-37954685D01*
X200742842Y-36668971D01*
X200019628Y-37168971D02*
X200207128Y-38668971D01*
X200028557Y-37240400D02*
X199876771Y-37168971D01*
X199591057Y-37168971D01*
X199457128Y-37240400D01*
X199394628Y-37311828D01*
X199341057Y-37454685D01*
X199394628Y-37883257D01*
X199483914Y-38026114D01*
X199564271Y-38097542D01*
X199716057Y-38168971D01*
X200001771Y-38168971D01*
X200135700Y-38097542D01*
X198787485Y-38168971D02*
X198599985Y-36668971D01*
X198144628Y-38168971D02*
X198046414Y-37383257D01*
X198099985Y-37240400D01*
X198233914Y-37168971D01*
X198448200Y-37168971D01*
X198599985Y-37240400D01*
X198680342Y-37311828D01*
X196787485Y-38168971D02*
X196689271Y-37383257D01*
X196742842Y-37240400D01*
X196876771Y-37168971D01*
X197162485Y-37168971D01*
X197314271Y-37240400D01*
X196778557Y-38097542D02*
X196930342Y-38168971D01*
X197287485Y-38168971D01*
X197421414Y-38097542D01*
X197474985Y-37954685D01*
X197457128Y-37811828D01*
X197367842Y-37668971D01*
X197216057Y-37597542D01*
X196858914Y-37597542D01*
X196707128Y-37526114D01*
X195858914Y-38168971D02*
X195992842Y-38097542D01*
X196046414Y-37954685D01*
X195885700Y-36668971D01*
X195162485Y-37168971D02*
X195349985Y-38668971D01*
X195171414Y-37240400D02*
X195019628Y-37168971D01*
X194733914Y-37168971D01*
X194599985Y-37240400D01*
X194537485Y-37311828D01*
X194483914Y-37454685D01*
X194537485Y-37883257D01*
X194626771Y-38026114D01*
X194707128Y-38097542D01*
X194858914Y-38168971D01*
X195144628Y-38168971D01*
X195278557Y-38097542D01*
X193930342Y-38168971D02*
X193742842Y-36668971D01*
X193287485Y-38168971D02*
X193189271Y-37383257D01*
X193242842Y-37240400D01*
X193376771Y-37168971D01*
X193591057Y-37168971D01*
X193742842Y-37240400D01*
X193823200Y-37311828D01*
X191930342Y-38168971D02*
X191832128Y-37383257D01*
X191885700Y-37240400D01*
X192019628Y-37168971D01*
X192305342Y-37168971D01*
X192457128Y-37240400D01*
X191921414Y-38097542D02*
X192073200Y-38168971D01*
X192430342Y-38168971D01*
X192564271Y-38097542D01*
X192617842Y-37954685D01*
X192599985Y-37811828D01*
X192510700Y-37668971D01*
X192358914Y-37597542D01*
X192001771Y-37597542D01*
X191849985Y-37526114D01*
X191144628Y-37597542D02*
X190001771Y-37597542D01*
X190644628Y-38168971D02*
X190501771Y-37026114D01*
X188233914Y-37168971D02*
X188001771Y-38168971D01*
X187519628Y-37168971D01*
X186974985Y-36811828D02*
X186894628Y-36740400D01*
X186742842Y-36668971D01*
X186385700Y-36668971D01*
X186251771Y-36740400D01*
X186189271Y-36811828D01*
X186135700Y-36954685D01*
X186153557Y-37097542D01*
X186251771Y-37311828D01*
X187216057Y-38168971D01*
X186287485Y-38168971D01*
X184501771Y-38168971D02*
X184314271Y-36668971D01*
X184385700Y-37240400D02*
X184233914Y-37168971D01*
X183948200Y-37168971D01*
X183814271Y-37240400D01*
X183751771Y-37311828D01*
X183698200Y-37454685D01*
X183751771Y-37883257D01*
X183841057Y-38026114D01*
X183921414Y-38097542D01*
X184073200Y-38168971D01*
X184358914Y-38168971D01*
X184492842Y-38097542D01*
X183162485Y-37168971D02*
X182930342Y-38168971D01*
X182448200Y-37168971D02*
X182930342Y-38168971D01*
X183117842Y-38526114D01*
X183198200Y-38597542D01*
X183349985Y-38668971D01*
X180385700Y-36668971D02*
X180099985Y-36668971D01*
X179966057Y-36740400D01*
X179841057Y-36883257D01*
X179805342Y-37168971D01*
X179867842Y-37668971D01*
X179974985Y-37954685D01*
X180135700Y-38097542D01*
X180287485Y-38168971D01*
X180573200Y-38168971D01*
X180707128Y-38097542D01*
X180832128Y-37954685D01*
X180867842Y-37668971D01*
X180805342Y-37168971D01*
X180698200Y-36883257D01*
X180537485Y-36740400D01*
X180385700Y-36668971D01*
X179314271Y-36668971D02*
X178457128Y-36668971D01*
X179073200Y-38168971D02*
X178885700Y-36668971D01*
X178171414Y-36668971D02*
X177314271Y-36668971D01*
X177930342Y-38168971D02*
X177742842Y-36668971D01*
X177001771Y-38168971D02*
X176814271Y-36668971D01*
X176287485Y-38168971D02*
X176099985Y-36668971D01*
X175733914Y-37740400D01*
X175099985Y-36668971D01*
X175287485Y-38168971D01*
X174099985Y-36668971D02*
X173814271Y-36668971D01*
X173680342Y-36740400D01*
X173555342Y-36883257D01*
X173519628Y-37168971D01*
X173582128Y-37668971D01*
X173689271Y-37954685D01*
X173849985Y-38097542D01*
X174001771Y-38168971D01*
X174287485Y-38168971D01*
X174421414Y-38097542D01*
X174546414Y-37954685D01*
X174582128Y-37668971D01*
X174519628Y-37168971D01*
X174412485Y-36883257D01*
X174251771Y-36740400D01*
X174099985Y-36668971D01*
X208424400Y-58210871D02*
X207924400Y-59710871D01*
X207424400Y-58210871D01*
X208317257Y-62260871D02*
X208317257Y-60760871D01*
X207960114Y-60760871D01*
X207745828Y-60832300D01*
X207602971Y-60975157D01*
X207531542Y-61118014D01*
X207460114Y-61403728D01*
X207460114Y-61618014D01*
X207531542Y-61903728D01*
X207602971Y-62046585D01*
X207745828Y-62189442D01*
X207960114Y-62260871D01*
X208317257Y-62260871D01*
X207531542Y-63382300D02*
X207674400Y-63310871D01*
X207888685Y-63310871D01*
X208102971Y-63382300D01*
X208245828Y-63525157D01*
X208317257Y-63668014D01*
X208388685Y-63953728D01*
X208388685Y-64168014D01*
X208317257Y-64453728D01*
X208245828Y-64596585D01*
X208102971Y-64739442D01*
X207888685Y-64810871D01*
X207745828Y-64810871D01*
X207531542Y-64739442D01*
X207460114Y-64668014D01*
X207460114Y-64168014D01*
X207745828Y-64168014D01*
D11*
X19050000Y-19000000D02*
X19050000Y-70000000D01*
X33020000Y-99900000D02*
X196000000Y-99900000D01*
X21050000Y-13500000D02*
X31050000Y-13500000D01*
X209550000Y-19000000D02*
X209550000Y-70000000D01*
X19050000Y-70000000D02*
X33020000Y-99900000D01*
X196000000Y-99900000D02*
X209550000Y-70000000D01*
X19050000Y-19000000D02*
X21050000Y-13500000D01*
X31050000Y-13500000D02*
X36050000Y-19000000D01*
X209550000Y-19000000D02*
X207550000Y-13500000D01*
X197550000Y-13500000D02*
X207550000Y-13500000D01*
X197550000Y-13500000D02*
X192550000Y-19000000D01*
X36050000Y-19000000D02*
X192550000Y-19000000D01*
D12*
G36*
X184536950Y-75710575D02*
G01*
X184752038Y-75874693D01*
X184899620Y-75978244D01*
X185235762Y-76190545D01*
X185524221Y-76311951D01*
X185837125Y-76371233D01*
X185900376Y-76377418D01*
X186204433Y-76384902D01*
X186465448Y-76358244D01*
X186580932Y-76323437D01*
X186760986Y-76252210D01*
X187075128Y-76148887D01*
X187493128Y-76022270D01*
X187984755Y-75881161D01*
X188519776Y-75734364D01*
X189067960Y-75590681D01*
X189291064Y-75534325D01*
X189726855Y-75417422D01*
X190186121Y-75281169D01*
X190585489Y-75150593D01*
X190670063Y-75120354D01*
X191570700Y-74811022D01*
X192572610Y-74504061D01*
X193501573Y-74247924D01*
X193856256Y-74151075D01*
X194148999Y-74063207D01*
X194341058Y-73996390D01*
X194393329Y-73970169D01*
X194499280Y-73927810D01*
X194734995Y-73860291D01*
X195064520Y-73777246D01*
X195414351Y-73696580D01*
X195795890Y-73609281D01*
X196114452Y-73530982D01*
X196334824Y-73470697D01*
X196420464Y-73438993D01*
X196525444Y-73393681D01*
X196759568Y-73314677D01*
X197088372Y-73211956D01*
X197477394Y-73095495D01*
X197892169Y-72975268D01*
X198298238Y-72861251D01*
X198661135Y-72763420D01*
X198946398Y-72691749D01*
X199119566Y-72656216D01*
X199128504Y-72655129D01*
X199390880Y-72603290D01*
X199586831Y-72537106D01*
X199732433Y-72483755D01*
X200009410Y-72392567D01*
X200386662Y-72273399D01*
X200833087Y-72136108D01*
X201213944Y-72021397D01*
X201692962Y-71876728D01*
X202127306Y-71742332D01*
X202485887Y-71628078D01*
X202737618Y-71543837D01*
X202840468Y-71505010D01*
X203050196Y-71431130D01*
X203330618Y-71356803D01*
X203423352Y-71336694D01*
X203705823Y-71268320D01*
X203949646Y-71190956D01*
X204005843Y-71167926D01*
X204235535Y-71101122D01*
X204497185Y-71070722D01*
X204869169Y-71008222D01*
X205301293Y-70851844D01*
X205735935Y-70629391D01*
X206115472Y-70368663D01*
X206294462Y-70203612D01*
X206535811Y-69934274D01*
X206669928Y-69736161D01*
X206710341Y-69561792D01*
X206670578Y-69363693D01*
X206591787Y-69160181D01*
X206453621Y-68909077D01*
X206220445Y-68571520D01*
X205915248Y-68173751D01*
X205561018Y-67742007D01*
X205180744Y-67302528D01*
X204797416Y-66881553D01*
X204434022Y-66505321D01*
X204113550Y-66200070D01*
X203858991Y-65992042D01*
X203764453Y-65933118D01*
X203187959Y-65725725D01*
X202561320Y-65657560D01*
X201931733Y-65729302D01*
X201431889Y-65899686D01*
X201285102Y-65902712D01*
X201049144Y-65845178D01*
X200882064Y-65783399D01*
X200735547Y-65717760D01*
X200603392Y-65643192D01*
X200466117Y-65541320D01*
X200304237Y-65393770D01*
X200098267Y-65182168D01*
X199828721Y-64888137D01*
X199476115Y-64493305D01*
X199283119Y-64275552D01*
X198646613Y-63556597D01*
X198113112Y-62953904D01*
X197673350Y-62456969D01*
X197318061Y-62055292D01*
X197037976Y-61738369D01*
X196823829Y-61495699D01*
X196666355Y-61316781D01*
X196556286Y-61191112D01*
X196484354Y-61108190D01*
X196441296Y-61057514D01*
X196417841Y-61028581D01*
X196416396Y-61026711D01*
X196355757Y-60834554D01*
X196359098Y-60534328D01*
X196421096Y-60172472D01*
X196536430Y-59795421D01*
X196566053Y-59720763D01*
X196691565Y-59363070D01*
X196788327Y-58987726D01*
X196827474Y-58743608D01*
X196824964Y-58431026D01*
X196776840Y-58071213D01*
X196695556Y-57718080D01*
X196593561Y-57425536D01*
X196483308Y-57247486D01*
X196481524Y-57245845D01*
X196394426Y-57157083D01*
X196211842Y-56964356D01*
X195953032Y-56688227D01*
X195637258Y-56349257D01*
X195283784Y-55968008D01*
X195228706Y-55908449D01*
X194721958Y-55369482D01*
X194316758Y-54959033D01*
X194009095Y-54673218D01*
X193794958Y-54508147D01*
X193765352Y-54490576D01*
X193579327Y-54399358D01*
X193428666Y-54378189D01*
X193252127Y-54432666D01*
X193003504Y-54560217D01*
X192784131Y-54686005D01*
X192649060Y-54785827D01*
X193352539Y-55595088D01*
X193445956Y-55568702D01*
X193489568Y-55577367D01*
X193586172Y-55651823D01*
X193772825Y-55834390D01*
X194029755Y-56104287D01*
X194337193Y-56440730D01*
X194675365Y-56822940D01*
X194683922Y-56832764D01*
X195051407Y-57255854D01*
X195322847Y-57573761D01*
X195513659Y-57808778D01*
X195639261Y-57983194D01*
X195715071Y-58119301D01*
X195756505Y-58239393D01*
X195778984Y-58365759D01*
X195786599Y-58427067D01*
X195766018Y-58834994D01*
X195623058Y-59317989D01*
X195610824Y-59348381D01*
X195394556Y-59971501D01*
X195297720Y-60498435D01*
X195317369Y-60950034D01*
X195359925Y-61123144D01*
X195397588Y-61232339D01*
X195447556Y-61343217D01*
X195521004Y-61469889D01*
X195629108Y-61626464D01*
X195783041Y-61827055D01*
X195993979Y-62085770D01*
X196273096Y-62416721D01*
X196631568Y-62834020D01*
X197080571Y-63351775D01*
X197569948Y-63913746D01*
X198112161Y-64535012D01*
X198556536Y-65041604D01*
X198915942Y-65446978D01*
X199203252Y-65764590D01*
X199431333Y-66007896D01*
X199613057Y-66190354D01*
X199761294Y-66325416D01*
X199888915Y-66426541D01*
X200008789Y-66507185D01*
X200105491Y-66564697D01*
X200655867Y-66811437D01*
X201192036Y-66920515D01*
X201686308Y-66888042D01*
X201908473Y-66817763D01*
X202307865Y-66714370D01*
X202734330Y-66705881D01*
X203127602Y-66787481D01*
X203407821Y-66937592D01*
X203625448Y-67135851D01*
X203897566Y-67413173D01*
X204203027Y-67744554D01*
X204520686Y-68104987D01*
X204829398Y-68469467D01*
X205108018Y-68812989D01*
X205335401Y-69110546D01*
X205490402Y-69337135D01*
X205551875Y-69467748D01*
X205552118Y-69473352D01*
X205477267Y-69569561D01*
X205287863Y-69694816D01*
X205030834Y-69827197D01*
X204753108Y-69944786D01*
X204501612Y-70025665D01*
X204323276Y-70047914D01*
X204322232Y-70047792D01*
X204095869Y-70060506D01*
X203848099Y-70124681D01*
X203607638Y-70206838D01*
X203294959Y-70302439D01*
X203126598Y-70350050D01*
X202863767Y-70426090D01*
X202491444Y-70539421D01*
X202060920Y-70674213D01*
X201658860Y-70803130D01*
X201232076Y-70938856D01*
X200827961Y-71062313D01*
X200493122Y-71159570D01*
X200280019Y-71215372D01*
X200043752Y-71277456D01*
X199882258Y-71335189D01*
X199853778Y-71351935D01*
X199753784Y-71391731D01*
X199520683Y-71464785D01*
X199185315Y-71561990D01*
X198778520Y-71674242D01*
X198602646Y-71721333D01*
X197780489Y-71942379D01*
X197117883Y-72126793D01*
X196609415Y-72276157D01*
X196249670Y-72392057D01*
X196049581Y-72468621D01*
X195879749Y-72525295D01*
X195592532Y-72602343D01*
X195236630Y-72687141D01*
X195042505Y-72729700D01*
X194670891Y-72814070D01*
X194343617Y-72898120D01*
X194109082Y-72968985D01*
X194040145Y-72996205D01*
X193869553Y-73061068D01*
X193586162Y-73151112D01*
X193241415Y-73250316D01*
X193113186Y-73284923D01*
X192197836Y-73542779D01*
X191271554Y-73831569D01*
X190421179Y-74124151D01*
X190378548Y-74139736D01*
X190008569Y-74265005D01*
X189557029Y-74402890D01*
X189107421Y-74528183D01*
X189001174Y-74555578D01*
X188561798Y-74670281D01*
X188045026Y-74810860D01*
X187535527Y-74954108D01*
X187325151Y-75015022D01*
X186834212Y-75158413D01*
X186475999Y-75257982D01*
X186220477Y-75316631D01*
X186037613Y-75337262D01*
X185897372Y-75322778D01*
X185769719Y-75276082D01*
X185624623Y-75200074D01*
X185592428Y-75182463D01*
X185339845Y-75026999D01*
X185184978Y-74871604D01*
X185070477Y-74663095D01*
X184986822Y-74418112D01*
X184965650Y-74162062D01*
X185012758Y-73863478D01*
X185133943Y-73490891D01*
X185335003Y-73012835D01*
X185401446Y-72866579D01*
X185591364Y-72443129D01*
X185817066Y-71924589D01*
X186051788Y-71373231D01*
X186268769Y-70851324D01*
X186292198Y-70793989D01*
X186443645Y-70432626D01*
X186633081Y-69996093D01*
X186849292Y-69508659D01*
X187081069Y-68994600D01*
X187317197Y-68478186D01*
X187546466Y-67983689D01*
X187757664Y-67535381D01*
X187939578Y-67157533D01*
X188080999Y-66874417D01*
X188170712Y-66710306D01*
X188192137Y-66680912D01*
X188236741Y-66594601D01*
X188335855Y-66375688D01*
X188479101Y-66047978D01*
X188656104Y-65635278D01*
X188856490Y-65161395D01*
X188911139Y-65031104D01*
X189209389Y-64319347D01*
X189449574Y-63747878D01*
X189638779Y-63300681D01*
X189784082Y-62961743D01*
X189892567Y-62715050D01*
X189971315Y-62544588D01*
X190027408Y-62434344D01*
X190067928Y-62368302D01*
X190099957Y-62330449D01*
X190109161Y-62322028D01*
X190155311Y-62267842D01*
X190215183Y-62165858D01*
X190297228Y-61997132D01*
X190409896Y-61742729D01*
X190561633Y-61383706D01*
X190760892Y-60901122D01*
X190955707Y-60424367D01*
X191170973Y-59920479D01*
X191425468Y-59361737D01*
X191682872Y-58826350D01*
X191851095Y-58496428D01*
X192047935Y-58109207D01*
X192219769Y-57744605D01*
X192347059Y-57445763D01*
X192407755Y-57267166D01*
X192620413Y-56659443D01*
X192975227Y-56051632D01*
X193060055Y-55933294D01*
X193235257Y-55707212D01*
X193352539Y-55595088D01*
X192649060Y-54785827D01*
X192619628Y-54807577D01*
X192472719Y-54963499D01*
X192306130Y-55192332D01*
X192121111Y-55473129D01*
X191831861Y-55938042D01*
X191631282Y-56309976D01*
X191500968Y-56627128D01*
X191424203Y-56918934D01*
X191367364Y-57087841D01*
X191248655Y-57365157D01*
X191086352Y-57710122D01*
X190927945Y-58025747D01*
X190709907Y-58466549D01*
X190463688Y-58994140D01*
X190221885Y-59537259D01*
X190044936Y-59956025D01*
X189810745Y-60523859D01*
X189622228Y-60967007D01*
X189464173Y-61318791D01*
X189321363Y-61612532D01*
X189178585Y-61881551D01*
X189109373Y-62005040D01*
X189022048Y-62178526D01*
X188881593Y-62481205D01*
X188700081Y-62885987D01*
X188489578Y-63365786D01*
X188262154Y-63893514D01*
X188139995Y-64180760D01*
X187867236Y-64815780D01*
X187565243Y-65503085D01*
X187256684Y-66192123D01*
X186964225Y-66832336D01*
X186710535Y-67373172D01*
X186681179Y-67434386D01*
X186453993Y-67917397D01*
X186180811Y-68515497D01*
X185880101Y-69187193D01*
X185570333Y-69890993D01*
X185269976Y-70585402D01*
X185085577Y-71019100D01*
X184840330Y-71596012D01*
X184609830Y-72129538D01*
X184404008Y-72597368D01*
X184232796Y-72977192D01*
X184106126Y-73246701D01*
X184033926Y-73383585D01*
X184031416Y-73387275D01*
X183933642Y-73646413D01*
X183907567Y-74009867D01*
X183949791Y-74430175D01*
X184056915Y-74859884D01*
X184154867Y-75111157D01*
X184283035Y-75380817D01*
X184395506Y-75563286D01*
X184536950Y-75710575D01*
G37*
X184536950Y-75710575D02*
X184752038Y-75874693D01*
X184899620Y-75978244D01*
X185235762Y-76190545D01*
X185524221Y-76311951D01*
X185837125Y-76371233D01*
X185900376Y-76377418D01*
X186204433Y-76384902D01*
X186465448Y-76358244D01*
X186580932Y-76323437D01*
X186760986Y-76252210D01*
X187075128Y-76148887D01*
X187493128Y-76022270D01*
X187984755Y-75881161D01*
X188519776Y-75734364D01*
X189067960Y-75590681D01*
X189291064Y-75534325D01*
X189726855Y-75417422D01*
X190186121Y-75281169D01*
X190585489Y-75150593D01*
X190670063Y-75120354D01*
X191570700Y-74811022D01*
X192572610Y-74504061D01*
X193501573Y-74247924D01*
X193856256Y-74151075D01*
X194148999Y-74063207D01*
X194341058Y-73996390D01*
X194393329Y-73970169D01*
X194499280Y-73927810D01*
X194734995Y-73860291D01*
X195064520Y-73777246D01*
X195414351Y-73696580D01*
X195795890Y-73609281D01*
X196114452Y-73530982D01*
X196334824Y-73470697D01*
X196420464Y-73438993D01*
X196525444Y-73393681D01*
X196759568Y-73314677D01*
X197088372Y-73211956D01*
X197477394Y-73095495D01*
X197892169Y-72975268D01*
X198298238Y-72861251D01*
X198661135Y-72763420D01*
X198946398Y-72691749D01*
X199119566Y-72656216D01*
X199128504Y-72655129D01*
X199390880Y-72603290D01*
X199586831Y-72537106D01*
X199732433Y-72483755D01*
X200009410Y-72392567D01*
X200386662Y-72273399D01*
X200833087Y-72136108D01*
X201213944Y-72021397D01*
X201692962Y-71876728D01*
X202127306Y-71742332D01*
X202485887Y-71628078D01*
X202737618Y-71543837D01*
X202840468Y-71505010D01*
X203050196Y-71431130D01*
X203330618Y-71356803D01*
X203423352Y-71336694D01*
X203705823Y-71268320D01*
X203949646Y-71190956D01*
X204005843Y-71167926D01*
X204235535Y-71101122D01*
X204497185Y-71070722D01*
X204869169Y-71008222D01*
X205301293Y-70851844D01*
X205735935Y-70629391D01*
X206115472Y-70368663D01*
X206294462Y-70203612D01*
X206535811Y-69934274D01*
X206669928Y-69736161D01*
X206710341Y-69561792D01*
X206670578Y-69363693D01*
X206591787Y-69160181D01*
X206453621Y-68909077D01*
X206220445Y-68571520D01*
X205915248Y-68173751D01*
X205561018Y-67742007D01*
X205180744Y-67302528D01*
X204797416Y-66881553D01*
X204434022Y-66505321D01*
X204113550Y-66200070D01*
X203858991Y-65992042D01*
X203764453Y-65933118D01*
X203187959Y-65725725D01*
X202561320Y-65657560D01*
X201931733Y-65729302D01*
X201431889Y-65899686D01*
X201285102Y-65902712D01*
X201049144Y-65845178D01*
X200882064Y-65783399D01*
X200735547Y-65717760D01*
X200603392Y-65643192D01*
X200466117Y-65541320D01*
X200304237Y-65393770D01*
X200098267Y-65182168D01*
X199828721Y-64888137D01*
X199476115Y-64493305D01*
X199283119Y-64275552D01*
X198646613Y-63556597D01*
X198113112Y-62953904D01*
X197673350Y-62456969D01*
X197318061Y-62055292D01*
X197037976Y-61738369D01*
X196823829Y-61495699D01*
X196666355Y-61316781D01*
X196556286Y-61191112D01*
X196484354Y-61108190D01*
X196441296Y-61057514D01*
X196417841Y-61028581D01*
X196416396Y-61026711D01*
X196355757Y-60834554D01*
X196359098Y-60534328D01*
X196421096Y-60172472D01*
X196536430Y-59795421D01*
X196566053Y-59720763D01*
X196691565Y-59363070D01*
X196788327Y-58987726D01*
X196827474Y-58743608D01*
X196824964Y-58431026D01*
X196776840Y-58071213D01*
X196695556Y-57718080D01*
X196593561Y-57425536D01*
X196483308Y-57247486D01*
X196481524Y-57245845D01*
X196394426Y-57157083D01*
X196211842Y-56964356D01*
X195953032Y-56688227D01*
X195637258Y-56349257D01*
X195283784Y-55968008D01*
X195228706Y-55908449D01*
X194721958Y-55369482D01*
X194316758Y-54959033D01*
X194009095Y-54673218D01*
X193794958Y-54508147D01*
X193765352Y-54490576D01*
X193579327Y-54399358D01*
X193428666Y-54378189D01*
X193252127Y-54432666D01*
X193003504Y-54560217D01*
X192784131Y-54686005D01*
X192649060Y-54785827D01*
X193352539Y-55595088D01*
X193445956Y-55568702D01*
X193489568Y-55577367D01*
X193586172Y-55651823D01*
X193772825Y-55834390D01*
X194029755Y-56104287D01*
X194337193Y-56440730D01*
X194675365Y-56822940D01*
X194683922Y-56832764D01*
X195051407Y-57255854D01*
X195322847Y-57573761D01*
X195513659Y-57808778D01*
X195639261Y-57983194D01*
X195715071Y-58119301D01*
X195756505Y-58239393D01*
X195778984Y-58365759D01*
X195786599Y-58427067D01*
X195766018Y-58834994D01*
X195623058Y-59317989D01*
X195610824Y-59348381D01*
X195394556Y-59971501D01*
X195297720Y-60498435D01*
X195317369Y-60950034D01*
X195359925Y-61123144D01*
X195397588Y-61232339D01*
X195447556Y-61343217D01*
X195521004Y-61469889D01*
X195629108Y-61626464D01*
X195783041Y-61827055D01*
X195993979Y-62085770D01*
X196273096Y-62416721D01*
X196631568Y-62834020D01*
X197080571Y-63351775D01*
X197569948Y-63913746D01*
X198112161Y-64535012D01*
X198556536Y-65041604D01*
X198915942Y-65446978D01*
X199203252Y-65764590D01*
X199431333Y-66007896D01*
X199613057Y-66190354D01*
X199761294Y-66325416D01*
X199888915Y-66426541D01*
X200008789Y-66507185D01*
X200105491Y-66564697D01*
X200655867Y-66811437D01*
X201192036Y-66920515D01*
X201686308Y-66888042D01*
X201908473Y-66817763D01*
X202307865Y-66714370D01*
X202734330Y-66705881D01*
X203127602Y-66787481D01*
X203407821Y-66937592D01*
X203625448Y-67135851D01*
X203897566Y-67413173D01*
X204203027Y-67744554D01*
X204520686Y-68104987D01*
X204829398Y-68469467D01*
X205108018Y-68812989D01*
X205335401Y-69110546D01*
X205490402Y-69337135D01*
X205551875Y-69467748D01*
X205552118Y-69473352D01*
X205477267Y-69569561D01*
X205287863Y-69694816D01*
X205030834Y-69827197D01*
X204753108Y-69944786D01*
X204501612Y-70025665D01*
X204323276Y-70047914D01*
X204322232Y-70047792D01*
X204095869Y-70060506D01*
X203848099Y-70124681D01*
X203607638Y-70206838D01*
X203294959Y-70302439D01*
X203126598Y-70350050D01*
X202863767Y-70426090D01*
X202491444Y-70539421D01*
X202060920Y-70674213D01*
X201658860Y-70803130D01*
X201232076Y-70938856D01*
X200827961Y-71062313D01*
X200493122Y-71159570D01*
X200280019Y-71215372D01*
X200043752Y-71277456D01*
X199882258Y-71335189D01*
X199853778Y-71351935D01*
X199753784Y-71391731D01*
X199520683Y-71464785D01*
X199185315Y-71561990D01*
X198778520Y-71674242D01*
X198602646Y-71721333D01*
X197780489Y-71942379D01*
X197117883Y-72126793D01*
X196609415Y-72276157D01*
X196249670Y-72392057D01*
X196049581Y-72468621D01*
X195879749Y-72525295D01*
X195592532Y-72602343D01*
X195236630Y-72687141D01*
X195042505Y-72729700D01*
X194670891Y-72814070D01*
X194343617Y-72898120D01*
X194109082Y-72968985D01*
X194040145Y-72996205D01*
X193869553Y-73061068D01*
X193586162Y-73151112D01*
X193241415Y-73250316D01*
X193113186Y-73284923D01*
X192197836Y-73542779D01*
X191271554Y-73831569D01*
X190421179Y-74124151D01*
X190378548Y-74139736D01*
X190008569Y-74265005D01*
X189557029Y-74402890D01*
X189107421Y-74528183D01*
X189001174Y-74555578D01*
X188561798Y-74670281D01*
X188045026Y-74810860D01*
X187535527Y-74954108D01*
X187325151Y-75015022D01*
X186834212Y-75158413D01*
X186475999Y-75257982D01*
X186220477Y-75316631D01*
X186037613Y-75337262D01*
X185897372Y-75322778D01*
X185769719Y-75276082D01*
X185624623Y-75200074D01*
X185592428Y-75182463D01*
X185339845Y-75026999D01*
X185184978Y-74871604D01*
X185070477Y-74663095D01*
X184986822Y-74418112D01*
X184965650Y-74162062D01*
X185012758Y-73863478D01*
X185133943Y-73490891D01*
X185335003Y-73012835D01*
X185401446Y-72866579D01*
X185591364Y-72443129D01*
X185817066Y-71924589D01*
X186051788Y-71373231D01*
X186268769Y-70851324D01*
X186292198Y-70793989D01*
X186443645Y-70432626D01*
X186633081Y-69996093D01*
X186849292Y-69508659D01*
X187081069Y-68994600D01*
X187317197Y-68478186D01*
X187546466Y-67983689D01*
X187757664Y-67535381D01*
X187939578Y-67157533D01*
X188080999Y-66874417D01*
X188170712Y-66710306D01*
X188192137Y-66680912D01*
X188236741Y-66594601D01*
X188335855Y-66375688D01*
X188479101Y-66047978D01*
X188656104Y-65635278D01*
X188856490Y-65161395D01*
X188911139Y-65031104D01*
X189209389Y-64319347D01*
X189449574Y-63747878D01*
X189638779Y-63300681D01*
X189784082Y-62961743D01*
X189892567Y-62715050D01*
X189971315Y-62544588D01*
X190027408Y-62434344D01*
X190067928Y-62368302D01*
X190099957Y-62330449D01*
X190109161Y-62322028D01*
X190155311Y-62267842D01*
X190215183Y-62165858D01*
X190297228Y-61997132D01*
X190409896Y-61742729D01*
X190561633Y-61383706D01*
X190760892Y-60901122D01*
X190955707Y-60424367D01*
X191170973Y-59920479D01*
X191425468Y-59361737D01*
X191682872Y-58826350D01*
X191851095Y-58496428D01*
X192047935Y-58109207D01*
X192219769Y-57744605D01*
X192347059Y-57445763D01*
X192407755Y-57267166D01*
X192620413Y-56659443D01*
X192975227Y-56051632D01*
X193060055Y-55933294D01*
X193235257Y-55707212D01*
X193352539Y-55595088D01*
X192649060Y-54785827D01*
X192619628Y-54807577D01*
X192472719Y-54963499D01*
X192306130Y-55192332D01*
X192121111Y-55473129D01*
X191831861Y-55938042D01*
X191631282Y-56309976D01*
X191500968Y-56627128D01*
X191424203Y-56918934D01*
X191367364Y-57087841D01*
X191248655Y-57365157D01*
X191086352Y-57710122D01*
X190927945Y-58025747D01*
X190709907Y-58466549D01*
X190463688Y-58994140D01*
X190221885Y-59537259D01*
X190044936Y-59956025D01*
X189810745Y-60523859D01*
X189622228Y-60967007D01*
X189464173Y-61318791D01*
X189321363Y-61612532D01*
X189178585Y-61881551D01*
X189109373Y-62005040D01*
X189022048Y-62178526D01*
X188881593Y-62481205D01*
X188700081Y-62885987D01*
X188489578Y-63365786D01*
X188262154Y-63893514D01*
X188139995Y-64180760D01*
X187867236Y-64815780D01*
X187565243Y-65503085D01*
X187256684Y-66192123D01*
X186964225Y-66832336D01*
X186710535Y-67373172D01*
X186681179Y-67434386D01*
X186453993Y-67917397D01*
X186180811Y-68515497D01*
X185880101Y-69187193D01*
X185570333Y-69890993D01*
X185269976Y-70585402D01*
X185085577Y-71019100D01*
X184840330Y-71596012D01*
X184609830Y-72129538D01*
X184404008Y-72597368D01*
X184232796Y-72977192D01*
X184106126Y-73246701D01*
X184033926Y-73383585D01*
X184031416Y-73387275D01*
X183933642Y-73646413D01*
X183907567Y-74009867D01*
X183949791Y-74430175D01*
X184056915Y-74859884D01*
X184154867Y-75111157D01*
X184283035Y-75380817D01*
X184395506Y-75563286D01*
X184536950Y-75710575D01*
G36*
X190699479Y-71510721D02*
G01*
X190978084Y-71657875D01*
X191254357Y-71669187D01*
X191554256Y-71549087D01*
X191903734Y-71302009D01*
X192092707Y-71143095D01*
X192454768Y-70853643D01*
X192746807Y-70687393D01*
X193001916Y-70633233D01*
X193253188Y-70680051D01*
X193351210Y-70720464D01*
X193593681Y-70864432D01*
X193823108Y-71081514D01*
X194026768Y-71333219D01*
X194331763Y-71681905D01*
X194613320Y-71876748D01*
X194891400Y-71927579D01*
X195121621Y-71872432D01*
X195314799Y-71761866D01*
X195582332Y-71566209D01*
X195888490Y-71316785D01*
X196197539Y-71044919D01*
X196473748Y-70781936D01*
X196681385Y-70559164D01*
X196780444Y-70418177D01*
X196822767Y-70179879D01*
X196741849Y-69898693D01*
X196530331Y-69557215D01*
X196292243Y-69263329D01*
X196015359Y-68909846D01*
X195875969Y-68641570D01*
X195870574Y-68449930D01*
X195927715Y-68370296D01*
X196000521Y-68229792D01*
X196038466Y-68009356D01*
X196039145Y-67992971D01*
X196058738Y-67826232D01*
X196124811Y-67684011D01*
X196266778Y-67522950D01*
X196502871Y-67309398D01*
X196802680Y-67028829D01*
X196978879Y-66802101D01*
X197050623Y-66591996D01*
X197037065Y-66361296D01*
X197023173Y-66298429D01*
X196922596Y-66081231D01*
X196722423Y-65790331D01*
X196452237Y-65461509D01*
X196141625Y-65130544D01*
X195820170Y-64833216D01*
X195792347Y-64809852D01*
X195549820Y-64636638D01*
X195335329Y-64568498D01*
X195110470Y-64610282D01*
X194836841Y-64766834D01*
X194575272Y-64963463D01*
X194048745Y-65380782D01*
X193787899Y-65225683D01*
X193473193Y-65114252D01*
X193186483Y-65168745D01*
X193054412Y-65258798D01*
X192982681Y-65300292D01*
X192897926Y-65282523D01*
X192772067Y-65186612D01*
X192577017Y-64993684D01*
X192429484Y-64838757D01*
X192179760Y-64580243D01*
X192004571Y-64423172D01*
X191865638Y-64342700D01*
X191724682Y-64313993D01*
X191616658Y-64311308D01*
X191471313Y-64319818D01*
X191339646Y-64356610D01*
X191189748Y-64441128D01*
X190989712Y-64592813D01*
X190707632Y-64831109D01*
X190575054Y-64946015D01*
X190272575Y-65219649D01*
X190013353Y-65473962D01*
X189828154Y-65677549D01*
X189752752Y-65785386D01*
X189699705Y-66001643D01*
X189744807Y-66236661D01*
X189899260Y-66517350D01*
X190174268Y-66870619D01*
X190232943Y-66938826D01*
X190549859Y-67338043D01*
X190728513Y-67667781D01*
X190768071Y-67957493D01*
X190667698Y-68236633D01*
X190426559Y-68534655D01*
X190181214Y-68763598D01*
X189781029Y-69146346D01*
X189529248Y-69467601D01*
X189420108Y-69735912D01*
X189423484Y-69888447D01*
X189491082Y-70027240D01*
X189641594Y-70261194D01*
X189850797Y-70554335D01*
X190031453Y-70791159D01*
X190392588Y-71223293D01*
X190699479Y-71510721D01*
G37*
X190699479Y-71510721D02*
X190978084Y-71657875D01*
X191254357Y-71669187D01*
X191554256Y-71549087D01*
X191903734Y-71302009D01*
X192092707Y-71143095D01*
X192454768Y-70853643D01*
X192746807Y-70687393D01*
X193001916Y-70633233D01*
X193253188Y-70680051D01*
X193351210Y-70720464D01*
X193593681Y-70864432D01*
X193823108Y-71081514D01*
X194026768Y-71333219D01*
X194331763Y-71681905D01*
X194613320Y-71876748D01*
X194891400Y-71927579D01*
X195121621Y-71872432D01*
X195314799Y-71761866D01*
X195582332Y-71566209D01*
X195888490Y-71316785D01*
X196197539Y-71044919D01*
X196473748Y-70781936D01*
X196681385Y-70559164D01*
X196780444Y-70418177D01*
X196822767Y-70179879D01*
X196741849Y-69898693D01*
X196530331Y-69557215D01*
X196292243Y-69263329D01*
X196015359Y-68909846D01*
X195875969Y-68641570D01*
X195870574Y-68449930D01*
X195927715Y-68370296D01*
X196000521Y-68229792D01*
X196038466Y-68009356D01*
X196039145Y-67992971D01*
X196058738Y-67826232D01*
X196124811Y-67684011D01*
X196266778Y-67522950D01*
X196502871Y-67309398D01*
X196802680Y-67028829D01*
X196978879Y-66802101D01*
X197050623Y-66591996D01*
X197037065Y-66361296D01*
X197023173Y-66298429D01*
X196922596Y-66081231D01*
X196722423Y-65790331D01*
X196452237Y-65461509D01*
X196141625Y-65130544D01*
X195820170Y-64833216D01*
X195792347Y-64809852D01*
X195549820Y-64636638D01*
X195335329Y-64568498D01*
X195110470Y-64610282D01*
X194836841Y-64766834D01*
X194575272Y-64963463D01*
X194048745Y-65380782D01*
X193787899Y-65225683D01*
X193473193Y-65114252D01*
X193186483Y-65168745D01*
X193054412Y-65258798D01*
X192982681Y-65300292D01*
X192897926Y-65282523D01*
X192772067Y-65186612D01*
X192577017Y-64993684D01*
X192429484Y-64838757D01*
X192179760Y-64580243D01*
X192004571Y-64423172D01*
X191865638Y-64342700D01*
X191724682Y-64313993D01*
X191616658Y-64311308D01*
X191471313Y-64319818D01*
X191339646Y-64356610D01*
X191189748Y-64441128D01*
X190989712Y-64592813D01*
X190707632Y-64831109D01*
X190575054Y-64946015D01*
X190272575Y-65219649D01*
X190013353Y-65473962D01*
X189828154Y-65677549D01*
X189752752Y-65785386D01*
X189699705Y-66001643D01*
X189744807Y-66236661D01*
X189899260Y-66517350D01*
X190174268Y-66870619D01*
X190232943Y-66938826D01*
X190549859Y-67338043D01*
X190728513Y-67667781D01*
X190768071Y-67957493D01*
X190667698Y-68236633D01*
X190426559Y-68534655D01*
X190181214Y-68763598D01*
X189781029Y-69146346D01*
X189529248Y-69467601D01*
X189420108Y-69735912D01*
X189423484Y-69888447D01*
X189491082Y-70027240D01*
X189641594Y-70261194D01*
X189850797Y-70554335D01*
X190031453Y-70791159D01*
X190392588Y-71223293D01*
X190699479Y-71510721D01*
G36*
X44641244Y-75471012D02*
G01*
X44769694Y-75232898D01*
X44848883Y-75070934D01*
X45005986Y-74705719D01*
X45080773Y-74401819D01*
X45090375Y-74083495D01*
X45086590Y-74020054D01*
X45046417Y-73718571D01*
X44979255Y-73464939D01*
X44926812Y-73356322D01*
X44828294Y-73189627D01*
X44677101Y-72895516D01*
X44486653Y-72502469D01*
X44270374Y-72038969D01*
X44041689Y-71533499D01*
X43814020Y-71014542D01*
X43723456Y-70803000D01*
X43539820Y-70390862D01*
X43333400Y-69958565D01*
X43141956Y-69584541D01*
X43098859Y-69505738D01*
X42652445Y-68664580D01*
X42192530Y-67723024D01*
X41794224Y-66845567D01*
X41643083Y-66510401D01*
X41510502Y-66235008D01*
X41414463Y-66055766D01*
X41380388Y-66008240D01*
X41321976Y-65910220D01*
X41218414Y-65687969D01*
X41084842Y-65375493D01*
X40950444Y-65042588D01*
X40804534Y-64679402D01*
X40677364Y-64377011D01*
X40583348Y-64168783D01*
X40538637Y-64089157D01*
X40477461Y-63992558D01*
X40362804Y-63773675D01*
X40209912Y-63464989D01*
X40034028Y-63098975D01*
X39850396Y-62708113D01*
X39674260Y-62324880D01*
X39520863Y-61981755D01*
X39405450Y-61711216D01*
X39343265Y-61545739D01*
X39340793Y-61537081D01*
X39248548Y-61286045D01*
X39152525Y-61102859D01*
X39077054Y-60967396D01*
X38943660Y-60708094D01*
X38766944Y-60354129D01*
X38561507Y-59934677D01*
X38388629Y-59576453D01*
X38170806Y-59125964D01*
X37970119Y-58717992D01*
X37801177Y-58381699D01*
X37678594Y-58146245D01*
X37624155Y-58050736D01*
X37518376Y-57855147D01*
X37401096Y-57589805D01*
X37366728Y-57501358D01*
X37255008Y-57233061D01*
X37140454Y-57004342D01*
X37108916Y-56952440D01*
X37007003Y-56736027D01*
X36936047Y-56482353D01*
X36816125Y-56124726D01*
X36594073Y-55722385D01*
X36306366Y-55327893D01*
X35989475Y-54993816D01*
X35798456Y-54842849D01*
X35494679Y-54646605D01*
X35278024Y-54545132D01*
X35099480Y-54532494D01*
X34910040Y-54602756D01*
X34721359Y-54712414D01*
X34494961Y-54888160D01*
X34198037Y-55171270D01*
X33852908Y-55534935D01*
X33481893Y-55952343D01*
X33107313Y-56396685D01*
X32751486Y-56841149D01*
X32436734Y-57258925D01*
X32185374Y-57623203D01*
X32019728Y-57907171D01*
X31976319Y-58009763D01*
X31861663Y-58611602D01*
X31892365Y-59241190D01*
X32061713Y-59851802D01*
X32308193Y-60318838D01*
X32334144Y-60463345D01*
X32314230Y-60705398D01*
X32279349Y-60880085D01*
X32237438Y-61035068D01*
X32184461Y-61177260D01*
X32105318Y-61328781D01*
X31984909Y-61511750D01*
X31808132Y-61748286D01*
X31559888Y-62060510D01*
X31225077Y-62470541D01*
X31040196Y-62695224D01*
X30429664Y-63436363D01*
X29917849Y-64057578D01*
X29495826Y-64569663D01*
X29154673Y-64983414D01*
X28885467Y-65309629D01*
X28679285Y-65559101D01*
X28527204Y-65742626D01*
X28420301Y-65870998D01*
X28349653Y-65955016D01*
X28306336Y-66005472D01*
X28281429Y-66033164D01*
X28279808Y-66034884D01*
X28099502Y-66124837D01*
X27802450Y-66168502D01*
X27435350Y-66163874D01*
X27044900Y-66108944D01*
X26966527Y-66091364D01*
X26593603Y-66023354D01*
X26207743Y-65986499D01*
X25960507Y-65986023D01*
X25652166Y-66037401D01*
X25304311Y-66141219D01*
X24968242Y-66276745D01*
X24695254Y-66423248D01*
X24536644Y-66559997D01*
X24535302Y-66562015D01*
X24461258Y-66661926D01*
X24299466Y-66872412D01*
X24067223Y-67171232D01*
X23781824Y-67536144D01*
X23460565Y-67944907D01*
X23410356Y-68008624D01*
X22957297Y-68593446D01*
X22615289Y-69057866D01*
X22381121Y-69406452D01*
X22251581Y-69643776D01*
X22238858Y-69675766D01*
X22177864Y-69873771D01*
X22180524Y-70025888D01*
X22261947Y-70191731D01*
X22426821Y-70417340D01*
X22585377Y-70614335D01*
X22705100Y-70732127D01*
X23394349Y-69910712D01*
X23353675Y-69822574D01*
X23355411Y-69778143D01*
X23413838Y-69671081D01*
X23564959Y-69458166D01*
X23791339Y-69162178D01*
X24075547Y-68805894D01*
X24400149Y-68412094D01*
X24408514Y-68402106D01*
X24768908Y-67972959D01*
X25040439Y-67655130D01*
X25242712Y-67429903D01*
X25395332Y-67278562D01*
X25517904Y-67182394D01*
X25630036Y-67122683D01*
X25751330Y-67080713D01*
X25810691Y-67063600D01*
X26216816Y-67020114D01*
X26716229Y-67085757D01*
X26748160Y-67093087D01*
X27397440Y-67209215D01*
X27933036Y-67222427D01*
X28376001Y-67132374D01*
X28540321Y-67063263D01*
X28642281Y-67008982D01*
X28743977Y-66942283D01*
X28857600Y-66849923D01*
X28995336Y-66718657D01*
X29169376Y-66535239D01*
X29391909Y-66286426D01*
X29675122Y-65958974D01*
X30031205Y-65539635D01*
X30472347Y-65015166D01*
X30950843Y-64443902D01*
X31479639Y-63811178D01*
X31910479Y-63293025D01*
X32254639Y-62874629D01*
X32523395Y-62541171D01*
X32728026Y-62277836D01*
X32879809Y-62069807D01*
X32990019Y-61902267D01*
X33069936Y-61760398D01*
X33130834Y-61629384D01*
X33172510Y-61524876D01*
X33330115Y-60942678D01*
X33353974Y-60396045D01*
X33244580Y-59912939D01*
X33140412Y-59704503D01*
X32975813Y-59326202D01*
X32900715Y-58906316D01*
X32919789Y-58505120D01*
X33024216Y-58204869D01*
X33185989Y-57958907D01*
X33417329Y-57646757D01*
X33696845Y-57293217D01*
X34003148Y-56923085D01*
X34314848Y-56561157D01*
X34610555Y-56232228D01*
X34868878Y-55961096D01*
X35068429Y-55772557D01*
X35187817Y-55691408D01*
X35193315Y-55690292D01*
X35300048Y-55749171D01*
X35453391Y-55916649D01*
X35624350Y-56149804D01*
X35783938Y-56405716D01*
X35903164Y-56641464D01*
X35953036Y-56814123D01*
X35953079Y-56815173D01*
X36001047Y-57036761D01*
X36103193Y-57271442D01*
X36221954Y-57496090D01*
X36365291Y-57789964D01*
X36438654Y-57948804D01*
X36554873Y-58196504D01*
X36725053Y-58546514D01*
X36925535Y-58950652D01*
X37115761Y-59327595D01*
X37316579Y-59727892D01*
X37501734Y-60107719D01*
X37650174Y-60423220D01*
X37738625Y-60624970D01*
X37836905Y-60848617D01*
X37919191Y-60999091D01*
X37940186Y-61024601D01*
X37995134Y-61117139D01*
X38103754Y-61335941D01*
X38252226Y-61651974D01*
X38426732Y-62036201D01*
X38500756Y-62202542D01*
X38847695Y-62979998D01*
X39133492Y-63605598D01*
X39360559Y-64084441D01*
X39531309Y-64421625D01*
X39638232Y-64607274D01*
X39720775Y-64766149D01*
X39841806Y-65037777D01*
X39981235Y-65376032D01*
X40053637Y-65561109D01*
X40195101Y-65914950D01*
X40329314Y-66225046D01*
X40435996Y-66445607D01*
X40473665Y-66509438D01*
X40564416Y-66667783D01*
X40697683Y-66933599D01*
X40849596Y-67258582D01*
X40903836Y-67379819D01*
X41301710Y-68243562D01*
X41731847Y-69113263D01*
X42153855Y-69907399D01*
X42175917Y-69947067D01*
X42357521Y-70292894D01*
X42564345Y-70717305D01*
X42758430Y-71141778D01*
X42802108Y-71242431D01*
X42984132Y-71658454D01*
X43203822Y-72146872D01*
X43425009Y-72627690D01*
X43518083Y-72825947D01*
X43736509Y-73288409D01*
X43890888Y-73626637D01*
X43988788Y-73869838D01*
X44037772Y-74047223D01*
X44045405Y-74188004D01*
X44019252Y-74321390D01*
X43966879Y-74476590D01*
X43954521Y-74511143D01*
X43840483Y-74784937D01*
X43711228Y-74962206D01*
X43523198Y-75107915D01*
X43294317Y-75228864D01*
X43044732Y-75289831D01*
X42742454Y-75290011D01*
X42355498Y-75228604D01*
X41851875Y-75104803D01*
X41697025Y-75062058D01*
X41249079Y-74940721D01*
X40701616Y-74798915D01*
X40120326Y-74653334D01*
X39570902Y-74520669D01*
X39510608Y-74506497D01*
X39130003Y-74413444D01*
X38669209Y-74294630D01*
X38153954Y-74157331D01*
X37609966Y-74008825D01*
X37062971Y-73856389D01*
X36538696Y-73707299D01*
X36062869Y-73568832D01*
X35661215Y-73448266D01*
X35359462Y-73352876D01*
X35183337Y-73289940D01*
X35150953Y-73273377D01*
X35058728Y-73242823D01*
X34827005Y-73179176D01*
X34480921Y-73088959D01*
X34045612Y-72978695D01*
X33546217Y-72854908D01*
X33408981Y-72821314D01*
X32659331Y-72638079D01*
X32057324Y-72490248D01*
X31586034Y-72373330D01*
X31228539Y-72282837D01*
X30967912Y-72214279D01*
X30787230Y-72163167D01*
X30669568Y-72125010D01*
X30598001Y-72095320D01*
X30555604Y-72069607D01*
X30545847Y-72061834D01*
X30485108Y-72024729D01*
X30375013Y-71981548D01*
X30195530Y-71926907D01*
X29926634Y-71855424D01*
X29548294Y-71761719D01*
X29040481Y-71640406D01*
X28539120Y-71522570D01*
X28007760Y-71388780D01*
X27416085Y-71224824D01*
X26847023Y-71054343D01*
X26494847Y-70939802D01*
X26081601Y-70805960D01*
X25694607Y-70693278D01*
X25379532Y-70614304D01*
X25193638Y-70582294D01*
X24560131Y-70467323D01*
X23904297Y-70211960D01*
X23774147Y-70146688D01*
X23523440Y-70009011D01*
X23394349Y-69910712D01*
X22705100Y-70732127D01*
X22731187Y-70757794D01*
X22908171Y-70878503D01*
X23160247Y-71007244D01*
X23466530Y-71146058D01*
X23970968Y-71359019D01*
X24369700Y-71498945D01*
X24703333Y-71578042D01*
X25003555Y-71608212D01*
X25179274Y-71637929D01*
X25471746Y-71711794D01*
X25837853Y-71818135D01*
X26174374Y-71925217D01*
X26643857Y-72071614D01*
X27203470Y-72232269D01*
X27777729Y-72386131D01*
X28219019Y-72495393D01*
X28816498Y-72637871D01*
X29283681Y-72754744D01*
X29655859Y-72855822D01*
X29968324Y-72950923D01*
X30256366Y-73049858D01*
X30389162Y-73098901D01*
X30574173Y-73158012D01*
X30895097Y-73249388D01*
X31323290Y-73365343D01*
X31830112Y-73498197D01*
X32386920Y-73640266D01*
X32689740Y-73715986D01*
X33359610Y-73886048D01*
X34085696Y-74076805D01*
X34814519Y-74273776D01*
X35492601Y-74462483D01*
X36066464Y-74628445D01*
X36131517Y-74647863D01*
X36644121Y-74796692D01*
X37277593Y-74972947D01*
X37988060Y-75164878D01*
X38731653Y-75360734D01*
X39464499Y-75548764D01*
X39921704Y-75663047D01*
X40529879Y-75815026D01*
X41092895Y-75959226D01*
X41587162Y-76089330D01*
X41989093Y-76199016D01*
X42275100Y-76281966D01*
X42421593Y-76331864D01*
X42425630Y-76333766D01*
X42696873Y-76389798D01*
X43059931Y-76358695D01*
X43468460Y-76251241D01*
X43876120Y-76078214D01*
X44108977Y-75942160D01*
X44355266Y-75773386D01*
X44517895Y-75633756D01*
X44641244Y-75471012D01*
G37*
X44641244Y-75471012D02*
X44769694Y-75232898D01*
X44848883Y-75070934D01*
X45005986Y-74705719D01*
X45080773Y-74401819D01*
X45090375Y-74083495D01*
X45086590Y-74020054D01*
X45046417Y-73718571D01*
X44979255Y-73464939D01*
X44926812Y-73356322D01*
X44828294Y-73189627D01*
X44677101Y-72895516D01*
X44486653Y-72502469D01*
X44270374Y-72038969D01*
X44041689Y-71533499D01*
X43814020Y-71014542D01*
X43723456Y-70803000D01*
X43539820Y-70390862D01*
X43333400Y-69958565D01*
X43141956Y-69584541D01*
X43098859Y-69505738D01*
X42652445Y-68664580D01*
X42192530Y-67723024D01*
X41794224Y-66845567D01*
X41643083Y-66510401D01*
X41510502Y-66235008D01*
X41414463Y-66055766D01*
X41380388Y-66008240D01*
X41321976Y-65910220D01*
X41218414Y-65687969D01*
X41084842Y-65375493D01*
X40950444Y-65042588D01*
X40804534Y-64679402D01*
X40677364Y-64377011D01*
X40583348Y-64168783D01*
X40538637Y-64089157D01*
X40477461Y-63992558D01*
X40362804Y-63773675D01*
X40209912Y-63464989D01*
X40034028Y-63098975D01*
X39850396Y-62708113D01*
X39674260Y-62324880D01*
X39520863Y-61981755D01*
X39405450Y-61711216D01*
X39343265Y-61545739D01*
X39340793Y-61537081D01*
X39248548Y-61286045D01*
X39152525Y-61102859D01*
X39077054Y-60967396D01*
X38943660Y-60708094D01*
X38766944Y-60354129D01*
X38561507Y-59934677D01*
X38388629Y-59576453D01*
X38170806Y-59125964D01*
X37970119Y-58717992D01*
X37801177Y-58381699D01*
X37678594Y-58146245D01*
X37624155Y-58050736D01*
X37518376Y-57855147D01*
X37401096Y-57589805D01*
X37366728Y-57501358D01*
X37255008Y-57233061D01*
X37140454Y-57004342D01*
X37108916Y-56952440D01*
X37007003Y-56736027D01*
X36936047Y-56482353D01*
X36816125Y-56124726D01*
X36594073Y-55722385D01*
X36306366Y-55327893D01*
X35989475Y-54993816D01*
X35798456Y-54842849D01*
X35494679Y-54646605D01*
X35278024Y-54545132D01*
X35099480Y-54532494D01*
X34910040Y-54602756D01*
X34721359Y-54712414D01*
X34494961Y-54888160D01*
X34198037Y-55171270D01*
X33852908Y-55534935D01*
X33481893Y-55952343D01*
X33107313Y-56396685D01*
X32751486Y-56841149D01*
X32436734Y-57258925D01*
X32185374Y-57623203D01*
X32019728Y-57907171D01*
X31976319Y-58009763D01*
X31861663Y-58611602D01*
X31892365Y-59241190D01*
X32061713Y-59851802D01*
X32308193Y-60318838D01*
X32334144Y-60463345D01*
X32314230Y-60705398D01*
X32279349Y-60880085D01*
X32237438Y-61035068D01*
X32184461Y-61177260D01*
X32105318Y-61328781D01*
X31984909Y-61511750D01*
X31808132Y-61748286D01*
X31559888Y-62060510D01*
X31225077Y-62470541D01*
X31040196Y-62695224D01*
X30429664Y-63436363D01*
X29917849Y-64057578D01*
X29495826Y-64569663D01*
X29154673Y-64983414D01*
X28885467Y-65309629D01*
X28679285Y-65559101D01*
X28527204Y-65742626D01*
X28420301Y-65870998D01*
X28349653Y-65955016D01*
X28306336Y-66005472D01*
X28281429Y-66033164D01*
X28279808Y-66034884D01*
X28099502Y-66124837D01*
X27802450Y-66168502D01*
X27435350Y-66163874D01*
X27044900Y-66108944D01*
X26966527Y-66091364D01*
X26593603Y-66023354D01*
X26207743Y-65986499D01*
X25960507Y-65986023D01*
X25652166Y-66037401D01*
X25304311Y-66141219D01*
X24968242Y-66276745D01*
X24695254Y-66423248D01*
X24536644Y-66559997D01*
X24535302Y-66562015D01*
X24461258Y-66661926D01*
X24299466Y-66872412D01*
X24067223Y-67171232D01*
X23781824Y-67536144D01*
X23460565Y-67944907D01*
X23410356Y-68008624D01*
X22957297Y-68593446D01*
X22615289Y-69057866D01*
X22381121Y-69406452D01*
X22251581Y-69643776D01*
X22238858Y-69675766D01*
X22177864Y-69873771D01*
X22180524Y-70025888D01*
X22261947Y-70191731D01*
X22426821Y-70417340D01*
X22585377Y-70614335D01*
X22705100Y-70732127D01*
X23394349Y-69910712D01*
X23353675Y-69822574D01*
X23355411Y-69778143D01*
X23413838Y-69671081D01*
X23564959Y-69458166D01*
X23791339Y-69162178D01*
X24075547Y-68805894D01*
X24400149Y-68412094D01*
X24408514Y-68402106D01*
X24768908Y-67972959D01*
X25040439Y-67655130D01*
X25242712Y-67429903D01*
X25395332Y-67278562D01*
X25517904Y-67182394D01*
X25630036Y-67122683D01*
X25751330Y-67080713D01*
X25810691Y-67063600D01*
X26216816Y-67020114D01*
X26716229Y-67085757D01*
X26748160Y-67093087D01*
X27397440Y-67209215D01*
X27933036Y-67222427D01*
X28376001Y-67132374D01*
X28540321Y-67063263D01*
X28642281Y-67008982D01*
X28743977Y-66942283D01*
X28857600Y-66849923D01*
X28995336Y-66718657D01*
X29169376Y-66535239D01*
X29391909Y-66286426D01*
X29675122Y-65958974D01*
X30031205Y-65539635D01*
X30472347Y-65015166D01*
X30950843Y-64443902D01*
X31479639Y-63811178D01*
X31910479Y-63293025D01*
X32254639Y-62874629D01*
X32523395Y-62541171D01*
X32728026Y-62277836D01*
X32879809Y-62069807D01*
X32990019Y-61902267D01*
X33069936Y-61760398D01*
X33130834Y-61629384D01*
X33172510Y-61524876D01*
X33330115Y-60942678D01*
X33353974Y-60396045D01*
X33244580Y-59912939D01*
X33140412Y-59704503D01*
X32975813Y-59326202D01*
X32900715Y-58906316D01*
X32919789Y-58505120D01*
X33024216Y-58204869D01*
X33185989Y-57958907D01*
X33417329Y-57646757D01*
X33696845Y-57293217D01*
X34003148Y-56923085D01*
X34314848Y-56561157D01*
X34610555Y-56232228D01*
X34868878Y-55961096D01*
X35068429Y-55772557D01*
X35187817Y-55691408D01*
X35193315Y-55690292D01*
X35300048Y-55749171D01*
X35453391Y-55916649D01*
X35624350Y-56149804D01*
X35783938Y-56405716D01*
X35903164Y-56641464D01*
X35953036Y-56814123D01*
X35953079Y-56815173D01*
X36001047Y-57036761D01*
X36103193Y-57271442D01*
X36221954Y-57496090D01*
X36365291Y-57789964D01*
X36438654Y-57948804D01*
X36554873Y-58196504D01*
X36725053Y-58546514D01*
X36925535Y-58950652D01*
X37115761Y-59327595D01*
X37316579Y-59727892D01*
X37501734Y-60107719D01*
X37650174Y-60423220D01*
X37738625Y-60624970D01*
X37836905Y-60848617D01*
X37919191Y-60999091D01*
X37940186Y-61024601D01*
X37995134Y-61117139D01*
X38103754Y-61335941D01*
X38252226Y-61651974D01*
X38426732Y-62036201D01*
X38500756Y-62202542D01*
X38847695Y-62979998D01*
X39133492Y-63605598D01*
X39360559Y-64084441D01*
X39531309Y-64421625D01*
X39638232Y-64607274D01*
X39720775Y-64766149D01*
X39841806Y-65037777D01*
X39981235Y-65376032D01*
X40053637Y-65561109D01*
X40195101Y-65914950D01*
X40329314Y-66225046D01*
X40435996Y-66445607D01*
X40473665Y-66509438D01*
X40564416Y-66667783D01*
X40697683Y-66933599D01*
X40849596Y-67258582D01*
X40903836Y-67379819D01*
X41301710Y-68243562D01*
X41731847Y-69113263D01*
X42153855Y-69907399D01*
X42175917Y-69947067D01*
X42357521Y-70292894D01*
X42564345Y-70717305D01*
X42758430Y-71141778D01*
X42802108Y-71242431D01*
X42984132Y-71658454D01*
X43203822Y-72146872D01*
X43425009Y-72627690D01*
X43518083Y-72825947D01*
X43736509Y-73288409D01*
X43890888Y-73626637D01*
X43988788Y-73869838D01*
X44037772Y-74047223D01*
X44045405Y-74188004D01*
X44019252Y-74321390D01*
X43966879Y-74476590D01*
X43954521Y-74511143D01*
X43840483Y-74784937D01*
X43711228Y-74962206D01*
X43523198Y-75107915D01*
X43294317Y-75228864D01*
X43044732Y-75289831D01*
X42742454Y-75290011D01*
X42355498Y-75228604D01*
X41851875Y-75104803D01*
X41697025Y-75062058D01*
X41249079Y-74940721D01*
X40701616Y-74798915D01*
X40120326Y-74653334D01*
X39570902Y-74520669D01*
X39510608Y-74506497D01*
X39130003Y-74413444D01*
X38669209Y-74294630D01*
X38153954Y-74157331D01*
X37609966Y-74008825D01*
X37062971Y-73856389D01*
X36538696Y-73707299D01*
X36062869Y-73568832D01*
X35661215Y-73448266D01*
X35359462Y-73352876D01*
X35183337Y-73289940D01*
X35150953Y-73273377D01*
X35058728Y-73242823D01*
X34827005Y-73179176D01*
X34480921Y-73088959D01*
X34045612Y-72978695D01*
X33546217Y-72854908D01*
X33408981Y-72821314D01*
X32659331Y-72638079D01*
X32057324Y-72490248D01*
X31586034Y-72373330D01*
X31228539Y-72282837D01*
X30967912Y-72214279D01*
X30787230Y-72163167D01*
X30669568Y-72125010D01*
X30598001Y-72095320D01*
X30555604Y-72069607D01*
X30545847Y-72061834D01*
X30485108Y-72024729D01*
X30375013Y-71981548D01*
X30195530Y-71926907D01*
X29926634Y-71855424D01*
X29548294Y-71761719D01*
X29040481Y-71640406D01*
X28539120Y-71522570D01*
X28007760Y-71388780D01*
X27416085Y-71224824D01*
X26847023Y-71054343D01*
X26494847Y-70939802D01*
X26081601Y-70805960D01*
X25694607Y-70693278D01*
X25379532Y-70614304D01*
X25193638Y-70582294D01*
X24560131Y-70467323D01*
X23904297Y-70211960D01*
X23774147Y-70146688D01*
X23523440Y-70009011D01*
X23394349Y-69910712D01*
X22705100Y-70732127D01*
X22731187Y-70757794D01*
X22908171Y-70878503D01*
X23160247Y-71007244D01*
X23466530Y-71146058D01*
X23970968Y-71359019D01*
X24369700Y-71498945D01*
X24703333Y-71578042D01*
X25003555Y-71608212D01*
X25179274Y-71637929D01*
X25471746Y-71711794D01*
X25837853Y-71818135D01*
X26174374Y-71925217D01*
X26643857Y-72071614D01*
X27203470Y-72232269D01*
X27777729Y-72386131D01*
X28219019Y-72495393D01*
X28816498Y-72637871D01*
X29283681Y-72754744D01*
X29655859Y-72855822D01*
X29968324Y-72950923D01*
X30256366Y-73049858D01*
X30389162Y-73098901D01*
X30574173Y-73158012D01*
X30895097Y-73249388D01*
X31323290Y-73365343D01*
X31830112Y-73498197D01*
X32386920Y-73640266D01*
X32689740Y-73715986D01*
X33359610Y-73886048D01*
X34085696Y-74076805D01*
X34814519Y-74273776D01*
X35492601Y-74462483D01*
X36066464Y-74628445D01*
X36131517Y-74647863D01*
X36644121Y-74796692D01*
X37277593Y-74972947D01*
X37988060Y-75164878D01*
X38731653Y-75360734D01*
X39464499Y-75548764D01*
X39921704Y-75663047D01*
X40529879Y-75815026D01*
X41092895Y-75959226D01*
X41587162Y-76089330D01*
X41989093Y-76199016D01*
X42275100Y-76281966D01*
X42421593Y-76331864D01*
X42425630Y-76333766D01*
X42696873Y-76389798D01*
X43059931Y-76358695D01*
X43468460Y-76251241D01*
X43876120Y-76078214D01*
X44108977Y-75942160D01*
X44355266Y-75773386D01*
X44517895Y-75633756D01*
X44641244Y-75471012D01*
G36*
X39529065Y-70041355D02*
G01*
X39630824Y-69743161D01*
X39598778Y-69468520D01*
X39433242Y-69191101D01*
X39134536Y-68884577D01*
X38948016Y-68722790D01*
X38605489Y-68410466D01*
X38395601Y-68148031D01*
X38302200Y-67904535D01*
X38309134Y-67649033D01*
X38333715Y-67545895D01*
X38437980Y-67283887D01*
X38616499Y-67023326D01*
X38833245Y-66782798D01*
X39129927Y-66427012D01*
X39278326Y-66118442D01*
X39285030Y-65835834D01*
X39194548Y-65617073D01*
X39055123Y-65443570D01*
X38820023Y-65209938D01*
X38525776Y-64946568D01*
X38208912Y-64683854D01*
X37905958Y-64452185D01*
X37653447Y-64281953D01*
X37498700Y-64206168D01*
X37256715Y-64201645D01*
X36991649Y-64325554D01*
X36687464Y-64587887D01*
X36434441Y-64869017D01*
X36128625Y-65197789D01*
X35885457Y-65377431D01*
X35697020Y-65412739D01*
X35609428Y-65368758D01*
X35459264Y-65318829D01*
X35235606Y-65315834D01*
X35219316Y-65317727D01*
X35051565Y-65324459D01*
X34900759Y-65281448D01*
X34719472Y-65166425D01*
X34471617Y-64966645D01*
X34147601Y-64714418D01*
X33896101Y-64575856D01*
X33677360Y-64537863D01*
X33451621Y-64587343D01*
X33391701Y-64610898D01*
X33192911Y-64744215D01*
X32936906Y-64987431D01*
X32654399Y-65305729D01*
X32376099Y-65664291D01*
X32132718Y-66028301D01*
X32113995Y-66059436D01*
X31980853Y-66326074D01*
X31947106Y-66548584D01*
X32023551Y-66764137D01*
X32220980Y-67009908D01*
X32456107Y-67237496D01*
X32950655Y-67692259D01*
X32838271Y-67974156D01*
X32777443Y-68302418D01*
X32876116Y-68577075D01*
X32985721Y-68693432D01*
X33037926Y-68757789D01*
X33033633Y-68844280D01*
X32958592Y-68983593D01*
X32798552Y-69206423D01*
X32668611Y-69376375D01*
X32452346Y-69663464D01*
X32324614Y-69861068D01*
X32266867Y-70010879D01*
X32260564Y-70154591D01*
X32274810Y-70261705D01*
X32305952Y-70403929D01*
X32362889Y-70528220D01*
X32469815Y-70663051D01*
X32650925Y-70836895D01*
X32930414Y-71078225D01*
X33064646Y-71191195D01*
X33382229Y-71447144D01*
X33673963Y-71663391D01*
X33904015Y-71814462D01*
X34022319Y-71872066D01*
X34244212Y-71890631D01*
X34469281Y-71809319D01*
X34722353Y-71612858D01*
X35028252Y-71285972D01*
X35086440Y-71217349D01*
X35431166Y-70841885D01*
X35728896Y-70613847D01*
X36008852Y-70529455D01*
X36300258Y-70584925D01*
X36632333Y-70776474D01*
X36896838Y-70982985D01*
X37337477Y-71318368D01*
X37694164Y-71516793D01*
X37976245Y-71582616D01*
X38126373Y-71555420D01*
X38252883Y-71466943D01*
X38460411Y-71281685D01*
X38717217Y-71029200D01*
X38922864Y-70813721D01*
X39293184Y-70389432D01*
X39529065Y-70041355D01*
G37*
X39529065Y-70041355D02*
X39630824Y-69743161D01*
X39598778Y-69468520D01*
X39433242Y-69191101D01*
X39134536Y-68884577D01*
X38948016Y-68722790D01*
X38605489Y-68410466D01*
X38395601Y-68148031D01*
X38302200Y-67904535D01*
X38309134Y-67649033D01*
X38333715Y-67545895D01*
X38437980Y-67283887D01*
X38616499Y-67023326D01*
X38833245Y-66782798D01*
X39129927Y-66427012D01*
X39278326Y-66118442D01*
X39285030Y-65835834D01*
X39194548Y-65617073D01*
X39055123Y-65443570D01*
X38820023Y-65209938D01*
X38525776Y-64946568D01*
X38208912Y-64683854D01*
X37905958Y-64452185D01*
X37653447Y-64281953D01*
X37498700Y-64206168D01*
X37256715Y-64201645D01*
X36991649Y-64325554D01*
X36687464Y-64587887D01*
X36434441Y-64869017D01*
X36128625Y-65197789D01*
X35885457Y-65377431D01*
X35697020Y-65412739D01*
X35609428Y-65368758D01*
X35459264Y-65318829D01*
X35235606Y-65315834D01*
X35219316Y-65317727D01*
X35051565Y-65324459D01*
X34900759Y-65281448D01*
X34719472Y-65166425D01*
X34471617Y-64966645D01*
X34147601Y-64714418D01*
X33896101Y-64575856D01*
X33677360Y-64537863D01*
X33451621Y-64587343D01*
X33391701Y-64610898D01*
X33192911Y-64744215D01*
X32936906Y-64987431D01*
X32654399Y-65305729D01*
X32376099Y-65664291D01*
X32132718Y-66028301D01*
X32113995Y-66059436D01*
X31980853Y-66326074D01*
X31947106Y-66548584D01*
X32023551Y-66764137D01*
X32220980Y-67009908D01*
X32456107Y-67237496D01*
X32950655Y-67692259D01*
X32838271Y-67974156D01*
X32777443Y-68302418D01*
X32876116Y-68577075D01*
X32985721Y-68693432D01*
X33037926Y-68757789D01*
X33033633Y-68844280D01*
X32958592Y-68983593D01*
X32798552Y-69206423D01*
X32668611Y-69376375D01*
X32452346Y-69663464D01*
X32324614Y-69861068D01*
X32266867Y-70010879D01*
X32260564Y-70154591D01*
X32274810Y-70261705D01*
X32305952Y-70403929D01*
X32362889Y-70528220D01*
X32469815Y-70663051D01*
X32650925Y-70836895D01*
X32930414Y-71078225D01*
X33064646Y-71191195D01*
X33382229Y-71447144D01*
X33673963Y-71663391D01*
X33904015Y-71814462D01*
X34022319Y-71872066D01*
X34244212Y-71890631D01*
X34469281Y-71809319D01*
X34722353Y-71612858D01*
X35028252Y-71285972D01*
X35086440Y-71217349D01*
X35431166Y-70841885D01*
X35728896Y-70613847D01*
X36008852Y-70529455D01*
X36300258Y-70584925D01*
X36632333Y-70776474D01*
X36896838Y-70982985D01*
X37337477Y-71318368D01*
X37694164Y-71516793D01*
X37976245Y-71582616D01*
X38126373Y-71555420D01*
X38252883Y-71466943D01*
X38460411Y-71281685D01*
X38717217Y-71029200D01*
X38922864Y-70813721D01*
X39293184Y-70389432D01*
X39529065Y-70041355D01*
D13*
X39100000Y-33250000D02*
X37100000Y-33250000D01*
X37100000Y-33250000D02*
X37100000Y-29350000D01*
X39100000Y-33250000D02*
X39100000Y-29350000D01*
X58137300Y-33250000D02*
X58137300Y-29350000D01*
X56137300Y-33250000D02*
X56137300Y-29350000D01*
X58137300Y-33250000D02*
X56137300Y-33250000D01*
X75500000Y-33250000D02*
X73500000Y-33250000D01*
X73500000Y-33250000D02*
X73500000Y-29350000D01*
X75500000Y-33250000D02*
X75500000Y-29350000D01*
X79000000Y-33250000D02*
X79000000Y-29350000D01*
X77000000Y-33250000D02*
X77000000Y-29350000D01*
X79000000Y-33250000D02*
X77000000Y-33250000D01*
X132750000Y-33250000D02*
X132750000Y-29350000D01*
X130750000Y-33250000D02*
X130750000Y-29350000D01*
X132750000Y-33250000D02*
X130750000Y-33250000D01*
X136000000Y-33250000D02*
X136000000Y-29350000D01*
X134000000Y-33250000D02*
X134000000Y-29350000D01*
X136000000Y-33250000D02*
X134000000Y-33250000D01*
X153412700Y-33250000D02*
X153412700Y-29350000D01*
X151412700Y-33250000D02*
X151412700Y-29350000D01*
X153412700Y-33250000D02*
X151412700Y-33250000D01*
X172450000Y-33250000D02*
X170450000Y-33250000D01*
X170450000Y-33250000D02*
X170450000Y-29350000D01*
X172450000Y-33250000D02*
X172450000Y-29350000D01*
X191525400Y-33250000D02*
X189525400Y-33250000D01*
X189525400Y-33250000D02*
X189525400Y-29350000D01*
X191525400Y-33250000D02*
X191525400Y-29350000D01*
X209165700Y-33250000D02*
X207165700Y-33250000D01*
X207165700Y-33250000D02*
X207165700Y-29350000D01*
X209165700Y-33250000D02*
X209165700Y-29350000D01*
X39100000Y-52250000D02*
X39100000Y-48350000D01*
X37100000Y-52250000D02*
X37100000Y-48350000D01*
X39100000Y-52250000D02*
X37100000Y-52250000D01*
X58150000Y-52250000D02*
X56150000Y-52250000D01*
X56150000Y-52250000D02*
X56150000Y-48350000D01*
X58150000Y-52250000D02*
X58150000Y-48350000D01*
X75500000Y-52250000D02*
X75500000Y-48350000D01*
X73500000Y-52250000D02*
X73500000Y-48350000D01*
X75500000Y-52250000D02*
X73500000Y-52250000D01*
X79000000Y-52250000D02*
X79000000Y-48350000D01*
X77000000Y-52250000D02*
X77000000Y-48350000D01*
X79000000Y-52250000D02*
X77000000Y-52250000D01*
X132750000Y-52250000D02*
X130750000Y-52250000D01*
X130750000Y-52250000D02*
X130750000Y-48350000D01*
X132750000Y-52250000D02*
X132750000Y-48350000D01*
X136000000Y-52250000D02*
X136000000Y-48350000D01*
X134000000Y-52250000D02*
X134000000Y-48350000D01*
X136000000Y-52250000D02*
X134000000Y-52250000D01*
X153374600Y-52250000D02*
X151374600Y-52250000D01*
X151374600Y-52250000D02*
X151374600Y-48350000D01*
X153374600Y-52250000D02*
X153374600Y-48350000D01*
X172462700Y-52250000D02*
X172462700Y-48350000D01*
X170462700Y-52250000D02*
X170462700Y-48350000D01*
X172462700Y-52250000D02*
X170462700Y-52250000D01*
X190077600Y-52250000D02*
X190077600Y-48350000D01*
X188077600Y-52250000D02*
X188077600Y-48350000D01*
X190077600Y-52250000D02*
X188077600Y-52250000D01*
X192922400Y-52250000D02*
X190922400Y-52250000D01*
X190922400Y-52250000D02*
X190922400Y-48350000D01*
X192922400Y-52250000D02*
X192922400Y-48350000D01*
X48625000Y-71250000D02*
X46625000Y-71250000D01*
X46625000Y-71250000D02*
X46625000Y-67350000D01*
X48625000Y-71250000D02*
X48625000Y-67350000D01*
X67675000Y-71250000D02*
X67675000Y-67350000D01*
X65675000Y-71250000D02*
X65675000Y-67350000D01*
X67675000Y-71250000D02*
X65675000Y-71250000D01*
X86725000Y-71250000D02*
X84725000Y-71250000D01*
X84725000Y-71250000D02*
X84725000Y-67350000D01*
X86725000Y-71250000D02*
X86725000Y-67350000D01*
X105775000Y-71250000D02*
X105775000Y-67350000D01*
X103775000Y-71250000D02*
X103775000Y-67350000D01*
X105775000Y-71250000D02*
X103775000Y-71250000D01*
X124825000Y-71250000D02*
X122825000Y-71250000D01*
X122825000Y-71250000D02*
X122825000Y-67350000D01*
X124825000Y-71250000D02*
X124825000Y-67350000D01*
X143875000Y-71250000D02*
X141875000Y-71250000D01*
X141875000Y-71250000D02*
X141875000Y-67350000D01*
X143875000Y-71250000D02*
X143875000Y-67350000D01*
X162937700Y-71250000D02*
X162937700Y-67350000D01*
X160937700Y-71250000D02*
X160937700Y-67350000D01*
X162937700Y-71250000D02*
X160937700Y-71250000D01*
X181975000Y-71250000D02*
X179975000Y-71250000D01*
X179975000Y-71250000D02*
X179975000Y-67350000D01*
X181975000Y-71250000D02*
X181975000Y-67350000D01*
X201025000Y-71250000D02*
X201025000Y-67350000D01*
X199025000Y-71250000D02*
X199025000Y-67350000D01*
X201025000Y-71250000D02*
X199025000Y-71250000D01*
X172750000Y-96000000D02*
X168850000Y-96000000D01*
X172750000Y-98000000D02*
X168850000Y-98000000D01*
X172750000Y-96000000D02*
X172750000Y-98000000D01*
X56250000Y-86468400D02*
X60150000Y-86468400D01*
X56250000Y-84468400D02*
X60150000Y-84468400D01*
X56250000Y-86468400D02*
X56250000Y-84468400D01*
X172750000Y-84468400D02*
X168850000Y-84468400D01*
X172750000Y-86468400D02*
X168850000Y-86468400D01*
X172750000Y-84468400D02*
X172750000Y-86468400D01*
X56250000Y-83468400D02*
X56250000Y-81468400D01*
X56250000Y-81468400D02*
X60150000Y-81468400D01*
X56250000Y-83468400D02*
X60150000Y-83468400D01*
X56250000Y-95000000D02*
X56250000Y-93000000D01*
X56250000Y-93000000D02*
X60150000Y-93000000D01*
X56250000Y-95000000D02*
X60150000Y-95000000D01*
X172750000Y-92000000D02*
X172750000Y-94000000D01*
X172750000Y-94000000D02*
X168850000Y-94000000D01*
X172750000Y-92000000D02*
X168850000Y-92000000D01*
X172750000Y-81468400D02*
X172750000Y-83468400D01*
X172750000Y-83468400D02*
X168850000Y-83468400D01*
X172750000Y-81468400D02*
X168850000Y-81468400D01*
D12*
G36*
X207346950Y-71647525D02*
G01*
X207131862Y-71483407D01*
X206984280Y-71379856D01*
X206648138Y-71167555D01*
X206359679Y-71046149D01*
X206046775Y-70986867D01*
X205983524Y-70980682D01*
X205679467Y-70973198D01*
X205418452Y-70999856D01*
X205302968Y-71034663D01*
X205122914Y-71105890D01*
X204808772Y-71209213D01*
X204390772Y-71335830D01*
X203899145Y-71476939D01*
X203364124Y-71623736D01*
X202815940Y-71767419D01*
X202592836Y-71823775D01*
X202157045Y-71940678D01*
X201697779Y-72076931D01*
X201298411Y-72207507D01*
X201213837Y-72237746D01*
X200313200Y-72547078D01*
X199311290Y-72854039D01*
X198382327Y-73110176D01*
X198027644Y-73207025D01*
X197734901Y-73294893D01*
X197542842Y-73361710D01*
X197490571Y-73387931D01*
X197384620Y-73430290D01*
X197148905Y-73497809D01*
X196819380Y-73580854D01*
X196469549Y-73661520D01*
X196088010Y-73748819D01*
X195769448Y-73827118D01*
X195549076Y-73887403D01*
X195463436Y-73919107D01*
X195358456Y-73964419D01*
X195124332Y-74043423D01*
X194795528Y-74146144D01*
X194406506Y-74262605D01*
X193991731Y-74382832D01*
X193585662Y-74496849D01*
X193222765Y-74594680D01*
X192937502Y-74666351D01*
X192764334Y-74701884D01*
X192755396Y-74702971D01*
X192493020Y-74754810D01*
X192297069Y-74820994D01*
X192151467Y-74874345D01*
X191874490Y-74965533D01*
X191497238Y-75084701D01*
X191050813Y-75221992D01*
X190669956Y-75336703D01*
X190190938Y-75481372D01*
X189756594Y-75615768D01*
X189398013Y-75730022D01*
X189146282Y-75814263D01*
X189043432Y-75853090D01*
X188833704Y-75926970D01*
X188553282Y-76001297D01*
X188460548Y-76021406D01*
X188178077Y-76089780D01*
X187934254Y-76167144D01*
X187878057Y-76190174D01*
X187648365Y-76256978D01*
X187386715Y-76287378D01*
X187014731Y-76349878D01*
X186582607Y-76506256D01*
X186147965Y-76728709D01*
X185768428Y-76989437D01*
X185589438Y-77154488D01*
X185348089Y-77423826D01*
X185213972Y-77621939D01*
X185173559Y-77796308D01*
X185213322Y-77994407D01*
X185292113Y-78197919D01*
X185430279Y-78449023D01*
X185663455Y-78786580D01*
X185968652Y-79184349D01*
X186322882Y-79616093D01*
X186703156Y-80055572D01*
X187086484Y-80476547D01*
X187449878Y-80852779D01*
X187770350Y-81158030D01*
X188024909Y-81366058D01*
X188119447Y-81424982D01*
X188695941Y-81632375D01*
X189322580Y-81700540D01*
X189952167Y-81628798D01*
X190452011Y-81458414D01*
X190598798Y-81455388D01*
X190834756Y-81512922D01*
X191001836Y-81574701D01*
X191148353Y-81640340D01*
X191280508Y-81714908D01*
X191417783Y-81816780D01*
X191579663Y-81964330D01*
X191785633Y-82175932D01*
X192055179Y-82469963D01*
X192407785Y-82864795D01*
X192600781Y-83082548D01*
X193237287Y-83801503D01*
X193770788Y-84404196D01*
X194210550Y-84901131D01*
X194565839Y-85302808D01*
X194845924Y-85619731D01*
X195060071Y-85862401D01*
X195217545Y-86041319D01*
X195327614Y-86166988D01*
X195399546Y-86249910D01*
X195442604Y-86300586D01*
X195466059Y-86329519D01*
X195467504Y-86331389D01*
X195528143Y-86523546D01*
X195524802Y-86823772D01*
X195462804Y-87185628D01*
X195347470Y-87562679D01*
X195317847Y-87637337D01*
X195192335Y-87995030D01*
X195095573Y-88370374D01*
X195056426Y-88614492D01*
X195058936Y-88927074D01*
X195107060Y-89286887D01*
X195188344Y-89640020D01*
X195290339Y-89932564D01*
X195400592Y-90110614D01*
X195402376Y-90112255D01*
X195489474Y-90201017D01*
X195672058Y-90393744D01*
X195930868Y-90669873D01*
X196246642Y-91008843D01*
X196600116Y-91390092D01*
X196655194Y-91449651D01*
X197161942Y-91988618D01*
X197567142Y-92399067D01*
X197874805Y-92684882D01*
X198088942Y-92849953D01*
X198118548Y-92867524D01*
X198304573Y-92958742D01*
X198455234Y-92979911D01*
X198631773Y-92925434D01*
X198880396Y-92797883D01*
X199099769Y-92672095D01*
X199234840Y-92572273D01*
X198531361Y-91763012D01*
X198437944Y-91789398D01*
X198394332Y-91780733D01*
X198297728Y-91706277D01*
X198111075Y-91523710D01*
X197854145Y-91253813D01*
X197546707Y-90917370D01*
X197208535Y-90535160D01*
X197199978Y-90525336D01*
X196832493Y-90102246D01*
X196561053Y-89784339D01*
X196370241Y-89549322D01*
X196244639Y-89374906D01*
X196168829Y-89238799D01*
X196127395Y-89118707D01*
X196104916Y-88992341D01*
X196097301Y-88931033D01*
X196117882Y-88523106D01*
X196260842Y-88040111D01*
X196273076Y-88009719D01*
X196489344Y-87386599D01*
X196586180Y-86859665D01*
X196566531Y-86408066D01*
X196523975Y-86234956D01*
X196486312Y-86125761D01*
X196436344Y-86014883D01*
X196362896Y-85888211D01*
X196254792Y-85731636D01*
X196100859Y-85531045D01*
X195889921Y-85272330D01*
X195610804Y-84941379D01*
X195252332Y-84524080D01*
X194803329Y-84006325D01*
X194313952Y-83444354D01*
X193771739Y-82823088D01*
X193327364Y-82316496D01*
X192967958Y-81911122D01*
X192680648Y-81593510D01*
X192452567Y-81350204D01*
X192270843Y-81167746D01*
X192122606Y-81032684D01*
X191994985Y-80931559D01*
X191875111Y-80850915D01*
X191778409Y-80793403D01*
X191228033Y-80546663D01*
X190691864Y-80437585D01*
X190197592Y-80470058D01*
X189975427Y-80540337D01*
X189576035Y-80643730D01*
X189149570Y-80652219D01*
X188756298Y-80570619D01*
X188476079Y-80420508D01*
X188258452Y-80222249D01*
X187986334Y-79944927D01*
X187680873Y-79613546D01*
X187363214Y-79253113D01*
X187054502Y-78888633D01*
X186775882Y-78545111D01*
X186548499Y-78247554D01*
X186393498Y-78020965D01*
X186332025Y-77890352D01*
X186331782Y-77884748D01*
X186406633Y-77788539D01*
X186596037Y-77663284D01*
X186853066Y-77530903D01*
X187130792Y-77413314D01*
X187382288Y-77332435D01*
X187560624Y-77310186D01*
X187561668Y-77310308D01*
X187788031Y-77297594D01*
X188035801Y-77233419D01*
X188276262Y-77151262D01*
X188588941Y-77055661D01*
X188757302Y-77008050D01*
X189020133Y-76932010D01*
X189392456Y-76818679D01*
X189822980Y-76683887D01*
X190225040Y-76554970D01*
X190651824Y-76419244D01*
X191055939Y-76295787D01*
X191390778Y-76198530D01*
X191603881Y-76142728D01*
X191840148Y-76080644D01*
X192001642Y-76022911D01*
X192030122Y-76006165D01*
X192130116Y-75966369D01*
X192363217Y-75893315D01*
X192698585Y-75796110D01*
X193105380Y-75683858D01*
X193281254Y-75636767D01*
X194103411Y-75415721D01*
X194766017Y-75231307D01*
X195274485Y-75081943D01*
X195634230Y-74966043D01*
X195834319Y-74889479D01*
X196004151Y-74832805D01*
X196291368Y-74755757D01*
X196647270Y-74670959D01*
X196841395Y-74628400D01*
X197213009Y-74544030D01*
X197540283Y-74459980D01*
X197774818Y-74389115D01*
X197843755Y-74361895D01*
X198014347Y-74297032D01*
X198297738Y-74206988D01*
X198642485Y-74107784D01*
X198770714Y-74073177D01*
X199686064Y-73815321D01*
X200612346Y-73526531D01*
X201462721Y-73233949D01*
X201505352Y-73218364D01*
X201875331Y-73093095D01*
X202326871Y-72955210D01*
X202776479Y-72829917D01*
X202882726Y-72802522D01*
X203322102Y-72687819D01*
X203838874Y-72547240D01*
X204348373Y-72403992D01*
X204558749Y-72343078D01*
X205049688Y-72199687D01*
X205407901Y-72100118D01*
X205663423Y-72041469D01*
X205846287Y-72020838D01*
X205986528Y-72035322D01*
X206114181Y-72082018D01*
X206259277Y-72158026D01*
X206291472Y-72175637D01*
X206544055Y-72331101D01*
X206698922Y-72486496D01*
X206813423Y-72695005D01*
X206897078Y-72939988D01*
X206918250Y-73196038D01*
X206871142Y-73494622D01*
X206749957Y-73867209D01*
X206548897Y-74345265D01*
X206482454Y-74491521D01*
X206292536Y-74914971D01*
X206066834Y-75433511D01*
X205832112Y-75984869D01*
X205615131Y-76506776D01*
X205591702Y-76564111D01*
X205440255Y-76925474D01*
X205250819Y-77362007D01*
X205034608Y-77849441D01*
X204802831Y-78363500D01*
X204566703Y-78879914D01*
X204337434Y-79374411D01*
X204126236Y-79822719D01*
X203944322Y-80200567D01*
X203802901Y-80483683D01*
X203713188Y-80647794D01*
X203691763Y-80677188D01*
X203647159Y-80763499D01*
X203548045Y-80982412D01*
X203404799Y-81310122D01*
X203227796Y-81722822D01*
X203027410Y-82196705D01*
X202972761Y-82326996D01*
X202674511Y-83038753D01*
X202434326Y-83610222D01*
X202245121Y-84057419D01*
X202099818Y-84396357D01*
X201991333Y-84643050D01*
X201912585Y-84813512D01*
X201856492Y-84923756D01*
X201815972Y-84989798D01*
X201783943Y-85027651D01*
X201774739Y-85036072D01*
X201728589Y-85090258D01*
X201668717Y-85192242D01*
X201586672Y-85360968D01*
X201474004Y-85615371D01*
X201322267Y-85974394D01*
X201123008Y-86456978D01*
X200928193Y-86933733D01*
X200712927Y-87437621D01*
X200458432Y-87996363D01*
X200201028Y-88531750D01*
X200032805Y-88861672D01*
X199835965Y-89248893D01*
X199664131Y-89613495D01*
X199536841Y-89912337D01*
X199476145Y-90090934D01*
X199263487Y-90698657D01*
X198908673Y-91306468D01*
X198823845Y-91424806D01*
X198648643Y-91650888D01*
X198531361Y-91763012D01*
X199234840Y-92572273D01*
X199264272Y-92550523D01*
X199411181Y-92394601D01*
X199577770Y-92165768D01*
X199762789Y-91884971D01*
X200052039Y-91420058D01*
X200252618Y-91048124D01*
X200382932Y-90730972D01*
X200459697Y-90439166D01*
X200516536Y-90270259D01*
X200635245Y-89992943D01*
X200797548Y-89647978D01*
X200955955Y-89332353D01*
X201173993Y-88891551D01*
X201420212Y-88363960D01*
X201662015Y-87820841D01*
X201838964Y-87402075D01*
X202073155Y-86834241D01*
X202261672Y-86391093D01*
X202419727Y-86039309D01*
X202562537Y-85745568D01*
X202705315Y-85476549D01*
X202774527Y-85353060D01*
X202861852Y-85179574D01*
X203002307Y-84876895D01*
X203183819Y-84472113D01*
X203394322Y-83992314D01*
X203621746Y-83464586D01*
X203743905Y-83177340D01*
X204016664Y-82542320D01*
X204318657Y-81855015D01*
X204627216Y-81165977D01*
X204919675Y-80525764D01*
X205173365Y-79984928D01*
X205202721Y-79923714D01*
X205429907Y-79440703D01*
X205703089Y-78842603D01*
X206003799Y-78170907D01*
X206313567Y-77467107D01*
X206613924Y-76772698D01*
X206798323Y-76339000D01*
X207043570Y-75762088D01*
X207274070Y-75228562D01*
X207479892Y-74760732D01*
X207651104Y-74380908D01*
X207777774Y-74111399D01*
X207849974Y-73974515D01*
X207852484Y-73970825D01*
X207950258Y-73711687D01*
X207976333Y-73348233D01*
X207934109Y-72927925D01*
X207826985Y-72498216D01*
X207729033Y-72246943D01*
X207600865Y-71977283D01*
X207488394Y-71794814D01*
X207346950Y-71647525D01*
G37*
X207346950Y-71647525D02*
X207131862Y-71483407D01*
X206984280Y-71379856D01*
X206648138Y-71167555D01*
X206359679Y-71046149D01*
X206046775Y-70986867D01*
X205983524Y-70980682D01*
X205679467Y-70973198D01*
X205418452Y-70999856D01*
X205302968Y-71034663D01*
X205122914Y-71105890D01*
X204808772Y-71209213D01*
X204390772Y-71335830D01*
X203899145Y-71476939D01*
X203364124Y-71623736D01*
X202815940Y-71767419D01*
X202592836Y-71823775D01*
X202157045Y-71940678D01*
X201697779Y-72076931D01*
X201298411Y-72207507D01*
X201213837Y-72237746D01*
X200313200Y-72547078D01*
X199311290Y-72854039D01*
X198382327Y-73110176D01*
X198027644Y-73207025D01*
X197734901Y-73294893D01*
X197542842Y-73361710D01*
X197490571Y-73387931D01*
X197384620Y-73430290D01*
X197148905Y-73497809D01*
X196819380Y-73580854D01*
X196469549Y-73661520D01*
X196088010Y-73748819D01*
X195769448Y-73827118D01*
X195549076Y-73887403D01*
X195463436Y-73919107D01*
X195358456Y-73964419D01*
X195124332Y-74043423D01*
X194795528Y-74146144D01*
X194406506Y-74262605D01*
X193991731Y-74382832D01*
X193585662Y-74496849D01*
X193222765Y-74594680D01*
X192937502Y-74666351D01*
X192764334Y-74701884D01*
X192755396Y-74702971D01*
X192493020Y-74754810D01*
X192297069Y-74820994D01*
X192151467Y-74874345D01*
X191874490Y-74965533D01*
X191497238Y-75084701D01*
X191050813Y-75221992D01*
X190669956Y-75336703D01*
X190190938Y-75481372D01*
X189756594Y-75615768D01*
X189398013Y-75730022D01*
X189146282Y-75814263D01*
X189043432Y-75853090D01*
X188833704Y-75926970D01*
X188553282Y-76001297D01*
X188460548Y-76021406D01*
X188178077Y-76089780D01*
X187934254Y-76167144D01*
X187878057Y-76190174D01*
X187648365Y-76256978D01*
X187386715Y-76287378D01*
X187014731Y-76349878D01*
X186582607Y-76506256D01*
X186147965Y-76728709D01*
X185768428Y-76989437D01*
X185589438Y-77154488D01*
X185348089Y-77423826D01*
X185213972Y-77621939D01*
X185173559Y-77796308D01*
X185213322Y-77994407D01*
X185292113Y-78197919D01*
X185430279Y-78449023D01*
X185663455Y-78786580D01*
X185968652Y-79184349D01*
X186322882Y-79616093D01*
X186703156Y-80055572D01*
X187086484Y-80476547D01*
X187449878Y-80852779D01*
X187770350Y-81158030D01*
X188024909Y-81366058D01*
X188119447Y-81424982D01*
X188695941Y-81632375D01*
X189322580Y-81700540D01*
X189952167Y-81628798D01*
X190452011Y-81458414D01*
X190598798Y-81455388D01*
X190834756Y-81512922D01*
X191001836Y-81574701D01*
X191148353Y-81640340D01*
X191280508Y-81714908D01*
X191417783Y-81816780D01*
X191579663Y-81964330D01*
X191785633Y-82175932D01*
X192055179Y-82469963D01*
X192407785Y-82864795D01*
X192600781Y-83082548D01*
X193237287Y-83801503D01*
X193770788Y-84404196D01*
X194210550Y-84901131D01*
X194565839Y-85302808D01*
X194845924Y-85619731D01*
X195060071Y-85862401D01*
X195217545Y-86041319D01*
X195327614Y-86166988D01*
X195399546Y-86249910D01*
X195442604Y-86300586D01*
X195466059Y-86329519D01*
X195467504Y-86331389D01*
X195528143Y-86523546D01*
X195524802Y-86823772D01*
X195462804Y-87185628D01*
X195347470Y-87562679D01*
X195317847Y-87637337D01*
X195192335Y-87995030D01*
X195095573Y-88370374D01*
X195056426Y-88614492D01*
X195058936Y-88927074D01*
X195107060Y-89286887D01*
X195188344Y-89640020D01*
X195290339Y-89932564D01*
X195400592Y-90110614D01*
X195402376Y-90112255D01*
X195489474Y-90201017D01*
X195672058Y-90393744D01*
X195930868Y-90669873D01*
X196246642Y-91008843D01*
X196600116Y-91390092D01*
X196655194Y-91449651D01*
X197161942Y-91988618D01*
X197567142Y-92399067D01*
X197874805Y-92684882D01*
X198088942Y-92849953D01*
X198118548Y-92867524D01*
X198304573Y-92958742D01*
X198455234Y-92979911D01*
X198631773Y-92925434D01*
X198880396Y-92797883D01*
X199099769Y-92672095D01*
X199234840Y-92572273D01*
X198531361Y-91763012D01*
X198437944Y-91789398D01*
X198394332Y-91780733D01*
X198297728Y-91706277D01*
X198111075Y-91523710D01*
X197854145Y-91253813D01*
X197546707Y-90917370D01*
X197208535Y-90535160D01*
X197199978Y-90525336D01*
X196832493Y-90102246D01*
X196561053Y-89784339D01*
X196370241Y-89549322D01*
X196244639Y-89374906D01*
X196168829Y-89238799D01*
X196127395Y-89118707D01*
X196104916Y-88992341D01*
X196097301Y-88931033D01*
X196117882Y-88523106D01*
X196260842Y-88040111D01*
X196273076Y-88009719D01*
X196489344Y-87386599D01*
X196586180Y-86859665D01*
X196566531Y-86408066D01*
X196523975Y-86234956D01*
X196486312Y-86125761D01*
X196436344Y-86014883D01*
X196362896Y-85888211D01*
X196254792Y-85731636D01*
X196100859Y-85531045D01*
X195889921Y-85272330D01*
X195610804Y-84941379D01*
X195252332Y-84524080D01*
X194803329Y-84006325D01*
X194313952Y-83444354D01*
X193771739Y-82823088D01*
X193327364Y-82316496D01*
X192967958Y-81911122D01*
X192680648Y-81593510D01*
X192452567Y-81350204D01*
X192270843Y-81167746D01*
X192122606Y-81032684D01*
X191994985Y-80931559D01*
X191875111Y-80850915D01*
X191778409Y-80793403D01*
X191228033Y-80546663D01*
X190691864Y-80437585D01*
X190197592Y-80470058D01*
X189975427Y-80540337D01*
X189576035Y-80643730D01*
X189149570Y-80652219D01*
X188756298Y-80570619D01*
X188476079Y-80420508D01*
X188258452Y-80222249D01*
X187986334Y-79944927D01*
X187680873Y-79613546D01*
X187363214Y-79253113D01*
X187054502Y-78888633D01*
X186775882Y-78545111D01*
X186548499Y-78247554D01*
X186393498Y-78020965D01*
X186332025Y-77890352D01*
X186331782Y-77884748D01*
X186406633Y-77788539D01*
X186596037Y-77663284D01*
X186853066Y-77530903D01*
X187130792Y-77413314D01*
X187382288Y-77332435D01*
X187560624Y-77310186D01*
X187561668Y-77310308D01*
X187788031Y-77297594D01*
X188035801Y-77233419D01*
X188276262Y-77151262D01*
X188588941Y-77055661D01*
X188757302Y-77008050D01*
X189020133Y-76932010D01*
X189392456Y-76818679D01*
X189822980Y-76683887D01*
X190225040Y-76554970D01*
X190651824Y-76419244D01*
X191055939Y-76295787D01*
X191390778Y-76198530D01*
X191603881Y-76142728D01*
X191840148Y-76080644D01*
X192001642Y-76022911D01*
X192030122Y-76006165D01*
X192130116Y-75966369D01*
X192363217Y-75893315D01*
X192698585Y-75796110D01*
X193105380Y-75683858D01*
X193281254Y-75636767D01*
X194103411Y-75415721D01*
X194766017Y-75231307D01*
X195274485Y-75081943D01*
X195634230Y-74966043D01*
X195834319Y-74889479D01*
X196004151Y-74832805D01*
X196291368Y-74755757D01*
X196647270Y-74670959D01*
X196841395Y-74628400D01*
X197213009Y-74544030D01*
X197540283Y-74459980D01*
X197774818Y-74389115D01*
X197843755Y-74361895D01*
X198014347Y-74297032D01*
X198297738Y-74206988D01*
X198642485Y-74107784D01*
X198770714Y-74073177D01*
X199686064Y-73815321D01*
X200612346Y-73526531D01*
X201462721Y-73233949D01*
X201505352Y-73218364D01*
X201875331Y-73093095D01*
X202326871Y-72955210D01*
X202776479Y-72829917D01*
X202882726Y-72802522D01*
X203322102Y-72687819D01*
X203838874Y-72547240D01*
X204348373Y-72403992D01*
X204558749Y-72343078D01*
X205049688Y-72199687D01*
X205407901Y-72100118D01*
X205663423Y-72041469D01*
X205846287Y-72020838D01*
X205986528Y-72035322D01*
X206114181Y-72082018D01*
X206259277Y-72158026D01*
X206291472Y-72175637D01*
X206544055Y-72331101D01*
X206698922Y-72486496D01*
X206813423Y-72695005D01*
X206897078Y-72939988D01*
X206918250Y-73196038D01*
X206871142Y-73494622D01*
X206749957Y-73867209D01*
X206548897Y-74345265D01*
X206482454Y-74491521D01*
X206292536Y-74914971D01*
X206066834Y-75433511D01*
X205832112Y-75984869D01*
X205615131Y-76506776D01*
X205591702Y-76564111D01*
X205440255Y-76925474D01*
X205250819Y-77362007D01*
X205034608Y-77849441D01*
X204802831Y-78363500D01*
X204566703Y-78879914D01*
X204337434Y-79374411D01*
X204126236Y-79822719D01*
X203944322Y-80200567D01*
X203802901Y-80483683D01*
X203713188Y-80647794D01*
X203691763Y-80677188D01*
X203647159Y-80763499D01*
X203548045Y-80982412D01*
X203404799Y-81310122D01*
X203227796Y-81722822D01*
X203027410Y-82196705D01*
X202972761Y-82326996D01*
X202674511Y-83038753D01*
X202434326Y-83610222D01*
X202245121Y-84057419D01*
X202099818Y-84396357D01*
X201991333Y-84643050D01*
X201912585Y-84813512D01*
X201856492Y-84923756D01*
X201815972Y-84989798D01*
X201783943Y-85027651D01*
X201774739Y-85036072D01*
X201728589Y-85090258D01*
X201668717Y-85192242D01*
X201586672Y-85360968D01*
X201474004Y-85615371D01*
X201322267Y-85974394D01*
X201123008Y-86456978D01*
X200928193Y-86933733D01*
X200712927Y-87437621D01*
X200458432Y-87996363D01*
X200201028Y-88531750D01*
X200032805Y-88861672D01*
X199835965Y-89248893D01*
X199664131Y-89613495D01*
X199536841Y-89912337D01*
X199476145Y-90090934D01*
X199263487Y-90698657D01*
X198908673Y-91306468D01*
X198823845Y-91424806D01*
X198648643Y-91650888D01*
X198531361Y-91763012D01*
X199234840Y-92572273D01*
X199264272Y-92550523D01*
X199411181Y-92394601D01*
X199577770Y-92165768D01*
X199762789Y-91884971D01*
X200052039Y-91420058D01*
X200252618Y-91048124D01*
X200382932Y-90730972D01*
X200459697Y-90439166D01*
X200516536Y-90270259D01*
X200635245Y-89992943D01*
X200797548Y-89647978D01*
X200955955Y-89332353D01*
X201173993Y-88891551D01*
X201420212Y-88363960D01*
X201662015Y-87820841D01*
X201838964Y-87402075D01*
X202073155Y-86834241D01*
X202261672Y-86391093D01*
X202419727Y-86039309D01*
X202562537Y-85745568D01*
X202705315Y-85476549D01*
X202774527Y-85353060D01*
X202861852Y-85179574D01*
X203002307Y-84876895D01*
X203183819Y-84472113D01*
X203394322Y-83992314D01*
X203621746Y-83464586D01*
X203743905Y-83177340D01*
X204016664Y-82542320D01*
X204318657Y-81855015D01*
X204627216Y-81165977D01*
X204919675Y-80525764D01*
X205173365Y-79984928D01*
X205202721Y-79923714D01*
X205429907Y-79440703D01*
X205703089Y-78842603D01*
X206003799Y-78170907D01*
X206313567Y-77467107D01*
X206613924Y-76772698D01*
X206798323Y-76339000D01*
X207043570Y-75762088D01*
X207274070Y-75228562D01*
X207479892Y-74760732D01*
X207651104Y-74380908D01*
X207777774Y-74111399D01*
X207849974Y-73974515D01*
X207852484Y-73970825D01*
X207950258Y-73711687D01*
X207976333Y-73348233D01*
X207934109Y-72927925D01*
X207826985Y-72498216D01*
X207729033Y-72246943D01*
X207600865Y-71977283D01*
X207488394Y-71794814D01*
X207346950Y-71647525D01*
G36*
X201184421Y-75847379D02*
G01*
X200905816Y-75700225D01*
X200629543Y-75688913D01*
X200329644Y-75809013D01*
X199980166Y-76056091D01*
X199791193Y-76215005D01*
X199429132Y-76504457D01*
X199137093Y-76670707D01*
X198881984Y-76724867D01*
X198630712Y-76678049D01*
X198532690Y-76637636D01*
X198290219Y-76493668D01*
X198060792Y-76276586D01*
X197857132Y-76024881D01*
X197552137Y-75676195D01*
X197270580Y-75481352D01*
X196992500Y-75430521D01*
X196762279Y-75485668D01*
X196569101Y-75596234D01*
X196301568Y-75791891D01*
X195995410Y-76041315D01*
X195686361Y-76313181D01*
X195410152Y-76576164D01*
X195202515Y-76798936D01*
X195103456Y-76939923D01*
X195061133Y-77178221D01*
X195142051Y-77459407D01*
X195353569Y-77800885D01*
X195591657Y-78094771D01*
X195868541Y-78448254D01*
X196007931Y-78716530D01*
X196013326Y-78908170D01*
X195956185Y-78987804D01*
X195883379Y-79128308D01*
X195845434Y-79348744D01*
X195844755Y-79365129D01*
X195825162Y-79531868D01*
X195759089Y-79674089D01*
X195617122Y-79835150D01*
X195381029Y-80048702D01*
X195081220Y-80329271D01*
X194905021Y-80555999D01*
X194833277Y-80766104D01*
X194846835Y-80996804D01*
X194860727Y-81059671D01*
X194961304Y-81276869D01*
X195161477Y-81567769D01*
X195431663Y-81896591D01*
X195742275Y-82227556D01*
X196063730Y-82524884D01*
X196091553Y-82548248D01*
X196334080Y-82721462D01*
X196548571Y-82789602D01*
X196773430Y-82747818D01*
X197047059Y-82591266D01*
X197308628Y-82394637D01*
X197835155Y-81977318D01*
X198096001Y-82132417D01*
X198410707Y-82243848D01*
X198697417Y-82189355D01*
X198829488Y-82099302D01*
X198901219Y-82057808D01*
X198985974Y-82075577D01*
X199111833Y-82171488D01*
X199306883Y-82364416D01*
X199454416Y-82519343D01*
X199704140Y-82777857D01*
X199879329Y-82934928D01*
X200018262Y-83015400D01*
X200159218Y-83044107D01*
X200267242Y-83046792D01*
X200412587Y-83038282D01*
X200544254Y-83001490D01*
X200694152Y-82916972D01*
X200894188Y-82765287D01*
X201176268Y-82526991D01*
X201308846Y-82412085D01*
X201611325Y-82138451D01*
X201870547Y-81884138D01*
X202055746Y-81680551D01*
X202131148Y-81572714D01*
X202184195Y-81356457D01*
X202139093Y-81121439D01*
X201984640Y-80840750D01*
X201709632Y-80487481D01*
X201650957Y-80419274D01*
X201334041Y-80020057D01*
X201155387Y-79690319D01*
X201115829Y-79400607D01*
X201216202Y-79121467D01*
X201457341Y-78823445D01*
X201702686Y-78594502D01*
X202102871Y-78211754D01*
X202354652Y-77890499D01*
X202463792Y-77622188D01*
X202460416Y-77469653D01*
X202392818Y-77330860D01*
X202242306Y-77096906D01*
X202033103Y-76803765D01*
X201852447Y-76566941D01*
X201491312Y-76134807D01*
X201184421Y-75847379D01*
G37*
X201184421Y-75847379D02*
X200905816Y-75700225D01*
X200629543Y-75688913D01*
X200329644Y-75809013D01*
X199980166Y-76056091D01*
X199791193Y-76215005D01*
X199429132Y-76504457D01*
X199137093Y-76670707D01*
X198881984Y-76724867D01*
X198630712Y-76678049D01*
X198532690Y-76637636D01*
X198290219Y-76493668D01*
X198060792Y-76276586D01*
X197857132Y-76024881D01*
X197552137Y-75676195D01*
X197270580Y-75481352D01*
X196992500Y-75430521D01*
X196762279Y-75485668D01*
X196569101Y-75596234D01*
X196301568Y-75791891D01*
X195995410Y-76041315D01*
X195686361Y-76313181D01*
X195410152Y-76576164D01*
X195202515Y-76798936D01*
X195103456Y-76939923D01*
X195061133Y-77178221D01*
X195142051Y-77459407D01*
X195353569Y-77800885D01*
X195591657Y-78094771D01*
X195868541Y-78448254D01*
X196007931Y-78716530D01*
X196013326Y-78908170D01*
X195956185Y-78987804D01*
X195883379Y-79128308D01*
X195845434Y-79348744D01*
X195844755Y-79365129D01*
X195825162Y-79531868D01*
X195759089Y-79674089D01*
X195617122Y-79835150D01*
X195381029Y-80048702D01*
X195081220Y-80329271D01*
X194905021Y-80555999D01*
X194833277Y-80766104D01*
X194846835Y-80996804D01*
X194860727Y-81059671D01*
X194961304Y-81276869D01*
X195161477Y-81567769D01*
X195431663Y-81896591D01*
X195742275Y-82227556D01*
X196063730Y-82524884D01*
X196091553Y-82548248D01*
X196334080Y-82721462D01*
X196548571Y-82789602D01*
X196773430Y-82747818D01*
X197047059Y-82591266D01*
X197308628Y-82394637D01*
X197835155Y-81977318D01*
X198096001Y-82132417D01*
X198410707Y-82243848D01*
X198697417Y-82189355D01*
X198829488Y-82099302D01*
X198901219Y-82057808D01*
X198985974Y-82075577D01*
X199111833Y-82171488D01*
X199306883Y-82364416D01*
X199454416Y-82519343D01*
X199704140Y-82777857D01*
X199879329Y-82934928D01*
X200018262Y-83015400D01*
X200159218Y-83044107D01*
X200267242Y-83046792D01*
X200412587Y-83038282D01*
X200544254Y-83001490D01*
X200694152Y-82916972D01*
X200894188Y-82765287D01*
X201176268Y-82526991D01*
X201308846Y-82412085D01*
X201611325Y-82138451D01*
X201870547Y-81884138D01*
X202055746Y-81680551D01*
X202131148Y-81572714D01*
X202184195Y-81356457D01*
X202139093Y-81121439D01*
X201984640Y-80840750D01*
X201709632Y-80487481D01*
X201650957Y-80419274D01*
X201334041Y-80020057D01*
X201155387Y-79690319D01*
X201115829Y-79400607D01*
X201216202Y-79121467D01*
X201457341Y-78823445D01*
X201702686Y-78594502D01*
X202102871Y-78211754D01*
X202354652Y-77890499D01*
X202463792Y-77622188D01*
X202460416Y-77469653D01*
X202392818Y-77330860D01*
X202242306Y-77096906D01*
X202033103Y-76803765D01*
X201852447Y-76566941D01*
X201491312Y-76134807D01*
X201184421Y-75847379D01*
G36*
X21220956Y-72395088D02*
G01*
X21092506Y-72633202D01*
X21013317Y-72795166D01*
X20856214Y-73160381D01*
X20781427Y-73464281D01*
X20771825Y-73782605D01*
X20775610Y-73846046D01*
X20815783Y-74147529D01*
X20882945Y-74401161D01*
X20935388Y-74509778D01*
X21033906Y-74676473D01*
X21185099Y-74970584D01*
X21375547Y-75363631D01*
X21591826Y-75827131D01*
X21820511Y-76332601D01*
X22048180Y-76851558D01*
X22138744Y-77063100D01*
X22322380Y-77475238D01*
X22528800Y-77907535D01*
X22720244Y-78281559D01*
X22763341Y-78360362D01*
X23209755Y-79201520D01*
X23669670Y-80143076D01*
X24067976Y-81020533D01*
X24219117Y-81355699D01*
X24351698Y-81631092D01*
X24447737Y-81810334D01*
X24481812Y-81857860D01*
X24540224Y-81955880D01*
X24643786Y-82178131D01*
X24777358Y-82490607D01*
X24911756Y-82823512D01*
X25057666Y-83186698D01*
X25184836Y-83489089D01*
X25278852Y-83697317D01*
X25323563Y-83776943D01*
X25384739Y-83873542D01*
X25499396Y-84092425D01*
X25652288Y-84401111D01*
X25828172Y-84767125D01*
X26011804Y-85157987D01*
X26187940Y-85541220D01*
X26341337Y-85884345D01*
X26456750Y-86154884D01*
X26518935Y-86320361D01*
X26521407Y-86329019D01*
X26613652Y-86580055D01*
X26709675Y-86763241D01*
X26785146Y-86898704D01*
X26918540Y-87158006D01*
X27095256Y-87511971D01*
X27300693Y-87931423D01*
X27473571Y-88289647D01*
X27691394Y-88740136D01*
X27892081Y-89148108D01*
X28061023Y-89484401D01*
X28183606Y-89719855D01*
X28238045Y-89815364D01*
X28343824Y-90010953D01*
X28461104Y-90276295D01*
X28495472Y-90364742D01*
X28607192Y-90633039D01*
X28721746Y-90861758D01*
X28753284Y-90913660D01*
X28855197Y-91130073D01*
X28926153Y-91383747D01*
X29046075Y-91741374D01*
X29268127Y-92143715D01*
X29555834Y-92538207D01*
X29872725Y-92872284D01*
X30063744Y-93023251D01*
X30367521Y-93219495D01*
X30584176Y-93320968D01*
X30762720Y-93333606D01*
X30952160Y-93263344D01*
X31140841Y-93153686D01*
X31367239Y-92977940D01*
X31664163Y-92694830D01*
X32009292Y-92331165D01*
X32380307Y-91913757D01*
X32754887Y-91469415D01*
X33110714Y-91024951D01*
X33425466Y-90607175D01*
X33676826Y-90242897D01*
X33842472Y-89958929D01*
X33885881Y-89856337D01*
X34000537Y-89254498D01*
X33969835Y-88624910D01*
X33800487Y-88014298D01*
X33554007Y-87547262D01*
X33528056Y-87402755D01*
X33547970Y-87160702D01*
X33582851Y-86986015D01*
X33624762Y-86831032D01*
X33677739Y-86688840D01*
X33756882Y-86537319D01*
X33877291Y-86354350D01*
X34054068Y-86117814D01*
X34302312Y-85805590D01*
X34637123Y-85395559D01*
X34822004Y-85170876D01*
X35432536Y-84429737D01*
X35944351Y-83808522D01*
X36366374Y-83296437D01*
X36707527Y-82882686D01*
X36976733Y-82556471D01*
X37182915Y-82306999D01*
X37334996Y-82123474D01*
X37441899Y-81995102D01*
X37512547Y-81911084D01*
X37555864Y-81860628D01*
X37580771Y-81832936D01*
X37582392Y-81831216D01*
X37762698Y-81741263D01*
X38059750Y-81697598D01*
X38426850Y-81702226D01*
X38817300Y-81757156D01*
X38895673Y-81774736D01*
X39268597Y-81842746D01*
X39654457Y-81879601D01*
X39901693Y-81880077D01*
X40210034Y-81828699D01*
X40557889Y-81724881D01*
X40893958Y-81589355D01*
X41166946Y-81442852D01*
X41325556Y-81306103D01*
X41326898Y-81304085D01*
X41400942Y-81204174D01*
X41562734Y-80993688D01*
X41794977Y-80694868D01*
X42080376Y-80329956D01*
X42401635Y-79921193D01*
X42451844Y-79857476D01*
X42904903Y-79272654D01*
X43246911Y-78808234D01*
X43481079Y-78459648D01*
X43610619Y-78222324D01*
X43623342Y-78190334D01*
X43684336Y-77992329D01*
X43681676Y-77840212D01*
X43600253Y-77674369D01*
X43435379Y-77448760D01*
X43276823Y-77251765D01*
X43157100Y-77133973D01*
X42467851Y-77955388D01*
X42508525Y-78043526D01*
X42506789Y-78087957D01*
X42448362Y-78195019D01*
X42297241Y-78407934D01*
X42070861Y-78703922D01*
X41786653Y-79060206D01*
X41462051Y-79454006D01*
X41453686Y-79463994D01*
X41093292Y-79893141D01*
X40821761Y-80210970D01*
X40619488Y-80436197D01*
X40466868Y-80587538D01*
X40344296Y-80683706D01*
X40232164Y-80743417D01*
X40110870Y-80785387D01*
X40051509Y-80802500D01*
X39645384Y-80845986D01*
X39145971Y-80780343D01*
X39114040Y-80773013D01*
X38464760Y-80656885D01*
X37929164Y-80643673D01*
X37486199Y-80733726D01*
X37321879Y-80802837D01*
X37219919Y-80857118D01*
X37118223Y-80923817D01*
X37004600Y-81016177D01*
X36866864Y-81147443D01*
X36692824Y-81330861D01*
X36470291Y-81579674D01*
X36187078Y-81907126D01*
X35830995Y-82326465D01*
X35389853Y-82850934D01*
X34911357Y-83422198D01*
X34382561Y-84054922D01*
X33951721Y-84573075D01*
X33607561Y-84991471D01*
X33338805Y-85324929D01*
X33134174Y-85588264D01*
X32982391Y-85796293D01*
X32872181Y-85963833D01*
X32792264Y-86105702D01*
X32731366Y-86236716D01*
X32689690Y-86341224D01*
X32532085Y-86923422D01*
X32508226Y-87470055D01*
X32617620Y-87953161D01*
X32721788Y-88161597D01*
X32886387Y-88539898D01*
X32961485Y-88959784D01*
X32942411Y-89360980D01*
X32837984Y-89661231D01*
X32676211Y-89907193D01*
X32444871Y-90219343D01*
X32165355Y-90572883D01*
X31859052Y-90943015D01*
X31547352Y-91304943D01*
X31251645Y-91633872D01*
X30993322Y-91905004D01*
X30793771Y-92093543D01*
X30674383Y-92174692D01*
X30668885Y-92175808D01*
X30562152Y-92116929D01*
X30408809Y-91949451D01*
X30237850Y-91716296D01*
X30078262Y-91460384D01*
X29959036Y-91224636D01*
X29909164Y-91051977D01*
X29909121Y-91050927D01*
X29861153Y-90829339D01*
X29759007Y-90594658D01*
X29640246Y-90370010D01*
X29496909Y-90076136D01*
X29423546Y-89917296D01*
X29307327Y-89669596D01*
X29137147Y-89319586D01*
X28936665Y-88915448D01*
X28746439Y-88538505D01*
X28545621Y-88138208D01*
X28360466Y-87758381D01*
X28212026Y-87442880D01*
X28123575Y-87241130D01*
X28025295Y-87017483D01*
X27943009Y-86867009D01*
X27922014Y-86841499D01*
X27867066Y-86748961D01*
X27758446Y-86530159D01*
X27609974Y-86214126D01*
X27435468Y-85829899D01*
X27361444Y-85663558D01*
X27014505Y-84886102D01*
X26728708Y-84260502D01*
X26501641Y-83781659D01*
X26330891Y-83444475D01*
X26223968Y-83258826D01*
X26141425Y-83099951D01*
X26020394Y-82828323D01*
X25880965Y-82490068D01*
X25808563Y-82304991D01*
X25667099Y-81951150D01*
X25532886Y-81641054D01*
X25426204Y-81420493D01*
X25388535Y-81356662D01*
X25297784Y-81198317D01*
X25164517Y-80932501D01*
X25012604Y-80607518D01*
X24958364Y-80486281D01*
X24560490Y-79622538D01*
X24130353Y-78752837D01*
X23708345Y-77958701D01*
X23686283Y-77919033D01*
X23504679Y-77573206D01*
X23297855Y-77148795D01*
X23103770Y-76724322D01*
X23060092Y-76623669D01*
X22878068Y-76207646D01*
X22658378Y-75719228D01*
X22437191Y-75238410D01*
X22344117Y-75040153D01*
X22125691Y-74577691D01*
X21971312Y-74239463D01*
X21873412Y-73996262D01*
X21824428Y-73818877D01*
X21816795Y-73678096D01*
X21842948Y-73544710D01*
X21895321Y-73389510D01*
X21907679Y-73354957D01*
X22021717Y-73081163D01*
X22150972Y-72903894D01*
X22339002Y-72758185D01*
X22567883Y-72637236D01*
X22817468Y-72576269D01*
X23119746Y-72576089D01*
X23506702Y-72637496D01*
X24010325Y-72761297D01*
X24165175Y-72804042D01*
X24613121Y-72925379D01*
X25160584Y-73067185D01*
X25741874Y-73212766D01*
X26291298Y-73345431D01*
X26351592Y-73359603D01*
X26732197Y-73452656D01*
X27192991Y-73571470D01*
X27708246Y-73708769D01*
X28252234Y-73857275D01*
X28799229Y-74009711D01*
X29323504Y-74158801D01*
X29799331Y-74297268D01*
X30200985Y-74417834D01*
X30502738Y-74513224D01*
X30678863Y-74576160D01*
X30711247Y-74592723D01*
X30803472Y-74623277D01*
X31035195Y-74686924D01*
X31381279Y-74777141D01*
X31816588Y-74887405D01*
X32315983Y-75011192D01*
X32453219Y-75044786D01*
X33202869Y-75228021D01*
X33804876Y-75375852D01*
X34276166Y-75492770D01*
X34633661Y-75583263D01*
X34894288Y-75651821D01*
X35074970Y-75702933D01*
X35192632Y-75741090D01*
X35264199Y-75770780D01*
X35306596Y-75796493D01*
X35316353Y-75804266D01*
X35377092Y-75841371D01*
X35487187Y-75884552D01*
X35666670Y-75939193D01*
X35935566Y-76010676D01*
X36313906Y-76104381D01*
X36821719Y-76225694D01*
X37323080Y-76343530D01*
X37854440Y-76477320D01*
X38446115Y-76641276D01*
X39015177Y-76811757D01*
X39367353Y-76926298D01*
X39780599Y-77060140D01*
X40167593Y-77172822D01*
X40482668Y-77251796D01*
X40668562Y-77283806D01*
X41302069Y-77398777D01*
X41957903Y-77654140D01*
X42088053Y-77719412D01*
X42338760Y-77857089D01*
X42467851Y-77955388D01*
X43157100Y-77133973D01*
X43131013Y-77108306D01*
X42954029Y-76987597D01*
X42701953Y-76858856D01*
X42395670Y-76720042D01*
X41891232Y-76507081D01*
X41492500Y-76367155D01*
X41158867Y-76288058D01*
X40858645Y-76257888D01*
X40682926Y-76228171D01*
X40390454Y-76154306D01*
X40024347Y-76047965D01*
X39687826Y-75940883D01*
X39218343Y-75794486D01*
X38658730Y-75633831D01*
X38084471Y-75479969D01*
X37643181Y-75370707D01*
X37045702Y-75228229D01*
X36578519Y-75111356D01*
X36206341Y-75010278D01*
X35893876Y-74915177D01*
X35605834Y-74816242D01*
X35473038Y-74767199D01*
X35288027Y-74708088D01*
X34967103Y-74616712D01*
X34538910Y-74500757D01*
X34032088Y-74367903D01*
X33475280Y-74225834D01*
X33172460Y-74150114D01*
X32502590Y-73980052D01*
X31776504Y-73789295D01*
X31047681Y-73592324D01*
X30369599Y-73403617D01*
X29795736Y-73237655D01*
X29730683Y-73218237D01*
X29218079Y-73069408D01*
X28584607Y-72893153D01*
X27874140Y-72701222D01*
X27130547Y-72505366D01*
X26397701Y-72317336D01*
X25940496Y-72203053D01*
X25332321Y-72051074D01*
X24769305Y-71906874D01*
X24275038Y-71776770D01*
X23873107Y-71667084D01*
X23587100Y-71584134D01*
X23440607Y-71534236D01*
X23436570Y-71532334D01*
X23165327Y-71476302D01*
X22802269Y-71507405D01*
X22393740Y-71614859D01*
X21986080Y-71787886D01*
X21753223Y-71923940D01*
X21506934Y-72092714D01*
X21344305Y-72232344D01*
X21220956Y-72395088D01*
G37*
X21220956Y-72395088D02*
X21092506Y-72633202D01*
X21013317Y-72795166D01*
X20856214Y-73160381D01*
X20781427Y-73464281D01*
X20771825Y-73782605D01*
X20775610Y-73846046D01*
X20815783Y-74147529D01*
X20882945Y-74401161D01*
X20935388Y-74509778D01*
X21033906Y-74676473D01*
X21185099Y-74970584D01*
X21375547Y-75363631D01*
X21591826Y-75827131D01*
X21820511Y-76332601D01*
X22048180Y-76851558D01*
X22138744Y-77063100D01*
X22322380Y-77475238D01*
X22528800Y-77907535D01*
X22720244Y-78281559D01*
X22763341Y-78360362D01*
X23209755Y-79201520D01*
X23669670Y-80143076D01*
X24067976Y-81020533D01*
X24219117Y-81355699D01*
X24351698Y-81631092D01*
X24447737Y-81810334D01*
X24481812Y-81857860D01*
X24540224Y-81955880D01*
X24643786Y-82178131D01*
X24777358Y-82490607D01*
X24911756Y-82823512D01*
X25057666Y-83186698D01*
X25184836Y-83489089D01*
X25278852Y-83697317D01*
X25323563Y-83776943D01*
X25384739Y-83873542D01*
X25499396Y-84092425D01*
X25652288Y-84401111D01*
X25828172Y-84767125D01*
X26011804Y-85157987D01*
X26187940Y-85541220D01*
X26341337Y-85884345D01*
X26456750Y-86154884D01*
X26518935Y-86320361D01*
X26521407Y-86329019D01*
X26613652Y-86580055D01*
X26709675Y-86763241D01*
X26785146Y-86898704D01*
X26918540Y-87158006D01*
X27095256Y-87511971D01*
X27300693Y-87931423D01*
X27473571Y-88289647D01*
X27691394Y-88740136D01*
X27892081Y-89148108D01*
X28061023Y-89484401D01*
X28183606Y-89719855D01*
X28238045Y-89815364D01*
X28343824Y-90010953D01*
X28461104Y-90276295D01*
X28495472Y-90364742D01*
X28607192Y-90633039D01*
X28721746Y-90861758D01*
X28753284Y-90913660D01*
X28855197Y-91130073D01*
X28926153Y-91383747D01*
X29046075Y-91741374D01*
X29268127Y-92143715D01*
X29555834Y-92538207D01*
X29872725Y-92872284D01*
X30063744Y-93023251D01*
X30367521Y-93219495D01*
X30584176Y-93320968D01*
X30762720Y-93333606D01*
X30952160Y-93263344D01*
X31140841Y-93153686D01*
X31367239Y-92977940D01*
X31664163Y-92694830D01*
X32009292Y-92331165D01*
X32380307Y-91913757D01*
X32754887Y-91469415D01*
X33110714Y-91024951D01*
X33425466Y-90607175D01*
X33676826Y-90242897D01*
X33842472Y-89958929D01*
X33885881Y-89856337D01*
X34000537Y-89254498D01*
X33969835Y-88624910D01*
X33800487Y-88014298D01*
X33554007Y-87547262D01*
X33528056Y-87402755D01*
X33547970Y-87160702D01*
X33582851Y-86986015D01*
X33624762Y-86831032D01*
X33677739Y-86688840D01*
X33756882Y-86537319D01*
X33877291Y-86354350D01*
X34054068Y-86117814D01*
X34302312Y-85805590D01*
X34637123Y-85395559D01*
X34822004Y-85170876D01*
X35432536Y-84429737D01*
X35944351Y-83808522D01*
X36366374Y-83296437D01*
X36707527Y-82882686D01*
X36976733Y-82556471D01*
X37182915Y-82306999D01*
X37334996Y-82123474D01*
X37441899Y-81995102D01*
X37512547Y-81911084D01*
X37555864Y-81860628D01*
X37580771Y-81832936D01*
X37582392Y-81831216D01*
X37762698Y-81741263D01*
X38059750Y-81697598D01*
X38426850Y-81702226D01*
X38817300Y-81757156D01*
X38895673Y-81774736D01*
X39268597Y-81842746D01*
X39654457Y-81879601D01*
X39901693Y-81880077D01*
X40210034Y-81828699D01*
X40557889Y-81724881D01*
X40893958Y-81589355D01*
X41166946Y-81442852D01*
X41325556Y-81306103D01*
X41326898Y-81304085D01*
X41400942Y-81204174D01*
X41562734Y-80993688D01*
X41794977Y-80694868D01*
X42080376Y-80329956D01*
X42401635Y-79921193D01*
X42451844Y-79857476D01*
X42904903Y-79272654D01*
X43246911Y-78808234D01*
X43481079Y-78459648D01*
X43610619Y-78222324D01*
X43623342Y-78190334D01*
X43684336Y-77992329D01*
X43681676Y-77840212D01*
X43600253Y-77674369D01*
X43435379Y-77448760D01*
X43276823Y-77251765D01*
X43157100Y-77133973D01*
X42467851Y-77955388D01*
X42508525Y-78043526D01*
X42506789Y-78087957D01*
X42448362Y-78195019D01*
X42297241Y-78407934D01*
X42070861Y-78703922D01*
X41786653Y-79060206D01*
X41462051Y-79454006D01*
X41453686Y-79463994D01*
X41093292Y-79893141D01*
X40821761Y-80210970D01*
X40619488Y-80436197D01*
X40466868Y-80587538D01*
X40344296Y-80683706D01*
X40232164Y-80743417D01*
X40110870Y-80785387D01*
X40051509Y-80802500D01*
X39645384Y-80845986D01*
X39145971Y-80780343D01*
X39114040Y-80773013D01*
X38464760Y-80656885D01*
X37929164Y-80643673D01*
X37486199Y-80733726D01*
X37321879Y-80802837D01*
X37219919Y-80857118D01*
X37118223Y-80923817D01*
X37004600Y-81016177D01*
X36866864Y-81147443D01*
X36692824Y-81330861D01*
X36470291Y-81579674D01*
X36187078Y-81907126D01*
X35830995Y-82326465D01*
X35389853Y-82850934D01*
X34911357Y-83422198D01*
X34382561Y-84054922D01*
X33951721Y-84573075D01*
X33607561Y-84991471D01*
X33338805Y-85324929D01*
X33134174Y-85588264D01*
X32982391Y-85796293D01*
X32872181Y-85963833D01*
X32792264Y-86105702D01*
X32731366Y-86236716D01*
X32689690Y-86341224D01*
X32532085Y-86923422D01*
X32508226Y-87470055D01*
X32617620Y-87953161D01*
X32721788Y-88161597D01*
X32886387Y-88539898D01*
X32961485Y-88959784D01*
X32942411Y-89360980D01*
X32837984Y-89661231D01*
X32676211Y-89907193D01*
X32444871Y-90219343D01*
X32165355Y-90572883D01*
X31859052Y-90943015D01*
X31547352Y-91304943D01*
X31251645Y-91633872D01*
X30993322Y-91905004D01*
X30793771Y-92093543D01*
X30674383Y-92174692D01*
X30668885Y-92175808D01*
X30562152Y-92116929D01*
X30408809Y-91949451D01*
X30237850Y-91716296D01*
X30078262Y-91460384D01*
X29959036Y-91224636D01*
X29909164Y-91051977D01*
X29909121Y-91050927D01*
X29861153Y-90829339D01*
X29759007Y-90594658D01*
X29640246Y-90370010D01*
X29496909Y-90076136D01*
X29423546Y-89917296D01*
X29307327Y-89669596D01*
X29137147Y-89319586D01*
X28936665Y-88915448D01*
X28746439Y-88538505D01*
X28545621Y-88138208D01*
X28360466Y-87758381D01*
X28212026Y-87442880D01*
X28123575Y-87241130D01*
X28025295Y-87017483D01*
X27943009Y-86867009D01*
X27922014Y-86841499D01*
X27867066Y-86748961D01*
X27758446Y-86530159D01*
X27609974Y-86214126D01*
X27435468Y-85829899D01*
X27361444Y-85663558D01*
X27014505Y-84886102D01*
X26728708Y-84260502D01*
X26501641Y-83781659D01*
X26330891Y-83444475D01*
X26223968Y-83258826D01*
X26141425Y-83099951D01*
X26020394Y-82828323D01*
X25880965Y-82490068D01*
X25808563Y-82304991D01*
X25667099Y-81951150D01*
X25532886Y-81641054D01*
X25426204Y-81420493D01*
X25388535Y-81356662D01*
X25297784Y-81198317D01*
X25164517Y-80932501D01*
X25012604Y-80607518D01*
X24958364Y-80486281D01*
X24560490Y-79622538D01*
X24130353Y-78752837D01*
X23708345Y-77958701D01*
X23686283Y-77919033D01*
X23504679Y-77573206D01*
X23297855Y-77148795D01*
X23103770Y-76724322D01*
X23060092Y-76623669D01*
X22878068Y-76207646D01*
X22658378Y-75719228D01*
X22437191Y-75238410D01*
X22344117Y-75040153D01*
X22125691Y-74577691D01*
X21971312Y-74239463D01*
X21873412Y-73996262D01*
X21824428Y-73818877D01*
X21816795Y-73678096D01*
X21842948Y-73544710D01*
X21895321Y-73389510D01*
X21907679Y-73354957D01*
X22021717Y-73081163D01*
X22150972Y-72903894D01*
X22339002Y-72758185D01*
X22567883Y-72637236D01*
X22817468Y-72576269D01*
X23119746Y-72576089D01*
X23506702Y-72637496D01*
X24010325Y-72761297D01*
X24165175Y-72804042D01*
X24613121Y-72925379D01*
X25160584Y-73067185D01*
X25741874Y-73212766D01*
X26291298Y-73345431D01*
X26351592Y-73359603D01*
X26732197Y-73452656D01*
X27192991Y-73571470D01*
X27708246Y-73708769D01*
X28252234Y-73857275D01*
X28799229Y-74009711D01*
X29323504Y-74158801D01*
X29799331Y-74297268D01*
X30200985Y-74417834D01*
X30502738Y-74513224D01*
X30678863Y-74576160D01*
X30711247Y-74592723D01*
X30803472Y-74623277D01*
X31035195Y-74686924D01*
X31381279Y-74777141D01*
X31816588Y-74887405D01*
X32315983Y-75011192D01*
X32453219Y-75044786D01*
X33202869Y-75228021D01*
X33804876Y-75375852D01*
X34276166Y-75492770D01*
X34633661Y-75583263D01*
X34894288Y-75651821D01*
X35074970Y-75702933D01*
X35192632Y-75741090D01*
X35264199Y-75770780D01*
X35306596Y-75796493D01*
X35316353Y-75804266D01*
X35377092Y-75841371D01*
X35487187Y-75884552D01*
X35666670Y-75939193D01*
X35935566Y-76010676D01*
X36313906Y-76104381D01*
X36821719Y-76225694D01*
X37323080Y-76343530D01*
X37854440Y-76477320D01*
X38446115Y-76641276D01*
X39015177Y-76811757D01*
X39367353Y-76926298D01*
X39780599Y-77060140D01*
X40167593Y-77172822D01*
X40482668Y-77251796D01*
X40668562Y-77283806D01*
X41302069Y-77398777D01*
X41957903Y-77654140D01*
X42088053Y-77719412D01*
X42338760Y-77857089D01*
X42467851Y-77955388D01*
X43157100Y-77133973D01*
X43131013Y-77108306D01*
X42954029Y-76987597D01*
X42701953Y-76858856D01*
X42395670Y-76720042D01*
X41891232Y-76507081D01*
X41492500Y-76367155D01*
X41158867Y-76288058D01*
X40858645Y-76257888D01*
X40682926Y-76228171D01*
X40390454Y-76154306D01*
X40024347Y-76047965D01*
X39687826Y-75940883D01*
X39218343Y-75794486D01*
X38658730Y-75633831D01*
X38084471Y-75479969D01*
X37643181Y-75370707D01*
X37045702Y-75228229D01*
X36578519Y-75111356D01*
X36206341Y-75010278D01*
X35893876Y-74915177D01*
X35605834Y-74816242D01*
X35473038Y-74767199D01*
X35288027Y-74708088D01*
X34967103Y-74616712D01*
X34538910Y-74500757D01*
X34032088Y-74367903D01*
X33475280Y-74225834D01*
X33172460Y-74150114D01*
X32502590Y-73980052D01*
X31776504Y-73789295D01*
X31047681Y-73592324D01*
X30369599Y-73403617D01*
X29795736Y-73237655D01*
X29730683Y-73218237D01*
X29218079Y-73069408D01*
X28584607Y-72893153D01*
X27874140Y-72701222D01*
X27130547Y-72505366D01*
X26397701Y-72317336D01*
X25940496Y-72203053D01*
X25332321Y-72051074D01*
X24769305Y-71906874D01*
X24275038Y-71776770D01*
X23873107Y-71667084D01*
X23587100Y-71584134D01*
X23440607Y-71534236D01*
X23436570Y-71532334D01*
X23165327Y-71476302D01*
X22802269Y-71507405D01*
X22393740Y-71614859D01*
X21986080Y-71787886D01*
X21753223Y-71923940D01*
X21506934Y-72092714D01*
X21344305Y-72232344D01*
X21220956Y-72395088D01*
G36*
X26333135Y-77824745D02*
G01*
X26231376Y-78122939D01*
X26263422Y-78397580D01*
X26428958Y-78674999D01*
X26727664Y-78981523D01*
X26914184Y-79143310D01*
X27256711Y-79455634D01*
X27466599Y-79718069D01*
X27560000Y-79961565D01*
X27553066Y-80217067D01*
X27528485Y-80320205D01*
X27424220Y-80582213D01*
X27245701Y-80842774D01*
X27028955Y-81083302D01*
X26732273Y-81439088D01*
X26583874Y-81747658D01*
X26577170Y-82030266D01*
X26667652Y-82249027D01*
X26807077Y-82422530D01*
X27042177Y-82656162D01*
X27336424Y-82919532D01*
X27653288Y-83182246D01*
X27956242Y-83413915D01*
X28208753Y-83584147D01*
X28363500Y-83659932D01*
X28605485Y-83664455D01*
X28870551Y-83540546D01*
X29174736Y-83278213D01*
X29427759Y-82997083D01*
X29733575Y-82668311D01*
X29976743Y-82488669D01*
X30165180Y-82453361D01*
X30252772Y-82497342D01*
X30402936Y-82547271D01*
X30626594Y-82550266D01*
X30642884Y-82548373D01*
X30810635Y-82541641D01*
X30961441Y-82584652D01*
X31142728Y-82699675D01*
X31390583Y-82899455D01*
X31714599Y-83151682D01*
X31966099Y-83290244D01*
X32184840Y-83328237D01*
X32410579Y-83278757D01*
X32470499Y-83255202D01*
X32669289Y-83121885D01*
X32925294Y-82878669D01*
X33207801Y-82560371D01*
X33486101Y-82201809D01*
X33729482Y-81837799D01*
X33748205Y-81806664D01*
X33881347Y-81540026D01*
X33915094Y-81317516D01*
X33838649Y-81101963D01*
X33641220Y-80856192D01*
X33406093Y-80628604D01*
X32911545Y-80173841D01*
X33023929Y-79891944D01*
X33084757Y-79563682D01*
X32986084Y-79289025D01*
X32876479Y-79172668D01*
X32824274Y-79108311D01*
X32828567Y-79021820D01*
X32903608Y-78882507D01*
X33063648Y-78659677D01*
X33193589Y-78489725D01*
X33409854Y-78202636D01*
X33537586Y-78005032D01*
X33595333Y-77855221D01*
X33601636Y-77711509D01*
X33587390Y-77604395D01*
X33556248Y-77462171D01*
X33499311Y-77337880D01*
X33392385Y-77203049D01*
X33211275Y-77029205D01*
X32931786Y-76787875D01*
X32797554Y-76674905D01*
X32479971Y-76418956D01*
X32188237Y-76202709D01*
X31958185Y-76051638D01*
X31839881Y-75994034D01*
X31617988Y-75975469D01*
X31392919Y-76056781D01*
X31139847Y-76253242D01*
X30833948Y-76580128D01*
X30775760Y-76648751D01*
X30431034Y-77024215D01*
X30133304Y-77252253D01*
X29853348Y-77336645D01*
X29561942Y-77281175D01*
X29229867Y-77089626D01*
X28965362Y-76883115D01*
X28524723Y-76547732D01*
X28168036Y-76349307D01*
X27885955Y-76283484D01*
X27735827Y-76310680D01*
X27609317Y-76399157D01*
X27401789Y-76584415D01*
X27144983Y-76836900D01*
X26939336Y-77052379D01*
X26569016Y-77476668D01*
X26333135Y-77824745D01*
G37*
X26333135Y-77824745D02*
X26231376Y-78122939D01*
X26263422Y-78397580D01*
X26428958Y-78674999D01*
X26727664Y-78981523D01*
X26914184Y-79143310D01*
X27256711Y-79455634D01*
X27466599Y-79718069D01*
X27560000Y-79961565D01*
X27553066Y-80217067D01*
X27528485Y-80320205D01*
X27424220Y-80582213D01*
X27245701Y-80842774D01*
X27028955Y-81083302D01*
X26732273Y-81439088D01*
X26583874Y-81747658D01*
X26577170Y-82030266D01*
X26667652Y-82249027D01*
X26807077Y-82422530D01*
X27042177Y-82656162D01*
X27336424Y-82919532D01*
X27653288Y-83182246D01*
X27956242Y-83413915D01*
X28208753Y-83584147D01*
X28363500Y-83659932D01*
X28605485Y-83664455D01*
X28870551Y-83540546D01*
X29174736Y-83278213D01*
X29427759Y-82997083D01*
X29733575Y-82668311D01*
X29976743Y-82488669D01*
X30165180Y-82453361D01*
X30252772Y-82497342D01*
X30402936Y-82547271D01*
X30626594Y-82550266D01*
X30642884Y-82548373D01*
X30810635Y-82541641D01*
X30961441Y-82584652D01*
X31142728Y-82699675D01*
X31390583Y-82899455D01*
X31714599Y-83151682D01*
X31966099Y-83290244D01*
X32184840Y-83328237D01*
X32410579Y-83278757D01*
X32470499Y-83255202D01*
X32669289Y-83121885D01*
X32925294Y-82878669D01*
X33207801Y-82560371D01*
X33486101Y-82201809D01*
X33729482Y-81837799D01*
X33748205Y-81806664D01*
X33881347Y-81540026D01*
X33915094Y-81317516D01*
X33838649Y-81101963D01*
X33641220Y-80856192D01*
X33406093Y-80628604D01*
X32911545Y-80173841D01*
X33023929Y-79891944D01*
X33084757Y-79563682D01*
X32986084Y-79289025D01*
X32876479Y-79172668D01*
X32824274Y-79108311D01*
X32828567Y-79021820D01*
X32903608Y-78882507D01*
X33063648Y-78659677D01*
X33193589Y-78489725D01*
X33409854Y-78202636D01*
X33537586Y-78005032D01*
X33595333Y-77855221D01*
X33601636Y-77711509D01*
X33587390Y-77604395D01*
X33556248Y-77462171D01*
X33499311Y-77337880D01*
X33392385Y-77203049D01*
X33211275Y-77029205D01*
X32931786Y-76787875D01*
X32797554Y-76674905D01*
X32479971Y-76418956D01*
X32188237Y-76202709D01*
X31958185Y-76051638D01*
X31839881Y-75994034D01*
X31617988Y-75975469D01*
X31392919Y-76056781D01*
X31139847Y-76253242D01*
X30833948Y-76580128D01*
X30775760Y-76648751D01*
X30431034Y-77024215D01*
X30133304Y-77252253D01*
X29853348Y-77336645D01*
X29561942Y-77281175D01*
X29229867Y-77089626D01*
X28965362Y-76883115D01*
X28524723Y-76547732D01*
X28168036Y-76349307D01*
X27885955Y-76283484D01*
X27735827Y-76310680D01*
X27609317Y-76399157D01*
X27401789Y-76584415D01*
X27144983Y-76836900D01*
X26939336Y-77052379D01*
X26569016Y-77476668D01*
X26333135Y-77824745D01*
D14*
X70543680Y-82697580D02*
X71115108Y-82697580D01*
X70829394Y-82697580D02*
X70704394Y-81697580D01*
X70817489Y-81840438D01*
X70924632Y-81935676D01*
X71025823Y-81983295D01*
X69990108Y-81697580D02*
X70091299Y-82507104D01*
X70055585Y-82602342D01*
X70013918Y-82649961D01*
X69924632Y-82697580D01*
X69734156Y-82697580D01*
X69632966Y-82649961D01*
X69579394Y-82602342D01*
X69519870Y-82507104D01*
X69418680Y-81697580D01*
X158072080Y-82697580D02*
X158643508Y-82697580D01*
X158357794Y-82697580D02*
X158232794Y-81697580D01*
X158345889Y-81840438D01*
X158453032Y-81935676D01*
X158554223Y-81983295D01*
X157518508Y-81697580D02*
X157619699Y-82507104D01*
X157583985Y-82602342D01*
X157542318Y-82649961D01*
X157453032Y-82697580D01*
X157262556Y-82697580D01*
X157161366Y-82649961D01*
X157107794Y-82602342D01*
X157048270Y-82507104D01*
X156947080Y-81697580D01*
X116230266Y-28022604D02*
X115963600Y-28822604D01*
X115696933Y-28022604D01*
X114973123Y-28746414D02*
X115011219Y-28784509D01*
X115125504Y-28822604D01*
X115201695Y-28822604D01*
X115315980Y-28784509D01*
X115392171Y-28708319D01*
X115430266Y-28632128D01*
X115468361Y-28479747D01*
X115468361Y-28365461D01*
X115430266Y-28213080D01*
X115392171Y-28136890D01*
X115315980Y-28060700D01*
X115201695Y-28022604D01*
X115125504Y-28022604D01*
X115011219Y-28060700D01*
X114973123Y-28098795D01*
X114173123Y-28746414D02*
X114211219Y-28784509D01*
X114325504Y-28822604D01*
X114401695Y-28822604D01*
X114515980Y-28784509D01*
X114592171Y-28708319D01*
X114630266Y-28632128D01*
X114668361Y-28479747D01*
X114668361Y-28365461D01*
X114630266Y-28213080D01*
X114592171Y-28136890D01*
X114515980Y-28060700D01*
X114401695Y-28022604D01*
X114325504Y-28022604D01*
X114211219Y-28060700D01*
X114173123Y-28098795D01*
X115430266Y-30943557D02*
X115696933Y-30943557D01*
X115696933Y-31362604D02*
X115696933Y-30562604D01*
X115315980Y-30562604D01*
X114668361Y-30829271D02*
X114668361Y-31362604D01*
X114858838Y-30524509D02*
X115049314Y-31095938D01*
X114554076Y-31095938D01*
X115430266Y-33483557D02*
X115696933Y-33483557D01*
X115696933Y-33902604D02*
X115696933Y-33102604D01*
X115315980Y-33102604D01*
X114630266Y-33102604D02*
X115011219Y-33102604D01*
X115049314Y-33483557D01*
X115011219Y-33445461D01*
X114935028Y-33407366D01*
X114744552Y-33407366D01*
X114668361Y-33445461D01*
X114630266Y-33483557D01*
X114592171Y-33559747D01*
X114592171Y-33750223D01*
X114630266Y-33826414D01*
X114668361Y-33864509D01*
X114744552Y-33902604D01*
X114935028Y-33902604D01*
X115011219Y-33864509D01*
X115049314Y-33826414D01*
X115430266Y-36023557D02*
X115696933Y-36023557D01*
X115696933Y-36442604D02*
X115696933Y-35642604D01*
X115315980Y-35642604D01*
X114668361Y-35642604D02*
X114820742Y-35642604D01*
X114896933Y-35680700D01*
X114935028Y-35718795D01*
X115011219Y-35833080D01*
X115049314Y-35985461D01*
X115049314Y-36290223D01*
X115011219Y-36366414D01*
X114973123Y-36404509D01*
X114896933Y-36442604D01*
X114744552Y-36442604D01*
X114668361Y-36404509D01*
X114630266Y-36366414D01*
X114592171Y-36290223D01*
X114592171Y-36099747D01*
X114630266Y-36023557D01*
X114668361Y-35985461D01*
X114744552Y-35947366D01*
X114896933Y-35947366D01*
X114973123Y-35985461D01*
X115011219Y-36023557D01*
X115049314Y-36099747D01*
X115430266Y-38563557D02*
X115696933Y-38563557D01*
X115696933Y-38982604D02*
X115696933Y-38182604D01*
X115315980Y-38182604D01*
X115087409Y-38182604D02*
X114554076Y-38182604D01*
X114896933Y-38982604D01*
X115487409Y-41103557D02*
X115373123Y-41141652D01*
X115335028Y-41179747D01*
X115296933Y-41255938D01*
X115296933Y-41370223D01*
X115335028Y-41446414D01*
X115373123Y-41484509D01*
X115449314Y-41522604D01*
X115754076Y-41522604D01*
X115754076Y-40722604D01*
X115487409Y-40722604D01*
X115411219Y-40760700D01*
X115373123Y-40798795D01*
X115335028Y-40874985D01*
X115335028Y-40951176D01*
X115373123Y-41027366D01*
X115411219Y-41065461D01*
X115487409Y-41103557D01*
X115754076Y-41103557D01*
X114535028Y-41522604D02*
X114992171Y-41522604D01*
X114763600Y-41522604D02*
X114763600Y-40722604D01*
X114839790Y-40836890D01*
X114915980Y-40913080D01*
X114992171Y-40951176D01*
X115487409Y-43643557D02*
X115373123Y-43681652D01*
X115335028Y-43719747D01*
X115296933Y-43795938D01*
X115296933Y-43910223D01*
X115335028Y-43986414D01*
X115373123Y-44024509D01*
X115449314Y-44062604D01*
X115754076Y-44062604D01*
X115754076Y-43262604D01*
X115487409Y-43262604D01*
X115411219Y-43300700D01*
X115373123Y-43338795D01*
X115335028Y-43414985D01*
X115335028Y-43491176D01*
X115373123Y-43567366D01*
X115411219Y-43605461D01*
X115487409Y-43643557D01*
X115754076Y-43643557D01*
X115030266Y-43262604D02*
X114535028Y-43262604D01*
X114801695Y-43567366D01*
X114687409Y-43567366D01*
X114611219Y-43605461D01*
X114573123Y-43643557D01*
X114535028Y-43719747D01*
X114535028Y-43910223D01*
X114573123Y-43986414D01*
X114611219Y-44024509D01*
X114687409Y-44062604D01*
X114915980Y-44062604D01*
X114992171Y-44024509D01*
X115030266Y-43986414D01*
X115487409Y-46183557D02*
X115373123Y-46221652D01*
X115335028Y-46259747D01*
X115296933Y-46335938D01*
X115296933Y-46450223D01*
X115335028Y-46526414D01*
X115373123Y-46564509D01*
X115449314Y-46602604D01*
X115754076Y-46602604D01*
X115754076Y-45802604D01*
X115487409Y-45802604D01*
X115411219Y-45840700D01*
X115373123Y-45878795D01*
X115335028Y-45954985D01*
X115335028Y-46031176D01*
X115373123Y-46107366D01*
X115411219Y-46145461D01*
X115487409Y-46183557D01*
X115754076Y-46183557D01*
X114992171Y-45878795D02*
X114954076Y-45840700D01*
X114877885Y-45802604D01*
X114687409Y-45802604D01*
X114611219Y-45840700D01*
X114573123Y-45878795D01*
X114535028Y-45954985D01*
X114535028Y-46031176D01*
X114573123Y-46145461D01*
X115030266Y-46602604D01*
X114535028Y-46602604D01*
X115487409Y-48723557D02*
X115373123Y-48761652D01*
X115335028Y-48799747D01*
X115296933Y-48875938D01*
X115296933Y-48990223D01*
X115335028Y-49066414D01*
X115373123Y-49104509D01*
X115449314Y-49142604D01*
X115754076Y-49142604D01*
X115754076Y-48342604D01*
X115487409Y-48342604D01*
X115411219Y-48380700D01*
X115373123Y-48418795D01*
X115335028Y-48494985D01*
X115335028Y-48571176D01*
X115373123Y-48647366D01*
X115411219Y-48685461D01*
X115487409Y-48723557D01*
X115754076Y-48723557D01*
X114611219Y-48342604D02*
X114763600Y-48342604D01*
X114839790Y-48380700D01*
X114877885Y-48418795D01*
X114954076Y-48533080D01*
X114992171Y-48685461D01*
X114992171Y-48990223D01*
X114954076Y-49066414D01*
X114915980Y-49104509D01*
X114839790Y-49142604D01*
X114687409Y-49142604D01*
X114611219Y-49104509D01*
X114573123Y-49066414D01*
X114535028Y-48990223D01*
X114535028Y-48799747D01*
X114573123Y-48723557D01*
X114611219Y-48685461D01*
X114687409Y-48647366D01*
X114839790Y-48647366D01*
X114915980Y-48685461D01*
X114954076Y-48723557D01*
X114992171Y-48799747D01*
X94748309Y-48698157D02*
X94634023Y-48736252D01*
X94595928Y-48774347D01*
X94557833Y-48850538D01*
X94557833Y-48964823D01*
X94595928Y-49041014D01*
X94634023Y-49079109D01*
X94710214Y-49117204D01*
X95014976Y-49117204D01*
X95014976Y-48317204D01*
X94748309Y-48317204D01*
X94672119Y-48355300D01*
X94634023Y-48393395D01*
X94595928Y-48469585D01*
X94595928Y-48545776D01*
X94634023Y-48621966D01*
X94672119Y-48660061D01*
X94748309Y-48698157D01*
X95014976Y-48698157D01*
X93834023Y-48317204D02*
X94214976Y-48317204D01*
X94253071Y-48698157D01*
X94214976Y-48660061D01*
X94138785Y-48621966D01*
X93948309Y-48621966D01*
X93872119Y-48660061D01*
X93834023Y-48698157D01*
X93795928Y-48774347D01*
X93795928Y-48964823D01*
X93834023Y-49041014D01*
X93872119Y-49079109D01*
X93948309Y-49117204D01*
X94138785Y-49117204D01*
X94214976Y-49079109D01*
X94253071Y-49041014D01*
X94748309Y-46158157D02*
X94634023Y-46196252D01*
X94595928Y-46234347D01*
X94557833Y-46310538D01*
X94557833Y-46424823D01*
X94595928Y-46501014D01*
X94634023Y-46539109D01*
X94710214Y-46577204D01*
X95014976Y-46577204D01*
X95014976Y-45777204D01*
X94748309Y-45777204D01*
X94672119Y-45815300D01*
X94634023Y-45853395D01*
X94595928Y-45929585D01*
X94595928Y-46005776D01*
X94634023Y-46081966D01*
X94672119Y-46120061D01*
X94748309Y-46158157D01*
X95014976Y-46158157D01*
X93872119Y-46043871D02*
X93872119Y-46577204D01*
X94062595Y-45739109D02*
X94253071Y-46310538D01*
X93757833Y-46310538D01*
X94976880Y-43618157D02*
X94710214Y-43618157D01*
X94595928Y-44037204D02*
X94976880Y-44037204D01*
X94976880Y-43237204D01*
X94595928Y-43237204D01*
X93910214Y-43237204D02*
X94062595Y-43237204D01*
X94138785Y-43275300D01*
X94176880Y-43313395D01*
X94253071Y-43427680D01*
X94291166Y-43580061D01*
X94291166Y-43884823D01*
X94253071Y-43961014D01*
X94214976Y-43999109D01*
X94138785Y-44037204D01*
X93986404Y-44037204D01*
X93910214Y-43999109D01*
X93872119Y-43961014D01*
X93834023Y-43884823D01*
X93834023Y-43694347D01*
X93872119Y-43618157D01*
X93910214Y-43580061D01*
X93986404Y-43541966D01*
X94138785Y-43541966D01*
X94214976Y-43580061D01*
X94253071Y-43618157D01*
X94291166Y-43694347D01*
X95014976Y-41497204D02*
X95014976Y-40697204D01*
X94824500Y-40697204D01*
X94710214Y-40735300D01*
X94634023Y-40811490D01*
X94595928Y-40887680D01*
X94557833Y-41040061D01*
X94557833Y-41154347D01*
X94595928Y-41306728D01*
X94634023Y-41382919D01*
X94710214Y-41459109D01*
X94824500Y-41497204D01*
X95014976Y-41497204D01*
X94291166Y-40697204D02*
X93757833Y-40697204D01*
X94100690Y-41497204D01*
X94557833Y-38881014D02*
X94595928Y-38919109D01*
X94710214Y-38957204D01*
X94786404Y-38957204D01*
X94900690Y-38919109D01*
X94976880Y-38842919D01*
X95014976Y-38766728D01*
X95053071Y-38614347D01*
X95053071Y-38500061D01*
X95014976Y-38347680D01*
X94976880Y-38271490D01*
X94900690Y-38195300D01*
X94786404Y-38157204D01*
X94710214Y-38157204D01*
X94595928Y-38195300D01*
X94557833Y-38233395D01*
X93872119Y-38157204D02*
X94024500Y-38157204D01*
X94100690Y-38195300D01*
X94138785Y-38233395D01*
X94214976Y-38347680D01*
X94253071Y-38500061D01*
X94253071Y-38804823D01*
X94214976Y-38881014D01*
X94176880Y-38919109D01*
X94100690Y-38957204D01*
X93948309Y-38957204D01*
X93872119Y-38919109D01*
X93834023Y-38881014D01*
X93795928Y-38804823D01*
X93795928Y-38614347D01*
X93834023Y-38538157D01*
X93872119Y-38500061D01*
X93948309Y-38461966D01*
X94100690Y-38461966D01*
X94176880Y-38500061D01*
X94214976Y-38538157D01*
X94253071Y-38614347D01*
X95014976Y-36417204D02*
X95014976Y-35617204D01*
X94824500Y-35617204D01*
X94710214Y-35655300D01*
X94634023Y-35731490D01*
X94595928Y-35807680D01*
X94557833Y-35960061D01*
X94557833Y-36074347D01*
X94595928Y-36226728D01*
X94634023Y-36302919D01*
X94710214Y-36379109D01*
X94824500Y-36417204D01*
X95014976Y-36417204D01*
X93872119Y-35883871D02*
X93872119Y-36417204D01*
X94062595Y-35579109D02*
X94253071Y-36150538D01*
X93757833Y-36150538D01*
X94297423Y-26790700D02*
X94373614Y-26752604D01*
X94487900Y-26752604D01*
X94602185Y-26790700D01*
X94678376Y-26866890D01*
X94716471Y-26943080D01*
X94754566Y-27095461D01*
X94754566Y-27209747D01*
X94716471Y-27362128D01*
X94678376Y-27438319D01*
X94602185Y-27514509D01*
X94487900Y-27552604D01*
X94411709Y-27552604D01*
X94297423Y-27514509D01*
X94259328Y-27476414D01*
X94259328Y-27209747D01*
X94411709Y-27209747D01*
X93916471Y-27552604D02*
X93916471Y-26752604D01*
X93459328Y-27552604D01*
X93459328Y-26752604D01*
X93078376Y-27552604D02*
X93078376Y-26752604D01*
X92887900Y-26752604D01*
X92773614Y-26790700D01*
X92697423Y-26866890D01*
X92659328Y-26943080D01*
X92621233Y-27095461D01*
X92621233Y-27209747D01*
X92659328Y-27362128D01*
X92697423Y-27438319D01*
X92773614Y-27514509D01*
X92887900Y-27552604D01*
X93078376Y-27552604D01*
X95014976Y-31337204D02*
X95014976Y-30537204D01*
X94824500Y-30537204D01*
X94710214Y-30575300D01*
X94634023Y-30651490D01*
X94595928Y-30727680D01*
X94557833Y-30880061D01*
X94557833Y-30994347D01*
X94595928Y-31146728D01*
X94634023Y-31222919D01*
X94710214Y-31299109D01*
X94824500Y-31337204D01*
X95014976Y-31337204D01*
X93795928Y-31337204D02*
X94253071Y-31337204D01*
X94024500Y-31337204D02*
X94024500Y-30537204D01*
X94100690Y-30651490D01*
X94176880Y-30727680D01*
X94253071Y-30765776D01*
X95014976Y-33877204D02*
X95014976Y-33077204D01*
X94824500Y-33077204D01*
X94710214Y-33115300D01*
X94634023Y-33191490D01*
X94595928Y-33267680D01*
X94557833Y-33420061D01*
X94557833Y-33534347D01*
X94595928Y-33686728D01*
X94634023Y-33762919D01*
X94710214Y-33839109D01*
X94824500Y-33877204D01*
X95014976Y-33877204D01*
X94062595Y-33077204D02*
X93986404Y-33077204D01*
X93910214Y-33115300D01*
X93872119Y-33153395D01*
X93834023Y-33229585D01*
X93795928Y-33381966D01*
X93795928Y-33572442D01*
X93834023Y-33724823D01*
X93872119Y-33801014D01*
X93910214Y-33839109D01*
X93986404Y-33877204D01*
X94062595Y-33877204D01*
X94138785Y-33839109D01*
X94176880Y-33801014D01*
X94214976Y-33724823D01*
X94253071Y-33572442D01*
X94253071Y-33381966D01*
X94214976Y-33229585D01*
X94176880Y-33153395D01*
X94138785Y-33115300D01*
X94062595Y-33077204D01*
X95014976Y-23717204D02*
X95014976Y-22917204D01*
X94824500Y-22917204D01*
X94710214Y-22955300D01*
X94634023Y-23031490D01*
X94595928Y-23107680D01*
X94557833Y-23260061D01*
X94557833Y-23374347D01*
X94595928Y-23526728D01*
X94634023Y-23602919D01*
X94710214Y-23679109D01*
X94824500Y-23717204D01*
X95014976Y-23717204D01*
X94253071Y-22993395D02*
X94214976Y-22955300D01*
X94138785Y-22917204D01*
X93948309Y-22917204D01*
X93872119Y-22955300D01*
X93834023Y-22993395D01*
X93795928Y-23069585D01*
X93795928Y-23145776D01*
X93834023Y-23260061D01*
X94291166Y-23717204D01*
X93795928Y-23717204D01*
X115969053Y-26214509D02*
X115854767Y-26252604D01*
X115664291Y-26252604D01*
X115588100Y-26214509D01*
X115550005Y-26176414D01*
X115511910Y-26100223D01*
X115511910Y-26024033D01*
X115550005Y-25947842D01*
X115588100Y-25909747D01*
X115664291Y-25871652D01*
X115816672Y-25833557D01*
X115892862Y-25795461D01*
X115930958Y-25757366D01*
X115969053Y-25681176D01*
X115969053Y-25604985D01*
X115930958Y-25528795D01*
X115892862Y-25490700D01*
X115816672Y-25452604D01*
X115626196Y-25452604D01*
X115511910Y-25490700D01*
X115283339Y-25452604D02*
X114826196Y-25452604D01*
X115054767Y-26252604D02*
X115054767Y-25452604D01*
X110775680Y-21202604D02*
X111042347Y-20821652D01*
X111232823Y-21202604D02*
X111232823Y-20402604D01*
X110928061Y-20402604D01*
X110851871Y-20440700D01*
X110813776Y-20478795D01*
X110775680Y-20554985D01*
X110775680Y-20669271D01*
X110813776Y-20745461D01*
X110851871Y-20783557D01*
X110928061Y-20821652D01*
X111232823Y-20821652D01*
X110470919Y-20974033D02*
X110089966Y-20974033D01*
X110547109Y-21202604D02*
X110280442Y-20402604D01*
X110013776Y-21202604D01*
X109823300Y-20402604D02*
X109632823Y-21202604D01*
X109480442Y-20631176D01*
X109328061Y-21202604D01*
X109137585Y-20402604D01*
X101400395Y-20363080D02*
X100828966Y-20363080D01*
X101114680Y-21363080D02*
X101114680Y-20363080D01*
X100590871Y-20363080D02*
X99924204Y-21363080D01*
X99924204Y-20363080D02*
X100590871Y-21363080D01*
X99352776Y-20363080D02*
X99257538Y-20363080D01*
X99162300Y-20410700D01*
X99114680Y-20458319D01*
X99067061Y-20553557D01*
X99019442Y-20744033D01*
X99019442Y-20982128D01*
X99067061Y-21172604D01*
X99114680Y-21267842D01*
X99162300Y-21315461D01*
X99257538Y-21363080D01*
X99352776Y-21363080D01*
X99448014Y-21315461D01*
X99495633Y-21267842D01*
X99543252Y-21172604D01*
X99590871Y-20982128D01*
X99590871Y-20744033D01*
X99543252Y-20553557D01*
X99495633Y-20458319D01*
X99448014Y-20410700D01*
X99352776Y-20363080D01*
X96046413Y-81835119D02*
X95992842Y-81787500D01*
X95891651Y-81739880D01*
X95653556Y-81739880D01*
X95564270Y-81787500D01*
X95522604Y-81835119D01*
X95486889Y-81930357D01*
X95498794Y-82025595D01*
X95564270Y-82168452D01*
X96207127Y-82739880D01*
X95588080Y-82739880D01*
X95034508Y-81739880D02*
X95135699Y-82549404D01*
X95099985Y-82644642D01*
X95058318Y-82692261D01*
X94969032Y-82739880D01*
X94778556Y-82739880D01*
X94677366Y-82692261D01*
X94623794Y-82644642D01*
X94564270Y-82549404D01*
X94463080Y-81739880D01*
X134146413Y-81835119D02*
X134092842Y-81787500D01*
X133991651Y-81739880D01*
X133753556Y-81739880D01*
X133664270Y-81787500D01*
X133622604Y-81835119D01*
X133586889Y-81930357D01*
X133598794Y-82025595D01*
X133664270Y-82168452D01*
X134307127Y-82739880D01*
X133688080Y-82739880D01*
X133134508Y-81739880D02*
X133235699Y-82549404D01*
X133199985Y-82644642D01*
X133158318Y-82692261D01*
X133069032Y-82739880D01*
X132878556Y-82739880D01*
X132777366Y-82692261D01*
X132723794Y-82644642D01*
X132664270Y-82549404D01*
X132563080Y-81739880D01*
X114608318Y-81739880D02*
X114798794Y-81739880D01*
X114899985Y-81787500D01*
X114953556Y-81835119D01*
X115066651Y-81977976D01*
X115138080Y-82168452D01*
X115185699Y-82549404D01*
X115149985Y-82644642D01*
X115108318Y-82692261D01*
X115019032Y-82739880D01*
X114828556Y-82739880D01*
X114727366Y-82692261D01*
X114673794Y-82644642D01*
X114614270Y-82549404D01*
X114584508Y-82311309D01*
X114620223Y-82216071D01*
X114661889Y-82168452D01*
X114751175Y-82120833D01*
X114941651Y-82120833D01*
X115042842Y-82168452D01*
X115096413Y-82216071D01*
X115155937Y-82311309D01*
X114084508Y-81739880D02*
X114185699Y-82549404D01*
X114149985Y-82644642D01*
X114108318Y-82692261D01*
X114019032Y-82739880D01*
X113828556Y-82739880D01*
X113727366Y-82692261D01*
X113673794Y-82644642D01*
X113614270Y-82549404D01*
X113513080Y-81739880D01*
X88043027Y-81697580D02*
X87423980Y-81697580D01*
X87804932Y-82078533D01*
X87662075Y-82078533D01*
X87572789Y-82126152D01*
X87531123Y-82173771D01*
X87495408Y-82269009D01*
X87525170Y-82507104D01*
X87584694Y-82602342D01*
X87638266Y-82649961D01*
X87739456Y-82697580D01*
X88025170Y-82697580D01*
X88114456Y-82649961D01*
X88156123Y-82602342D01*
X86995408Y-81697580D02*
X87096599Y-82507104D01*
X87060885Y-82602342D01*
X87019218Y-82649961D01*
X86929932Y-82697580D01*
X86739456Y-82697580D01*
X86638266Y-82649961D01*
X86584694Y-82602342D01*
X86525170Y-82507104D01*
X86423980Y-81697580D01*
X142221227Y-81722980D02*
X141602180Y-81722980D01*
X141983132Y-82103933D01*
X141840275Y-82103933D01*
X141750989Y-82151552D01*
X141709323Y-82199171D01*
X141673608Y-82294409D01*
X141703370Y-82532504D01*
X141762894Y-82627742D01*
X141816466Y-82675361D01*
X141917656Y-82722980D01*
X142203370Y-82722980D01*
X142292656Y-82675361D01*
X142334323Y-82627742D01*
X141173608Y-81722980D02*
X141274799Y-82532504D01*
X141239085Y-82627742D01*
X141197418Y-82675361D01*
X141108132Y-82722980D01*
X140917656Y-82722980D01*
X140816466Y-82675361D01*
X140762894Y-82627742D01*
X140703370Y-82532504D01*
X140602180Y-81722980D01*
M02*
