G04 #@! TF.GenerationSoftware,KiCad,Pcbnew,(5.1.9)-1*
G04 #@! TF.CreationDate,2022-03-23T20:51:23-07:00*
G04 #@! TF.ProjectId,alphalpha_plus_v2,616c7068-616c-4706-9861-5f706c75735f,rev?*
G04 #@! TF.SameCoordinates,Original*
G04 #@! TF.FileFunction,Copper,L2,Bot*
G04 #@! TF.FilePolarity,Positive*
%FSLAX46Y46*%
G04 Gerber Fmt 4.6, Leading zero omitted, Abs format (unit mm)*
G04 Created by KiCad (PCBNEW (5.1.9)-1) date 2022-03-23 20:51:23*
%MOMM*%
%LPD*%
G01*
G04 APERTURE LIST*
G04 #@! TA.AperFunction,Profile*
%ADD10C,0.200000*%
G04 #@! TD*
G04 #@! TA.AperFunction,SMDPad,CuDef*
%ADD11R,1.200000X0.900000*%
G04 #@! TD*
G04 #@! TA.AperFunction,SMDPad,CuDef*
%ADD12R,0.900000X1.200000*%
G04 #@! TD*
G04 #@! TA.AperFunction,ComponentPad*
%ADD13C,2.250000*%
G04 #@! TD*
G04 #@! TA.AperFunction,ComponentPad*
%ADD14C,1.752600*%
G04 #@! TD*
G04 #@! TA.AperFunction,ComponentPad*
%ADD15C,2.900000*%
G04 #@! TD*
G04 #@! TA.AperFunction,ConnectorPad*
%ADD16C,5.000000*%
G04 #@! TD*
G04 #@! TA.AperFunction,ComponentPad*
%ADD17R,1.752600X1.752600*%
G04 #@! TD*
G04 #@! TA.AperFunction,Conductor*
%ADD18C,0.250000*%
G04 #@! TD*
G04 APERTURE END LIST*
D10*
X19050000Y-19000000D02*
X19050000Y-70000000D01*
X33020000Y-99900000D02*
X196000000Y-99900000D01*
X21050000Y-13500000D02*
X31050000Y-13500000D01*
X209550000Y-19000000D02*
X209550000Y-70000000D01*
X19050000Y-70000000D02*
X33020000Y-99900000D01*
X196000000Y-99900000D02*
X209550000Y-70000000D01*
X19050000Y-19000000D02*
X21050000Y-13500000D01*
X31050000Y-13500000D02*
X36050000Y-19000000D01*
X209550000Y-19000000D02*
X207550000Y-13500000D01*
X197550000Y-13500000D02*
X207550000Y-13500000D01*
X197550000Y-13500000D02*
X192550000Y-19000000D01*
X36050000Y-19000000D02*
X192550000Y-19000000D01*
D11*
X38100000Y-29350000D03*
X38100000Y-32650000D03*
X57137300Y-32650000D03*
X57137300Y-29350000D03*
X74500000Y-29350000D03*
X74500000Y-32650000D03*
X78000000Y-32650000D03*
X78000000Y-29350000D03*
X131750000Y-32650000D03*
X131750000Y-29350000D03*
X135000000Y-32650000D03*
X135000000Y-29350000D03*
X152412700Y-32650000D03*
X152412700Y-29350000D03*
X171450000Y-29350000D03*
X171450000Y-32650000D03*
X190525400Y-29350000D03*
X190525400Y-32650000D03*
X208165700Y-29350000D03*
X208165700Y-32650000D03*
X38100000Y-51650000D03*
X38100000Y-48350000D03*
X57150000Y-48350000D03*
X57150000Y-51650000D03*
X74500000Y-51650000D03*
X74500000Y-48350000D03*
X78000000Y-51650000D03*
X78000000Y-48350000D03*
X131750000Y-48350000D03*
X131750000Y-51650000D03*
X135000000Y-51650000D03*
X135000000Y-48350000D03*
X152374600Y-48350000D03*
X152374600Y-51650000D03*
X171462700Y-51650000D03*
X171462700Y-48350000D03*
X189077600Y-51650000D03*
X189077600Y-48350000D03*
X191922400Y-48350000D03*
X191922400Y-51650000D03*
X47625000Y-67350000D03*
X47625000Y-70650000D03*
X66675000Y-70650000D03*
X66675000Y-67350000D03*
X85725000Y-67350000D03*
X85725000Y-70650000D03*
X104775000Y-70650000D03*
X104775000Y-67350000D03*
X123825000Y-67350000D03*
X123825000Y-70650000D03*
X142875000Y-67350000D03*
X142875000Y-70650000D03*
X161937700Y-70650000D03*
X161937700Y-67350000D03*
X180975000Y-67350000D03*
X180975000Y-70650000D03*
X200025000Y-70650000D03*
X200025000Y-67350000D03*
D12*
X172150000Y-97000000D03*
X168850000Y-97000000D03*
X56850000Y-85468400D03*
X60150000Y-85468400D03*
X172150000Y-85468400D03*
X168850000Y-85468400D03*
X60150000Y-82468400D03*
X56850000Y-82468400D03*
X60150000Y-94000000D03*
X56850000Y-94000000D03*
X168850000Y-93000000D03*
X172150000Y-93000000D03*
X168850000Y-82468400D03*
X172150000Y-82468400D03*
D13*
X31115000Y-23495000D03*
X24765000Y-26035000D03*
X50165000Y-23495000D03*
X43815000Y-26035000D03*
X69215000Y-23495000D03*
X62865000Y-26035000D03*
X88265000Y-23495000D03*
X81915000Y-26035000D03*
X107315000Y-23495000D03*
X100965000Y-26035000D03*
X126365000Y-23495000D03*
X120015000Y-26035000D03*
X145415000Y-23495000D03*
X139065000Y-26035000D03*
X164465000Y-23495000D03*
X158115000Y-26035000D03*
X183515000Y-23495000D03*
X177165000Y-26035000D03*
X202565000Y-23495000D03*
X196215000Y-26035000D03*
X31115000Y-42545000D03*
X24765000Y-45085000D03*
X50165000Y-42545000D03*
X43815000Y-45085000D03*
X69215000Y-42545000D03*
X62865000Y-45085000D03*
X88265000Y-42545000D03*
X81915000Y-45085000D03*
X107315000Y-42545000D03*
X100965000Y-45085000D03*
X126365000Y-42545000D03*
X120015000Y-45085000D03*
X145415000Y-42545000D03*
X139065000Y-45085000D03*
X164465000Y-42545000D03*
X158115000Y-45085000D03*
X183515000Y-42545000D03*
X177165000Y-45085000D03*
X202565000Y-42545000D03*
X196215000Y-45085000D03*
X40640000Y-61595000D03*
X34290000Y-64135000D03*
X59690000Y-61595000D03*
X53340000Y-64135000D03*
X78740000Y-61595000D03*
X72390000Y-64135000D03*
X97790000Y-61595000D03*
X91440000Y-64135000D03*
X116840000Y-61595000D03*
X110490000Y-64135000D03*
X135890000Y-61595000D03*
X129540000Y-64135000D03*
X154940000Y-61595000D03*
X148590000Y-64135000D03*
X173990000Y-61595000D03*
X167640000Y-64135000D03*
X193040000Y-61595000D03*
X186690000Y-64135000D03*
X69215000Y-85145000D03*
X62865000Y-87685000D03*
X164465000Y-85145000D03*
X158115000Y-87685000D03*
D14*
X32054800Y-57077200D03*
X34594800Y-57077200D03*
X205000000Y-64020700D03*
X205000000Y-61480700D03*
X205000000Y-58940700D03*
D15*
X26575000Y-16500000D03*
D16*
X26575000Y-16500000D03*
X202025000Y-16500000D03*
D15*
X202025000Y-16500000D03*
X191452500Y-96481900D03*
D16*
X191452500Y-96481900D03*
X38112700Y-97193100D03*
D15*
X38112700Y-97193100D03*
D14*
X112382300Y-20840700D03*
X97142300Y-48780700D03*
X112382300Y-23380700D03*
X112382300Y-25920700D03*
X112382300Y-28460700D03*
X112382300Y-31000700D03*
X112382300Y-33540700D03*
X112382300Y-36080700D03*
X112382300Y-38620700D03*
X112382300Y-41160700D03*
X112382300Y-43700700D03*
X112382300Y-46240700D03*
X112382300Y-48780700D03*
X97142300Y-46240700D03*
X97142300Y-43700700D03*
X97142300Y-41160700D03*
X97142300Y-38620700D03*
X97142300Y-36080700D03*
X97142300Y-33540700D03*
X97142300Y-31000700D03*
X97142300Y-28460700D03*
X97142300Y-25920700D03*
X97142300Y-23380700D03*
D17*
X97142300Y-20840700D03*
D13*
X91440000Y-87685000D03*
X97790000Y-85145000D03*
X129540000Y-87685000D03*
X135890000Y-85145000D03*
X116840000Y-85145000D03*
X110490000Y-87685000D03*
X81915000Y-87685000D03*
X88265000Y-85145000D03*
X139065000Y-87685000D03*
X145415000Y-85145000D03*
D18*
X38177900Y-32727900D02*
X38100000Y-32650000D01*
X120581301Y-32339399D02*
X82951201Y-32339399D01*
X120944402Y-32702500D02*
X120581301Y-32339399D01*
X208113200Y-32702500D02*
X120944402Y-32702500D01*
X82562700Y-32727900D02*
X38177900Y-32727900D01*
X82951201Y-32339399D02*
X82562700Y-32727900D01*
X208165700Y-32650000D02*
X208113200Y-32702500D01*
X38100000Y-35623500D02*
X38100000Y-32650000D01*
X41275000Y-38798500D02*
X38100000Y-35623500D01*
X92887800Y-38798500D02*
X41275000Y-38798500D01*
X95250000Y-41160700D02*
X92887800Y-38798500D01*
X97142300Y-41160700D02*
X95250000Y-41160700D01*
X191935100Y-51650000D02*
X38100000Y-51650000D01*
X88530022Y-40168422D02*
X97142300Y-48780700D01*
X38100000Y-51650000D02*
X25743998Y-51650000D01*
X27535576Y-40168422D02*
X88530022Y-40168422D01*
X22295000Y-48201001D02*
X22295000Y-45408998D01*
X25743998Y-51650000D02*
X22295000Y-48201001D01*
X22295000Y-45408998D02*
X27535576Y-40168422D01*
X47625000Y-70650000D02*
X199099999Y-70650000D01*
X27349177Y-39718411D02*
X90620011Y-39718411D01*
X90620011Y-39718411D02*
X97142300Y-46240700D01*
X21844990Y-45222598D02*
X27349177Y-39718411D01*
X21844990Y-61748390D02*
X21844990Y-45222598D01*
X30746600Y-70650000D02*
X21844990Y-61748390D01*
X47625000Y-70650000D02*
X30746600Y-70650000D01*
X199099999Y-70650000D02*
X200025000Y-70650000D01*
X56850000Y-94000000D02*
X56850000Y-85468400D01*
X56850000Y-85468400D02*
X56850000Y-82468400D01*
X27101800Y-39268400D02*
X92710000Y-39268400D01*
X21323300Y-45046900D02*
X27101800Y-39268400D01*
X21323300Y-61887100D02*
X21323300Y-45046900D01*
X92710000Y-39268400D02*
X97142300Y-43700700D01*
X41904600Y-82468400D02*
X21323300Y-61887100D01*
X56850000Y-82468400D02*
X41904600Y-82468400D01*
X171526200Y-98958400D02*
X172150000Y-98334600D01*
X168325800Y-98958400D02*
X171526200Y-98958400D01*
X164312600Y-94945200D02*
X168325800Y-98958400D01*
X64897000Y-94945200D02*
X164312600Y-94945200D01*
X63271400Y-96570800D02*
X64897000Y-94945200D01*
X57835800Y-96570800D02*
X63271400Y-96570800D01*
X172150000Y-98334600D02*
X172150000Y-97000000D01*
X56850000Y-95585000D02*
X57835800Y-96570800D01*
X56850000Y-94000000D02*
X56850000Y-95585000D01*
X172150000Y-97000000D02*
X172150000Y-93000000D01*
X172150000Y-93000000D02*
X172150000Y-85468400D01*
X172150000Y-85468400D02*
X172150000Y-82468400D01*
X38100000Y-29350000D02*
X38100000Y-24663400D01*
X36931600Y-23495000D02*
X31115000Y-23495000D01*
X38100000Y-24663400D02*
X36931600Y-23495000D01*
X57137300Y-29350000D02*
X57137300Y-24765000D01*
X55867300Y-23495000D02*
X50165000Y-23495000D01*
X57137300Y-24765000D02*
X55867300Y-23495000D01*
X74500000Y-29350000D02*
X74500000Y-24627100D01*
X73367900Y-23495000D02*
X69215000Y-23495000D01*
X74500000Y-24627100D02*
X73367900Y-23495000D01*
X78000000Y-29350000D02*
X78000000Y-24641400D01*
X79146400Y-23495000D02*
X88265000Y-23495000D01*
X78000000Y-24641400D02*
X79146400Y-23495000D01*
X120502799Y-22179399D02*
X108630601Y-22179399D01*
X123609100Y-25285700D02*
X120502799Y-22179399D01*
X108630601Y-22179399D02*
X107315000Y-23495000D01*
X128562100Y-25285700D02*
X123609100Y-25285700D01*
X131750000Y-28473600D02*
X128562100Y-25285700D01*
X131750000Y-29350000D02*
X131750000Y-28473600D01*
X135000000Y-29350000D02*
X135000000Y-24649700D01*
X133845300Y-23495000D02*
X126365000Y-23495000D01*
X135000000Y-24649700D02*
X133845300Y-23495000D01*
X152412700Y-29350000D02*
X152412700Y-24638000D01*
X151269700Y-23495000D02*
X145415000Y-23495000D01*
X152412700Y-24638000D02*
X151269700Y-23495000D01*
X171450000Y-29350000D02*
X171450000Y-24638000D01*
X170307000Y-23495000D02*
X164465000Y-23495000D01*
X171450000Y-24638000D02*
X170307000Y-23495000D01*
X190525400Y-29350000D02*
X190525400Y-24625300D01*
X189395100Y-23495000D02*
X183515000Y-23495000D01*
X190525400Y-24625300D02*
X189395100Y-23495000D01*
X208165700Y-29350000D02*
X208165700Y-24612600D01*
X207048100Y-23495000D02*
X202565000Y-23495000D01*
X208165700Y-24612600D02*
X207048100Y-23495000D01*
X38100000Y-48350000D02*
X38100000Y-43662600D01*
X36982400Y-42545000D02*
X31115000Y-42545000D01*
X38100000Y-43662600D02*
X36982400Y-42545000D01*
X57150000Y-48350000D02*
X57150000Y-43688000D01*
X56007000Y-42545000D02*
X50165000Y-42545000D01*
X57150000Y-43688000D02*
X56007000Y-42545000D01*
X74500000Y-48350000D02*
X74500000Y-43677100D01*
X73367900Y-42545000D02*
X69215000Y-42545000D01*
X74500000Y-43677100D02*
X73367900Y-42545000D01*
X78000000Y-48350000D02*
X78000000Y-43716800D01*
X79171800Y-42545000D02*
X88265000Y-42545000D01*
X78000000Y-43716800D02*
X79171800Y-42545000D01*
X107315000Y-48514000D02*
X107315000Y-42545000D01*
X109181900Y-50380900D02*
X107315000Y-48514000D01*
X128447800Y-50380900D02*
X109181900Y-50380900D01*
X130478700Y-48350000D02*
X128447800Y-50380900D01*
X131750000Y-48350000D02*
X130478700Y-48350000D01*
X135000000Y-48350000D02*
X135000000Y-43725100D01*
X133819900Y-42545000D02*
X126365000Y-42545000D01*
X135000000Y-43725100D02*
X133819900Y-42545000D01*
X152374600Y-48350000D02*
X152374600Y-43688000D01*
X151231600Y-42545000D02*
X145415000Y-42545000D01*
X152374600Y-43688000D02*
X151231600Y-42545000D01*
X171462700Y-48350000D02*
X171462700Y-43713400D01*
X170294300Y-42545000D02*
X164465000Y-42545000D01*
X171462700Y-43713400D02*
X170294300Y-42545000D01*
X189077600Y-48350000D02*
X189077600Y-43776900D01*
X187845700Y-42545000D02*
X183515000Y-42545000D01*
X189077600Y-43776900D02*
X187845700Y-42545000D01*
X191922400Y-48350000D02*
X191922400Y-43776900D01*
X193154300Y-42545000D02*
X202565000Y-42545000D01*
X191922400Y-43776900D02*
X193154300Y-42545000D01*
X47625000Y-67350000D02*
X47625000Y-62750700D01*
X46469300Y-61595000D02*
X40640000Y-61595000D01*
X47625000Y-62750700D02*
X46469300Y-61595000D01*
X66675000Y-67350000D02*
X66675000Y-62750700D01*
X65519300Y-61595000D02*
X59690000Y-61595000D01*
X66675000Y-62750700D02*
X65519300Y-61595000D01*
X85725000Y-67350000D02*
X85725000Y-62738000D01*
X84582000Y-61595000D02*
X78740000Y-61595000D01*
X85725000Y-62738000D02*
X84582000Y-61595000D01*
X104775000Y-67350000D02*
X104775000Y-62750700D01*
X103619300Y-61595000D02*
X97790000Y-61595000D01*
X104775000Y-62750700D02*
X103619300Y-61595000D01*
X123825000Y-67350000D02*
X123825000Y-62738000D01*
X122682000Y-61595000D02*
X116840000Y-61595000D01*
X123825000Y-62738000D02*
X122682000Y-61595000D01*
X142875000Y-67350000D02*
X142875000Y-62738000D01*
X141732000Y-61595000D02*
X135890000Y-61595000D01*
X142875000Y-62738000D02*
X141732000Y-61595000D01*
X161937700Y-67350000D02*
X161937700Y-62738000D01*
X160794700Y-61595000D02*
X154940000Y-61595000D01*
X161937700Y-62738000D02*
X160794700Y-61595000D01*
X180975000Y-67350000D02*
X180975000Y-62750700D01*
X179819300Y-61595000D02*
X173990000Y-61595000D01*
X180975000Y-62750700D02*
X179819300Y-61595000D01*
X200025000Y-67350000D02*
X200025000Y-62738000D01*
X198882000Y-61595000D02*
X193040000Y-61595000D01*
X200025000Y-62738000D02*
X198882000Y-61595000D01*
X62826600Y-85145000D02*
X69215000Y-85145000D01*
X60150000Y-82468400D02*
X62826600Y-85145000D01*
X77457300Y-87541100D02*
X79853400Y-85145000D01*
X66751200Y-87541100D02*
X77457300Y-87541100D01*
X64805110Y-85595010D02*
X66751200Y-87541100D01*
X60276610Y-85595010D02*
X64805110Y-85595010D01*
X79853400Y-85145000D02*
X88265000Y-85145000D01*
X60150000Y-85468400D02*
X60276610Y-85595010D01*
X60150000Y-94000000D02*
X96868300Y-94000000D01*
X97790000Y-93078300D02*
X97790000Y-85145000D01*
X96868300Y-94000000D02*
X97790000Y-93078300D01*
X126119500Y-94424500D02*
X116840000Y-85145000D01*
X166560500Y-94424500D02*
X126119500Y-94424500D01*
X168850000Y-96714000D02*
X166560500Y-94424500D01*
X168850000Y-97000000D02*
X168850000Y-96714000D01*
X135890000Y-91559172D02*
X135890000Y-85145000D01*
X166338821Y-93974489D02*
X138305317Y-93974489D01*
X138305317Y-93974489D02*
X135890000Y-91559172D01*
X167313310Y-93000000D02*
X166338821Y-93974489D01*
X168850000Y-93000000D02*
X167313310Y-93000000D01*
X153780100Y-93510100D02*
X145415000Y-85145000D01*
X162941000Y-93510100D02*
X153780100Y-93510100D01*
X164871400Y-91579700D02*
X162941000Y-93510100D01*
X164871400Y-89447000D02*
X164871400Y-91579700D01*
X168850000Y-85468400D02*
X164871400Y-89447000D01*
X167141600Y-82468400D02*
X164465000Y-85145000D01*
X168850000Y-82468400D02*
X167141600Y-82468400D01*
M02*
