G04 #@! TF.GenerationSoftware,KiCad,Pcbnew,(5.1.9)-1*
G04 #@! TF.CreationDate,2022-03-23T20:51:23-07:00*
G04 #@! TF.ProjectId,alphalpha_plus_v2,616c7068-616c-4706-9861-5f706c75735f,rev?*
G04 #@! TF.SameCoordinates,Original*
G04 #@! TF.FileFunction,Soldermask,Bot*
G04 #@! TF.FilePolarity,Negative*
%FSLAX46Y46*%
G04 Gerber Fmt 4.6, Leading zero omitted, Abs format (unit mm)*
G04 Created by KiCad (PCBNEW (5.1.9)-1) date 2022-03-23 20:51:23*
%MOMM*%
%LPD*%
G01*
G04 APERTURE LIST*
G04 #@! TA.AperFunction,Profile*
%ADD10C,0.200000*%
G04 #@! TD*
%ADD11R,1.200000X0.900000*%
%ADD12R,0.900000X1.200000*%
%ADD13C,2.250000*%
%ADD14C,3.987800*%
%ADD15C,1.750000*%
%ADD16C,1.752600*%
%ADD17O,133.350000X0.800000*%
%ADD18C,2.900000*%
%ADD19C,5.000000*%
%ADD20R,1.752600X1.752600*%
%ADD21C,3.048000*%
G04 APERTURE END LIST*
D10*
X19050000Y-19000000D02*
X19050000Y-70000000D01*
X33020000Y-99900000D02*
X196000000Y-99900000D01*
X21050000Y-13500000D02*
X31050000Y-13500000D01*
X209550000Y-19000000D02*
X209550000Y-70000000D01*
X19050000Y-70000000D02*
X33020000Y-99900000D01*
X196000000Y-99900000D02*
X209550000Y-70000000D01*
X19050000Y-19000000D02*
X21050000Y-13500000D01*
X31050000Y-13500000D02*
X36050000Y-19000000D01*
X209550000Y-19000000D02*
X207550000Y-13500000D01*
X197550000Y-13500000D02*
X207550000Y-13500000D01*
X197550000Y-13500000D02*
X192550000Y-19000000D01*
X36050000Y-19000000D02*
X192550000Y-19000000D01*
D11*
X38100000Y-29350000D03*
X38100000Y-32650000D03*
X57137300Y-32650000D03*
X57137300Y-29350000D03*
X74500000Y-29350000D03*
X74500000Y-32650000D03*
X78000000Y-32650000D03*
X78000000Y-29350000D03*
X131750000Y-32650000D03*
X131750000Y-29350000D03*
X135000000Y-32650000D03*
X135000000Y-29350000D03*
X152412700Y-32650000D03*
X152412700Y-29350000D03*
X171450000Y-29350000D03*
X171450000Y-32650000D03*
X190525400Y-29350000D03*
X190525400Y-32650000D03*
X208165700Y-29350000D03*
X208165700Y-32650000D03*
X38100000Y-51650000D03*
X38100000Y-48350000D03*
X57150000Y-48350000D03*
X57150000Y-51650000D03*
X74500000Y-51650000D03*
X74500000Y-48350000D03*
X78000000Y-51650000D03*
X78000000Y-48350000D03*
X131750000Y-48350000D03*
X131750000Y-51650000D03*
X135000000Y-51650000D03*
X135000000Y-48350000D03*
X152374600Y-48350000D03*
X152374600Y-51650000D03*
X171462700Y-51650000D03*
X171462700Y-48350000D03*
X189077600Y-51650000D03*
X189077600Y-48350000D03*
X191922400Y-48350000D03*
X191922400Y-51650000D03*
X47625000Y-67350000D03*
X47625000Y-70650000D03*
X66675000Y-70650000D03*
X66675000Y-67350000D03*
X85725000Y-67350000D03*
X85725000Y-70650000D03*
X104775000Y-70650000D03*
X104775000Y-67350000D03*
X123825000Y-67350000D03*
X123825000Y-70650000D03*
X142875000Y-67350000D03*
X142875000Y-70650000D03*
X161937700Y-70650000D03*
X161937700Y-67350000D03*
X180975000Y-67350000D03*
X180975000Y-70650000D03*
X200025000Y-70650000D03*
X200025000Y-67350000D03*
D12*
X172150000Y-97000000D03*
X168850000Y-97000000D03*
X56850000Y-85468400D03*
X60150000Y-85468400D03*
X172150000Y-85468400D03*
X168850000Y-85468400D03*
X60150000Y-82468400D03*
X56850000Y-82468400D03*
X60150000Y-94000000D03*
X56850000Y-94000000D03*
X168850000Y-93000000D03*
X172150000Y-93000000D03*
X168850000Y-82468400D03*
X172150000Y-82468400D03*
D13*
X31115000Y-23495000D03*
D14*
X28575000Y-28575000D03*
D13*
X24765000Y-26035000D03*
D15*
X23495000Y-28575000D03*
X33655000Y-28575000D03*
D13*
X50165000Y-23495000D03*
D14*
X47625000Y-28575000D03*
D13*
X43815000Y-26035000D03*
D15*
X42545000Y-28575000D03*
X52705000Y-28575000D03*
D13*
X69215000Y-23495000D03*
D14*
X66675000Y-28575000D03*
D13*
X62865000Y-26035000D03*
D15*
X61595000Y-28575000D03*
X71755000Y-28575000D03*
D13*
X88265000Y-23495000D03*
D14*
X85725000Y-28575000D03*
D13*
X81915000Y-26035000D03*
D15*
X80645000Y-28575000D03*
X90805000Y-28575000D03*
D13*
X107315000Y-23495000D03*
D14*
X104775000Y-28575000D03*
D13*
X100965000Y-26035000D03*
D15*
X99695000Y-28575000D03*
X109855000Y-28575000D03*
D13*
X126365000Y-23495000D03*
D14*
X123825000Y-28575000D03*
D13*
X120015000Y-26035000D03*
D15*
X118745000Y-28575000D03*
X128905000Y-28575000D03*
D13*
X145415000Y-23495000D03*
D14*
X142875000Y-28575000D03*
D13*
X139065000Y-26035000D03*
D15*
X137795000Y-28575000D03*
X147955000Y-28575000D03*
D13*
X164465000Y-23495000D03*
D14*
X161925000Y-28575000D03*
D13*
X158115000Y-26035000D03*
D15*
X156845000Y-28575000D03*
X167005000Y-28575000D03*
D13*
X183515000Y-23495000D03*
D14*
X180975000Y-28575000D03*
D13*
X177165000Y-26035000D03*
D15*
X175895000Y-28575000D03*
X186055000Y-28575000D03*
D13*
X202565000Y-23495000D03*
D14*
X200025000Y-28575000D03*
D13*
X196215000Y-26035000D03*
D15*
X194945000Y-28575000D03*
X205105000Y-28575000D03*
D13*
X31115000Y-42545000D03*
D14*
X28575000Y-47625000D03*
D13*
X24765000Y-45085000D03*
D15*
X23495000Y-47625000D03*
X33655000Y-47625000D03*
D13*
X50165000Y-42545000D03*
D14*
X47625000Y-47625000D03*
D13*
X43815000Y-45085000D03*
D15*
X42545000Y-47625000D03*
X52705000Y-47625000D03*
D13*
X69215000Y-42545000D03*
D14*
X66675000Y-47625000D03*
D13*
X62865000Y-45085000D03*
D15*
X61595000Y-47625000D03*
X71755000Y-47625000D03*
D13*
X88265000Y-42545000D03*
D14*
X85725000Y-47625000D03*
D13*
X81915000Y-45085000D03*
D15*
X80645000Y-47625000D03*
X90805000Y-47625000D03*
D13*
X107315000Y-42545000D03*
D14*
X104775000Y-47625000D03*
D13*
X100965000Y-45085000D03*
D15*
X99695000Y-47625000D03*
X109855000Y-47625000D03*
D13*
X126365000Y-42545000D03*
D14*
X123825000Y-47625000D03*
D13*
X120015000Y-45085000D03*
D15*
X118745000Y-47625000D03*
X128905000Y-47625000D03*
D13*
X145415000Y-42545000D03*
D14*
X142875000Y-47625000D03*
D13*
X139065000Y-45085000D03*
D15*
X137795000Y-47625000D03*
X147955000Y-47625000D03*
D13*
X164465000Y-42545000D03*
D14*
X161925000Y-47625000D03*
D13*
X158115000Y-45085000D03*
D15*
X156845000Y-47625000D03*
X167005000Y-47625000D03*
D13*
X183515000Y-42545000D03*
D14*
X180975000Y-47625000D03*
D13*
X177165000Y-45085000D03*
D15*
X175895000Y-47625000D03*
X186055000Y-47625000D03*
D13*
X202565000Y-42545000D03*
D14*
X200025000Y-47625000D03*
D13*
X196215000Y-45085000D03*
D15*
X194945000Y-47625000D03*
X205105000Y-47625000D03*
D13*
X40640000Y-61595000D03*
D14*
X38100000Y-66675000D03*
D13*
X34290000Y-64135000D03*
D15*
X33020000Y-66675000D03*
X43180000Y-66675000D03*
D13*
X59690000Y-61595000D03*
D14*
X57150000Y-66675000D03*
D13*
X53340000Y-64135000D03*
D15*
X52070000Y-66675000D03*
X62230000Y-66675000D03*
D13*
X78740000Y-61595000D03*
D14*
X76200000Y-66675000D03*
D13*
X72390000Y-64135000D03*
D15*
X71120000Y-66675000D03*
X81280000Y-66675000D03*
D13*
X97790000Y-61595000D03*
D14*
X95250000Y-66675000D03*
D13*
X91440000Y-64135000D03*
D15*
X90170000Y-66675000D03*
X100330000Y-66675000D03*
D13*
X116840000Y-61595000D03*
D14*
X114300000Y-66675000D03*
D13*
X110490000Y-64135000D03*
D15*
X109220000Y-66675000D03*
X119380000Y-66675000D03*
D13*
X135890000Y-61595000D03*
D14*
X133350000Y-66675000D03*
D13*
X129540000Y-64135000D03*
D15*
X128270000Y-66675000D03*
X138430000Y-66675000D03*
D13*
X154940000Y-61595000D03*
D14*
X152400000Y-66675000D03*
D13*
X148590000Y-64135000D03*
D15*
X147320000Y-66675000D03*
X157480000Y-66675000D03*
D13*
X173990000Y-61595000D03*
D14*
X171450000Y-66675000D03*
D13*
X167640000Y-64135000D03*
D15*
X166370000Y-66675000D03*
X176530000Y-66675000D03*
D13*
X193040000Y-61595000D03*
D14*
X190500000Y-66675000D03*
D13*
X186690000Y-64135000D03*
D15*
X185420000Y-66675000D03*
X195580000Y-66675000D03*
D13*
X69215000Y-85145000D03*
D14*
X66675000Y-90225000D03*
D13*
X62865000Y-87685000D03*
D15*
X61595000Y-90225000D03*
X71755000Y-90225000D03*
D13*
X164465000Y-85145000D03*
D14*
X161925000Y-90225000D03*
D13*
X158115000Y-87685000D03*
D15*
X156845000Y-90225000D03*
X167005000Y-90225000D03*
D16*
X32054800Y-57077200D03*
X34594800Y-57077200D03*
X205000000Y-64020700D03*
X205000000Y-61480700D03*
X205000000Y-58940700D03*
D17*
X114300000Y-77500000D03*
D18*
X26575000Y-16500000D03*
D19*
X26575000Y-16500000D03*
X202025000Y-16500000D03*
D18*
X202025000Y-16500000D03*
X191452500Y-96481900D03*
D19*
X191452500Y-96481900D03*
X38112700Y-97193100D03*
D18*
X38112700Y-97193100D03*
D16*
X112382300Y-20840700D03*
X97142300Y-48780700D03*
X112382300Y-23380700D03*
X112382300Y-25920700D03*
X112382300Y-28460700D03*
X112382300Y-31000700D03*
X112382300Y-33540700D03*
X112382300Y-36080700D03*
X112382300Y-38620700D03*
X112382300Y-41160700D03*
X112382300Y-43700700D03*
X112382300Y-46240700D03*
X112382300Y-48780700D03*
X97142300Y-46240700D03*
X97142300Y-43700700D03*
X97142300Y-41160700D03*
X97142300Y-38620700D03*
X97142300Y-36080700D03*
X97142300Y-33540700D03*
X97142300Y-31000700D03*
X97142300Y-28460700D03*
X97142300Y-25920700D03*
X97142300Y-23380700D03*
D20*
X97142300Y-20840700D03*
D13*
X91440000Y-87685000D03*
X97790000Y-85145000D03*
D14*
X95250000Y-90225000D03*
D15*
X90170000Y-90225000D03*
X100330000Y-90225000D03*
D21*
X83312000Y-97210000D03*
X107188000Y-97210000D03*
D14*
X83312000Y-81970000D03*
X107188000Y-81970000D03*
D13*
X129540000Y-87685000D03*
X135890000Y-85145000D03*
D14*
X133350000Y-90225000D03*
D15*
X128270000Y-90225000D03*
X138430000Y-90225000D03*
D21*
X121412000Y-97210000D03*
X145288000Y-97210000D03*
D14*
X121412000Y-81970000D03*
X145288000Y-81970000D03*
D13*
X116840000Y-85145000D03*
D14*
X114300000Y-90225000D03*
D13*
X110490000Y-87685000D03*
D15*
X109220000Y-90225000D03*
X119380000Y-90225000D03*
D21*
X66675000Y-97210000D03*
X161925000Y-97210000D03*
D14*
X66675000Y-81970000D03*
X161925000Y-81970000D03*
X104775000Y-81970000D03*
X66675000Y-81970000D03*
D21*
X104775000Y-97210000D03*
X66675000Y-97210000D03*
D15*
X90805000Y-90225000D03*
X80645000Y-90225000D03*
D14*
X85725000Y-90225000D03*
D13*
X81915000Y-87685000D03*
X88265000Y-85145000D03*
D14*
X161925000Y-81970000D03*
X123825000Y-81970000D03*
D21*
X161925000Y-97210000D03*
X123825000Y-97210000D03*
D15*
X147955000Y-90225000D03*
X137795000Y-90225000D03*
D14*
X142875000Y-90225000D03*
D13*
X139065000Y-87685000D03*
X145415000Y-85145000D03*
M02*
