G04 #@! TF.GenerationSoftware,KiCad,Pcbnew,(5.1.9)-1*
G04 #@! TF.CreationDate,2022-03-23T20:51:23-07:00*
G04 #@! TF.ProjectId,alphalpha_plus_v2,616c7068-616c-4706-9861-5f706c75735f,rev?*
G04 #@! TF.SameCoordinates,Original*
G04 #@! TF.FileFunction,Copper,L1,Top*
G04 #@! TF.FilePolarity,Positive*
%FSLAX46Y46*%
G04 Gerber Fmt 4.6, Leading zero omitted, Abs format (unit mm)*
G04 Created by KiCad (PCBNEW (5.1.9)-1) date 2022-03-23 20:51:23*
%MOMM*%
%LPD*%
G01*
G04 APERTURE LIST*
G04 #@! TA.AperFunction,Profile*
%ADD10C,0.200000*%
G04 #@! TD*
G04 #@! TA.AperFunction,ComponentPad*
%ADD11C,2.250000*%
G04 #@! TD*
G04 #@! TA.AperFunction,ComponentPad*
%ADD12C,1.752600*%
G04 #@! TD*
G04 #@! TA.AperFunction,ComponentPad*
%ADD13C,2.900000*%
G04 #@! TD*
G04 #@! TA.AperFunction,ConnectorPad*
%ADD14C,5.000000*%
G04 #@! TD*
G04 #@! TA.AperFunction,ComponentPad*
%ADD15R,1.752600X1.752600*%
G04 #@! TD*
G04 #@! TA.AperFunction,Conductor*
%ADD16C,0.250000*%
G04 #@! TD*
G04 #@! TA.AperFunction,Conductor*
%ADD17C,0.254000*%
G04 #@! TD*
G04 #@! TA.AperFunction,Conductor*
%ADD18C,0.100000*%
G04 #@! TD*
G04 APERTURE END LIST*
D10*
X19050000Y-19000000D02*
X19050000Y-70000000D01*
X33020000Y-99900000D02*
X196000000Y-99900000D01*
X21050000Y-13500000D02*
X31050000Y-13500000D01*
X209550000Y-19000000D02*
X209550000Y-70000000D01*
X19050000Y-70000000D02*
X33020000Y-99900000D01*
X196000000Y-99900000D02*
X209550000Y-70000000D01*
X19050000Y-19000000D02*
X21050000Y-13500000D01*
X31050000Y-13500000D02*
X36050000Y-19000000D01*
X209550000Y-19000000D02*
X207550000Y-13500000D01*
X197550000Y-13500000D02*
X207550000Y-13500000D01*
X197550000Y-13500000D02*
X192550000Y-19000000D01*
X36050000Y-19000000D02*
X192550000Y-19000000D01*
D11*
X31115000Y-23495000D03*
X24765000Y-26035000D03*
X50165000Y-23495000D03*
X43815000Y-26035000D03*
X69215000Y-23495000D03*
X62865000Y-26035000D03*
X88265000Y-23495000D03*
X81915000Y-26035000D03*
X107315000Y-23495000D03*
X100965000Y-26035000D03*
X126365000Y-23495000D03*
X120015000Y-26035000D03*
X145415000Y-23495000D03*
X139065000Y-26035000D03*
X164465000Y-23495000D03*
X158115000Y-26035000D03*
X183515000Y-23495000D03*
X177165000Y-26035000D03*
X202565000Y-23495000D03*
X196215000Y-26035000D03*
X31115000Y-42545000D03*
X24765000Y-45085000D03*
X50165000Y-42545000D03*
X43815000Y-45085000D03*
X69215000Y-42545000D03*
X62865000Y-45085000D03*
X88265000Y-42545000D03*
X81915000Y-45085000D03*
X107315000Y-42545000D03*
X100965000Y-45085000D03*
X126365000Y-42545000D03*
X120015000Y-45085000D03*
X145415000Y-42545000D03*
X139065000Y-45085000D03*
X164465000Y-42545000D03*
X158115000Y-45085000D03*
X183515000Y-42545000D03*
X177165000Y-45085000D03*
X202565000Y-42545000D03*
X196215000Y-45085000D03*
X40640000Y-61595000D03*
X34290000Y-64135000D03*
X59690000Y-61595000D03*
X53340000Y-64135000D03*
X78740000Y-61595000D03*
X72390000Y-64135000D03*
X97790000Y-61595000D03*
X91440000Y-64135000D03*
X116840000Y-61595000D03*
X110490000Y-64135000D03*
X135890000Y-61595000D03*
X129540000Y-64135000D03*
X154940000Y-61595000D03*
X148590000Y-64135000D03*
X173990000Y-61595000D03*
X167640000Y-64135000D03*
X193040000Y-61595000D03*
X186690000Y-64135000D03*
X69215000Y-85145000D03*
X62865000Y-87685000D03*
X164465000Y-85145000D03*
X158115000Y-87685000D03*
D12*
X32054800Y-57077200D03*
X34594800Y-57077200D03*
X205000000Y-64020700D03*
X205000000Y-61480700D03*
X205000000Y-58940700D03*
D13*
X26575000Y-16500000D03*
D14*
X26575000Y-16500000D03*
X202025000Y-16500000D03*
D13*
X202025000Y-16500000D03*
X191452500Y-96481900D03*
D14*
X191452500Y-96481900D03*
X38112700Y-97193100D03*
D13*
X38112700Y-97193100D03*
D12*
X112382300Y-20840700D03*
X97142300Y-48780700D03*
X112382300Y-23380700D03*
X112382300Y-25920700D03*
X112382300Y-28460700D03*
X112382300Y-31000700D03*
X112382300Y-33540700D03*
X112382300Y-36080700D03*
X112382300Y-38620700D03*
X112382300Y-41160700D03*
X112382300Y-43700700D03*
X112382300Y-46240700D03*
X112382300Y-48780700D03*
X97142300Y-46240700D03*
X97142300Y-43700700D03*
X97142300Y-41160700D03*
X97142300Y-38620700D03*
X97142300Y-36080700D03*
X97142300Y-33540700D03*
X97142300Y-31000700D03*
X97142300Y-28460700D03*
X97142300Y-25920700D03*
X97142300Y-23380700D03*
D15*
X97142300Y-20840700D03*
D11*
X91440000Y-87685000D03*
X97790000Y-85145000D03*
X129540000Y-87685000D03*
X135890000Y-85145000D03*
X116840000Y-85145000D03*
X110490000Y-87685000D03*
X81915000Y-87685000D03*
X88265000Y-85145000D03*
X139065000Y-87685000D03*
X145415000Y-85145000D03*
D16*
X24765000Y-45085000D02*
X24765000Y-26035000D01*
X29667200Y-21132800D02*
X24765000Y-26035000D01*
X89321622Y-21132800D02*
X29667200Y-21132800D01*
X93717129Y-25528307D02*
X89321622Y-21132800D01*
X93717129Y-27575529D02*
X93717129Y-25528307D01*
X97142300Y-31000700D02*
X93717129Y-27575529D01*
X43815000Y-45085000D02*
X43815000Y-26035000D01*
X43815000Y-54610000D02*
X34290000Y-64135000D01*
X43815000Y-45085000D02*
X43815000Y-54610000D01*
X48255011Y-21594989D02*
X43815000Y-26035000D01*
X89147401Y-21594989D02*
X48255011Y-21594989D01*
X93267120Y-25714708D02*
X89147401Y-21594989D01*
X93267119Y-29665519D02*
X93267120Y-25714708D01*
X97142300Y-33540700D02*
X93267119Y-29665519D01*
X62865000Y-45085000D02*
X62865000Y-26035000D01*
X62865000Y-54610000D02*
X53340000Y-64135000D01*
X62865000Y-45085000D02*
X62865000Y-54610000D01*
X92817110Y-25901108D02*
X88961001Y-22044999D01*
X92817110Y-31755510D02*
X92817110Y-25901108D01*
X97142300Y-36080700D02*
X92817110Y-31755510D01*
X66855001Y-22044999D02*
X62865000Y-26035000D01*
X88961001Y-22044999D02*
X66855001Y-22044999D01*
X53340000Y-64135000D02*
X53340000Y-73444100D01*
X46399971Y-78173109D02*
X47351892Y-79125028D01*
X46399972Y-76826892D02*
X46399971Y-78173109D01*
X47774481Y-75452381D02*
X46399972Y-76826892D01*
X51331720Y-75452380D02*
X47774481Y-75452381D01*
X53340000Y-73444100D02*
X51331720Y-75452380D01*
X47351892Y-79125028D02*
X60849728Y-79125028D01*
X62865000Y-81140300D02*
X62865000Y-87685000D01*
X60849728Y-79125028D02*
X62865000Y-81140300D01*
X81915000Y-28068998D02*
X81915000Y-26035000D01*
X81915000Y-45085000D02*
X81915000Y-28068998D01*
X81915000Y-54610000D02*
X72390000Y-64135000D01*
X81915000Y-45085000D02*
X81915000Y-54610000D01*
X96431100Y-38620700D02*
X97142300Y-38620700D01*
X92367100Y-34556700D02*
X96431100Y-38620700D01*
X90041002Y-26035000D02*
X92367100Y-28361098D01*
X92367100Y-28361098D02*
X92367100Y-34556700D01*
X81915000Y-26035000D02*
X90041002Y-26035000D01*
X81915000Y-87685000D02*
X72905020Y-78675020D01*
X46849981Y-77013291D02*
X47960882Y-75902390D01*
X46849980Y-77986708D02*
X46849981Y-77013291D01*
X47538291Y-78675019D02*
X46849980Y-77986708D01*
X72905020Y-78675020D02*
X47538291Y-78675019D01*
X47960882Y-75902390D02*
X70020610Y-75902390D01*
X72390000Y-73533000D02*
X72390000Y-64135000D01*
X70020610Y-75902390D02*
X72390000Y-73533000D01*
X100965000Y-45085000D02*
X100965000Y-26035000D01*
X100965000Y-54610000D02*
X91440000Y-64135000D01*
X100965000Y-45085000D02*
X100965000Y-54610000D01*
X112382300Y-48376298D02*
X112382300Y-48780700D01*
X108765001Y-44758999D02*
X112382300Y-48376298D01*
X108765001Y-29133027D02*
X108765001Y-44758999D01*
X105666974Y-26035000D02*
X108765001Y-29133027D01*
X100965000Y-26035000D02*
X105666974Y-26035000D01*
X91440000Y-87685000D02*
X91440000Y-82530310D01*
X47299990Y-77199692D02*
X48147282Y-76352400D01*
X47299990Y-77800308D02*
X47299990Y-77199692D01*
X47724692Y-78225010D02*
X47299990Y-77800308D01*
X87134700Y-78225010D02*
X47724692Y-78225010D01*
X91440000Y-82530310D02*
X87134700Y-78225010D01*
X48147282Y-76352400D02*
X89090500Y-76352400D01*
X91440000Y-74002900D02*
X91440000Y-64135000D01*
X89090500Y-76352400D02*
X91440000Y-74002900D01*
X120015000Y-28068998D02*
X120015000Y-26035000D01*
X120015000Y-45085000D02*
X120015000Y-28068998D01*
X120015000Y-54610000D02*
X110490000Y-64135000D01*
X120015000Y-45085000D02*
X120015000Y-54610000D01*
X118516400Y-26035000D02*
X120015000Y-26035000D01*
X116903500Y-27647900D02*
X118516400Y-26035000D01*
X116903500Y-43256200D02*
X116903500Y-27647900D01*
X113919000Y-46240700D02*
X116903500Y-43256200D01*
X112382300Y-46240700D02*
X113919000Y-46240700D01*
X110490000Y-87685000D02*
X119727100Y-78447900D01*
X119727100Y-78447900D02*
X180652418Y-78447900D01*
X181300010Y-77199692D02*
X180875308Y-76774990D01*
X180652418Y-78447900D02*
X181300010Y-77800308D01*
X181300010Y-77800308D02*
X181300010Y-77199692D01*
X112804890Y-76774990D02*
X110490000Y-74460100D01*
X180875308Y-76774990D02*
X112804890Y-76774990D01*
X110490000Y-74460100D02*
X110490000Y-64135000D01*
X139065000Y-26035000D02*
X139065000Y-45085000D01*
X139065000Y-54610000D02*
X129540000Y-64135000D01*
X139065000Y-45085000D02*
X139065000Y-54610000D01*
X126758998Y-26035000D02*
X139065000Y-26035000D01*
X119418398Y-24485600D02*
X125209598Y-24485600D01*
X125209598Y-24485600D02*
X126758998Y-26035000D01*
X116446300Y-41630600D02*
X116446300Y-27457698D01*
X116446300Y-27457698D02*
X119418398Y-24485600D01*
X114376200Y-43700700D02*
X116446300Y-41630600D01*
X112382300Y-43700700D02*
X114376200Y-43700700D01*
X181750019Y-77013291D02*
X181061708Y-76324980D01*
X181750020Y-77986708D02*
X181750019Y-77013291D01*
X180838819Y-78897909D02*
X181750020Y-77986708D01*
X138327091Y-78897909D02*
X180838819Y-78897909D01*
X129540000Y-87685000D02*
X138327091Y-78897909D01*
X181061708Y-76324980D02*
X132141480Y-76324980D01*
X129540000Y-73723500D02*
X129540000Y-64135000D01*
X132141480Y-76324980D02*
X129540000Y-73723500D01*
X158115000Y-26035000D02*
X158115000Y-45085000D01*
X158115000Y-54610000D02*
X148590000Y-64135000D01*
X158115000Y-45085000D02*
X158115000Y-54610000D01*
X158115000Y-26035000D02*
X154051000Y-21971000D01*
X121296588Y-21971000D02*
X115996290Y-27271298D01*
X154051000Y-21971000D02*
X121296588Y-21971000D01*
X115996290Y-27271298D02*
X115996290Y-39718410D01*
X114554000Y-41160700D02*
X112382300Y-41160700D01*
X115996290Y-39718410D02*
X114554000Y-41160700D01*
X139065000Y-84761026D02*
X144478107Y-79347919D01*
X139065000Y-87685000D02*
X139065000Y-84761026D01*
X182200028Y-76826890D02*
X181248108Y-75874970D01*
X182200029Y-78173107D02*
X182200028Y-76826890D01*
X181025220Y-79347918D02*
X182200029Y-78173107D01*
X144478107Y-79347919D02*
X181025220Y-79347918D01*
X181248108Y-75874970D02*
X150792270Y-75874970D01*
X148590000Y-73672700D02*
X148590000Y-64135000D01*
X150792270Y-75874970D02*
X148590000Y-73672700D01*
X177165000Y-28068998D02*
X177165000Y-26035000D01*
X177165000Y-45085000D02*
X177165000Y-28068998D01*
X177165000Y-54610000D02*
X167640000Y-64135000D01*
X177165000Y-45085000D02*
X177165000Y-54610000D01*
X172650990Y-21520990D02*
X177165000Y-26035000D01*
X121100010Y-21520990D02*
X172650990Y-21520990D01*
X115546280Y-27074720D02*
X121100010Y-21520990D01*
X114007900Y-38620700D02*
X115546280Y-37082320D01*
X115546280Y-37082320D02*
X115546280Y-27074720D01*
X112382300Y-38620700D02*
X114007900Y-38620700D01*
X159778998Y-87685000D02*
X167666071Y-79797927D01*
X158115000Y-87685000D02*
X159778998Y-87685000D01*
X182650037Y-76640489D02*
X181434508Y-75424960D01*
X182650038Y-78359506D02*
X182650037Y-76640489D01*
X181211621Y-79797926D02*
X182650038Y-78359506D01*
X167666071Y-79797927D02*
X181211621Y-79797926D01*
X181434508Y-75424960D02*
X169366860Y-75424960D01*
X167640000Y-73698100D02*
X167640000Y-64135000D01*
X169366860Y-75424960D02*
X167640000Y-73698100D01*
X196215000Y-45085000D02*
X196215000Y-26035000D01*
X196215000Y-54610000D02*
X186690000Y-64135000D01*
X196215000Y-45085000D02*
X196215000Y-54610000D01*
X112382300Y-36080700D02*
X114245370Y-36080700D01*
X191250980Y-21070980D02*
X196215000Y-26035000D01*
X120913610Y-21070980D02*
X191250980Y-21070980D01*
X115096271Y-26888319D02*
X120913610Y-21070980D01*
X115096270Y-35229800D02*
X115096271Y-26888319D01*
X114245370Y-36080700D02*
X115096270Y-35229800D01*
X207848200Y-61172500D02*
X205000000Y-64020700D01*
X207848200Y-24587200D02*
X207848200Y-61172500D01*
X203174600Y-19913600D02*
X207848200Y-24587200D01*
X116306600Y-23380700D02*
X119773700Y-19913600D01*
X119773700Y-19913600D02*
X203174600Y-19913600D01*
X112382300Y-23380700D02*
X116306600Y-23380700D01*
X112382300Y-27965400D02*
X112382300Y-28460700D01*
X202819000Y-20281900D02*
X120065800Y-20281900D01*
X120065800Y-20281900D02*
X112382300Y-27965400D01*
X207454500Y-24917400D02*
X202819000Y-20281900D01*
X207454500Y-56486200D02*
X207454500Y-24917400D01*
X205000000Y-58940700D02*
X207454500Y-56486200D01*
X114646261Y-28736739D02*
X112382300Y-31000700D01*
X114646261Y-26406735D02*
X114646261Y-28736739D01*
X202383370Y-20620970D02*
X120432026Y-20620970D01*
X202996800Y-58318400D02*
X207035400Y-54279800D01*
X120432026Y-20620970D02*
X114646261Y-26406735D01*
X207035400Y-54279800D02*
X207035400Y-25273000D01*
X202996800Y-59477500D02*
X202996800Y-58318400D01*
X207035400Y-25273000D02*
X202383370Y-20620970D01*
X205000000Y-61480700D02*
X202996800Y-59477500D01*
X22294999Y-48201001D02*
X31171198Y-57077200D01*
X22294999Y-25850701D02*
X22294999Y-48201001D01*
X89508022Y-20682790D02*
X27462910Y-20682790D01*
X97142300Y-28317068D02*
X89508022Y-20682790D01*
X31171198Y-57077200D02*
X32054800Y-57077200D01*
X27462910Y-20682790D02*
X22294999Y-25850701D01*
X97142300Y-28460700D02*
X97142300Y-28317068D01*
X107594698Y-25920700D02*
X112382300Y-25920700D01*
X106258997Y-24584999D02*
X107594698Y-25920700D01*
X94015899Y-24584999D02*
X106258997Y-24584999D01*
X89649300Y-20218400D02*
X94015899Y-24584999D01*
X27292300Y-20218400D02*
X89649300Y-20218400D01*
X21805900Y-25704800D02*
X27292300Y-20218400D01*
X31496000Y-58813700D02*
X21805900Y-49123600D01*
X21805900Y-49123600D02*
X21805900Y-25704800D01*
X32858300Y-58813700D02*
X31496000Y-58813700D01*
X34594800Y-57077200D02*
X32858300Y-58813700D01*
D17*
X99272636Y-25521627D02*
X99205000Y-25861655D01*
X99205000Y-26208345D01*
X99272636Y-26548373D01*
X99405308Y-26868673D01*
X99537638Y-27066719D01*
X99254549Y-27123029D01*
X98979747Y-27236856D01*
X98732431Y-27402107D01*
X98522107Y-27612431D01*
X98457619Y-27708945D01*
X98316204Y-27497302D01*
X98105698Y-27286796D01*
X97942491Y-27177745D01*
X98009863Y-26967869D01*
X97142300Y-26100305D01*
X97128158Y-26114448D01*
X96948552Y-25934842D01*
X96962695Y-25920700D01*
X96948552Y-25906558D01*
X97128158Y-25726953D01*
X97142300Y-25741095D01*
X97156443Y-25726953D01*
X97336048Y-25906558D01*
X97321905Y-25920700D01*
X98189469Y-26788263D01*
X98441229Y-26707446D01*
X98569757Y-26438921D01*
X98643429Y-26150481D01*
X98659413Y-25853209D01*
X98617096Y-25558533D01*
X98541805Y-25344999D01*
X99345797Y-25344999D01*
X99272636Y-25521627D01*
G04 #@! TA.AperFunction,Conductor*
D18*
G36*
X99272636Y-25521627D02*
G01*
X99205000Y-25861655D01*
X99205000Y-26208345D01*
X99272636Y-26548373D01*
X99405308Y-26868673D01*
X99537638Y-27066719D01*
X99254549Y-27123029D01*
X98979747Y-27236856D01*
X98732431Y-27402107D01*
X98522107Y-27612431D01*
X98457619Y-27708945D01*
X98316204Y-27497302D01*
X98105698Y-27286796D01*
X97942491Y-27177745D01*
X98009863Y-26967869D01*
X97142300Y-26100305D01*
X97128158Y-26114448D01*
X96948552Y-25934842D01*
X96962695Y-25920700D01*
X96948552Y-25906558D01*
X97128158Y-25726953D01*
X97142300Y-25741095D01*
X97156443Y-25726953D01*
X97336048Y-25906558D01*
X97321905Y-25920700D01*
X98189469Y-26788263D01*
X98441229Y-26707446D01*
X98569757Y-26438921D01*
X98643429Y-26150481D01*
X98659413Y-25853209D01*
X98617096Y-25558533D01*
X98541805Y-25344999D01*
X99345797Y-25344999D01*
X99272636Y-25521627D01*
G37*
G04 #@! TD.AperFunction*
M02*
