0
SECTION
2
HEADER
9
$INSUNITS
70
4
9
$ACADVER
1
AC1014
9
$HANDSEED
5
FFFF
0
ENDSEC
0
SECTION
2
TABLES
0
TABLE
2
VPORT
5
8
100
AcDbSymbolTable
0
ENDTAB
0
TABLE
2
LTYPE
5
5
100
AcDbSymbolTable
0
LTYPE
5
14
100
AcDbSymbolTableRecord
100
AcDbLinetypeTableRecord
2
BYBLOCK
70
0
0
LTYPE
5
15
100
AcDbSymbolTableRecord
100
AcDbLinetypeTableRecord
2
BYLAYER
70
0
0
ENDTAB
0
TABLE
2
LAYER
5
2
100
AcDbSymbolTable
70
2
0
LAYER
5
50
100
AcDbSymbolTableRecord
100
AcDbLayerTableRecord
2
0
70
0
6
CONTINUOUS
0
ENDTAB
0
TABLE
2
STYLE
5
3
100
AcDbSymbolTable
70
1
0
STYLE
5
11
100
AcDbSymbolTableRecord
100
AcDbTextStyleTableRecord
2
STANDARD
70
0
0
ENDTAB
0
TABLE
2
VIEW
5
6
100
AcDbSymbolTable
70
0
0
ENDTAB
0
TABLE
2
UCS
5
7
100
AcDbSymbolTable
70
0
0
ENDTAB
0
TABLE
2
APPID
5
9
100
AcDbSymbolTable
70
2
0
APPID
5
12
100
AcDbSymbolTableRecord
100
AcDbRegAppTableRecord
2
ACAD
70
0
0
ENDTAB
0
TABLE
2
DIMSTYLE
5
A
100
AcDbSymbolTable
70
1
0
ENDTAB
0
TABLE
2
BLOCK_RECORD
5
1
100
AcDbSymbolTable
70
1
0
BLOCK_RECORD
5
1F
100
AcDbSymbolTableRecord
100
AcDbBlockTableRecord
2
*MODEL_SPACE
0
BLOCK_RECORD
5
1B
100
AcDbSymbolTableRecord
100
AcDbBlockTableRecord
2
*PAPER_SPACE
0
ENDTAB
0
ENDSEC
0
SECTION
2
BLOCKS
0
BLOCK
5
20
100
AcDbEntity
100
AcDbBlockBegin
2
*MODEL_SPACE
0
ENDBLK
5
21
100
AcDbEntity
100
AcDbBlockEnd
0
BLOCK
5
1C
100
AcDbEntity
100
AcDbBlockBegin
2
*PAPER_SPACE
0
ENDBLK
5
1D
100
AcDbEntity
100
AcDbBlockEnd
0
ENDSEC
0
SECTION
2
ENTITIES
0
LWPOLYLINE
5
100
100
AcDbEntity
8
0
100
AcDbPolyline
90
33
70
1
43
0.0
10
1.7829478140033861
20
-90.530095494634622
10
1.7829478140033916
20
-32.356580203360544
42
-0.094367130191491622
10
2.4828394449126878
20
-28.681259221028679
10
15.156008250019157
20
3.3871897209437787
42
-0.36789494255618654
10
20.876052534587423
20
6.4336997003749605
10
34.510618519692969
20
3.4467338051431118
10
90.50933049561273
20
-11.23561835938921
42
0.12894955710556291
10
100.65656691428856
20
-11.234962493814578
10
156.6232858495764
20
3.4467338051431069
10
170.33627216824638
20
6.4185934140582654
42
-0.3708875480516387
10
176.06844208584516
20
3.3101105728387834
10
177.62328584957643
20
-0.77633854637878308
10
188.26093866150688
20
-28.734277458220333
42
-0.091144420704138085
10
188.91461736700046
20
-32.290438064809308
10
188.91461736700046
20
-90.530095494634622
42
-0.41421356237309398
10
183.91461736700046
20
-95.530095494634608
10
173.71184110928675
20
-95.530095494634608
42
-0.24861476808011954
10
169.57417932086739
20
-93.337185611580338
10
162.30098951169947
20
-82.616475445688195
42
0.2486147680801101
10
158.1633277232801
20
-80.423565562633925
10
101.02091404504333
20
-80.423565562633925
42
-0.41421356237309348
10
96.020914045043327
20
-75.423565562633925
10
96.020914045043298
20
-50.423565562633925
42
0.41421356237309348
10
91.020914045043327
20
-45.423565562633932
10
80.687793450843344
20
-45.423565562633925
42
0.41421356237309503
10
75.687793450843344
20
-50.423565562633925
10
75.687793450843344
20
-75.423565562633925
42
-0.41421356237309503
10
70.687793450843344
20
-80.423565562633925
10
31.300889741887261
20
-80.423565562633925
42
0.26704723061330654
10
26.979204564970615
20
-82.90900054426217
10
21.081788406188977
20
-93.044660513006363
42
-0.26704723061330715
10
16.760103229272342
20
-95.530095494634622
10
6.782947814003391
20
-95.530095494634622
42
-0.4142135623730932
0
CIRCLE
5
101
100
AcDbEntity
8
0
100
AcDbCircle
10
6.8245669360261738
20
-91.317589491195278
30
0
40
1.1500000000000004
210
0
220
0
230
1
0
CIRCLE
5
102
100
AcDbEntity
8
0
100
AcDbCircle
10
19.510618519692965
20
3.4467338051431118
30
0
40
1.1499999999999999
210
0
220
0
230
1
0
CIRCLE
5
103
100
AcDbEntity
8
0
100
AcDbCircle
10
171.6232858495764
20
3.4467338051431069
30
0
40
1.1500000000000059
210
0
220
0
230
1
0
CIRCLE
5
104
100
AcDbEntity
8
0
100
AcDbCircle
10
183.87297856294521
20
-91.317589479073206
30
0
40
1.1499999999999959
210
0
220
0
230
1
0
ENDSEC
0
SECTION
2
OBJECTS
0
DICTIONARY
5
C
100
AcDbDictionary
3
ACAD_GROUP
350
D
3
ACAD_MLINESTYLE
350
17
0
DICTIONARY
5
D
100
AcDbDictionary
0
DICTIONARY
5
1A
330
C
100
AcDbDictionary
0
DICTIONARY
5
17
100
AcDbDictionary
0
ENDSEC
0
EOF
