  0
SECTION
  2
HEADER
  9
$ACADVER
  1
AC1014
  9
$HANDSEED
  5
FFFF
  9
$MEASUREMENT
 70
     1
  0
ENDSEC
  0
SECTION
  2
TABLES
  0
TABLE
  2
VPORT
  5
8
330
0
100
AcDbSymbolTable
 70
     4
  0
VPORT
  5
2E
330
8
100
AcDbSymbolTableRecord
100
AcDbViewportTableRecord
  2
*ACTIVE
 70
     0
 10
0.0
 20
0.0
 11
1.0
 21
1.0
 12
210.0
 22
148.5
 13
0.0
 23
0.0
 14
10.0
 24
10.0
 15
10.0
 25
10.0
 16
0.0
 26
0.0
 36
1.0
 17
0.0
 27
0.0
 37
0.0
 40
341.0
 41
1.24
 42
50.0
 43
0.0
 44
0.0
 50
0.0
 51
0.0
 71
     0
 72
   100
 73
     1
 74
     3
 75
     0
 76
     0
 77
     0
 78
     0
  0
ENDTAB
  0
TABLE
  2
LTYPE
  5
5
330
0
100
AcDbSymbolTable
 70
     1
  0
LTYPE
  5
14
330
5
100
AcDbSymbolTableRecord
100
AcDbLinetypeTableRecord
  2
BYBLOCK
 70
     0
  3

 72
    65
 73
     0
 40
0.0
  0
LTYPE
  5
15
330
5
100
AcDbSymbolTableRecord
100
AcDbLinetypeTableRecord
  2
BYLAYER
 70
     0
  3

 72
    65
 73
     0
 40
0.0
  0
LTYPE
  5
16
330
5
100
AcDbSymbolTableRecord
100
AcDbLinetypeTableRecord
  2
CONTINUOUS
 70
     0
  3
Solid line
 72
    65
 73
     0
 40
0.0
  0
ENDTAB
  0
TABLE
  2
LAYER
  5
2
100
AcDbSymbolTable
 70
2
  0
LAYER
  5
50
100
AcDbSymbolTableRecord
100
AcDbLayerTableRecord
  2
0
 70
0
  6
CONTINUOUS
  0
LAYER
  5
51
100
AcDbSymbolTableRecord
100
AcDbLayerTableRecord
  2
Layer_1
 70
0
  6
CONTINUOUS
  0
ENDTAB
  0
TABLE
  2
STYLE
  5
3
330
0
100
AcDbSymbolTable
 70
     1
  0
STYLE
  5
11
330
3
100
AcDbSymbolTableRecord
100
AcDbTextStyleTableRecord
  2
STANDARD
 70
     0
 40
0.0
 41
1.0
 50
0.0
 71
     0
 42
2.5
  3
txt
  4

  0
ENDTAB
  0
TABLE
  2
VIEW
  5
6
330
0
100
AcDbSymbolTable
 70
     0
  0
ENDTAB
  0
TABLE
  2
UCS
  5
7
330
0
100
AcDbSymbolTable
 70
     0
  0
ENDTAB
  0
TABLE
  2
APPID
  5
9
330
0
100
AcDbSymbolTable
 70
     2
  0
APPID
  5
12
330
9
100
AcDbSymbolTableRecord
100
AcDbRegAppTableRecord
  2
ACAD
 70
     0
  0
ENDTAB
  0
TABLE
  2
DIMSTYLE
  5
A
330
0
100
AcDbSymbolTable
 70
     1
  0
DIMSTYLE
105
27
330
A
100
AcDbSymbolTableRecord
100
AcDbDimStyleTableRecord
  2
ISO-25
 70
     0
  3

  4

  5

  6

  7

 40
1.0
 41
2.5
 42
0.625
 43
3.75
 44
1.25
 45
0.0
 46
0.0
 47
0.0
 48
0.0
140
2.5
141
2.5
142
0.0
143
0.03937007874016
144
1.0
145
0.0
146
1.0
147
0.625
 71
     0
 72
     0
 73
     0
 74
     0
 75
     0
 76
     0
 77
     1
 78
     8
170
     0
171
     3
172
     1
173
     0
174
     0
175
     0
176
     0
177
     0
178
     0
270
     2
271
     2
272
     2
273
     2
274
     3
340
11
275
     0
280
     0
281
     0
282
     0
283
     0
284
     8
285
     0
286
     0
287
     3
288
     0
  0
ENDTAB
  0
TABLE
  2
BLOCK_RECORD
  5
1
330
0
100
AcDbSymbolTable
 70
     1
  0
BLOCK_RECORD
  5
1F
330
1
100
AcDbSymbolTableRecord
100
AcDbBlockTableRecord
  2
*MODEL_SPACE
  0
BLOCK_RECORD
  5
1B
330
1
100
AcDbSymbolTableRecord
100
AcDbBlockTableRecord
  2
*PAPER_SPACE
  0
ENDTAB
  0
ENDSEC
  0
SECTION
  2
BLOCKS
  0
BLOCK
  5
20
330
1F
100
AcDbEntity
  8
0
100
AcDbBlockBegin
  2
*MODEL_SPACE
 70
     0
 10
0.0
 20
0.0
 30
0.0
  3
*MODEL_SPACE
  1

  0
ENDBLK
  5
21
330
1F
100
AcDbEntity
  8
0
100
AcDbBlockEnd
  0
BLOCK
  5
1C
330
1B
100
AcDbEntity
 67
     1
  8
0
100
AcDbBlockBegin
  2
*PAPER_SPACE
  1

  0
ENDBLK
  5
1D
330
1B
100
AcDbEntity
 67
     1
  8
0
100
AcDbBlockEnd
  0
ENDSEC
  0
SECTION
  2
ENTITIES
  0
SPLINE
  5
100
100
AcDbEntity
  8
Layer_1
 62
7
100
AcDbSpline
 70
8
 71
3
 72
8
 73
4
 74
0
 40
0
 40
0
 40
0
 40
0
 40
1
 40
1
 40
1
 40
1
 10
4.991757
 20
26.891036
 30
0.0
 10
4.814678
 20
26.863149
 30
0.0
 10
4.653441
 20
26.772794
 30
0.0
 10
4.537257
 20
26.636269
 30
0.0
  0
SPLINE
  5
101
100
AcDbEntity
  8
Layer_1
 62
7
100
AcDbSpline
 70
8
 71
3
 72
8
 73
4
 74
0
 40
0
 40
0
 40
0
 40
0
 40
1
 40
1
 40
1
 40
1
 10
1.946760
 20
23.592638
 30
0.0
 10
1.830698
 20
23.456272
 30
0.0
 10
1.767256
 20
23.282890
 30
0.0
 10
1.767902
 20
23.103821
 30
0.0
  0
LWPOLYLINE
  5
102
100
AcDbEntity
  8
Layer_1
 62
7
100
AcDbPolyline
 90
2
 70
0
 10
28.853998
 20
30.647772
 30
0.0
 10
4.991757
 20
26.891036
 30
0.0
  0
SPLINE
  5
103
100
AcDbEntity
  8
Layer_1
 62
7
100
AcDbSpline
 70
8
 71
3
 72
8
 73
4
 74
0
 40
0
 40
0
 40
0
 40
0
 40
1
 40
1
 40
1
 40
1
 10
1.786242
 20
18.067641
 30
0.0
 10
1.802056
 20
13.721017
 30
0.0
 10
3.390188
 20
9.526926
 30
0.0
 10
6.257325
 20
6.259986
 30
0.0
  0
SPLINE
  5
104
100
AcDbEntity
  8
Layer_1
 62
7
100
AcDbSpline
 70
8
 71
3
 72
8
 73
4
 74
0
 40
0
 40
0
 40
0
 40
0
 40
1
 40
1
 40
1
 40
1
 10
6.257325
 20
6.259986
 30
0.0
 10
6.399729
 20
6.097744
 30
0.0
 10
6.605143
 20
6.004716
 30
0.0
 10
6.821024
 20
6.004716
 30
0.0
  0
LWPOLYLINE
  5
105
100
AcDbEntity
  8
Layer_1
 62
7
100
AcDbPolyline
 90
2
 70
0
 10
4.537257
 20
26.636269
 30
0.0
 10
1.946760
 20
23.592638
 30
0.0
  0
SPLINE
  5
106
100
AcDbEntity
  8
Layer_1
 62
7
100
AcDbSpline
 70
8
 71
3
 72
8
 73
4
 74
0
 40
0
 40
0
 40
0
 40
0
 40
1
 40
1
 40
1
 40
1
 10
12.811781
 20
2.045257
 30
0.0
 10
12.811778
 20
1.735483
 30
0.0
 10
13.002241
 20
1.457565
 30
0.0
 10
13.291158
 20
1.345779
 30
0.0
  0
SPLINE
  5
107
100
AcDbEntity
  8
Layer_1
 62
7
100
AcDbSpline
 70
8
 71
3
 72
8
 73
4
 74
0
 40
0
 40
0
 40
0
 40
0
 40
1
 40
1
 40
1
 40
1
 10
13.291158
 20
1.345779
 30
0.0
 10
15.362747
 20
0.544304
 30
0.0
 10
17.564791
 20
0.133142
 30
0.0
 10
19.786021
 20
0.133142
 30
0.0
  0
LWPOLYLINE
  5
108
100
AcDbEntity
  8
Layer_1
 62
7
100
AcDbPolyline
 90
2
 70
0
 10
1.767902
 20
23.103821
 30
0.0
 10
1.786242
 20
18.067641
 30
0.0
  0
SPLINE
  5
109
100
AcDbEntity
  8
Layer_1
 62
7
100
AcDbSpline
 70
8
 71
3
 72
8
 73
4
 74
0
 40
0
 40
0
 40
0
 40
0
 40
1
 40
1
 40
1
 40
1
 10
21.229889
 20
1.180758
 30
0.0
 10
25.250018
 20
-0.174251
 30
0.0
 10
29.596884
 20
-0.215843
 30
0.0
 10
33.642203
 20
1.062013
 30
0.0
  0
SPLINE
  5
10a
100
AcDbEntity
  8
Layer_1
 62
7
100
AcDbSpline
 70
8
 71
3
 72
8
 73
4
 74
0
 40
0
 40
0
 40
0
 40
0
 40
1
 40
1
 40
1
 40
1
 10
33.642203
 20
1.062013
 30
0.0
 10
33.952498
 20
1.160041
 30
0.0
 10
34.222505
 20
1.356309
 30
0.0
 10
34.411489
 20
1.621210
 30
0.0
  0
LWPOLYLINE
  5
10b
100
AcDbEntity
  8
Layer_1
 62
7
100
AcDbPolyline
 90
4
 70
0
 10
6.821024
 20
6.004716
 30
0.0
 10
11.311779
 20
6.004716
 30
0.0
 10
12.811781
 20
4.504715
 30
0.0
 10
12.811781
 20
2.045257
 30
0.0
  0
SPLINE
  5
10c
100
AcDbEntity
  8
Layer_1
 62
7
100
AcDbSpline
 70
8
 71
3
 72
8
 73
4
 74
0
 40
0
 40
0
 40
0
 40
0
 40
1
 40
1
 40
1
 40
1
 10
34.859544
 20
2.249251
 30
0.0
 10
35.040943
 20
2.503515
 30
0.0
 10
35.138441
 20
2.808077
 30
0.0
 10
35.138434
 20
3.120417
 30
0.0
  0
LWPOLYLINE
  5
10d
100
AcDbEntity
  8
Layer_1
 62
7
100
AcDbPolyline
 90
2
 70
0
 10
19.786021
 20
0.133142
 30
0.0
 10
21.229889
 20
1.180758
 30
0.0
  0
SPLINE
  5
10e
100
AcDbEntity
  8
Layer_1
 62
7
100
AcDbSpline
 70
8
 71
3
 72
8
 73
4
 74
0
 40
0
 40
0
 40
0
 40
0
 40
1
 40
1
 40
1
 40
1
 10
44.001244
 20
18.892505
 30
0.0
 10
44.400479
 20
18.892505
 30
0.0
 10
44.783243
 20
19.051652
 30
0.0
 10
45.064778
 20
19.334729
 30
0.0
  0
LWPOLYLINE
  5
10f
100
AcDbEntity
  8
Layer_1
 62
7
100
AcDbPolyline
 90
2
 70
0
 10
34.411489
 20
1.621210
 30
0.0
 10
34.859544
 20
2.249251
 30
0.0
  0
SPLINE
  5
110
100
AcDbEntity
  8
Layer_1
 62
7
100
AcDbSpline
 70
8
 71
3
 72
8
 73
4
 74
0
 40
0
 40
0
 40
0
 40
0
 40
1
 40
1
 40
1
 40
1
 10
47.168849
 20
21.450229
 30
0.0
 10
47.450386
 20
21.733307
 30
0.0
 10
47.607461
 20
22.116926
 30
0.0
 10
47.605292
 20
22.516155
 30
0.0
  0
LWPOLYLINE
  5
111
100
AcDbEntity
  8
Layer_1
 62
7
100
AcDbPolyline
 90
4
 70
0
 10
35.138434
 20
3.120417
 30
0.0
 10
35.138434
 20
15.892503
 30
0.0
 10
38.138432
 20
18.892505
 30
0.0
 10
44.001244
 20
18.892505
 30
0.0
  0
SPLINE
  5
112
100
AcDbEntity
  8
Layer_1
 62
7
100
AcDbSpline
 70
8
 71
3
 72
8
 73
4
 74
0
 40
0
 40
0
 40
0
 40
0
 40
1
 40
1
 40
1
 40
1
 10
46.619217
 20
88.710538
 30
0.0
 10
46.057084
 20
89.269631
 30
0.0
 10
45.296489
 20
89.583474
 30
0.0
 10
44.503661
 20
89.583477
 30
0.0
  0
LWPOLYLINE
  5
113
100
AcDbEntity
  8
Layer_1
 62
7
100
AcDbPolyline
 90
2
 70
0
 10
45.064778
 20
19.334729
 30
0.0
 10
47.168849
 20
21.450229
 30
0.0
  0
SPLINE
  5
114
100
AcDbEntity
  8
Layer_1
 62
7
100
AcDbSpline
 70
8
 71
3
 72
8
 73
4
 74
0
 40
0
 40
0
 40
0
 40
0
 40
1
 40
1
 40
1
 40
1
 10
33.478429
 20
98.465877
 30
0.0
 10
33.478434
 20
98.598489
 30
0.0
 10
33.425756
 20
98.725668
 30
0.0
 10
33.331987
 20
98.819439
 30
0.0
  0
SPLINE
  5
115
100
AcDbEntity
  8
Layer_1
 62
7
100
AcDbSpline
 70
8
 71
3
 72
8
 73
4
 74
0
 40
0
 40
0
 40
0
 40
0
 40
1
 40
1
 40
1
 40
1
 10
33.331987
 20
98.819439
 30
0.0
 10
33.238216
 20
98.913208
 30
0.0
 10
33.111039
 20
98.965889
 30
0.0
 10
32.978428
 20
98.965889
 30
0.0
  0
LWPOLYLINE
  5
116
100
AcDbEntity
  8
Layer_1
 62
7
100
AcDbPolyline
 90
3
 70
0
 10
47.605292
 20
22.516155
 30
0.0
 10
47.249671
 20
88.083502
 30
0.0
 10
46.619217
 20
88.710538
 30
0.0
  0
SPLINE
  5
117
100
AcDbEntity
  8
Layer_1
 62
7
100
AcDbSpline
 70
8
 71
3
 72
8
 73
4
 74
0
 40
0
 40
0
 40
0
 40
0
 40
1
 40
1
 40
1
 40
1
 10
7.753618
 20
98.965889
 30
0.0
 10
7.355793
 20
98.965889
 30
0.0
 10
6.974262
 20
98.807853
 30
0.0
 10
6.692957
 20
98.526549
 30
0.0
  0
LWPOLYLINE
  5
118
100
AcDbEntity
  8
Layer_1
 62
7
100
AcDbPolyline
 90
5
 70
0
 10
44.503661
 20
89.583477
 30
0.0
 10
43.778748
 20
89.583477
 30
0.0
 10
41.152613
 20
95.427191
 30
0.0
 10
33.478429
 20
97.132558
 30
0.0
 10
33.478429
 20
98.465877
 30
0.0
  0
SPLINE
  5
119
100
AcDbEntity
  8
Layer_1
 62
7
100
AcDbSpline
 70
8
 71
3
 72
8
 73
4
 74
0
 40
0
 40
0
 40
0
 40
0
 40
1
 40
1
 40
1
 40
1
 10
42.902989
 20
55.299831
 30
0.0
 10
42.902460
 20
54.906420
 30
0.0
 10
43.111883
 20
54.542626
 30
0.0
 10
43.452480
 20
54.345740
 30
0.0
  0
SPLINE
  5
11a
100
AcDbEntity
  8
Layer_1
 62
7
100
AcDbSpline
 70
8
 71
3
 72
8
 73
4
 74
0
 40
0
 40
0
 40
0
 40
0
 40
1
 40
1
 40
1
 40
1
 10
43.452480
 20
54.345740
 30
0.0
 10
43.793078
 20
54.148855
 30
0.0
 10
44.212895
 20
54.148855
 30
0.0
 10
44.553492
 20
54.345740
 30
0.0
  0
SPLINE
  5
11b
100
AcDbEntity
  8
Layer_1
 62
7
100
AcDbSpline
 70
8
 71
3
 72
8
 73
4
 74
0
 40
0
 40
0
 40
0
 40
0
 40
1
 40
1
 40
1
 40
1
 10
44.553492
 20
54.345740
 30
0.0
 10
44.894090
 20
54.542626
 30
0.0
 10
45.103611
 20
54.906420
 30
0.0
 10
45.102984
 20
55.299831
 30
0.0
  0
SPLINE
  5
11c
100
AcDbEntity
  8
Layer_1
 62
7
100
AcDbSpline
 70
8
 71
3
 72
8
 73
4
 74
0
 40
0
 40
0
 40
0
 40
0
 40
1
 40
1
 40
1
 40
1
 10
45.102984
 20
55.299831
 30
0.0
 10
45.103513
 20
55.693240
 30
0.0
 10
44.894090
 20
56.057034
 30
0.0
 10
44.553492
 20
56.253921
 30
0.0
  0
SPLINE
  5
11d
100
AcDbEntity
  8
Layer_1
 62
7
100
AcDbSpline
 70
8
 71
3
 72
8
 73
4
 74
0
 40
0
 40
0
 40
0
 40
0
 40
1
 40
1
 40
1
 40
1
 10
44.553492
 20
56.253921
 30
0.0
 10
44.212895
 20
56.450805
 30
0.0
 10
43.793078
 20
56.450805
 30
0.0
 10
43.452480
 20
56.253921
 30
0.0
  0
SPLINE
  5
11e
100
AcDbEntity
  8
Layer_1
 62
7
100
AcDbSpline
 70
8
 71
3
 72
8
 73
4
 74
0
 40
0
 40
0
 40
0
 40
0
 40
1
 40
1
 40
1
 40
1
 10
43.452480
 20
56.253921
 30
0.0
 10
43.111883
 20
56.057034
 30
0.0
 10
42.902362
 20
55.693240
 30
0.0
 10
42.902989
 20
55.299831
 30
0.0
  0
LWPOLYLINE
  5
11f
100
AcDbEntity
  8
Layer_1
 62
7
100
AcDbPolyline
 90
3
 70
0
 10
32.978428
 20
98.965889
 30
0.0
 10
31.177225
 20
98.965889
 30
0.0
 10
7.753618
 20
98.965889
 30
0.0
  0
SPLINE
  5
120
100
AcDbEntity
  8
Layer_1
 62
7
100
AcDbSpline
 70
8
 71
3
 72
8
 73
4
 74
0
 40
0
 40
0
 40
0
 40
0
 40
1
 40
1
 40
1
 40
1
 10
10.755292
 20
93.965237
 30
0.0
 10
10.755292
 20
93.572246
 30
0.0
 10
10.964951
 20
93.209106
 30
0.0
 10
11.305292
 20
93.012611
 30
0.0
  0
SPLINE
  5
121
100
AcDbEntity
  8
Layer_1
 62
7
100
AcDbSpline
 70
8
 71
3
 72
8
 73
4
 74
0
 40
0
 40
0
 40
0
 40
0
 40
1
 40
1
 40
1
 40
1
 10
11.305292
 20
93.012611
 30
0.0
 10
11.645633
 20
92.816116
 30
0.0
 10
12.064950
 20
92.816116
 30
0.0
 10
12.405292
 20
93.012611
 30
0.0
  0
SPLINE
  5
122
100
AcDbEntity
  8
Layer_1
 62
7
100
AcDbSpline
 70
8
 71
3
 72
8
 73
4
 74
0
 40
0
 40
0
 40
0
 40
0
 40
1
 40
1
 40
1
 40
1
 10
12.405292
 20
93.012611
 30
0.0
 10
12.745633
 20
93.209106
 30
0.0
 10
12.955291
 20
93.572246
 30
0.0
 10
12.955291
 20
93.965237
 30
0.0
  0
SPLINE
  5
123
100
AcDbEntity
  8
Layer_1
 62
7
100
AcDbSpline
 70
8
 71
3
 72
8
 73
4
 74
0
 40
0
 40
0
 40
0
 40
0
 40
1
 40
1
 40
1
 40
1
 10
12.955291
 20
93.965237
 30
0.0
 10
12.955291
 20
94.358230
 30
0.0
 10
12.745633
 20
94.721368
 30
0.0
 10
12.405292
 20
94.917866
 30
0.0
  0
SPLINE
  5
124
100
AcDbEntity
  8
Layer_1
 62
7
100
AcDbSpline
 70
8
 71
3
 72
8
 73
4
 74
0
 40
0
 40
0
 40
0
 40
0
 40
1
 40
1
 40
1
 40
1
 10
12.405292
 20
94.917866
 30
0.0
 10
12.064950
 20
95.114361
 30
0.0
 10
11.645633
 20
95.114361
 30
0.0
 10
11.305292
 20
94.917866
 30
0.0
  0
SPLINE
  5
125
100
AcDbEntity
  8
Layer_1
 62
7
100
AcDbSpline
 70
8
 71
3
 72
8
 73
4
 74
0
 40
0
 40
0
 40
0
 40
0
 40
1
 40
1
 40
1
 40
1
 10
11.305292
 20
94.917866
 30
0.0
 10
10.964951
 20
94.721368
 30
0.0
 10
10.755292
 20
94.358230
 30
0.0
 10
10.755292
 20
93.965237
 30
0.0
  0
LWPOLYLINE
  5
126
100
AcDbEntity
  8
Layer_1
 62
7
100
AcDbPolyline
 90
8
 70
0
 10
6.692957
 20
98.526549
 30
0.0
 10
0.132297
 20
91.965888
 30
0.0
 10
0.132297
 20
88.964564
 30
0.0
 10
38.388008
 20
88.964564
 30
0.0
 10
39.888007
 20
87.464907
 30
0.0
 10
39.888007
 20
86.786754
 30
0.0
 10
39.888007
 20
30.764506
 30
0.0
 10
28.853996
 20
30.647772
 30
0.0
  0
SPLINE
  5
127
100
AcDbEntity
  8
Layer_1
 62
7
100
AcDbSpline
 70
8
 71
3
 72
8
 73
4
 74
0
 40
0
 40
0
 40
0
 40
0
 40
1
 40
1
 40
1
 40
1
 10
31.953732
 20
91.464133
 30
0.0
 10
31.953732
 20
91.071143
 30
0.0
 10
32.163390
 20
90.708002
 30
0.0
 10
32.503731
 20
90.511507
 30
0.0
  0
SPLINE
  5
128
100
AcDbEntity
  8
Layer_1
 62
7
100
AcDbSpline
 70
8
 71
3
 72
8
 73
4
 74
0
 40
0
 40
0
 40
0
 40
0
 40
1
 40
1
 40
1
 40
1
 10
32.503731
 20
90.511507
 30
0.0
 10
32.844072
 20
90.315009
 30
0.0
 10
33.263389
 20
90.315009
 30
0.0
 10
33.603730
 20
90.511507
 30
0.0
  0
SPLINE
  5
129
100
AcDbEntity
  8
Layer_1
 62
7
100
AcDbSpline
 70
8
 71
3
 72
8
 73
4
 74
0
 40
0
 40
0
 40
0
 40
0
 40
1
 40
1
 40
1
 40
1
 10
33.603730
 20
90.511507
 30
0.0
 10
33.944071
 20
90.708002
 30
0.0
 10
34.153729
 20
91.071143
 30
0.0
 10
34.153729
 20
91.464133
 30
0.0
  0
SPLINE
  5
12a
100
AcDbEntity
  8
Layer_1
 62
7
100
AcDbSpline
 70
8
 71
3
 72
8
 73
4
 74
0
 40
0
 40
0
 40
0
 40
0
 40
1
 40
1
 40
1
 40
1
 10
34.153729
 20
91.464133
 30
0.0
 10
34.153729
 20
91.857124
 30
0.0
 10
33.944071
 20
92.220264
 30
0.0
 10
33.603730
 20
92.416759
 30
0.0
  0
SPLINE
  5
12b
100
AcDbEntity
  8
Layer_1
 62
7
100
AcDbSpline
 70
8
 71
3
 72
8
 73
4
 74
0
 40
0
 40
0
 40
0
 40
0
 40
1
 40
1
 40
1
 40
1
 10
33.603730
 20
92.416759
 30
0.0
 10
33.263389
 20
92.613254
 30
0.0
 10
32.844072
 20
92.613254
 30
0.0
 10
32.503731
 20
92.416759
 30
0.0
  0
SPLINE
  5
12c
100
AcDbEntity
  8
Layer_1
 62
7
100
AcDbSpline
 70
8
 71
3
 72
8
 73
4
 74
0
 40
0
 40
0
 40
0
 40
0
 40
1
 40
1
 40
1
 40
1
 10
32.503731
 20
92.416759
 30
0.0
 10
32.163390
 20
92.220264
 30
0.0
 10
31.953732
 20
91.857124
 30
0.0
 10
31.953732
 20
91.464133
 30
0.0
  0
SPLINE
  5
12d
100
AcDbEntity
  8
Layer_1
 62
7
100
AcDbSpline
 70
8
 71
3
 72
8
 73
4
 74
0
 40
0
 40
0
 40
0
 40
0
 40
1
 40
1
 40
1
 40
1
 10
21.380738
 20
11.482247
 30
0.0
 10
21.380501
 20
11.089103
 30
0.0
 10
21.590108
 20
10.725699
 30
0.0
 10
21.930546
 20
10.529060
 30
0.0
  0
SPLINE
  5
12e
100
AcDbEntity
  8
Layer_1
 62
7
100
AcDbSpline
 70
8
 71
3
 72
8
 73
4
 74
0
 40
0
 40
0
 40
0
 40
0
 40
1
 40
1
 40
1
 40
1
 10
21.930546
 20
10.529060
 30
0.0
 10
22.270984
 20
10.332422
 30
0.0
 10
22.690491
 20
10.332422
 30
0.0
 10
23.030929
 20
10.529060
 30
0.0
  0
SPLINE
  5
12f
100
AcDbEntity
  8
Layer_1
 62
7
100
AcDbSpline
 70
8
 71
3
 72
8
 73
4
 74
0
 40
0
 40
0
 40
0
 40
0
 40
1
 40
1
 40
1
 40
1
 10
23.030929
 20
10.529060
 30
0.0
 10
23.371368
 20
10.725699
 30
0.0
 10
23.580975
 20
11.089103
 30
0.0
 10
23.580738
 20
11.482247
 30
0.0
  0
SPLINE
  5
130
100
AcDbEntity
  8
Layer_1
 62
7
100
AcDbSpline
 70
8
 71
3
 72
8
 73
4
 74
0
 40
0
 40
0
 40
0
 40
0
 40
1
 40
1
 40
1
 40
1
 10
23.580738
 20
11.482247
 30
0.0
 10
23.580975
 20
11.875391
 30
0.0
 10
23.371368
 20
12.238796
 30
0.0
 10
23.030929
 20
12.435434
 30
0.0
  0
SPLINE
  5
131
100
AcDbEntity
  8
Layer_1
 62
7
100
AcDbSpline
 70
8
 71
3
 72
8
 73
4
 74
0
 40
0
 40
0
 40
0
 40
0
 40
1
 40
1
 40
1
 40
1
 10
23.030929
 20
12.435434
 30
0.0
 10
22.690491
 20
12.632072
 30
0.0
 10
22.270984
 20
12.632072
 30
0.0
 10
21.930546
 20
12.435434
 30
0.0
  0
SPLINE
  5
132
100
AcDbEntity
  8
Layer_1
 62
7
100
AcDbSpline
 70
8
 71
3
 72
8
 73
4
 74
0
 40
0
 40
0
 40
0
 40
0
 40
1
 40
1
 40
1
 40
1
 10
21.930546
 20
12.435434
 30
0.0
 10
21.590108
 20
12.238796
 30
0.0
 10
21.380501
 20
11.875391
 30
0.0
 10
21.380738
 20
11.482247
 30
0.0
  0
LWPOLYLINE
  5
133
100
AcDbEntity
  8
Layer_1
 62
7
100
AcDbPolyline
 90
2
 70
0
 10
23.578286
 20
88.964564
 30
0.0
 10
0.132297
 20
88.964564
 30
0.0
  0
ENDSEC
  0
SECTION
  2
OBJECTS
  0
DICTIONARY
  5
C
330
0
100
AcDbDictionary
  3
ACAD_GROUP
350
D
  3
ACAD_MLINESTYLE
350
17
  0
DICTIONARY
  5
D
330
C
100
AcDbDictionary
  0
DICTIONARY
  5
1A
330
C
100
AcDbDictionary
  0
DICTIONARY
  5
17
330
C
100
AcDbDictionary
  3
STANDARD
350
18
  0
DICTIONARY
  5
19
330
C
100
AcDbDictionary
  0
ENDSEC
  0
EOF
