  0
SECTION
  2
HEADER
  9
$ACADVER
  1
AC1014
  9
$HANDSEED
  5
FFFF
  9
$MEASUREMENT
 70
     1
  0
ENDSEC
  0
SECTION
  2
TABLES
  0
TABLE
  2
VPORT
  5
8
330
0
100
AcDbSymbolTable
 70
     4
  0
VPORT
  5
2E
330
8
100
AcDbSymbolTableRecord
100
AcDbViewportTableRecord
  2
*ACTIVE
 70
     0
 10
0.0
 20
0.0
 11
1.0
 21
1.0
 12
210.0
 22
148.5
 13
0.0
 23
0.0
 14
10.0
 24
10.0
 15
10.0
 25
10.0
 16
0.0
 26
0.0
 36
1.0
 17
0.0
 27
0.0
 37
0.0
 40
341.0
 41
1.24
 42
50.0
 43
0.0
 44
0.0
 50
0.0
 51
0.0
 71
     0
 72
   100
 73
     1
 74
     3
 75
     0
 76
     0
 77
     0
 78
     0
  0
ENDTAB
  0
TABLE
  2
LTYPE
  5
5
330
0
100
AcDbSymbolTable
 70
     1
  0
LTYPE
  5
14
330
5
100
AcDbSymbolTableRecord
100
AcDbLinetypeTableRecord
  2
BYBLOCK
 70
     0
  3

 72
    65
 73
     0
 40
0.0
  0
LTYPE
  5
15
330
5
100
AcDbSymbolTableRecord
100
AcDbLinetypeTableRecord
  2
BYLAYER
 70
     0
  3

 72
    65
 73
     0
 40
0.0
  0
LTYPE
  5
16
330
5
100
AcDbSymbolTableRecord
100
AcDbLinetypeTableRecord
  2
CONTINUOUS
 70
     0
  3
Solid line
 72
    65
 73
     0
 40
0.0
  0
ENDTAB
  0
TABLE
  2
LAYER
  5
2
100
AcDbSymbolTable
 70
2
  0
LAYER
  5
50
100
AcDbSymbolTableRecord
100
AcDbLayerTableRecord
  2
0
 70
0
  6
CONTINUOUS
  0
LAYER
  5
51
100
AcDbSymbolTableRecord
100
AcDbLayerTableRecord
  2
Layer_1
 70
0
  6
CONTINUOUS
  0
ENDTAB
  0
TABLE
  2
STYLE
  5
3
330
0
100
AcDbSymbolTable
 70
     1
  0
STYLE
  5
11
330
3
100
AcDbSymbolTableRecord
100
AcDbTextStyleTableRecord
  2
STANDARD
 70
     0
 40
0.0
 41
1.0
 50
0.0
 71
     0
 42
2.5
  3
txt
  4

  0
ENDTAB
  0
TABLE
  2
VIEW
  5
6
330
0
100
AcDbSymbolTable
 70
     0
  0
ENDTAB
  0
TABLE
  2
UCS
  5
7
330
0
100
AcDbSymbolTable
 70
     0
  0
ENDTAB
  0
TABLE
  2
APPID
  5
9
330
0
100
AcDbSymbolTable
 70
     2
  0
APPID
  5
12
330
9
100
AcDbSymbolTableRecord
100
AcDbRegAppTableRecord
  2
ACAD
 70
     0
  0
ENDTAB
  0
TABLE
  2
DIMSTYLE
  5
A
330
0
100
AcDbSymbolTable
 70
     1
  0
DIMSTYLE
105
27
330
A
100
AcDbSymbolTableRecord
100
AcDbDimStyleTableRecord
  2
ISO-25
 70
     0
  3

  4

  5

  6

  7

 40
1.0
 41
2.5
 42
0.625
 43
3.75
 44
1.25
 45
0.0
 46
0.0
 47
0.0
 48
0.0
140
2.5
141
2.5
142
0.0
143
0.03937007874016
144
1.0
145
0.0
146
1.0
147
0.625
 71
     0
 72
     0
 73
     0
 74
     0
 75
     0
 76
     0
 77
     1
 78
     8
170
     0
171
     3
172
     1
173
     0
174
     0
175
     0
176
     0
177
     0
178
     0
270
     2
271
     2
272
     2
273
     2
274
     3
340
11
275
     0
280
     0
281
     0
282
     0
283
     0
284
     8
285
     0
286
     0
287
     3
288
     0
  0
ENDTAB
  0
TABLE
  2
BLOCK_RECORD
  5
1
330
0
100
AcDbSymbolTable
 70
     1
  0
BLOCK_RECORD
  5
1F
330
1
100
AcDbSymbolTableRecord
100
AcDbBlockTableRecord
  2
*MODEL_SPACE
  0
BLOCK_RECORD
  5
1B
330
1
100
AcDbSymbolTableRecord
100
AcDbBlockTableRecord
  2
*PAPER_SPACE
  0
ENDTAB
  0
ENDSEC
  0
SECTION
  2
BLOCKS
  0
BLOCK
  5
20
330
1F
100
AcDbEntity
  8
0
100
AcDbBlockBegin
  2
*MODEL_SPACE
 70
     0
 10
0.0
 20
0.0
 30
0.0
  3
*MODEL_SPACE
  1

  0
ENDBLK
  5
21
330
1F
100
AcDbEntity
  8
0
100
AcDbBlockEnd
  0
BLOCK
  5
1C
330
1B
100
AcDbEntity
 67
     1
  8
0
100
AcDbBlockBegin
  2
*PAPER_SPACE
  1

  0
ENDBLK
  5
1D
330
1B
100
AcDbEntity
 67
     1
  8
0
100
AcDbBlockEnd
  0
ENDSEC
  0
SECTION
  2
ENTITIES
  0
SPLINE
  5
100
100
AcDbEntity
  8
Layer_1
 62
7
100
AcDbSpline
 70
8
 71
3
 72
8
 73
4
 74
0
 40
0
 40
0
 40
0
 40
0
 40
1
 40
1
 40
1
 40
1
 10
4.991712
 20
26.890265
 30
0.0
 10
4.814633
 20
26.862387
 30
0.0
 10
4.653396
 20
26.772007
 30
0.0
 10
4.537211
 20
26.635498
 30
0.0
  0
LWPOLYLINE
  5
101
100
AcDbEntity
  8
Layer_1
 62
7
100
AcDbPolyline
 90
2
 70
0
 10
28.853977
 20
30.647006
 30
0.0
 10
4.991712
 20
26.890265
 30
0.0
  0
SPLINE
  5
102
100
AcDbEntity
  8
Layer_1
 62
7
100
AcDbSpline
 70
8
 71
3
 72
8
 73
4
 74
0
 40
0
 40
0
 40
0
 40
0
 40
1
 40
1
 40
1
 40
1
 10
1.946712
 20
23.591864
 30
0.0
 10
1.830650
 20
23.455501
 30
0.0
 10
1.767208
 20
23.282112
 30
0.0
 10
1.767854
 20
23.103046
 30
0.0
  0
LWPOLYLINE
  5
103
100
AcDbEntity
  8
Layer_1
 62
7
100
AcDbPolyline
 90
2
 70
0
 10
4.537211
 20
26.635498
 30
0.0
 10
1.946712
 20
23.591864
 30
0.0
  0
SPLINE
  5
104
100
AcDbEntity
  8
Layer_1
 62
7
100
AcDbSpline
 70
8
 71
3
 72
8
 73
4
 74
0
 40
0
 40
0
 40
0
 40
0
 40
1
 40
1
 40
1
 40
1
 10
1.786194
 20
18.066860
 30
0.0
 10
1.802008
 20
13.720231
 30
0.0
 10
3.390141
 20
9.526139
 30
0.0
 10
6.257281
 20
6.259193
 30
0.0
  0
SPLINE
  5
105
100
AcDbEntity
  8
Layer_1
 62
7
100
AcDbSpline
 70
8
 71
3
 72
8
 73
4
 74
0
 40
0
 40
0
 40
0
 40
0
 40
1
 40
1
 40
1
 40
1
 10
6.257281
 20
6.259193
 30
0.0
 10
6.399685
 20
6.096940
 30
0.0
 10
6.605099
 20
6.003919
 30
0.0
 10
6.820981
 20
6.003923
 30
0.0
  0
LWPOLYLINE
  5
106
100
AcDbEntity
  8
Layer_1
 62
7
100
AcDbPolyline
 90
2
 70
0
 10
1.767854
 20
23.103046
 30
0.0
 10
1.786194
 20
18.066860
 30
0.0
  0
SPLINE
  5
107
100
AcDbEntity
  8
Layer_1
 62
7
100
AcDbSpline
 70
8
 71
3
 72
8
 73
4
 74
0
 40
0
 40
0
 40
0
 40
0
 40
1
 40
1
 40
1
 40
1
 10
12.811744
 20
2.044459
 30
0.0
 10
12.811741
 20
1.734672
 30
0.0
 10
13.002204
 20
1.456761
 30
0.0
 10
13.291121
 20
1.344980
 30
0.0
  0
SPLINE
  5
108
100
AcDbEntity
  8
Layer_1
 62
7
100
AcDbSpline
 70
8
 71
3
 72
8
 73
4
 74
0
 40
0
 40
0
 40
0
 40
0
 40
1
 40
1
 40
1
 40
1
 10
13.291121
 20
1.344980
 30
0.0
 10
15.362712
 20
0.543490
 30
0.0
 10
17.564758
 20
0.132352
 30
0.0
 10
19.785991
 20
0.132342
 30
0.0
  0
LWPOLYLINE
  5
109
100
AcDbEntity
  8
Layer_1
 62
7
100
AcDbPolyline
 90
4
 70
0
 10
6.820981
 20
6.003923
 30
0.0
 10
11.311740
 20
6.003923
 30
0.0
 10
12.811744
 20
4.503921
 30
0.0
 10
12.811744
 20
2.044459
 30
0.0
  0
SPLINE
  5
10a
100
AcDbEntity
  8
Layer_1
 62
7
100
AcDbSpline
 70
8
 71
3
 72
8
 73
4
 74
0
 40
0
 40
0
 40
0
 40
0
 40
1
 40
1
 40
1
 40
1
 10
21.229860
 20
1.179959
 30
0.0
 10
25.249993
 20
-0.175056
 30
0.0
 10
29.596864
 20
-0.216642
 30
0.0
 10
33.642185
 20
1.061214
 30
0.0
  0
SPLINE
  5
10b
100
AcDbEntity
  8
Layer_1
 62
7
100
AcDbSpline
 70
8
 71
3
 72
8
 73
4
 74
0
 40
0
 40
0
 40
0
 40
0
 40
1
 40
1
 40
1
 40
1
 10
33.642185
 20
1.061214
 30
0.0
 10
33.952483
 20
1.159234
 30
0.0
 10
34.222489
 20
1.355502
 30
0.0
 10
34.411474
 20
1.620411
 30
0.0
  0
LWPOLYLINE
  5
10c
100
AcDbEntity
  8
Layer_1
 62
7
100
AcDbPolyline
 90
2
 70
0
 10
19.785991
 20
0.132342
 30
0.0
 10
21.229860
 20
1.179959
 30
0.0
  0
SPLINE
  5
10d
100
AcDbEntity
  8
Layer_1
 62
7
100
AcDbSpline
 70
8
 71
3
 72
8
 73
4
 74
0
 40
0
 40
0
 40
0
 40
0
 40
1
 40
1
 40
1
 40
1
 10
34.859530
 20
2.248453
 30
0.0
 10
35.040927
 20
2.502723
 30
0.0
 10
35.138425
 20
2.807277
 30
0.0
 10
35.138419
 20
3.119620
 30
0.0
  0
LWPOLYLINE
  5
10e
100
AcDbEntity
  8
Layer_1
 62
7
100
AcDbPolyline
 90
2
 70
0
 10
34.411474
 20
1.620411
 30
0.0
 10
34.859530
 20
2.248453
 30
0.0
  0
SPLINE
  5
10f
100
AcDbEntity
  8
Layer_1
 62
7
100
AcDbSpline
 70
8
 71
3
 72
8
 73
4
 74
0
 40
0
 40
0
 40
0
 40
0
 40
1
 40
1
 40
1
 40
1
 10
44.001237
 20
18.891725
 30
0.0
 10
44.400473
 20
18.891726
 30
0.0
 10
44.783238
 20
19.050881
 30
0.0
 10
45.064772
 20
19.333949
 30
0.0
  0
LWPOLYLINE
  5
110
100
AcDbEntity
  8
Layer_1
 62
7
100
AcDbPolyline
 90
4
 70
0
 10
35.138419
 20
3.119620
 30
0.0
 10
35.138419
 20
15.891720
 30
0.0
 10
38.138420
 20
18.891725
 30
0.0
 10
44.001237
 20
18.891725
 30
0.0
  0
SPLINE
  5
111
100
AcDbEntity
  8
Layer_1
 62
7
100
AcDbSpline
 70
8
 71
3
 72
8
 73
4
 74
0
 40
0
 40
0
 40
0
 40
0
 40
1
 40
1
 40
1
 40
1
 10
47.168846
 20
21.449453
 30
0.0
 10
47.450383
 20
21.732522
 30
0.0
 10
47.607458
 20
22.116147
 30
0.0
 10
47.605289
 20
22.515380
 30
0.0
  0
LWPOLYLINE
  5
112
100
AcDbEntity
  8
Layer_1
 62
7
100
AcDbPolyline
 90
2
 70
0
 10
45.064772
 20
19.333949
 30
0.0
 10
47.168846
 20
21.449453
 30
0.0
  0
SPLINE
  5
113
100
AcDbEntity
  8
Layer_1
 62
7
100
AcDbSpline
 70
8
 71
3
 72
8
 73
4
 74
0
 40
0
 40
0
 40
0
 40
0
 40
1
 40
1
 40
1
 40
1
 10
46.619213
 20
88.709824
 30
0.0
 10
46.057080
 20
89.268919
 30
0.0
 10
45.296485
 20
89.582762
 30
0.0
 10
44.503654
 20
89.582764
 30
0.0
  0
LWPOLYLINE
  5
114
100
AcDbEntity
  8
Layer_1
 62
7
100
AcDbPolyline
 90
3
 70
0
 10
47.605289
 20
22.515380
 30
0.0
 10
47.249668
 20
88.082788
 30
0.0
 10
46.619213
 20
88.709824
 30
0.0
  0
SPLINE
  5
115
100
AcDbEntity
  8
Layer_1
 62
7
100
AcDbSpline
 70
8
 71
3
 72
8
 73
4
 74
0
 40
0
 40
0
 40
0
 40
0
 40
1
 40
1
 40
1
 40
1
 10
33.478413
 20
98.465174
 30
0.0
 10
33.478416
 20
98.597784
 30
0.0
 10
33.425738
 20
98.724964
 30
0.0
 10
33.331969
 20
98.818735
 30
0.0
  0
SPLINE
  5
116
100
AcDbEntity
  8
Layer_1
 62
7
100
AcDbSpline
 70
8
 71
3
 72
8
 73
4
 74
0
 40
0
 40
0
 40
0
 40
0
 40
1
 40
1
 40
1
 40
1
 10
33.331969
 20
98.818735
 30
0.0
 10
33.238200
 20
98.912505
 30
0.0
 10
33.111021
 20
98.965185
 30
0.0
 10
32.978411
 20
98.965184
 30
0.0
  0
LWPOLYLINE
  5
117
100
AcDbEntity
  8
Layer_1
 62
7
100
AcDbPolyline
 90
5
 70
0
 10
44.503654
 20
89.582764
 30
0.0
 10
43.778741
 20
89.582764
 30
0.0
 10
41.152603
 20
95.426484
 30
0.0
 10
33.478413
 20
97.131854
 30
0.0
 10
33.478413
 20
98.465174
 30
0.0
  0
SPLINE
  5
118
100
AcDbEntity
  8
Layer_1
 62
7
100
AcDbSpline
 70
8
 71
3
 72
8
 73
4
 74
0
 40
0
 40
0
 40
0
 40
0
 40
1
 40
1
 40
1
 40
1
 10
7.753576
 20
98.965184
 30
0.0
 10
7.355750
 20
98.965184
 30
0.0
 10
6.974219
 20
98.807149
 30
0.0
 10
6.692914
 20
98.525844
 30
0.0
  0
LWPOLYLINE
  5
119
100
AcDbEntity
  8
Layer_1
 62
7
100
AcDbPolyline
 90
3
 70
0
 10
32.978411
 20
98.965184
 30
0.0
 10
31.177205
 20
98.965184
 30
0.0
 10
7.753576
 20
98.965184
 30
0.0
  0
SPLINE
  5
11a
100
AcDbEntity
  8
Layer_1
 62
7
100
AcDbSpline
 70
8
 71
3
 72
8
 73
4
 74
0
 40
0
 40
0
 40
0
 40
0
 40
1
 40
1
 40
1
 40
1
 10
42.902981
 20
55.299084
 30
0.0
 10
42.902354
 20
54.905674
 30
0.0
 10
43.111875
 20
54.541880
 30
0.0
 10
43.452473
 20
54.344993
 30
0.0
  0
SPLINE
  5
11b
100
AcDbEntity
  8
Layer_1
 62
7
100
AcDbSpline
 70
8
 71
3
 72
8
 73
4
 74
0
 40
0
 40
0
 40
0
 40
0
 40
1
 40
1
 40
1
 40
1
 10
43.452473
 20
54.344993
 30
0.0
 10
43.793072
 20
54.148107
 30
0.0
 10
44.212888
 20
54.148107
 30
0.0
 10
44.553486
 20
54.344993
 30
0.0
  0
SPLINE
  5
11c
100
AcDbEntity
  8
Layer_1
 62
7
100
AcDbSpline
 70
8
 71
3
 72
8
 73
4
 74
0
 40
0
 40
0
 40
0
 40
0
 40
1
 40
1
 40
1
 40
1
 10
44.553486
 20
54.344993
 30
0.0
 10
44.894085
 20
54.541880
 30
0.0
 10
45.103606
 20
54.905674
 30
0.0
 10
45.102978
 20
55.299084
 30
0.0
  0
SPLINE
  5
11d
100
AcDbEntity
  8
Layer_1
 62
7
100
AcDbSpline
 70
8
 71
3
 72
8
 73
4
 74
0
 40
0
 40
0
 40
0
 40
0
 40
1
 40
1
 40
1
 40
1
 10
45.102978
 20
55.299084
 30
0.0
 10
45.103606
 20
55.692493
 30
0.0
 10
44.894085
 20
56.056288
 30
0.0
 10
44.553486
 20
56.253174
 30
0.0
  0
SPLINE
  5
11e
100
AcDbEntity
  8
Layer_1
 62
7
100
AcDbSpline
 70
8
 71
3
 72
8
 73
4
 74
0
 40
0
 40
0
 40
0
 40
0
 40
1
 40
1
 40
1
 40
1
 10
44.553486
 20
56.253174
 30
0.0
 10
44.212888
 20
56.450060
 30
0.0
 10
43.793072
 20
56.450060
 30
0.0
 10
43.452473
 20
56.253174
 30
0.0
  0
SPLINE
  5
11f
100
AcDbEntity
  8
Layer_1
 62
7
100
AcDbSpline
 70
8
 71
3
 72
8
 73
4
 74
0
 40
0
 40
0
 40
0
 40
0
 40
1
 40
1
 40
1
 40
1
 10
43.452473
 20
56.253174
 30
0.0
 10
43.111875
 20
56.056288
 30
0.0
 10
42.902354
 20
55.692493
 30
0.0
 10
42.902981
 20
55.299084
 30
0.0
  0
LWPOLYLINE
  5
120
100
AcDbEntity
  8
Layer_1
 62
7
100
AcDbPolyline
 90
11
 70
0
 10
6.692914
 20
98.525844
 30
0.0
 10
0.132247
 20
91.965178
 30
0.0
 10
0.132247
 20
88.963851
 30
0.0
 10
38.387996
 20
88.963851
 30
0.0
 10
39.887995
 20
87.464192
 30
0.0
 10
39.887995
 20
86.786039
 30
0.0
 10
39.887995
 20
53.086029
 30
0.0
 10
38.387996
 20
51.586026
 30
0.0
 10
30.322889
 20
51.586026
 30
0.0
 10
30.334799
 20
32.379312
 30
0.0
 10
28.853977
 20
30.647006
 30
0.0
  0
LWPOLYLINE
  5
121
100
AcDbEntity
  8
Layer_1
 62
7
100
AcDbPolyline
 90
1
 70
1
 10
42.902981
 20
55.299084
 30
0.0
  0
SPLINE
  5
122
100
AcDbEntity
  8
Layer_1
 62
7
100
AcDbSpline
 70
8
 71
3
 72
8
 73
4
 74
0
 40
0
 40
0
 40
0
 40
0
 40
1
 40
1
 40
1
 40
1
 10
10.755253
 20
93.964529
 30
0.0
 10
10.755253
 20
93.571537
 30
0.0
 10
10.964912
 20
93.208397
 30
0.0
 10
11.305253
 20
93.011901
 30
0.0
  0
SPLINE
  5
123
100
AcDbEntity
  8
Layer_1
 62
7
100
AcDbSpline
 70
8
 71
3
 72
8
 73
4
 74
0
 40
0
 40
0
 40
0
 40
0
 40
1
 40
1
 40
1
 40
1
 10
11.305253
 20
93.011901
 30
0.0
 10
11.645595
 20
92.815405
 30
0.0
 10
12.064912
 20
92.815405
 30
0.0
 10
12.405254
 20
93.011901
 30
0.0
  0
SPLINE
  5
124
100
AcDbEntity
  8
Layer_1
 62
7
100
AcDbSpline
 70
8
 71
3
 72
8
 73
4
 74
0
 40
0
 40
0
 40
0
 40
0
 40
1
 40
1
 40
1
 40
1
 10
12.405254
 20
93.011901
 30
0.0
 10
12.745595
 20
93.208397
 30
0.0
 10
12.955254
 20
93.571537
 30
0.0
 10
12.955254
 20
93.964529
 30
0.0
  0
SPLINE
  5
125
100
AcDbEntity
  8
Layer_1
 62
7
100
AcDbSpline
 70
8
 71
3
 72
8
 73
4
 74
0
 40
0
 40
0
 40
0
 40
0
 40
1
 40
1
 40
1
 40
1
 10
12.955254
 20
93.964529
 30
0.0
 10
12.955254
 20
94.357522
 30
0.0
 10
12.745595
 20
94.720661
 30
0.0
 10
12.405254
 20
94.917157
 30
0.0
  0
SPLINE
  5
126
100
AcDbEntity
  8
Layer_1
 62
7
100
AcDbSpline
 70
8
 71
3
 72
8
 73
4
 74
0
 40
0
 40
0
 40
0
 40
0
 40
1
 40
1
 40
1
 40
1
 10
12.405254
 20
94.917157
 30
0.0
 10
12.064912
 20
95.113654
 30
0.0
 10
11.645595
 20
95.113654
 30
0.0
 10
11.305253
 20
94.917157
 30
0.0
  0
SPLINE
  5
127
100
AcDbEntity
  8
Layer_1
 62
7
100
AcDbSpline
 70
8
 71
3
 72
8
 73
4
 74
0
 40
0
 40
0
 40
0
 40
0
 40
1
 40
1
 40
1
 40
1
 10
11.305253
 20
94.917157
 30
0.0
 10
10.964912
 20
94.720661
 30
0.0
 10
10.755253
 20
94.357522
 30
0.0
 10
10.755253
 20
93.964529
 30
0.0
  0
LWPOLYLINE
  5
128
100
AcDbEntity
  8
Layer_1
 62
7
100
AcDbPolyline
 90
2
 70
0
 10
23.578259
 20
88.963851
 30
0.0
 10
0.132247
 20
88.963851
 30
0.0
  0
SPLINE
  5
129
100
AcDbEntity
  8
Layer_1
 62
7
100
AcDbSpline
 70
8
 71
3
 72
8
 73
4
 74
0
 40
0
 40
0
 40
0
 40
0
 40
1
 40
1
 40
1
 40
1
 10
31.953713
 20
91.463422
 30
0.0
 10
31.953713
 20
91.070430
 30
0.0
 10
32.163372
 20
90.707290
 30
0.0
 10
32.503713
 20
90.510794
 30
0.0
  0
SPLINE
  5
12a
100
AcDbEntity
  8
Layer_1
 62
7
100
AcDbSpline
 70
8
 71
3
 72
8
 73
4
 74
0
 40
0
 40
0
 40
0
 40
0
 40
1
 40
1
 40
1
 40
1
 10
32.503713
 20
90.510794
 30
0.0
 10
32.844054
 20
90.314298
 30
0.0
 10
33.263372
 20
90.314298
 30
0.0
 10
33.603713
 20
90.510794
 30
0.0
  0
SPLINE
  5
12b
100
AcDbEntity
  8
Layer_1
 62
7
100
AcDbSpline
 70
8
 71
3
 72
8
 73
4
 74
0
 40
0
 40
0
 40
0
 40
0
 40
1
 40
1
 40
1
 40
1
 10
33.603713
 20
90.510794
 30
0.0
 10
33.944054
 20
90.707290
 30
0.0
 10
34.153713
 20
91.070430
 30
0.0
 10
34.153713
 20
91.463422
 30
0.0
  0
SPLINE
  5
12c
100
AcDbEntity
  8
Layer_1
 62
7
100
AcDbSpline
 70
8
 71
3
 72
8
 73
4
 74
0
 40
0
 40
0
 40
0
 40
0
 40
1
 40
1
 40
1
 40
1
 10
34.153713
 20
91.463422
 30
0.0
 10
34.153713
 20
91.856414
 30
0.0
 10
33.944054
 20
92.219554
 30
0.0
 10
33.603713
 20
92.416050
 30
0.0
  0
SPLINE
  5
12d
100
AcDbEntity
  8
Layer_1
 62
7
100
AcDbSpline
 70
8
 71
3
 72
8
 73
4
 74
0
 40
0
 40
0
 40
0
 40
0
 40
1
 40
1
 40
1
 40
1
 10
33.603713
 20
92.416050
 30
0.0
 10
33.263372
 20
92.612546
 30
0.0
 10
32.844054
 20
92.612546
 30
0.0
 10
32.503713
 20
92.416050
 30
0.0
  0
SPLINE
  5
12e
100
AcDbEntity
  8
Layer_1
 62
7
100
AcDbSpline
 70
8
 71
3
 72
8
 73
4
 74
0
 40
0
 40
0
 40
0
 40
0
 40
1
 40
1
 40
1
 40
1
 10
32.503713
 20
92.416050
 30
0.0
 10
32.163372
 20
92.219554
 30
0.0
 10
31.953713
 20
91.856414
 30
0.0
 10
31.953713
 20
91.463422
 30
0.0
  0
LWPOLYLINE
  5
12f
100
AcDbEntity
  8
Layer_1
 62
7
100
AcDbPolyline
 90
1
 70
1
 10
10.755253
 20
93.964529
 30
0.0
  0
SPLINE
  5
130
100
AcDbEntity
  8
Layer_1
 62
7
100
AcDbSpline
 70
8
 71
3
 72
8
 73
4
 74
0
 40
0
 40
0
 40
0
 40
0
 40
1
 40
1
 40
1
 40
1
 10
21.380709
 20
11.481459
 30
0.0
 10
21.380472
 20
11.088309
 30
0.0
 10
21.590079
 20
10.724921
 30
0.0
 10
21.930518
 20
10.528278
 30
0.0
  0
SPLINE
  5
131
100
AcDbEntity
  8
Layer_1
 62
7
100
AcDbSpline
 70
8
 71
3
 72
8
 73
4
 74
0
 40
0
 40
0
 40
0
 40
0
 40
1
 40
1
 40
1
 40
1
 10
21.930518
 20
10.528278
 30
0.0
 10
22.270956
 20
10.331634
 30
0.0
 10
22.690463
 20
10.331634
 30
0.0
 10
23.030902
 20
10.528278
 30
0.0
  0
SPLINE
  5
132
100
AcDbEntity
  8
Layer_1
 62
7
100
AcDbSpline
 70
8
 71
3
 72
8
 73
4
 74
0
 40
0
 40
0
 40
0
 40
0
 40
1
 40
1
 40
1
 40
1
 10
23.030902
 20
10.528278
 30
0.0
 10
23.371341
 20
10.724921
 30
0.0
 10
23.580948
 20
11.088309
 30
0.0
 10
23.580711
 20
11.481459
 30
0.0
  0
SPLINE
  5
133
100
AcDbEntity
  8
Layer_1
 62
7
100
AcDbSpline
 70
8
 71
3
 72
8
 73
4
 74
0
 40
0
 40
0
 40
0
 40
0
 40
1
 40
1
 40
1
 40
1
 10
23.580711
 20
11.481459
 30
0.0
 10
23.580948
 20
11.874610
 30
0.0
 10
23.371341
 20
12.237997
 30
0.0
 10
23.030902
 20
12.434641
 30
0.0
  0
SPLINE
  5
134
100
AcDbEntity
  8
Layer_1
 62
7
100
AcDbSpline
 70
8
 71
3
 72
8
 73
4
 74
0
 40
0
 40
0
 40
0
 40
0
 40
1
 40
1
 40
1
 40
1
 10
23.030902
 20
12.434641
 30
0.0
 10
22.690463
 20
12.631285
 30
0.0
 10
22.270956
 20
12.631285
 30
0.0
 10
21.930518
 20
12.434641
 30
0.0
  0
SPLINE
  5
135
100
AcDbEntity
  8
Layer_1
 62
7
100
AcDbSpline
 70
8
 71
3
 72
8
 73
4
 74
0
 40
0
 40
0
 40
0
 40
0
 40
1
 40
1
 40
1
 40
1
 10
21.930518
 20
12.434641
 30
0.0
 10
21.590079
 20
12.237997
 30
0.0
 10
21.380472
 20
11.874610
 30
0.0
 10
21.380709
 20
11.481459
 30
0.0
  0
LWPOLYLINE
  5
136
100
AcDbEntity
  8
Layer_1
 62
7
100
AcDbPolyline
 90
1
 70
1
 10
31.953713
 20
91.463422
 30
0.0
  0
LWPOLYLINE
  5
137
100
AcDbEntity
  8
Layer_1
 62
7
100
AcDbPolyline
 90
1
 70
1
 10
21.380709
 20
11.481459
 30
0.0
  0
ENDSEC
  0
SECTION
  2
OBJECTS
  0
DICTIONARY
  5
C
330
0
100
AcDbDictionary
  3
ACAD_GROUP
350
D
  3
ACAD_MLINESTYLE
350
17
  0
DICTIONARY
  5
D
330
C
100
AcDbDictionary
  0
DICTIONARY
  5
1A
330
C
100
AcDbDictionary
  0
DICTIONARY
  5
17
330
C
100
AcDbDictionary
  3
STANDARD
350
18
  0
DICTIONARY
  5
19
330
C
100
AcDbDictionary
  0
ENDSEC
  0
EOF
