G04 #@! TF.GenerationSoftware,KiCad,Pcbnew,(5.1.9)-1*
G04 #@! TF.CreationDate,2021-09-28T02:04:04-07:00*
G04 #@! TF.ProjectId,keyboard,6b657962-6f61-4726-942e-6b696361645f,rev?*
G04 #@! TF.SameCoordinates,Original*
G04 #@! TF.FileFunction,Soldermask,Bot*
G04 #@! TF.FilePolarity,Negative*
%FSLAX46Y46*%
G04 Gerber Fmt 4.6, Leading zero omitted, Abs format (unit mm)*
G04 Created by KiCad (PCBNEW (5.1.9)-1) date 2021-09-28 02:04:04*
%MOMM*%
%LPD*%
G01*
G04 APERTURE LIST*
G04 #@! TA.AperFunction,Profile*
%ADD10C,0.200000*%
G04 #@! TD*
%ADD11R,1.397000X1.600000*%
%ADD12C,2.250000*%
%ADD13C,3.987800*%
%ADD14C,1.750000*%
%ADD15C,3.048000*%
%ADD16R,1.752600X1.752600*%
%ADD17C,1.752600*%
%ADD18C,6.400000*%
%ADD19C,3.600000*%
G04 APERTURE END LIST*
D10*
X47481250Y-13000000D02*
X181118750Y-13000000D01*
X186500000Y-7000000D02*
X181118750Y-13000000D01*
X186500000Y-7000000D02*
X210168750Y-7000000D01*
X212550000Y-13000000D02*
X210168750Y-7000000D01*
X42100000Y-7000000D02*
X47481250Y-13000000D01*
X16050000Y-13000000D02*
X18431250Y-7000000D01*
X207168750Y-100000000D02*
X212550000Y-92868750D01*
X16050000Y-92868750D02*
X21431250Y-100000000D01*
X18431250Y-7000000D02*
X42100000Y-7000000D01*
X212550000Y-13000000D02*
X212550000Y-92868750D01*
X207168750Y-100000000D02*
X21431250Y-100000000D01*
X16050000Y-92868750D02*
X16050000Y-13000000D01*
D11*
X132003800Y-28165600D03*
X132003800Y-30965600D03*
X74828400Y-28165600D03*
X74828400Y-30965600D03*
X38025000Y-28175000D03*
X38025000Y-30975000D03*
X57075000Y-28175000D03*
X57075000Y-30975000D03*
X77597000Y-28165600D03*
X77597000Y-30965600D03*
X134721600Y-28165600D03*
X134721600Y-30965600D03*
X152325000Y-28175000D03*
X152325000Y-30975000D03*
X171476600Y-28175000D03*
X171476600Y-30975000D03*
X190526600Y-28175000D03*
X190526600Y-30975000D03*
X209576600Y-28175000D03*
X209576600Y-30975000D03*
X38126600Y-47225000D03*
X38126600Y-50025000D03*
X57176600Y-47225000D03*
X57176600Y-50025000D03*
X76226600Y-47225000D03*
X76226600Y-50025000D03*
X95276600Y-47225000D03*
X95276600Y-50025000D03*
X114326600Y-47225000D03*
X114326600Y-50025000D03*
X133376600Y-47225000D03*
X133376600Y-50025000D03*
X152426600Y-47225000D03*
X152426600Y-50025000D03*
X171476600Y-47225000D03*
X171476600Y-50025000D03*
X190526600Y-47225000D03*
X190526600Y-50025000D03*
X209576600Y-47225000D03*
X209576600Y-50025000D03*
X47651600Y-66275000D03*
X47651600Y-69075000D03*
X66701600Y-66275000D03*
X66701600Y-69075000D03*
X85751600Y-66275000D03*
X85751600Y-69075000D03*
X104801600Y-66275000D03*
X104801600Y-69075000D03*
X123851600Y-66275000D03*
X123851600Y-69075000D03*
X142901600Y-66275000D03*
X142901600Y-69075000D03*
X161951600Y-66275000D03*
X161951600Y-69075000D03*
X181001600Y-66275000D03*
X181001600Y-69075000D03*
X200051600Y-66275000D03*
X200051600Y-69075000D03*
X95302000Y-89058800D03*
X95302000Y-91858800D03*
X123877000Y-89058800D03*
X123877000Y-91858800D03*
X152452000Y-89058800D03*
X152452000Y-91858800D03*
D12*
X88265000Y-83645000D03*
X81915000Y-86185000D03*
D13*
X85725000Y-88725000D03*
D14*
X80645000Y-88725000D03*
X90805000Y-88725000D03*
D15*
X66675000Y-95710000D03*
X104775000Y-95710000D03*
D13*
X66675000Y-80470000D03*
X104775000Y-80470000D03*
D12*
X145415000Y-83645000D03*
X139065000Y-86185000D03*
D13*
X142875000Y-88725000D03*
D14*
X137795000Y-88725000D03*
X147955000Y-88725000D03*
D15*
X123825000Y-95710000D03*
X161925000Y-95710000D03*
D13*
X123825000Y-80470000D03*
X161925000Y-80470000D03*
X161925000Y-80470000D03*
X66675000Y-80470000D03*
D15*
X161925000Y-95710000D03*
X66675000Y-95710000D03*
D14*
X119380000Y-88725000D03*
X109220000Y-88725000D03*
D12*
X110490000Y-86185000D03*
D13*
X114300000Y-88725000D03*
D12*
X116840000Y-83645000D03*
X31115000Y-23495000D03*
D13*
X28575000Y-28575000D03*
D12*
X24765000Y-26035000D03*
D14*
X23495000Y-28575000D03*
X33655000Y-28575000D03*
D12*
X50165000Y-23495000D03*
D13*
X47625000Y-28575000D03*
D12*
X43815000Y-26035000D03*
D14*
X42545000Y-28575000D03*
X52705000Y-28575000D03*
D12*
X69215000Y-23495000D03*
D13*
X66675000Y-28575000D03*
D12*
X62865000Y-26035000D03*
D14*
X61595000Y-28575000D03*
X71755000Y-28575000D03*
D12*
X88265000Y-23495000D03*
D13*
X85725000Y-28575000D03*
D12*
X81915000Y-26035000D03*
D14*
X80645000Y-28575000D03*
X90805000Y-28575000D03*
D12*
X107315000Y-23495000D03*
D13*
X104775000Y-28575000D03*
D12*
X100965000Y-26035000D03*
D14*
X99695000Y-28575000D03*
X109855000Y-28575000D03*
D12*
X126365000Y-23495000D03*
D13*
X123825000Y-28575000D03*
D12*
X120015000Y-26035000D03*
D14*
X118745000Y-28575000D03*
X128905000Y-28575000D03*
D12*
X145415000Y-23495000D03*
D13*
X142875000Y-28575000D03*
D12*
X139065000Y-26035000D03*
D14*
X137795000Y-28575000D03*
X147955000Y-28575000D03*
D12*
X164465000Y-23495000D03*
D13*
X161925000Y-28575000D03*
D12*
X158115000Y-26035000D03*
D14*
X156845000Y-28575000D03*
X167005000Y-28575000D03*
D12*
X183515000Y-23495000D03*
D13*
X180975000Y-28575000D03*
D12*
X177165000Y-26035000D03*
D14*
X175895000Y-28575000D03*
X186055000Y-28575000D03*
D12*
X202565000Y-23495000D03*
D13*
X200025000Y-28575000D03*
D12*
X196215000Y-26035000D03*
D14*
X194945000Y-28575000D03*
X205105000Y-28575000D03*
D12*
X31115000Y-42545000D03*
D13*
X28575000Y-47625000D03*
D12*
X24765000Y-45085000D03*
D14*
X23495000Y-47625000D03*
X33655000Y-47625000D03*
D12*
X50165000Y-42545000D03*
D13*
X47625000Y-47625000D03*
D12*
X43815000Y-45085000D03*
D14*
X42545000Y-47625000D03*
X52705000Y-47625000D03*
D12*
X69215000Y-42545000D03*
D13*
X66675000Y-47625000D03*
D12*
X62865000Y-45085000D03*
D14*
X61595000Y-47625000D03*
X71755000Y-47625000D03*
D12*
X88265000Y-42545000D03*
D13*
X85725000Y-47625000D03*
D12*
X81915000Y-45085000D03*
D14*
X80645000Y-47625000D03*
X90805000Y-47625000D03*
D12*
X107315000Y-42545000D03*
D13*
X104775000Y-47625000D03*
D12*
X100965000Y-45085000D03*
D14*
X99695000Y-47625000D03*
X109855000Y-47625000D03*
D12*
X126365000Y-42545000D03*
D13*
X123825000Y-47625000D03*
D12*
X120015000Y-45085000D03*
D14*
X118745000Y-47625000D03*
X128905000Y-47625000D03*
D12*
X145415000Y-42545000D03*
D13*
X142875000Y-47625000D03*
D12*
X139065000Y-45085000D03*
D14*
X137795000Y-47625000D03*
X147955000Y-47625000D03*
D12*
X164465000Y-42545000D03*
D13*
X161925000Y-47625000D03*
D12*
X158115000Y-45085000D03*
D14*
X156845000Y-47625000D03*
X167005000Y-47625000D03*
D12*
X183515000Y-42545000D03*
D13*
X180975000Y-47625000D03*
D12*
X177165000Y-45085000D03*
D14*
X175895000Y-47625000D03*
X186055000Y-47625000D03*
D12*
X202565000Y-42545000D03*
D13*
X200025000Y-47625000D03*
D12*
X196215000Y-45085000D03*
D14*
X194945000Y-47625000D03*
X205105000Y-47625000D03*
D12*
X40640000Y-61595000D03*
D13*
X38100000Y-66675000D03*
D12*
X34290000Y-64135000D03*
D14*
X33020000Y-66675000D03*
X43180000Y-66675000D03*
D12*
X59690000Y-61595000D03*
D13*
X57150000Y-66675000D03*
D12*
X53340000Y-64135000D03*
D14*
X52070000Y-66675000D03*
X62230000Y-66675000D03*
D12*
X78740000Y-61595000D03*
D13*
X76200000Y-66675000D03*
D12*
X72390000Y-64135000D03*
D14*
X71120000Y-66675000D03*
X81280000Y-66675000D03*
D12*
X97790000Y-61595000D03*
D13*
X95250000Y-66675000D03*
D12*
X91440000Y-64135000D03*
D14*
X90170000Y-66675000D03*
X100330000Y-66675000D03*
D12*
X116840000Y-61595000D03*
D13*
X114300000Y-66675000D03*
D12*
X110490000Y-64135000D03*
D14*
X109220000Y-66675000D03*
X119380000Y-66675000D03*
D12*
X135890000Y-61595000D03*
D13*
X133350000Y-66675000D03*
D12*
X129540000Y-64135000D03*
D14*
X128270000Y-66675000D03*
X138430000Y-66675000D03*
D12*
X154940000Y-61595000D03*
D13*
X152400000Y-66675000D03*
D12*
X148590000Y-64135000D03*
D14*
X147320000Y-66675000D03*
X157480000Y-66675000D03*
D12*
X173990000Y-61595000D03*
D13*
X171450000Y-66675000D03*
D12*
X167640000Y-64135000D03*
D14*
X166370000Y-66675000D03*
X176530000Y-66675000D03*
D12*
X193040000Y-61595000D03*
D13*
X190500000Y-66675000D03*
D12*
X186690000Y-64135000D03*
D14*
X185420000Y-66675000D03*
X195580000Y-66675000D03*
D16*
X97129600Y-14706600D03*
D17*
X97129600Y-17246600D03*
X97129600Y-19786600D03*
X97129600Y-22326600D03*
X97129600Y-24866600D03*
X97129600Y-27406600D03*
X97129600Y-29946600D03*
X97129600Y-32486600D03*
X97129600Y-35026600D03*
X97129600Y-37566600D03*
X97129600Y-40106600D03*
X112369600Y-42646600D03*
X112369600Y-40106600D03*
X112369600Y-37566600D03*
X112369600Y-35026600D03*
X112369600Y-32486600D03*
X112369600Y-29946600D03*
X112369600Y-27406600D03*
X112369600Y-24866600D03*
X112369600Y-22326600D03*
X112369600Y-19786600D03*
X112369600Y-17246600D03*
X97129600Y-42646600D03*
X112369600Y-14706600D03*
D18*
X190500000Y-88725000D03*
D19*
X190500000Y-88725000D03*
D18*
X38100000Y-88725000D03*
D19*
X38100000Y-88725000D03*
D18*
X190500000Y-13000000D03*
D19*
X190500000Y-13000000D03*
D18*
X38100000Y-13000000D03*
D19*
X38100000Y-13000000D03*
M02*
