G04 #@! TF.GenerationSoftware,KiCad,Pcbnew,(5.1.9)-1*
G04 #@! TF.CreationDate,2021-09-28T02:04:04-07:00*
G04 #@! TF.ProjectId,keyboard,6b657962-6f61-4726-942e-6b696361645f,rev?*
G04 #@! TF.SameCoordinates,Original*
G04 #@! TF.FileFunction,Copper,L2,Bot*
G04 #@! TF.FilePolarity,Positive*
%FSLAX46Y46*%
G04 Gerber Fmt 4.6, Leading zero omitted, Abs format (unit mm)*
G04 Created by KiCad (PCBNEW (5.1.9)-1) date 2021-09-28 02:04:04*
%MOMM*%
%LPD*%
G01*
G04 APERTURE LIST*
G04 #@! TA.AperFunction,Profile*
%ADD10C,0.200000*%
G04 #@! TD*
G04 #@! TA.AperFunction,SMDPad,CuDef*
%ADD11R,1.397000X1.600000*%
G04 #@! TD*
G04 #@! TA.AperFunction,ComponentPad*
%ADD12C,2.250000*%
G04 #@! TD*
G04 #@! TA.AperFunction,ComponentPad*
%ADD13R,1.752600X1.752600*%
G04 #@! TD*
G04 #@! TA.AperFunction,ComponentPad*
%ADD14C,1.752600*%
G04 #@! TD*
G04 #@! TA.AperFunction,ConnectorPad*
%ADD15C,6.400000*%
G04 #@! TD*
G04 #@! TA.AperFunction,ComponentPad*
%ADD16C,3.600000*%
G04 #@! TD*
G04 #@! TA.AperFunction,ViaPad*
%ADD17C,0.800000*%
G04 #@! TD*
G04 #@! TA.AperFunction,Conductor*
%ADD18C,0.250000*%
G04 #@! TD*
G04 APERTURE END LIST*
D10*
X47481250Y-13000000D02*
X181118750Y-13000000D01*
X186500000Y-7000000D02*
X181118750Y-13000000D01*
X186500000Y-7000000D02*
X210168750Y-7000000D01*
X212550000Y-13000000D02*
X210168750Y-7000000D01*
X42100000Y-7000000D02*
X47481250Y-13000000D01*
X16050000Y-13000000D02*
X18431250Y-7000000D01*
X207168750Y-100000000D02*
X212550000Y-92868750D01*
X16050000Y-92868750D02*
X21431250Y-100000000D01*
X18431250Y-7000000D02*
X42100000Y-7000000D01*
X212550000Y-13000000D02*
X212550000Y-92868750D01*
X207168750Y-100000000D02*
X21431250Y-100000000D01*
X16050000Y-92868750D02*
X16050000Y-13000000D01*
D11*
X132003800Y-28165600D03*
X132003800Y-30965600D03*
X74828400Y-28165600D03*
X74828400Y-30965600D03*
X38025000Y-28175000D03*
X38025000Y-30975000D03*
X57075000Y-28175000D03*
X57075000Y-30975000D03*
X77597000Y-28165600D03*
X77597000Y-30965600D03*
X134721600Y-28165600D03*
X134721600Y-30965600D03*
X152325000Y-28175000D03*
X152325000Y-30975000D03*
X171476600Y-28175000D03*
X171476600Y-30975000D03*
X190526600Y-28175000D03*
X190526600Y-30975000D03*
X209576600Y-28175000D03*
X209576600Y-30975000D03*
X38126600Y-47225000D03*
X38126600Y-50025000D03*
X57176600Y-47225000D03*
X57176600Y-50025000D03*
X76226600Y-47225000D03*
X76226600Y-50025000D03*
X95276600Y-47225000D03*
X95276600Y-50025000D03*
X114326600Y-47225000D03*
X114326600Y-50025000D03*
X133376600Y-47225000D03*
X133376600Y-50025000D03*
X152426600Y-47225000D03*
X152426600Y-50025000D03*
X171476600Y-47225000D03*
X171476600Y-50025000D03*
X190526600Y-47225000D03*
X190526600Y-50025000D03*
X209576600Y-47225000D03*
X209576600Y-50025000D03*
X47651600Y-66275000D03*
X47651600Y-69075000D03*
X66701600Y-66275000D03*
X66701600Y-69075000D03*
X85751600Y-66275000D03*
X85751600Y-69075000D03*
X104801600Y-66275000D03*
X104801600Y-69075000D03*
X123851600Y-66275000D03*
X123851600Y-69075000D03*
X142901600Y-66275000D03*
X142901600Y-69075000D03*
X161951600Y-66275000D03*
X161951600Y-69075000D03*
X181001600Y-66275000D03*
X181001600Y-69075000D03*
X200051600Y-66275000D03*
X200051600Y-69075000D03*
X95302000Y-89058800D03*
X95302000Y-91858800D03*
X123877000Y-89058800D03*
X123877000Y-91858800D03*
X152452000Y-89058800D03*
X152452000Y-91858800D03*
D12*
X88265000Y-83645000D03*
X81915000Y-86185000D03*
X145415000Y-83645000D03*
X139065000Y-86185000D03*
X110490000Y-86185000D03*
X116840000Y-83645000D03*
X31115000Y-23495000D03*
X24765000Y-26035000D03*
X50165000Y-23495000D03*
X43815000Y-26035000D03*
X69215000Y-23495000D03*
X62865000Y-26035000D03*
X88265000Y-23495000D03*
X81915000Y-26035000D03*
X107315000Y-23495000D03*
X100965000Y-26035000D03*
X126365000Y-23495000D03*
X120015000Y-26035000D03*
X145415000Y-23495000D03*
X139065000Y-26035000D03*
X164465000Y-23495000D03*
X158115000Y-26035000D03*
X183515000Y-23495000D03*
X177165000Y-26035000D03*
X202565000Y-23495000D03*
X196215000Y-26035000D03*
X31115000Y-42545000D03*
X24765000Y-45085000D03*
X50165000Y-42545000D03*
X43815000Y-45085000D03*
X69215000Y-42545000D03*
X62865000Y-45085000D03*
X88265000Y-42545000D03*
X81915000Y-45085000D03*
X107315000Y-42545000D03*
X100965000Y-45085000D03*
X126365000Y-42545000D03*
X120015000Y-45085000D03*
X145415000Y-42545000D03*
X139065000Y-45085000D03*
X164465000Y-42545000D03*
X158115000Y-45085000D03*
X183515000Y-42545000D03*
X177165000Y-45085000D03*
X202565000Y-42545000D03*
X196215000Y-45085000D03*
X40640000Y-61595000D03*
X34290000Y-64135000D03*
X59690000Y-61595000D03*
X53340000Y-64135000D03*
X78740000Y-61595000D03*
X72390000Y-64135000D03*
X97790000Y-61595000D03*
X91440000Y-64135000D03*
X116840000Y-61595000D03*
X110490000Y-64135000D03*
X135890000Y-61595000D03*
X129540000Y-64135000D03*
X154940000Y-61595000D03*
X148590000Y-64135000D03*
X173990000Y-61595000D03*
X167640000Y-64135000D03*
X193040000Y-61595000D03*
X186690000Y-64135000D03*
D13*
X97129600Y-14706600D03*
D14*
X97129600Y-17246600D03*
X97129600Y-19786600D03*
X97129600Y-22326600D03*
X97129600Y-24866600D03*
X97129600Y-27406600D03*
X97129600Y-29946600D03*
X97129600Y-32486600D03*
X97129600Y-35026600D03*
X97129600Y-37566600D03*
X97129600Y-40106600D03*
X112369600Y-42646600D03*
X112369600Y-40106600D03*
X112369600Y-37566600D03*
X112369600Y-35026600D03*
X112369600Y-32486600D03*
X112369600Y-29946600D03*
X112369600Y-27406600D03*
X112369600Y-24866600D03*
X112369600Y-22326600D03*
X112369600Y-19786600D03*
X112369600Y-17246600D03*
X97129600Y-42646600D03*
X112369600Y-14706600D03*
D15*
X190500000Y-88725000D03*
D16*
X190500000Y-88725000D03*
D15*
X38100000Y-88725000D03*
D16*
X38100000Y-88725000D03*
D15*
X190500000Y-13000000D03*
D16*
X190500000Y-13000000D03*
D15*
X38100000Y-13000000D03*
D16*
X38100000Y-13000000D03*
D17*
X97129600Y-51968400D03*
D18*
X209576600Y-31225000D02*
X190526600Y-31225000D01*
X190526600Y-31225000D02*
X171476600Y-31225000D01*
X171476600Y-31225000D02*
X152325000Y-31225000D01*
X134731000Y-31225000D02*
X134721600Y-31215600D01*
X152325000Y-31225000D02*
X134731000Y-31225000D01*
X134721600Y-31215600D02*
X132003800Y-31215600D01*
X77597000Y-31215600D02*
X74828400Y-31215600D01*
X57084400Y-31215600D02*
X57075000Y-31225000D01*
X74828400Y-31215600D02*
X57084400Y-31215600D01*
X57075000Y-31225000D02*
X38025000Y-31225000D01*
X80112600Y-33731200D02*
X77597000Y-31215600D01*
X129488200Y-33731200D02*
X80112600Y-33731200D01*
X132003800Y-31215600D02*
X129488200Y-33731200D01*
X38025000Y-31225000D02*
X38025000Y-33503800D01*
X39547800Y-35026600D02*
X97129600Y-35026600D01*
X38025000Y-33503800D02*
X39547800Y-35026600D01*
X209576600Y-50275000D02*
X190526600Y-50275000D01*
X190526600Y-50275000D02*
X171476600Y-50275000D01*
X171476600Y-50275000D02*
X152426600Y-50275000D01*
X152426600Y-50275000D02*
X133376600Y-50275000D01*
X133376600Y-50275000D02*
X114326600Y-50275000D01*
X114326600Y-50275000D02*
X95276600Y-50275000D01*
X95276600Y-50275000D02*
X76226600Y-50275000D01*
X76226600Y-50275000D02*
X57176600Y-50275000D01*
X57176600Y-50275000D02*
X38126600Y-50275000D01*
X38126600Y-50275000D02*
X38126600Y-51791800D01*
X38126600Y-51791800D02*
X39573200Y-53238400D01*
X39573200Y-53238400D02*
X95859600Y-53238400D01*
X95859600Y-53238400D02*
X97129600Y-51968400D01*
X97129600Y-51968400D02*
X97129600Y-51968400D01*
X200051600Y-69325000D02*
X181001600Y-69325000D01*
X181001600Y-69325000D02*
X161951600Y-69325000D01*
X161951600Y-69325000D02*
X142901600Y-69325000D01*
X142901600Y-69325000D02*
X123851600Y-69325000D01*
X123851600Y-69325000D02*
X104801600Y-69325000D01*
X104801600Y-69325000D02*
X85751600Y-69325000D01*
X85751600Y-69325000D02*
X66701600Y-69325000D01*
X66701600Y-69325000D02*
X47651600Y-69325000D01*
X47651600Y-69325000D02*
X43476400Y-69325000D01*
X43476400Y-69325000D02*
X41935400Y-70866000D01*
X41935400Y-70866000D02*
X32410400Y-70866000D01*
X32410400Y-70866000D02*
X20116800Y-58572400D01*
X20116800Y-58572400D02*
X20116800Y-44500800D01*
X24511000Y-40106600D02*
X97129600Y-40106600D01*
X20116800Y-44500800D02*
X24511000Y-40106600D01*
X152452000Y-92108800D02*
X123877000Y-92108800D01*
X123877000Y-92108800D02*
X95302000Y-92108800D01*
X95302000Y-92108800D02*
X72423800Y-92108800D01*
X72423800Y-92108800D02*
X52070000Y-71755000D01*
X26414590Y-37566600D02*
X97129600Y-37566600D01*
X19666791Y-44314399D02*
X26414590Y-37566600D01*
X19666790Y-58758800D02*
X19666791Y-44314399D01*
X32662990Y-71755000D02*
X19666790Y-58758800D01*
X52070000Y-71755000D02*
X32662990Y-71755000D01*
X38025000Y-27925000D02*
X38025000Y-25452000D01*
X36068000Y-23495000D02*
X31115000Y-23495000D01*
X38025000Y-25452000D02*
X36068000Y-23495000D01*
X57075000Y-27925000D02*
X57075000Y-25172600D01*
X55397400Y-23495000D02*
X50165000Y-23495000D01*
X57075000Y-25172600D02*
X55397400Y-23495000D01*
X74828400Y-27915600D02*
X74828400Y-25577800D01*
X72745600Y-23495000D02*
X69215000Y-23495000D01*
X74828400Y-25577800D02*
X72745600Y-23495000D01*
X77597000Y-27915600D02*
X77597000Y-25222200D01*
X79324200Y-23495000D02*
X88265000Y-23495000D01*
X77597000Y-25222200D02*
X79324200Y-23495000D01*
X107347901Y-23527901D02*
X122587901Y-23527901D01*
X107315000Y-23495000D02*
X107347901Y-23527901D01*
X122587901Y-23527901D02*
X124637800Y-25577800D01*
X124637800Y-25577800D02*
X131368800Y-25577800D01*
X132003800Y-26212800D02*
X132003800Y-27915600D01*
X131368800Y-25577800D02*
X132003800Y-26212800D01*
X134721600Y-27915600D02*
X134721600Y-25146000D01*
X133070600Y-23495000D02*
X126365000Y-23495000D01*
X134721600Y-25146000D02*
X133070600Y-23495000D01*
X152325000Y-27925000D02*
X152325000Y-24817000D01*
X151003000Y-23495000D02*
X145415000Y-23495000D01*
X152325000Y-24817000D02*
X151003000Y-23495000D01*
X171476600Y-27925000D02*
X171476600Y-25172600D01*
X169799000Y-23495000D02*
X164465000Y-23495000D01*
X171476600Y-25172600D02*
X169799000Y-23495000D01*
X190526600Y-27925000D02*
X190526600Y-25045600D01*
X188976000Y-23495000D02*
X183515000Y-23495000D01*
X190526600Y-25045600D02*
X188976000Y-23495000D01*
X209576600Y-27925000D02*
X209576600Y-24893200D01*
X208178400Y-23495000D02*
X202565000Y-23495000D01*
X209576600Y-24893200D02*
X208178400Y-23495000D01*
X38126600Y-46975000D02*
X38126600Y-44273400D01*
X36398200Y-42545000D02*
X31115000Y-42545000D01*
X38126600Y-44273400D02*
X36398200Y-42545000D01*
X57176600Y-46975000D02*
X57176600Y-44171800D01*
X55549800Y-42545000D02*
X50165000Y-42545000D01*
X57176600Y-44171800D02*
X55549800Y-42545000D01*
X76226600Y-46975000D02*
X76226600Y-44298800D01*
X74472800Y-42545000D02*
X69215000Y-42545000D01*
X76226600Y-44298800D02*
X74472800Y-42545000D01*
X95276600Y-46975000D02*
X95276600Y-44222600D01*
X93599000Y-42545000D02*
X88265000Y-42545000D01*
X95276600Y-44222600D02*
X93599000Y-42545000D01*
X114326600Y-46975000D02*
X114326600Y-45695800D01*
X114326600Y-45695800D02*
X113665000Y-45034200D01*
X113665000Y-45034200D02*
X107696000Y-45034200D01*
X107315000Y-44653200D02*
X107315000Y-42545000D01*
X107696000Y-45034200D02*
X107315000Y-44653200D01*
X133376600Y-46975000D02*
X133376600Y-44019400D01*
X131902200Y-42545000D02*
X126365000Y-42545000D01*
X133376600Y-44019400D02*
X131902200Y-42545000D01*
X152426600Y-46975000D02*
X152426600Y-44425800D01*
X150545800Y-42545000D02*
X145415000Y-42545000D01*
X152426600Y-44425800D02*
X150545800Y-42545000D01*
X171476600Y-46975000D02*
X171476600Y-44222600D01*
X169799000Y-42545000D02*
X164465000Y-42545000D01*
X171476600Y-44222600D02*
X169799000Y-42545000D01*
X190526600Y-46975000D02*
X190526600Y-44400400D01*
X188671200Y-42545000D02*
X183515000Y-42545000D01*
X190526600Y-44400400D02*
X188671200Y-42545000D01*
X209576600Y-46975000D02*
X209576600Y-44502000D01*
X207619600Y-42545000D02*
X202565000Y-42545000D01*
X209576600Y-44502000D02*
X207619600Y-42545000D01*
X47651600Y-66025000D02*
X47651600Y-62967800D01*
X46278800Y-61595000D02*
X40640000Y-61595000D01*
X47651600Y-62967800D02*
X46278800Y-61595000D01*
X66701600Y-66025000D02*
X66701600Y-63399600D01*
X64897000Y-61595000D02*
X59690000Y-61595000D01*
X66701600Y-63399600D02*
X64897000Y-61595000D01*
X85751600Y-66025000D02*
X85751600Y-63298000D01*
X84048600Y-61595000D02*
X78740000Y-61595000D01*
X85751600Y-63298000D02*
X84048600Y-61595000D01*
X104801600Y-66025000D02*
X104801600Y-63298000D01*
X103098600Y-61595000D02*
X97790000Y-61595000D01*
X104801600Y-63298000D02*
X103098600Y-61595000D01*
X123851600Y-66025000D02*
X123851600Y-63221800D01*
X122224800Y-61595000D02*
X116840000Y-61595000D01*
X123851600Y-63221800D02*
X122224800Y-61595000D01*
X142901600Y-66025000D02*
X142901600Y-62891600D01*
X141605000Y-61595000D02*
X135890000Y-61595000D01*
X142901600Y-62891600D02*
X141605000Y-61595000D01*
X161951600Y-66025000D02*
X161951600Y-63221800D01*
X160324800Y-61595000D02*
X154940000Y-61595000D01*
X161951600Y-63221800D02*
X160324800Y-61595000D01*
X181001600Y-66025000D02*
X181001600Y-63298000D01*
X179298600Y-61595000D02*
X173990000Y-61595000D01*
X181001600Y-63298000D02*
X179298600Y-61595000D01*
X200051600Y-66025000D02*
X200051600Y-63272600D01*
X198374000Y-61595000D02*
X193040000Y-61595000D01*
X200051600Y-63272600D02*
X198374000Y-61595000D01*
X95302000Y-88808800D02*
X95302000Y-85319800D01*
X93627200Y-83645000D02*
X88265000Y-83645000D01*
X95302000Y-85319800D02*
X93627200Y-83645000D01*
X123877000Y-88808800D02*
X123877000Y-85218200D01*
X122303800Y-83645000D02*
X116840000Y-83645000D01*
X123877000Y-85218200D02*
X122303800Y-83645000D01*
X152452000Y-88808800D02*
X152452000Y-85624600D01*
X150472400Y-83645000D02*
X145415000Y-83645000D01*
X152452000Y-85624600D02*
X150472400Y-83645000D01*
M02*
