M48
; DRILL file {KiCad (5.1.9)-1} date 09/28/21 02:04:10
; FORMAT={-:-/ absolute / metric / decimal}
; #@! TF.CreationDate,2021-09-28T02:04:10-07:00
; #@! TF.GenerationSoftware,Kicad,Pcbnew,(5.1.9)-1
FMAT,2
METRIC
T1C0.400
T2C1.092
T3C1.250
T4C3.200
T5C1.750
T6C3.048
T7C3.988
%
G90
G05
T1
X97.13Y-51.968
T2
X97.13Y-14.707
X97.13Y-17.247
X97.13Y-19.787
X97.13Y-22.327
X97.13Y-24.867
X97.13Y-27.407
X97.13Y-29.947
X97.13Y-32.487
X97.13Y-35.027
X97.13Y-37.567
X97.13Y-40.107
X97.13Y-42.647
X112.37Y-14.707
X112.37Y-17.247
X112.37Y-19.787
X112.37Y-22.327
X112.37Y-24.867
X112.37Y-27.407
X112.37Y-29.947
X112.37Y-32.487
X112.37Y-35.027
X112.37Y-37.567
X112.37Y-40.107
X112.37Y-42.647
T3
X24.765Y-26.035
X24.765Y-45.085
X31.115Y-23.495
X31.115Y-42.545
X34.29Y-64.135
X40.64Y-61.595
X43.815Y-26.035
X43.815Y-45.085
X50.165Y-23.495
X50.165Y-42.545
X53.34Y-64.135
X59.69Y-61.595
X62.865Y-26.035
X62.865Y-45.085
X69.215Y-23.495
X69.215Y-42.545
X72.39Y-64.135
X78.74Y-61.595
X81.915Y-26.035
X81.915Y-45.085
X81.915Y-86.185
X88.265Y-23.495
X88.265Y-42.545
X88.265Y-83.645
X91.44Y-64.135
X97.79Y-61.595
X100.965Y-26.035
X100.965Y-45.085
X107.315Y-23.495
X107.315Y-42.545
X110.49Y-64.135
X110.49Y-86.185
X116.84Y-61.595
X116.84Y-83.645
X120.015Y-26.035
X120.015Y-45.085
X126.365Y-23.495
X126.365Y-42.545
X129.54Y-64.135
X135.89Y-61.595
X139.065Y-26.035
X139.065Y-45.085
X139.065Y-86.185
X145.415Y-23.495
X145.415Y-42.545
X145.415Y-83.645
X148.59Y-64.135
X154.94Y-61.595
X158.115Y-26.035
X158.115Y-45.085
X164.465Y-23.495
X164.465Y-42.545
X167.64Y-64.135
X173.99Y-61.595
X177.165Y-26.035
X177.165Y-45.085
X183.515Y-23.495
X183.515Y-42.545
X186.69Y-64.135
X193.04Y-61.595
X196.215Y-26.035
X196.215Y-45.085
X202.565Y-23.495
X202.565Y-42.545
T4
X38.1Y-13.0
X38.1Y-88.725
X190.5Y-13.0
X190.5Y-88.725
T5
X23.495Y-28.575
X23.495Y-47.625
X33.02Y-66.675
X33.655Y-28.575
X33.655Y-47.625
X42.545Y-28.575
X42.545Y-47.625
X43.18Y-66.675
X52.07Y-66.675
X52.705Y-28.575
X52.705Y-47.625
X61.595Y-28.575
X61.595Y-47.625
X62.23Y-66.675
X71.12Y-66.675
X71.755Y-28.575
X71.755Y-47.625
X80.645Y-28.575
X80.645Y-47.625
X80.645Y-88.725
X81.28Y-66.675
X90.17Y-66.675
X90.805Y-28.575
X90.805Y-47.625
X90.805Y-88.725
X99.695Y-28.575
X99.695Y-47.625
X100.33Y-66.675
X109.22Y-66.675
X109.22Y-88.725
X109.855Y-28.575
X109.855Y-47.625
X118.745Y-28.575
X118.745Y-47.625
X119.38Y-66.675
X119.38Y-88.725
X128.27Y-66.675
X128.905Y-28.575
X128.905Y-47.625
X137.795Y-28.575
X137.795Y-47.625
X137.795Y-88.725
X138.43Y-66.675
X147.32Y-66.675
X147.955Y-28.575
X147.955Y-47.625
X147.955Y-88.725
X156.845Y-28.575
X156.845Y-47.625
X157.48Y-66.675
X166.37Y-66.675
X167.005Y-28.575
X167.005Y-47.625
X175.895Y-28.575
X175.895Y-47.625
X176.53Y-66.675
X185.42Y-66.675
X186.055Y-28.575
X186.055Y-47.625
X194.945Y-28.575
X194.945Y-47.625
X195.58Y-66.675
X205.105Y-28.575
X205.105Y-47.625
T6
X66.675Y-95.71
X66.675Y-95.71
X104.775Y-95.71
X123.825Y-95.71
X161.925Y-95.71
X161.925Y-95.71
T7
X28.575Y-28.575
X28.575Y-47.625
X38.1Y-66.675
X47.625Y-28.575
X47.625Y-47.625
X57.15Y-66.675
X66.675Y-28.575
X66.675Y-47.625
X66.675Y-80.47
X66.675Y-80.47
X76.2Y-66.675
X85.725Y-28.575
X85.725Y-47.625
X85.725Y-88.725
X95.25Y-66.675
X104.775Y-28.575
X104.775Y-47.625
X104.775Y-80.47
X114.3Y-66.675
X114.3Y-88.725
X123.825Y-28.575
X123.825Y-47.625
X123.825Y-80.47
X133.35Y-66.675
X142.875Y-28.575
X142.875Y-47.625
X142.875Y-88.725
X152.4Y-66.675
X161.925Y-28.575
X161.925Y-47.625
X161.925Y-80.47
X161.925Y-80.47
X171.45Y-66.675
X180.975Y-28.575
X180.975Y-47.625
X190.5Y-66.675
X200.025Y-28.575
X200.025Y-47.625
T0
M30
