G04 #@! TF.GenerationSoftware,KiCad,Pcbnew,(5.1.9)-1*
G04 #@! TF.CreationDate,2021-09-28T02:04:04-07:00*
G04 #@! TF.ProjectId,keyboard,6b657962-6f61-4726-942e-6b696361645f,rev?*
G04 #@! TF.SameCoordinates,Original*
G04 #@! TF.FileFunction,Legend,Top*
G04 #@! TF.FilePolarity,Positive*
%FSLAX46Y46*%
G04 Gerber Fmt 4.6, Leading zero omitted, Abs format (unit mm)*
G04 Created by KiCad (PCBNEW (5.1.9)-1) date 2021-09-28 02:04:04*
%MOMM*%
%LPD*%
G01*
G04 APERTURE LIST*
G04 #@! TA.AperFunction,Profile*
%ADD10C,0.200000*%
G04 #@! TD*
%ADD11C,0.010000*%
G04 APERTURE END LIST*
D10*
X47481250Y-13000000D02*
X181118750Y-13000000D01*
X186500000Y-7000000D02*
X181118750Y-13000000D01*
X186500000Y-7000000D02*
X210168750Y-7000000D01*
X212550000Y-13000000D02*
X210168750Y-7000000D01*
X42100000Y-7000000D02*
X47481250Y-13000000D01*
X16050000Y-13000000D02*
X18431250Y-7000000D01*
X207168750Y-100000000D02*
X212550000Y-92868750D01*
X16050000Y-92868750D02*
X21431250Y-100000000D01*
X18431250Y-7000000D02*
X42100000Y-7000000D01*
X212550000Y-13000000D02*
X212550000Y-92868750D01*
X207168750Y-100000000D02*
X21431250Y-100000000D01*
X16050000Y-92868750D02*
X16050000Y-13000000D01*
D11*
G36*
X131908778Y-82421442D02*
G01*
X132062264Y-82425005D01*
X132626109Y-82440076D01*
X133042787Y-82456348D01*
X133344602Y-82478574D01*
X133563858Y-82511504D01*
X133732859Y-82559889D01*
X133883909Y-82628482D01*
X134038461Y-82715670D01*
X134562699Y-83073677D01*
X135014626Y-83480275D01*
X135344520Y-83890433D01*
X135356351Y-83909306D01*
X135466486Y-84147619D01*
X135583829Y-84496953D01*
X135686833Y-84891140D01*
X135707563Y-84987694D01*
X135780534Y-85363124D01*
X135815043Y-85637283D01*
X135809945Y-85880028D01*
X135764091Y-86161217D01*
X135682320Y-86525079D01*
X135574411Y-86941600D01*
X135460969Y-87245952D01*
X135311182Y-87503680D01*
X135094239Y-87780332D01*
X135089854Y-87785506D01*
X134640877Y-88238475D01*
X134155324Y-88596159D01*
X133678007Y-88827129D01*
X133550613Y-88865146D01*
X133340962Y-88898337D01*
X133002736Y-88930617D01*
X132578526Y-88960096D01*
X132110920Y-88984883D01*
X131642510Y-89003089D01*
X131215884Y-89012823D01*
X130873632Y-89012196D01*
X130658345Y-88999317D01*
X130632272Y-88994657D01*
X130092732Y-88801646D01*
X129656041Y-88503812D01*
X129393191Y-88187087D01*
X129151353Y-87786708D01*
X129151353Y-85141659D01*
X130213289Y-85141659D01*
X130215659Y-85698142D01*
X130216497Y-85774590D01*
X130237601Y-87569643D01*
X130474026Y-87781605D01*
X130571718Y-87863752D01*
X130671456Y-87919726D01*
X130805356Y-87952609D01*
X131005531Y-87965486D01*
X131304096Y-87961442D01*
X131733165Y-87943561D01*
X132017651Y-87929861D01*
X132562615Y-87899294D01*
X132960819Y-87865634D01*
X133244999Y-87823948D01*
X133447891Y-87769301D01*
X133602231Y-87696759D01*
X133615002Y-87689097D01*
X134072637Y-87311972D01*
X134430186Y-86820350D01*
X134643406Y-86286061D01*
X134712741Y-85886992D01*
X134711805Y-85483306D01*
X134638003Y-85010220D01*
X134582539Y-84766519D01*
X134458543Y-84512584D01*
X134221867Y-84218748D01*
X133916618Y-83932518D01*
X133601564Y-83709903D01*
X133437713Y-83621984D01*
X133272842Y-83560584D01*
X133069860Y-83520322D01*
X132791678Y-83495821D01*
X132401204Y-83481702D01*
X131975888Y-83474165D01*
X131392763Y-83470045D01*
X130963406Y-83479764D01*
X130662317Y-83507902D01*
X130463996Y-83559041D01*
X130342944Y-83637762D01*
X130273662Y-83748645D01*
X130261356Y-83782185D01*
X130242100Y-83930203D01*
X130227206Y-84226748D01*
X130217370Y-84640881D01*
X130213289Y-85141659D01*
X129151353Y-85141659D01*
X129151353Y-83521041D01*
X129407798Y-83116669D01*
X129579686Y-82877947D01*
X129770349Y-82696903D01*
X130005601Y-82566811D01*
X130311256Y-82480946D01*
X130713128Y-82432580D01*
X131237031Y-82414987D01*
X131908778Y-82421442D01*
G37*
X131908778Y-82421442D02*
X132062264Y-82425005D01*
X132626109Y-82440076D01*
X133042787Y-82456348D01*
X133344602Y-82478574D01*
X133563858Y-82511504D01*
X133732859Y-82559889D01*
X133883909Y-82628482D01*
X134038461Y-82715670D01*
X134562699Y-83073677D01*
X135014626Y-83480275D01*
X135344520Y-83890433D01*
X135356351Y-83909306D01*
X135466486Y-84147619D01*
X135583829Y-84496953D01*
X135686833Y-84891140D01*
X135707563Y-84987694D01*
X135780534Y-85363124D01*
X135815043Y-85637283D01*
X135809945Y-85880028D01*
X135764091Y-86161217D01*
X135682320Y-86525079D01*
X135574411Y-86941600D01*
X135460969Y-87245952D01*
X135311182Y-87503680D01*
X135094239Y-87780332D01*
X135089854Y-87785506D01*
X134640877Y-88238475D01*
X134155324Y-88596159D01*
X133678007Y-88827129D01*
X133550613Y-88865146D01*
X133340962Y-88898337D01*
X133002736Y-88930617D01*
X132578526Y-88960096D01*
X132110920Y-88984883D01*
X131642510Y-89003089D01*
X131215884Y-89012823D01*
X130873632Y-89012196D01*
X130658345Y-88999317D01*
X130632272Y-88994657D01*
X130092732Y-88801646D01*
X129656041Y-88503812D01*
X129393191Y-88187087D01*
X129151353Y-87786708D01*
X129151353Y-85141659D01*
X130213289Y-85141659D01*
X130215659Y-85698142D01*
X130216497Y-85774590D01*
X130237601Y-87569643D01*
X130474026Y-87781605D01*
X130571718Y-87863752D01*
X130671456Y-87919726D01*
X130805356Y-87952609D01*
X131005531Y-87965486D01*
X131304096Y-87961442D01*
X131733165Y-87943561D01*
X132017651Y-87929861D01*
X132562615Y-87899294D01*
X132960819Y-87865634D01*
X133244999Y-87823948D01*
X133447891Y-87769301D01*
X133602231Y-87696759D01*
X133615002Y-87689097D01*
X134072637Y-87311972D01*
X134430186Y-86820350D01*
X134643406Y-86286061D01*
X134712741Y-85886992D01*
X134711805Y-85483306D01*
X134638003Y-85010220D01*
X134582539Y-84766519D01*
X134458543Y-84512584D01*
X134221867Y-84218748D01*
X133916618Y-83932518D01*
X133601564Y-83709903D01*
X133437713Y-83621984D01*
X133272842Y-83560584D01*
X133069860Y-83520322D01*
X132791678Y-83495821D01*
X132401204Y-83481702D01*
X131975888Y-83474165D01*
X131392763Y-83470045D01*
X130963406Y-83479764D01*
X130662317Y-83507902D01*
X130463996Y-83559041D01*
X130342944Y-83637762D01*
X130273662Y-83748645D01*
X130261356Y-83782185D01*
X130242100Y-83930203D01*
X130227206Y-84226748D01*
X130217370Y-84640881D01*
X130213289Y-85141659D01*
X129151353Y-85141659D01*
X129151353Y-83521041D01*
X129407798Y-83116669D01*
X129579686Y-82877947D01*
X129770349Y-82696903D01*
X130005601Y-82566811D01*
X130311256Y-82480946D01*
X130713128Y-82432580D01*
X131237031Y-82414987D01*
X131908778Y-82421442D01*
G36*
X63320068Y-82419285D02*
G01*
X63656402Y-82427899D01*
X64263034Y-82446715D01*
X64726543Y-82473111D01*
X65083289Y-82517646D01*
X65369631Y-82590881D01*
X65621927Y-82703375D01*
X65876536Y-82865689D01*
X66169818Y-83088384D01*
X66307585Y-83197917D01*
X66683107Y-83553584D01*
X66960384Y-83958992D01*
X67164134Y-84458908D01*
X67298014Y-84991796D01*
X67372647Y-85370917D01*
X67409157Y-85643690D01*
X67405974Y-85878300D01*
X67361524Y-86142933D01*
X67274235Y-86505776D01*
X67261977Y-86554507D01*
X67143228Y-86979631D01*
X67019254Y-87292557D01*
X66858612Y-87558668D01*
X66657664Y-87811044D01*
X66357589Y-88116914D01*
X66004691Y-88413644D01*
X65755789Y-88585940D01*
X65532633Y-88713635D01*
X65331663Y-88802819D01*
X65108147Y-88864076D01*
X64817349Y-88907991D01*
X64414535Y-88945148D01*
X64155216Y-88964640D01*
X63538394Y-89005865D01*
X63065478Y-89028060D01*
X62701928Y-89031672D01*
X62413203Y-89017151D01*
X62195876Y-88990096D01*
X61667438Y-88825263D01*
X61248472Y-88518774D01*
X61040771Y-88251982D01*
X60781479Y-87838901D01*
X60728101Y-85794283D01*
X60691594Y-84395855D01*
X61750262Y-84395855D01*
X61756716Y-84776863D01*
X61772411Y-85296713D01*
X61785174Y-85674278D01*
X61806074Y-86233023D01*
X61828234Y-86736069D01*
X61850076Y-87153716D01*
X61870021Y-87456266D01*
X61886491Y-87614020D01*
X61888780Y-87624123D01*
X61958076Y-87756498D01*
X62092924Y-87849567D01*
X62317093Y-87907458D01*
X62654353Y-87934298D01*
X63128475Y-87934215D01*
X63587042Y-87919015D01*
X64104814Y-87894446D01*
X64480382Y-87866509D01*
X64751026Y-87829099D01*
X64954025Y-87776110D01*
X65126661Y-87701439D01*
X65216545Y-87652165D01*
X65693772Y-87280281D01*
X66036526Y-86801899D01*
X66239051Y-86235635D01*
X66295591Y-85600107D01*
X66200390Y-84913932D01*
X66135161Y-84681041D01*
X65992646Y-84421658D01*
X65740155Y-84128597D01*
X65426830Y-83851271D01*
X65101814Y-83639089D01*
X65095761Y-83635966D01*
X64842553Y-83562554D01*
X64412914Y-83511778D01*
X63806033Y-83483547D01*
X63766547Y-83482625D01*
X63185903Y-83471275D01*
X62756606Y-83468856D01*
X62450597Y-83478316D01*
X62239816Y-83502606D01*
X62096206Y-83544674D01*
X61991707Y-83607470D01*
X61914740Y-83677281D01*
X61850073Y-83748149D01*
X61802953Y-83829836D01*
X61771719Y-83947946D01*
X61754709Y-84128084D01*
X61750262Y-84395855D01*
X60691594Y-84395855D01*
X60674724Y-83749665D01*
X60913745Y-83262311D01*
X61072498Y-82971532D01*
X61232929Y-82789160D01*
X61458394Y-82655026D01*
X61631490Y-82580657D01*
X61819561Y-82509612D01*
X62000100Y-82459612D01*
X62206764Y-82428118D01*
X62473208Y-82412592D01*
X62833091Y-82410494D01*
X63320068Y-82419285D01*
G37*
X63320068Y-82419285D02*
X63656402Y-82427899D01*
X64263034Y-82446715D01*
X64726543Y-82473111D01*
X65083289Y-82517646D01*
X65369631Y-82590881D01*
X65621927Y-82703375D01*
X65876536Y-82865689D01*
X66169818Y-83088384D01*
X66307585Y-83197917D01*
X66683107Y-83553584D01*
X66960384Y-83958992D01*
X67164134Y-84458908D01*
X67298014Y-84991796D01*
X67372647Y-85370917D01*
X67409157Y-85643690D01*
X67405974Y-85878300D01*
X67361524Y-86142933D01*
X67274235Y-86505776D01*
X67261977Y-86554507D01*
X67143228Y-86979631D01*
X67019254Y-87292557D01*
X66858612Y-87558668D01*
X66657664Y-87811044D01*
X66357589Y-88116914D01*
X66004691Y-88413644D01*
X65755789Y-88585940D01*
X65532633Y-88713635D01*
X65331663Y-88802819D01*
X65108147Y-88864076D01*
X64817349Y-88907991D01*
X64414535Y-88945148D01*
X64155216Y-88964640D01*
X63538394Y-89005865D01*
X63065478Y-89028060D01*
X62701928Y-89031672D01*
X62413203Y-89017151D01*
X62195876Y-88990096D01*
X61667438Y-88825263D01*
X61248472Y-88518774D01*
X61040771Y-88251982D01*
X60781479Y-87838901D01*
X60728101Y-85794283D01*
X60691594Y-84395855D01*
X61750262Y-84395855D01*
X61756716Y-84776863D01*
X61772411Y-85296713D01*
X61785174Y-85674278D01*
X61806074Y-86233023D01*
X61828234Y-86736069D01*
X61850076Y-87153716D01*
X61870021Y-87456266D01*
X61886491Y-87614020D01*
X61888780Y-87624123D01*
X61958076Y-87756498D01*
X62092924Y-87849567D01*
X62317093Y-87907458D01*
X62654353Y-87934298D01*
X63128475Y-87934215D01*
X63587042Y-87919015D01*
X64104814Y-87894446D01*
X64480382Y-87866509D01*
X64751026Y-87829099D01*
X64954025Y-87776110D01*
X65126661Y-87701439D01*
X65216545Y-87652165D01*
X65693772Y-87280281D01*
X66036526Y-86801899D01*
X66239051Y-86235635D01*
X66295591Y-85600107D01*
X66200390Y-84913932D01*
X66135161Y-84681041D01*
X65992646Y-84421658D01*
X65740155Y-84128597D01*
X65426830Y-83851271D01*
X65101814Y-83639089D01*
X65095761Y-83635966D01*
X64842553Y-83562554D01*
X64412914Y-83511778D01*
X63806033Y-83483547D01*
X63766547Y-83482625D01*
X63185903Y-83471275D01*
X62756606Y-83468856D01*
X62450597Y-83478316D01*
X62239816Y-83502606D01*
X62096206Y-83544674D01*
X61991707Y-83607470D01*
X61914740Y-83677281D01*
X61850073Y-83748149D01*
X61802953Y-83829836D01*
X61771719Y-83947946D01*
X61754709Y-84128084D01*
X61750262Y-84395855D01*
X60691594Y-84395855D01*
X60674724Y-83749665D01*
X60913745Y-83262311D01*
X61072498Y-82971532D01*
X61232929Y-82789160D01*
X61458394Y-82655026D01*
X61631490Y-82580657D01*
X61819561Y-82509612D01*
X62000100Y-82459612D01*
X62206764Y-82428118D01*
X62473208Y-82412592D01*
X62833091Y-82410494D01*
X63320068Y-82419285D01*
G36*
X169145659Y-85126278D02*
G01*
X169353676Y-85159290D01*
X169514968Y-85222431D01*
X169589505Y-85265410D01*
X169831868Y-85505838D01*
X169990374Y-85879175D01*
X170069134Y-86397676D01*
X170079936Y-86727406D01*
X170090424Y-87041247D01*
X170116366Y-87286691D01*
X170147250Y-87399140D01*
X170331658Y-87558284D01*
X170643153Y-87657684D01*
X171101214Y-87702500D01*
X171306760Y-87706268D01*
X171760920Y-87727705D01*
X172078955Y-87800441D01*
X172300979Y-87941684D01*
X172467106Y-88168642D01*
X172491378Y-88214449D01*
X172537776Y-88399542D01*
X172569482Y-88711171D01*
X172586315Y-89098778D01*
X172588094Y-89511803D01*
X172574638Y-89899687D01*
X172545765Y-90211869D01*
X172501294Y-90397791D01*
X172499222Y-90401823D01*
X172273630Y-90635797D01*
X171898445Y-90784656D01*
X171384136Y-90844544D01*
X171294679Y-90845615D01*
X170964793Y-90854753D01*
X170781031Y-90887080D01*
X170710712Y-90949965D01*
X170706830Y-90978175D01*
X170636767Y-91113856D01*
X170467443Y-91258928D01*
X170460010Y-91263591D01*
X170218781Y-91436795D01*
X170076267Y-91622028D01*
X170007853Y-91872845D01*
X169988927Y-92242802D01*
X169988809Y-92288868D01*
X169963031Y-92694091D01*
X169872334Y-92993868D01*
X169696670Y-93199760D01*
X169415995Y-93323326D01*
X169010261Y-93376126D01*
X168459423Y-93369720D01*
X168148880Y-93349857D01*
X167791324Y-93316795D01*
X167492155Y-93277687D01*
X167305933Y-93239936D01*
X167285948Y-93232728D01*
X167107592Y-93069355D01*
X166993692Y-92758178D01*
X166941470Y-92289908D01*
X166937219Y-92067459D01*
X166932415Y-91725819D01*
X166909431Y-91519045D01*
X166855407Y-91402576D01*
X166757485Y-91331851D01*
X166719744Y-91313856D01*
X166543796Y-91165243D01*
X166472924Y-91007753D01*
X166445482Y-90898156D01*
X166374630Y-90839350D01*
X166218517Y-90819650D01*
X165935290Y-90827373D01*
X165843465Y-90832024D01*
X165268095Y-90821330D01*
X164841806Y-90719756D01*
X164557591Y-90525069D01*
X164467460Y-90393833D01*
X164393290Y-90143122D01*
X164348371Y-89772208D01*
X164332817Y-89338015D01*
X164346743Y-88897463D01*
X164390265Y-88507476D01*
X164463074Y-88225989D01*
X164601353Y-87992246D01*
X164806097Y-87836393D01*
X165109271Y-87745756D01*
X165542839Y-87707658D01*
X165778737Y-87704272D01*
X166149158Y-87698517D01*
X166389899Y-87673476D01*
X166550623Y-87617488D01*
X166680995Y-87518891D01*
X166716917Y-87483970D01*
X166833042Y-87346528D01*
X166899660Y-87189420D01*
X166929982Y-86959629D01*
X166937218Y-86604137D01*
X166937219Y-86599837D01*
X166967210Y-86025785D01*
X167059049Y-85611583D01*
X167215534Y-85347564D01*
X167323211Y-85266510D01*
X167490790Y-85220098D01*
X167788722Y-85177030D01*
X168167879Y-85143439D01*
X168413240Y-85130413D01*
X168846864Y-85118337D01*
X169145659Y-85126278D01*
G37*
X169145659Y-85126278D02*
X169353676Y-85159290D01*
X169514968Y-85222431D01*
X169589505Y-85265410D01*
X169831868Y-85505838D01*
X169990374Y-85879175D01*
X170069134Y-86397676D01*
X170079936Y-86727406D01*
X170090424Y-87041247D01*
X170116366Y-87286691D01*
X170147250Y-87399140D01*
X170331658Y-87558284D01*
X170643153Y-87657684D01*
X171101214Y-87702500D01*
X171306760Y-87706268D01*
X171760920Y-87727705D01*
X172078955Y-87800441D01*
X172300979Y-87941684D01*
X172467106Y-88168642D01*
X172491378Y-88214449D01*
X172537776Y-88399542D01*
X172569482Y-88711171D01*
X172586315Y-89098778D01*
X172588094Y-89511803D01*
X172574638Y-89899687D01*
X172545765Y-90211869D01*
X172501294Y-90397791D01*
X172499222Y-90401823D01*
X172273630Y-90635797D01*
X171898445Y-90784656D01*
X171384136Y-90844544D01*
X171294679Y-90845615D01*
X170964793Y-90854753D01*
X170781031Y-90887080D01*
X170710712Y-90949965D01*
X170706830Y-90978175D01*
X170636767Y-91113856D01*
X170467443Y-91258928D01*
X170460010Y-91263591D01*
X170218781Y-91436795D01*
X170076267Y-91622028D01*
X170007853Y-91872845D01*
X169988927Y-92242802D01*
X169988809Y-92288868D01*
X169963031Y-92694091D01*
X169872334Y-92993868D01*
X169696670Y-93199760D01*
X169415995Y-93323326D01*
X169010261Y-93376126D01*
X168459423Y-93369720D01*
X168148880Y-93349857D01*
X167791324Y-93316795D01*
X167492155Y-93277687D01*
X167305933Y-93239936D01*
X167285948Y-93232728D01*
X167107592Y-93069355D01*
X166993692Y-92758178D01*
X166941470Y-92289908D01*
X166937219Y-92067459D01*
X166932415Y-91725819D01*
X166909431Y-91519045D01*
X166855407Y-91402576D01*
X166757485Y-91331851D01*
X166719744Y-91313856D01*
X166543796Y-91165243D01*
X166472924Y-91007753D01*
X166445482Y-90898156D01*
X166374630Y-90839350D01*
X166218517Y-90819650D01*
X165935290Y-90827373D01*
X165843465Y-90832024D01*
X165268095Y-90821330D01*
X164841806Y-90719756D01*
X164557591Y-90525069D01*
X164467460Y-90393833D01*
X164393290Y-90143122D01*
X164348371Y-89772208D01*
X164332817Y-89338015D01*
X164346743Y-88897463D01*
X164390265Y-88507476D01*
X164463074Y-88225989D01*
X164601353Y-87992246D01*
X164806097Y-87836393D01*
X165109271Y-87745756D01*
X165542839Y-87707658D01*
X165778737Y-87704272D01*
X166149158Y-87698517D01*
X166389899Y-87673476D01*
X166550623Y-87617488D01*
X166680995Y-87518891D01*
X166716917Y-87483970D01*
X166833042Y-87346528D01*
X166899660Y-87189420D01*
X166929982Y-86959629D01*
X166937218Y-86604137D01*
X166937219Y-86599837D01*
X166967210Y-86025785D01*
X167059049Y-85611583D01*
X167215534Y-85347564D01*
X167323211Y-85266510D01*
X167490790Y-85220098D01*
X167788722Y-85177030D01*
X168167879Y-85143439D01*
X168413240Y-85130413D01*
X168846864Y-85118337D01*
X169145659Y-85126278D01*
G36*
X101045767Y-85146018D02*
G01*
X101299806Y-85183650D01*
X101346659Y-85198914D01*
X101603503Y-85387325D01*
X101771440Y-85709178D01*
X101854962Y-86175669D01*
X101866547Y-86494186D01*
X101907818Y-87013362D01*
X102029804Y-87385323D01*
X102229768Y-87603320D01*
X102334154Y-87646762D01*
X102528719Y-87675388D01*
X102833550Y-87695739D01*
X103149980Y-87703047D01*
X103688000Y-87745830D01*
X104068679Y-87871432D01*
X104290992Y-88079447D01*
X104331270Y-88171879D01*
X104362208Y-88348376D01*
X104392508Y-88653448D01*
X104417677Y-89036210D01*
X104427866Y-89265791D01*
X104428689Y-89835827D01*
X104370371Y-90253194D01*
X104233220Y-90540341D01*
X103997545Y-90719717D01*
X103643656Y-90813769D01*
X103151861Y-90844947D01*
X103042085Y-90845615D01*
X102712773Y-90852880D01*
X102501441Y-90888126D01*
X102346734Y-90971532D01*
X102187297Y-91123274D01*
X102182567Y-91128280D01*
X102037708Y-91302410D01*
X101952597Y-91481037D01*
X101907752Y-91724536D01*
X101885758Y-92048244D01*
X101836411Y-92583770D01*
X101744584Y-92955315D01*
X101606815Y-93174114D01*
X101521757Y-93228855D01*
X101129656Y-93333660D01*
X100603704Y-93382529D01*
X100161247Y-93380608D01*
X99640592Y-93346055D01*
X99272993Y-93275056D01*
X99032544Y-93145081D01*
X98893336Y-92933604D01*
X98829461Y-92618095D01*
X98814957Y-92209935D01*
X98814957Y-91509944D01*
X98493163Y-91393582D01*
X98202806Y-91218735D01*
X98087549Y-91036772D01*
X98012991Y-90882910D01*
X97893903Y-90823370D01*
X97666604Y-90828518D01*
X97644461Y-90830586D01*
X97121192Y-90825747D01*
X96692498Y-90709335D01*
X96426484Y-90529612D01*
X96330396Y-90420470D01*
X96268232Y-90297526D01*
X96232681Y-90121045D01*
X96216436Y-89851290D01*
X96212186Y-89448527D01*
X96212130Y-89364319D01*
X96228144Y-88777443D01*
X96289451Y-88345404D01*
X96415945Y-88045336D01*
X96627523Y-87854375D01*
X96944082Y-87749658D01*
X97385517Y-87708319D01*
X97656682Y-87704272D01*
X98022938Y-87699316D01*
X98259135Y-87676121D01*
X98414625Y-87622192D01*
X98538762Y-87525037D01*
X98594861Y-87466785D01*
X98705115Y-87329083D01*
X98771107Y-87176744D01*
X98803874Y-86960474D01*
X98814454Y-86630976D01*
X98814957Y-86483729D01*
X98834832Y-85964228D01*
X98898962Y-85598801D01*
X99014109Y-85365976D01*
X99187033Y-85244280D01*
X99207347Y-85237524D01*
X99473041Y-85185141D01*
X99843056Y-85148837D01*
X100264066Y-85129574D01*
X100682745Y-85128313D01*
X101045767Y-85146018D01*
G37*
X101045767Y-85146018D02*
X101299806Y-85183650D01*
X101346659Y-85198914D01*
X101603503Y-85387325D01*
X101771440Y-85709178D01*
X101854962Y-86175669D01*
X101866547Y-86494186D01*
X101907818Y-87013362D01*
X102029804Y-87385323D01*
X102229768Y-87603320D01*
X102334154Y-87646762D01*
X102528719Y-87675388D01*
X102833550Y-87695739D01*
X103149980Y-87703047D01*
X103688000Y-87745830D01*
X104068679Y-87871432D01*
X104290992Y-88079447D01*
X104331270Y-88171879D01*
X104362208Y-88348376D01*
X104392508Y-88653448D01*
X104417677Y-89036210D01*
X104427866Y-89265791D01*
X104428689Y-89835827D01*
X104370371Y-90253194D01*
X104233220Y-90540341D01*
X103997545Y-90719717D01*
X103643656Y-90813769D01*
X103151861Y-90844947D01*
X103042085Y-90845615D01*
X102712773Y-90852880D01*
X102501441Y-90888126D01*
X102346734Y-90971532D01*
X102187297Y-91123274D01*
X102182567Y-91128280D01*
X102037708Y-91302410D01*
X101952597Y-91481037D01*
X101907752Y-91724536D01*
X101885758Y-92048244D01*
X101836411Y-92583770D01*
X101744584Y-92955315D01*
X101606815Y-93174114D01*
X101521757Y-93228855D01*
X101129656Y-93333660D01*
X100603704Y-93382529D01*
X100161247Y-93380608D01*
X99640592Y-93346055D01*
X99272993Y-93275056D01*
X99032544Y-93145081D01*
X98893336Y-92933604D01*
X98829461Y-92618095D01*
X98814957Y-92209935D01*
X98814957Y-91509944D01*
X98493163Y-91393582D01*
X98202806Y-91218735D01*
X98087549Y-91036772D01*
X98012991Y-90882910D01*
X97893903Y-90823370D01*
X97666604Y-90828518D01*
X97644461Y-90830586D01*
X97121192Y-90825747D01*
X96692498Y-90709335D01*
X96426484Y-90529612D01*
X96330396Y-90420470D01*
X96268232Y-90297526D01*
X96232681Y-90121045D01*
X96216436Y-89851290D01*
X96212186Y-89448527D01*
X96212130Y-89364319D01*
X96228144Y-88777443D01*
X96289451Y-88345404D01*
X96415945Y-88045336D01*
X96627523Y-87854375D01*
X96944082Y-87749658D01*
X97385517Y-87708319D01*
X97656682Y-87704272D01*
X98022938Y-87699316D01*
X98259135Y-87676121D01*
X98414625Y-87622192D01*
X98538762Y-87525037D01*
X98594861Y-87466785D01*
X98705115Y-87329083D01*
X98771107Y-87176744D01*
X98803874Y-86960474D01*
X98814454Y-86630976D01*
X98814957Y-86483729D01*
X98834832Y-85964228D01*
X98898962Y-85598801D01*
X99014109Y-85365976D01*
X99187033Y-85244280D01*
X99207347Y-85237524D01*
X99473041Y-85185141D01*
X99843056Y-85148837D01*
X100264066Y-85129574D01*
X100682745Y-85128313D01*
X101045767Y-85146018D01*
G36*
X32124476Y-85116494D02*
G01*
X32335964Y-85146337D01*
X32497903Y-85205990D01*
X32559768Y-85239876D01*
X32784472Y-85448257D01*
X32932511Y-85773090D01*
X33010249Y-86233810D01*
X33026265Y-86664171D01*
X33035592Y-87005772D01*
X33073949Y-87226291D01*
X33156902Y-87383648D01*
X33246567Y-87483970D01*
X33371314Y-87592075D01*
X33511172Y-87657749D01*
X33712877Y-87691351D01*
X34023166Y-87703236D01*
X34240750Y-87704272D01*
X34620437Y-87708012D01*
X34869034Y-87727397D01*
X35034923Y-87774678D01*
X35166487Y-87862104D01*
X35276985Y-87966626D01*
X35391618Y-88087945D01*
X35466796Y-88204109D01*
X35510838Y-88354833D01*
X35532065Y-88579831D01*
X35538796Y-88918815D01*
X35539339Y-89218940D01*
X35530726Y-89644168D01*
X35507434Y-90020800D01*
X35473285Y-90301520D01*
X35442173Y-90422155D01*
X35249459Y-90635370D01*
X34909074Y-90778027D01*
X34441435Y-90842564D01*
X34298868Y-90845615D01*
X34021052Y-90855729D01*
X33880414Y-90895728D01*
X33835288Y-90980101D01*
X33834039Y-91007236D01*
X33749263Y-91158453D01*
X33508563Y-91324985D01*
X33430152Y-91365080D01*
X33218123Y-91483044D01*
X33085578Y-91614866D01*
X33017576Y-91801658D01*
X32999177Y-92084532D01*
X33015440Y-92504599D01*
X33015522Y-92506039D01*
X32951327Y-92833705D01*
X32744669Y-93111853D01*
X32432385Y-93299560D01*
X32260585Y-93344737D01*
X32000189Y-93366240D01*
X31631886Y-93370055D01*
X31226436Y-93355826D01*
X31141459Y-93350391D01*
X30772769Y-93318360D01*
X30461377Y-93279858D01*
X30259973Y-93241771D01*
X30227766Y-93230975D01*
X30058391Y-93062571D01*
X29964788Y-92737518D01*
X29946260Y-92252853D01*
X29955294Y-92075016D01*
X29968089Y-91712045D01*
X29943060Y-91480375D01*
X29874240Y-91334650D01*
X29854967Y-91312118D01*
X29684029Y-91126055D01*
X29539645Y-90967373D01*
X29422465Y-90862934D01*
X29278600Y-90812081D01*
X29053757Y-90804316D01*
X28785566Y-90821552D01*
X28225011Y-90824162D01*
X27808607Y-90726678D01*
X27528271Y-90524126D01*
X27375923Y-90211528D01*
X27341276Y-89932292D01*
X27340124Y-89695321D01*
X27343956Y-89349884D01*
X27351950Y-88966928D01*
X27352888Y-88931467D01*
X27368398Y-88567415D01*
X27401230Y-88329775D01*
X27466860Y-88165462D01*
X27580766Y-88021391D01*
X27634202Y-87966626D01*
X27778372Y-87835111D01*
X27919720Y-87756876D01*
X28109697Y-87718189D01*
X28399752Y-87705320D01*
X28617258Y-87704272D01*
X29140401Y-87684593D01*
X29511638Y-87609709D01*
X29755794Y-87455847D01*
X29897695Y-87199238D01*
X29962165Y-86816108D01*
X29974675Y-86404478D01*
X29994337Y-85901228D01*
X30057378Y-85552112D01*
X30169882Y-85335676D01*
X30304372Y-85241743D01*
X30460683Y-85210172D01*
X30749160Y-85176598D01*
X31122595Y-85145911D01*
X31380763Y-85130235D01*
X31820417Y-85112460D01*
X32124476Y-85116494D01*
G37*
X32124476Y-85116494D02*
X32335964Y-85146337D01*
X32497903Y-85205990D01*
X32559768Y-85239876D01*
X32784472Y-85448257D01*
X32932511Y-85773090D01*
X33010249Y-86233810D01*
X33026265Y-86664171D01*
X33035592Y-87005772D01*
X33073949Y-87226291D01*
X33156902Y-87383648D01*
X33246567Y-87483970D01*
X33371314Y-87592075D01*
X33511172Y-87657749D01*
X33712877Y-87691351D01*
X34023166Y-87703236D01*
X34240750Y-87704272D01*
X34620437Y-87708012D01*
X34869034Y-87727397D01*
X35034923Y-87774678D01*
X35166487Y-87862104D01*
X35276985Y-87966626D01*
X35391618Y-88087945D01*
X35466796Y-88204109D01*
X35510838Y-88354833D01*
X35532065Y-88579831D01*
X35538796Y-88918815D01*
X35539339Y-89218940D01*
X35530726Y-89644168D01*
X35507434Y-90020800D01*
X35473285Y-90301520D01*
X35442173Y-90422155D01*
X35249459Y-90635370D01*
X34909074Y-90778027D01*
X34441435Y-90842564D01*
X34298868Y-90845615D01*
X34021052Y-90855729D01*
X33880414Y-90895728D01*
X33835288Y-90980101D01*
X33834039Y-91007236D01*
X33749263Y-91158453D01*
X33508563Y-91324985D01*
X33430152Y-91365080D01*
X33218123Y-91483044D01*
X33085578Y-91614866D01*
X33017576Y-91801658D01*
X32999177Y-92084532D01*
X33015440Y-92504599D01*
X33015522Y-92506039D01*
X32951327Y-92833705D01*
X32744669Y-93111853D01*
X32432385Y-93299560D01*
X32260585Y-93344737D01*
X32000189Y-93366240D01*
X31631886Y-93370055D01*
X31226436Y-93355826D01*
X31141459Y-93350391D01*
X30772769Y-93318360D01*
X30461377Y-93279858D01*
X30259973Y-93241771D01*
X30227766Y-93230975D01*
X30058391Y-93062571D01*
X29964788Y-92737518D01*
X29946260Y-92252853D01*
X29955294Y-92075016D01*
X29968089Y-91712045D01*
X29943060Y-91480375D01*
X29874240Y-91334650D01*
X29854967Y-91312118D01*
X29684029Y-91126055D01*
X29539645Y-90967373D01*
X29422465Y-90862934D01*
X29278600Y-90812081D01*
X29053757Y-90804316D01*
X28785566Y-90821552D01*
X28225011Y-90824162D01*
X27808607Y-90726678D01*
X27528271Y-90524126D01*
X27375923Y-90211528D01*
X27341276Y-89932292D01*
X27340124Y-89695321D01*
X27343956Y-89349884D01*
X27351950Y-88966928D01*
X27352888Y-88931467D01*
X27368398Y-88567415D01*
X27401230Y-88329775D01*
X27466860Y-88165462D01*
X27580766Y-88021391D01*
X27634202Y-87966626D01*
X27778372Y-87835111D01*
X27919720Y-87756876D01*
X28109697Y-87718189D01*
X28399752Y-87705320D01*
X28617258Y-87704272D01*
X29140401Y-87684593D01*
X29511638Y-87609709D01*
X29755794Y-87455847D01*
X29897695Y-87199238D01*
X29962165Y-86816108D01*
X29974675Y-86404478D01*
X29994337Y-85901228D01*
X30057378Y-85552112D01*
X30169882Y-85335676D01*
X30304372Y-85241743D01*
X30460683Y-85210172D01*
X30749160Y-85176598D01*
X31122595Y-85145911D01*
X31380763Y-85130235D01*
X31820417Y-85112460D01*
X32124476Y-85116494D01*
G36*
X135091924Y-78241595D02*
G01*
X136006518Y-78559119D01*
X136784974Y-78914348D01*
X137470431Y-79335906D01*
X138106028Y-79852412D01*
X138734902Y-80492490D01*
X139073081Y-80883071D01*
X139557049Y-81533331D01*
X139933118Y-82213361D01*
X140228141Y-82977736D01*
X140395402Y-83570483D01*
X140507110Y-84040509D01*
X140580758Y-84428841D01*
X140623256Y-84798553D01*
X140641515Y-85212717D01*
X140642443Y-85734409D01*
X140641602Y-85817890D01*
X140601831Y-86770422D01*
X140496722Y-87594692D01*
X140313691Y-88334015D01*
X140040152Y-89031710D01*
X139663520Y-89731091D01*
X139373032Y-90184083D01*
X138708915Y-91026687D01*
X137935413Y-91759984D01*
X137078148Y-92364837D01*
X136162743Y-92822111D01*
X135568668Y-93025536D01*
X134825825Y-93226058D01*
X134204890Y-93369565D01*
X133659831Y-93462427D01*
X133144616Y-93511018D01*
X132613212Y-93521709D01*
X132103332Y-93505210D01*
X131443987Y-93487273D01*
X130942210Y-93508754D01*
X130579989Y-93571732D01*
X130339311Y-93678288D01*
X130293456Y-93714242D01*
X130271601Y-93819467D01*
X130252562Y-94075108D01*
X130237494Y-94452080D01*
X130227554Y-94921303D01*
X130223898Y-95453693D01*
X130223897Y-95463185D01*
X130222085Y-96069008D01*
X130214831Y-96526246D01*
X130199411Y-96865799D01*
X130173100Y-97118568D01*
X130133173Y-97315453D01*
X130076905Y-97487354D01*
X130036763Y-97585336D01*
X129838858Y-97934201D01*
X129565328Y-98182827D01*
X129462071Y-98247466D01*
X129322223Y-98325899D01*
X129189587Y-98383751D01*
X129035119Y-98424078D01*
X128829776Y-98449936D01*
X128544514Y-98464381D01*
X128150292Y-98470470D01*
X127618066Y-98471258D01*
X127340318Y-98470730D01*
X126714293Y-98467162D01*
X126235158Y-98457808D01*
X125870324Y-98439947D01*
X125587203Y-98410859D01*
X125353206Y-98367825D01*
X125135743Y-98308124D01*
X125047168Y-98279330D01*
X124743757Y-98171016D01*
X124559652Y-98069871D01*
X124443060Y-97928775D01*
X124342189Y-97700603D01*
X124306117Y-97605099D01*
X124239873Y-97416268D01*
X124191812Y-97235642D01*
X124159057Y-97030276D01*
X124138732Y-96767224D01*
X124127959Y-96413542D01*
X124123864Y-95936286D01*
X124123429Y-95512753D01*
X124123815Y-95404969D01*
X124124921Y-95130631D01*
X124126693Y-94702686D01*
X124129075Y-94134085D01*
X124129868Y-93946139D01*
X125234287Y-93946139D01*
X125235738Y-94659574D01*
X125238880Y-95257566D01*
X125243885Y-95750793D01*
X125250923Y-96149931D01*
X125260166Y-96465657D01*
X125271786Y-96708648D01*
X125285954Y-96889581D01*
X125302841Y-97019133D01*
X125322619Y-97107981D01*
X125345460Y-97166802D01*
X125371534Y-97206272D01*
X125390149Y-97226460D01*
X125464712Y-97287217D01*
X125566712Y-97331708D01*
X125722783Y-97362426D01*
X125959559Y-97381868D01*
X126303674Y-97392528D01*
X126781760Y-97396901D01*
X127216582Y-97397558D01*
X127799936Y-97396750D01*
X128230020Y-97392380D01*
X128533067Y-97381535D01*
X128735310Y-97361299D01*
X128862983Y-97328756D01*
X128942320Y-97280992D01*
X128999554Y-97215091D01*
X129011635Y-97198082D01*
X129061793Y-97096978D01*
X129098808Y-96940794D01*
X129124476Y-96704679D01*
X129140592Y-96363782D01*
X129148952Y-95893249D01*
X129151353Y-95268231D01*
X129151353Y-95264825D01*
X129154871Y-94561046D01*
X129170940Y-94012931D01*
X129207837Y-93596689D01*
X129273838Y-93288531D01*
X129377217Y-93064666D01*
X129526250Y-92901303D01*
X129729213Y-92774652D01*
X129994382Y-92660924D01*
X130066673Y-92633480D01*
X130286706Y-92556384D01*
X130496387Y-92500263D01*
X130730104Y-92461668D01*
X131022247Y-92437151D01*
X131407202Y-92423263D01*
X131919360Y-92416557D01*
X132247819Y-92414761D01*
X132849398Y-92410026D01*
X133312586Y-92398726D01*
X133678479Y-92376749D01*
X133988175Y-92339983D01*
X134282771Y-92284317D01*
X134603364Y-92205638D01*
X134760894Y-92163312D01*
X135217992Y-92025286D01*
X135682714Y-91862792D01*
X136080814Y-91702583D01*
X136219986Y-91637591D01*
X136970007Y-91171893D01*
X137673694Y-90561727D01*
X138302740Y-89841223D01*
X138828842Y-89044508D01*
X139223693Y-88205713D01*
X139333210Y-87883777D01*
X139399625Y-87595600D01*
X139467290Y-87184875D01*
X139527916Y-86708308D01*
X139570197Y-86262433D01*
X139604536Y-85787703D01*
X139618848Y-85428506D01*
X139608441Y-85126216D01*
X139568619Y-84822205D01*
X139494689Y-84457844D01*
X139389597Y-84006653D01*
X139221298Y-83363646D01*
X139040377Y-82840025D01*
X138818471Y-82379014D01*
X138527216Y-81923836D01*
X138138248Y-81417717D01*
X138030804Y-81286711D01*
X137639280Y-80845553D01*
X137253671Y-80491304D01*
X136819811Y-80181605D01*
X136283533Y-79874095D01*
X136107183Y-79782380D01*
X135805656Y-79630976D01*
X135530210Y-79503594D01*
X135262169Y-79397961D01*
X134982854Y-79311807D01*
X134673585Y-79242860D01*
X134315684Y-79188849D01*
X133890473Y-79147502D01*
X133379272Y-79116549D01*
X132763404Y-79093718D01*
X132024188Y-79076738D01*
X131142947Y-79063338D01*
X130101002Y-79051246D01*
X130093756Y-79051167D01*
X129055977Y-79041026D01*
X128183051Y-79035510D01*
X127460365Y-79035531D01*
X126873305Y-79041997D01*
X126407256Y-79055820D01*
X126047606Y-79077909D01*
X125779740Y-79109174D01*
X125589046Y-79150525D01*
X125460908Y-79202871D01*
X125380714Y-79267123D01*
X125333850Y-79344191D01*
X125332427Y-79347639D01*
X125323858Y-79456072D01*
X125315116Y-79731594D01*
X125306319Y-80161791D01*
X125297589Y-80734247D01*
X125289043Y-81436547D01*
X125280803Y-82256276D01*
X125272987Y-83181017D01*
X125265716Y-84198356D01*
X125259109Y-85295878D01*
X125253286Y-86461167D01*
X125248366Y-87681808D01*
X125246391Y-88273633D01*
X125241960Y-89724435D01*
X125238363Y-91006410D01*
X125235770Y-92130234D01*
X125234355Y-93106585D01*
X125234287Y-93946139D01*
X124129868Y-93946139D01*
X124132013Y-93437777D01*
X124135452Y-92626709D01*
X124139337Y-91713831D01*
X124143613Y-90712093D01*
X124148226Y-89634442D01*
X124153119Y-88493828D01*
X124158239Y-87303200D01*
X124158251Y-87300385D01*
X124193025Y-79222647D01*
X124456918Y-78774183D01*
X124552253Y-78613217D01*
X124643461Y-78476987D01*
X124745555Y-78363413D01*
X124873553Y-78270415D01*
X125042468Y-78195912D01*
X125267316Y-78137826D01*
X125563112Y-78094075D01*
X125944871Y-78062581D01*
X126427610Y-78041262D01*
X127026342Y-78028040D01*
X127756083Y-78020833D01*
X128631848Y-78017562D01*
X129668653Y-78016148D01*
X129931147Y-78015867D01*
X134345923Y-78010986D01*
X135091924Y-78241595D01*
G37*
X135091924Y-78241595D02*
X136006518Y-78559119D01*
X136784974Y-78914348D01*
X137470431Y-79335906D01*
X138106028Y-79852412D01*
X138734902Y-80492490D01*
X139073081Y-80883071D01*
X139557049Y-81533331D01*
X139933118Y-82213361D01*
X140228141Y-82977736D01*
X140395402Y-83570483D01*
X140507110Y-84040509D01*
X140580758Y-84428841D01*
X140623256Y-84798553D01*
X140641515Y-85212717D01*
X140642443Y-85734409D01*
X140641602Y-85817890D01*
X140601831Y-86770422D01*
X140496722Y-87594692D01*
X140313691Y-88334015D01*
X140040152Y-89031710D01*
X139663520Y-89731091D01*
X139373032Y-90184083D01*
X138708915Y-91026687D01*
X137935413Y-91759984D01*
X137078148Y-92364837D01*
X136162743Y-92822111D01*
X135568668Y-93025536D01*
X134825825Y-93226058D01*
X134204890Y-93369565D01*
X133659831Y-93462427D01*
X133144616Y-93511018D01*
X132613212Y-93521709D01*
X132103332Y-93505210D01*
X131443987Y-93487273D01*
X130942210Y-93508754D01*
X130579989Y-93571732D01*
X130339311Y-93678288D01*
X130293456Y-93714242D01*
X130271601Y-93819467D01*
X130252562Y-94075108D01*
X130237494Y-94452080D01*
X130227554Y-94921303D01*
X130223898Y-95453693D01*
X130223897Y-95463185D01*
X130222085Y-96069008D01*
X130214831Y-96526246D01*
X130199411Y-96865799D01*
X130173100Y-97118568D01*
X130133173Y-97315453D01*
X130076905Y-97487354D01*
X130036763Y-97585336D01*
X129838858Y-97934201D01*
X129565328Y-98182827D01*
X129462071Y-98247466D01*
X129322223Y-98325899D01*
X129189587Y-98383751D01*
X129035119Y-98424078D01*
X128829776Y-98449936D01*
X128544514Y-98464381D01*
X128150292Y-98470470D01*
X127618066Y-98471258D01*
X127340318Y-98470730D01*
X126714293Y-98467162D01*
X126235158Y-98457808D01*
X125870324Y-98439947D01*
X125587203Y-98410859D01*
X125353206Y-98367825D01*
X125135743Y-98308124D01*
X125047168Y-98279330D01*
X124743757Y-98171016D01*
X124559652Y-98069871D01*
X124443060Y-97928775D01*
X124342189Y-97700603D01*
X124306117Y-97605099D01*
X124239873Y-97416268D01*
X124191812Y-97235642D01*
X124159057Y-97030276D01*
X124138732Y-96767224D01*
X124127959Y-96413542D01*
X124123864Y-95936286D01*
X124123429Y-95512753D01*
X124123815Y-95404969D01*
X124124921Y-95130631D01*
X124126693Y-94702686D01*
X124129075Y-94134085D01*
X124129868Y-93946139D01*
X125234287Y-93946139D01*
X125235738Y-94659574D01*
X125238880Y-95257566D01*
X125243885Y-95750793D01*
X125250923Y-96149931D01*
X125260166Y-96465657D01*
X125271786Y-96708648D01*
X125285954Y-96889581D01*
X125302841Y-97019133D01*
X125322619Y-97107981D01*
X125345460Y-97166802D01*
X125371534Y-97206272D01*
X125390149Y-97226460D01*
X125464712Y-97287217D01*
X125566712Y-97331708D01*
X125722783Y-97362426D01*
X125959559Y-97381868D01*
X126303674Y-97392528D01*
X126781760Y-97396901D01*
X127216582Y-97397558D01*
X127799936Y-97396750D01*
X128230020Y-97392380D01*
X128533067Y-97381535D01*
X128735310Y-97361299D01*
X128862983Y-97328756D01*
X128942320Y-97280992D01*
X128999554Y-97215091D01*
X129011635Y-97198082D01*
X129061793Y-97096978D01*
X129098808Y-96940794D01*
X129124476Y-96704679D01*
X129140592Y-96363782D01*
X129148952Y-95893249D01*
X129151353Y-95268231D01*
X129151353Y-95264825D01*
X129154871Y-94561046D01*
X129170940Y-94012931D01*
X129207837Y-93596689D01*
X129273838Y-93288531D01*
X129377217Y-93064666D01*
X129526250Y-92901303D01*
X129729213Y-92774652D01*
X129994382Y-92660924D01*
X130066673Y-92633480D01*
X130286706Y-92556384D01*
X130496387Y-92500263D01*
X130730104Y-92461668D01*
X131022247Y-92437151D01*
X131407202Y-92423263D01*
X131919360Y-92416557D01*
X132247819Y-92414761D01*
X132849398Y-92410026D01*
X133312586Y-92398726D01*
X133678479Y-92376749D01*
X133988175Y-92339983D01*
X134282771Y-92284317D01*
X134603364Y-92205638D01*
X134760894Y-92163312D01*
X135217992Y-92025286D01*
X135682714Y-91862792D01*
X136080814Y-91702583D01*
X136219986Y-91637591D01*
X136970007Y-91171893D01*
X137673694Y-90561727D01*
X138302740Y-89841223D01*
X138828842Y-89044508D01*
X139223693Y-88205713D01*
X139333210Y-87883777D01*
X139399625Y-87595600D01*
X139467290Y-87184875D01*
X139527916Y-86708308D01*
X139570197Y-86262433D01*
X139604536Y-85787703D01*
X139618848Y-85428506D01*
X139608441Y-85126216D01*
X139568619Y-84822205D01*
X139494689Y-84457844D01*
X139389597Y-84006653D01*
X139221298Y-83363646D01*
X139040377Y-82840025D01*
X138818471Y-82379014D01*
X138527216Y-81923836D01*
X138138248Y-81417717D01*
X138030804Y-81286711D01*
X137639280Y-80845553D01*
X137253671Y-80491304D01*
X136819811Y-80181605D01*
X136283533Y-79874095D01*
X136107183Y-79782380D01*
X135805656Y-79630976D01*
X135530210Y-79503594D01*
X135262169Y-79397961D01*
X134982854Y-79311807D01*
X134673585Y-79242860D01*
X134315684Y-79188849D01*
X133890473Y-79147502D01*
X133379272Y-79116549D01*
X132763404Y-79093718D01*
X132024188Y-79076738D01*
X131142947Y-79063338D01*
X130101002Y-79051246D01*
X130093756Y-79051167D01*
X129055977Y-79041026D01*
X128183051Y-79035510D01*
X127460365Y-79035531D01*
X126873305Y-79041997D01*
X126407256Y-79055820D01*
X126047606Y-79077909D01*
X125779740Y-79109174D01*
X125589046Y-79150525D01*
X125460908Y-79202871D01*
X125380714Y-79267123D01*
X125333850Y-79344191D01*
X125332427Y-79347639D01*
X125323858Y-79456072D01*
X125315116Y-79731594D01*
X125306319Y-80161791D01*
X125297589Y-80734247D01*
X125289043Y-81436547D01*
X125280803Y-82256276D01*
X125272987Y-83181017D01*
X125265716Y-84198356D01*
X125259109Y-85295878D01*
X125253286Y-86461167D01*
X125248366Y-87681808D01*
X125246391Y-88273633D01*
X125241960Y-89724435D01*
X125238363Y-91006410D01*
X125235770Y-92130234D01*
X125234355Y-93106585D01*
X125234287Y-93946139D01*
X124129868Y-93946139D01*
X124132013Y-93437777D01*
X124135452Y-92626709D01*
X124139337Y-91713831D01*
X124143613Y-90712093D01*
X124148226Y-89634442D01*
X124153119Y-88493828D01*
X124158239Y-87303200D01*
X124158251Y-87300385D01*
X124193025Y-79222647D01*
X124456918Y-78774183D01*
X124552253Y-78613217D01*
X124643461Y-78476987D01*
X124745555Y-78363413D01*
X124873553Y-78270415D01*
X125042468Y-78195912D01*
X125267316Y-78137826D01*
X125563112Y-78094075D01*
X125944871Y-78062581D01*
X126427610Y-78041262D01*
X127026342Y-78028040D01*
X127756083Y-78020833D01*
X128631848Y-78017562D01*
X129668653Y-78016148D01*
X129931147Y-78015867D01*
X134345923Y-78010986D01*
X135091924Y-78241595D01*
G36*
X114876354Y-77930412D02*
G01*
X115104167Y-77952764D01*
X115288890Y-77993280D01*
X115464612Y-78055384D01*
X115665424Y-78142505D01*
X115676415Y-78147436D01*
X115963290Y-78282394D01*
X116141479Y-78402242D01*
X116257924Y-78559894D01*
X116359562Y-78808263D01*
X116420639Y-78986375D01*
X116458680Y-79100980D01*
X116491609Y-79212714D01*
X116519805Y-79334780D01*
X116543648Y-79480381D01*
X116563518Y-79662720D01*
X116579796Y-79894999D01*
X116592862Y-80190422D01*
X116603095Y-80562191D01*
X116610875Y-81023509D01*
X116616584Y-81587580D01*
X116620601Y-82267606D01*
X116623305Y-83076789D01*
X116625077Y-84028333D01*
X116626298Y-85135441D01*
X116627147Y-86159781D01*
X116628614Y-87432076D01*
X116631000Y-88536170D01*
X116634523Y-89483365D01*
X116639402Y-90284963D01*
X116645856Y-90952267D01*
X116654104Y-91496579D01*
X116664364Y-91929202D01*
X116676854Y-92261438D01*
X116691794Y-92504589D01*
X116709403Y-92669959D01*
X116729898Y-92768849D01*
X116753499Y-92812561D01*
X116755904Y-92814250D01*
X116885544Y-92842044D01*
X117166004Y-92869646D01*
X117568597Y-92896209D01*
X118064639Y-92920885D01*
X118625444Y-92942828D01*
X119222327Y-92961189D01*
X119826603Y-92975122D01*
X120409587Y-92983779D01*
X120942593Y-92986312D01*
X121396937Y-92981875D01*
X121743933Y-92969620D01*
X121826136Y-92964027D01*
X122196365Y-92938926D01*
X122443036Y-92941642D01*
X122621081Y-92980932D01*
X122785432Y-93065551D01*
X122887970Y-93133273D01*
X123145257Y-93359223D01*
X123384526Y-93648349D01*
X123444578Y-93741713D01*
X123524636Y-93885669D01*
X123582682Y-94023462D01*
X123622091Y-94185899D01*
X123646238Y-94403792D01*
X123658498Y-94707948D01*
X123662245Y-95129177D01*
X123660855Y-95698288D01*
X123660781Y-95715437D01*
X123657541Y-96286337D01*
X123650917Y-96708473D01*
X123636949Y-97012588D01*
X123611676Y-97229421D01*
X123571139Y-97389715D01*
X123511377Y-97524209D01*
X123428429Y-97663646D01*
X123405033Y-97700628D01*
X123236276Y-97932950D01*
X123049917Y-98089554D01*
X122783341Y-98215298D01*
X122591147Y-98283750D01*
X122465344Y-98324644D01*
X122339571Y-98359205D01*
X122198379Y-98387937D01*
X122026319Y-98411342D01*
X121807940Y-98429925D01*
X121527793Y-98444190D01*
X121170428Y-98454640D01*
X120720395Y-98461778D01*
X120162246Y-98466109D01*
X119480529Y-98468137D01*
X118659796Y-98468364D01*
X117684597Y-98467295D01*
X116994880Y-98466201D01*
X115917338Y-98464268D01*
X115004076Y-98461973D01*
X114239867Y-98458749D01*
X113609486Y-98454028D01*
X113097706Y-98447241D01*
X112689302Y-98437821D01*
X112369047Y-98425200D01*
X112121716Y-98408809D01*
X111932083Y-98388081D01*
X111784921Y-98362447D01*
X111665006Y-98331340D01*
X111557111Y-98294191D01*
X111470081Y-98260086D01*
X111149866Y-98108841D01*
X110938329Y-97935890D01*
X110767940Y-97685280D01*
X110760770Y-97672387D01*
X110545098Y-97282413D01*
X110533943Y-88342283D01*
X110526260Y-82184262D01*
X111594409Y-82184262D01*
X111610252Y-82317528D01*
X111629320Y-82455157D01*
X111642973Y-82733543D01*
X111650067Y-83113988D01*
X111649460Y-83557794D01*
X111648725Y-83620527D01*
X111642184Y-84234563D01*
X111636981Y-84952213D01*
X111633061Y-85757047D01*
X111630370Y-86632632D01*
X111628854Y-87562538D01*
X111628457Y-88530334D01*
X111629127Y-89519589D01*
X111630808Y-90513871D01*
X111633446Y-91496751D01*
X111636986Y-92451796D01*
X111641376Y-93362576D01*
X111646559Y-94212660D01*
X111652482Y-94985617D01*
X111659091Y-95665016D01*
X111666331Y-96234426D01*
X111674148Y-96677416D01*
X111682487Y-96977554D01*
X111691294Y-97118410D01*
X111693387Y-97126561D01*
X111823418Y-97241794D01*
X111950467Y-97308406D01*
X112085812Y-97326997D01*
X112380389Y-97343255D01*
X112813938Y-97357193D01*
X113366200Y-97368824D01*
X114016916Y-97378158D01*
X114745828Y-97385209D01*
X115532677Y-97389990D01*
X116357203Y-97392511D01*
X117199149Y-97392786D01*
X118038254Y-97390826D01*
X118854260Y-97386645D01*
X119626908Y-97380253D01*
X120335940Y-97371665D01*
X120961096Y-97360891D01*
X121482117Y-97347944D01*
X121878745Y-97332837D01*
X122130720Y-97315581D01*
X122210291Y-97302191D01*
X122412483Y-97200437D01*
X122525140Y-97103249D01*
X122558119Y-96958329D01*
X122579978Y-96675719D01*
X122591356Y-96295528D01*
X122592890Y-95857866D01*
X122585220Y-95402844D01*
X122568986Y-94970573D01*
X122544825Y-94601162D01*
X122513377Y-94334722D01*
X122479147Y-94215808D01*
X122432060Y-94173234D01*
X122346951Y-94138600D01*
X122205023Y-94110655D01*
X121987483Y-94088143D01*
X121675534Y-94069811D01*
X121250383Y-94054406D01*
X120693234Y-94040674D01*
X119985291Y-94027361D01*
X119544876Y-94020084D01*
X118754988Y-94006912D01*
X118122950Y-93994375D01*
X117627122Y-93980810D01*
X117245865Y-93964552D01*
X116957537Y-93943936D01*
X116740500Y-93917297D01*
X116573113Y-93882972D01*
X116433735Y-93839295D01*
X116300728Y-93784602D01*
X116262866Y-93767624D01*
X116138229Y-93712308D01*
X116029517Y-93658755D01*
X115935606Y-93595009D01*
X115855373Y-93509110D01*
X115787694Y-93389101D01*
X115731445Y-93223022D01*
X115685503Y-92998916D01*
X115648744Y-92704825D01*
X115620045Y-92328789D01*
X115598282Y-91858852D01*
X115582332Y-91283053D01*
X115571070Y-90589436D01*
X115563374Y-89766042D01*
X115558119Y-88800913D01*
X115554182Y-87682089D01*
X115550440Y-86397614D01*
X115549792Y-86178477D01*
X115544143Y-84723921D01*
X115536410Y-83447806D01*
X115526574Y-82349076D01*
X115514618Y-81426681D01*
X115500523Y-80679565D01*
X115484272Y-80106676D01*
X115465846Y-79706961D01*
X115445227Y-79479365D01*
X115434196Y-79430047D01*
X115301777Y-79216912D01*
X115160136Y-79093475D01*
X115003319Y-79057337D01*
X114700185Y-79028063D01*
X114283862Y-79007773D01*
X113787476Y-78998586D01*
X113672039Y-78998265D01*
X112988261Y-79007225D01*
X112464854Y-79042189D01*
X112083219Y-79115282D01*
X111824759Y-79238630D01*
X111670877Y-79424357D01*
X111602973Y-79684590D01*
X111602452Y-80031453D01*
X111631760Y-80328492D01*
X111668741Y-80870459D01*
X111656485Y-81403256D01*
X111636018Y-81600836D01*
X111602633Y-81922358D01*
X111594409Y-82184262D01*
X110526260Y-82184262D01*
X110522788Y-79402152D01*
X110734917Y-78895278D01*
X110860143Y-78617143D01*
X110981333Y-78443652D01*
X111152931Y-78323950D01*
X111429379Y-78207183D01*
X111500259Y-78180376D01*
X111730462Y-78101347D01*
X111961542Y-78043292D01*
X112229436Y-78002052D01*
X112570082Y-77973468D01*
X113019418Y-77953378D01*
X113593474Y-77938063D01*
X114155097Y-77926488D01*
X114571361Y-77922795D01*
X114876354Y-77930412D01*
G37*
X114876354Y-77930412D02*
X115104167Y-77952764D01*
X115288890Y-77993280D01*
X115464612Y-78055384D01*
X115665424Y-78142505D01*
X115676415Y-78147436D01*
X115963290Y-78282394D01*
X116141479Y-78402242D01*
X116257924Y-78559894D01*
X116359562Y-78808263D01*
X116420639Y-78986375D01*
X116458680Y-79100980D01*
X116491609Y-79212714D01*
X116519805Y-79334780D01*
X116543648Y-79480381D01*
X116563518Y-79662720D01*
X116579796Y-79894999D01*
X116592862Y-80190422D01*
X116603095Y-80562191D01*
X116610875Y-81023509D01*
X116616584Y-81587580D01*
X116620601Y-82267606D01*
X116623305Y-83076789D01*
X116625077Y-84028333D01*
X116626298Y-85135441D01*
X116627147Y-86159781D01*
X116628614Y-87432076D01*
X116631000Y-88536170D01*
X116634523Y-89483365D01*
X116639402Y-90284963D01*
X116645856Y-90952267D01*
X116654104Y-91496579D01*
X116664364Y-91929202D01*
X116676854Y-92261438D01*
X116691794Y-92504589D01*
X116709403Y-92669959D01*
X116729898Y-92768849D01*
X116753499Y-92812561D01*
X116755904Y-92814250D01*
X116885544Y-92842044D01*
X117166004Y-92869646D01*
X117568597Y-92896209D01*
X118064639Y-92920885D01*
X118625444Y-92942828D01*
X119222327Y-92961189D01*
X119826603Y-92975122D01*
X120409587Y-92983779D01*
X120942593Y-92986312D01*
X121396937Y-92981875D01*
X121743933Y-92969620D01*
X121826136Y-92964027D01*
X122196365Y-92938926D01*
X122443036Y-92941642D01*
X122621081Y-92980932D01*
X122785432Y-93065551D01*
X122887970Y-93133273D01*
X123145257Y-93359223D01*
X123384526Y-93648349D01*
X123444578Y-93741713D01*
X123524636Y-93885669D01*
X123582682Y-94023462D01*
X123622091Y-94185899D01*
X123646238Y-94403792D01*
X123658498Y-94707948D01*
X123662245Y-95129177D01*
X123660855Y-95698288D01*
X123660781Y-95715437D01*
X123657541Y-96286337D01*
X123650917Y-96708473D01*
X123636949Y-97012588D01*
X123611676Y-97229421D01*
X123571139Y-97389715D01*
X123511377Y-97524209D01*
X123428429Y-97663646D01*
X123405033Y-97700628D01*
X123236276Y-97932950D01*
X123049917Y-98089554D01*
X122783341Y-98215298D01*
X122591147Y-98283750D01*
X122465344Y-98324644D01*
X122339571Y-98359205D01*
X122198379Y-98387937D01*
X122026319Y-98411342D01*
X121807940Y-98429925D01*
X121527793Y-98444190D01*
X121170428Y-98454640D01*
X120720395Y-98461778D01*
X120162246Y-98466109D01*
X119480529Y-98468137D01*
X118659796Y-98468364D01*
X117684597Y-98467295D01*
X116994880Y-98466201D01*
X115917338Y-98464268D01*
X115004076Y-98461973D01*
X114239867Y-98458749D01*
X113609486Y-98454028D01*
X113097706Y-98447241D01*
X112689302Y-98437821D01*
X112369047Y-98425200D01*
X112121716Y-98408809D01*
X111932083Y-98388081D01*
X111784921Y-98362447D01*
X111665006Y-98331340D01*
X111557111Y-98294191D01*
X111470081Y-98260086D01*
X111149866Y-98108841D01*
X110938329Y-97935890D01*
X110767940Y-97685280D01*
X110760770Y-97672387D01*
X110545098Y-97282413D01*
X110533943Y-88342283D01*
X110526260Y-82184262D01*
X111594409Y-82184262D01*
X111610252Y-82317528D01*
X111629320Y-82455157D01*
X111642973Y-82733543D01*
X111650067Y-83113988D01*
X111649460Y-83557794D01*
X111648725Y-83620527D01*
X111642184Y-84234563D01*
X111636981Y-84952213D01*
X111633061Y-85757047D01*
X111630370Y-86632632D01*
X111628854Y-87562538D01*
X111628457Y-88530334D01*
X111629127Y-89519589D01*
X111630808Y-90513871D01*
X111633446Y-91496751D01*
X111636986Y-92451796D01*
X111641376Y-93362576D01*
X111646559Y-94212660D01*
X111652482Y-94985617D01*
X111659091Y-95665016D01*
X111666331Y-96234426D01*
X111674148Y-96677416D01*
X111682487Y-96977554D01*
X111691294Y-97118410D01*
X111693387Y-97126561D01*
X111823418Y-97241794D01*
X111950467Y-97308406D01*
X112085812Y-97326997D01*
X112380389Y-97343255D01*
X112813938Y-97357193D01*
X113366200Y-97368824D01*
X114016916Y-97378158D01*
X114745828Y-97385209D01*
X115532677Y-97389990D01*
X116357203Y-97392511D01*
X117199149Y-97392786D01*
X118038254Y-97390826D01*
X118854260Y-97386645D01*
X119626908Y-97380253D01*
X120335940Y-97371665D01*
X120961096Y-97360891D01*
X121482117Y-97347944D01*
X121878745Y-97332837D01*
X122130720Y-97315581D01*
X122210291Y-97302191D01*
X122412483Y-97200437D01*
X122525140Y-97103249D01*
X122558119Y-96958329D01*
X122579978Y-96675719D01*
X122591356Y-96295528D01*
X122592890Y-95857866D01*
X122585220Y-95402844D01*
X122568986Y-94970573D01*
X122544825Y-94601162D01*
X122513377Y-94334722D01*
X122479147Y-94215808D01*
X122432060Y-94173234D01*
X122346951Y-94138600D01*
X122205023Y-94110655D01*
X121987483Y-94088143D01*
X121675534Y-94069811D01*
X121250383Y-94054406D01*
X120693234Y-94040674D01*
X119985291Y-94027361D01*
X119544876Y-94020084D01*
X118754988Y-94006912D01*
X118122950Y-93994375D01*
X117627122Y-93980810D01*
X117245865Y-93964552D01*
X116957537Y-93943936D01*
X116740500Y-93917297D01*
X116573113Y-93882972D01*
X116433735Y-93839295D01*
X116300728Y-93784602D01*
X116262866Y-93767624D01*
X116138229Y-93712308D01*
X116029517Y-93658755D01*
X115935606Y-93595009D01*
X115855373Y-93509110D01*
X115787694Y-93389101D01*
X115731445Y-93223022D01*
X115685503Y-92998916D01*
X115648744Y-92704825D01*
X115620045Y-92328789D01*
X115598282Y-91858852D01*
X115582332Y-91283053D01*
X115571070Y-90589436D01*
X115563374Y-89766042D01*
X115558119Y-88800913D01*
X115554182Y-87682089D01*
X115550440Y-86397614D01*
X115549792Y-86178477D01*
X115544143Y-84723921D01*
X115536410Y-83447806D01*
X115526574Y-82349076D01*
X115514618Y-81426681D01*
X115500523Y-80679565D01*
X115484272Y-80106676D01*
X115465846Y-79706961D01*
X115445227Y-79479365D01*
X115434196Y-79430047D01*
X115301777Y-79216912D01*
X115160136Y-79093475D01*
X115003319Y-79057337D01*
X114700185Y-79028063D01*
X114283862Y-79007773D01*
X113787476Y-78998586D01*
X113672039Y-78998265D01*
X112988261Y-79007225D01*
X112464854Y-79042189D01*
X112083219Y-79115282D01*
X111824759Y-79238630D01*
X111670877Y-79424357D01*
X111602973Y-79684590D01*
X111602452Y-80031453D01*
X111631760Y-80328492D01*
X111668741Y-80870459D01*
X111656485Y-81403256D01*
X111636018Y-81600836D01*
X111602633Y-81922358D01*
X111594409Y-82184262D01*
X110526260Y-82184262D01*
X110522788Y-79402152D01*
X110734917Y-78895278D01*
X110860143Y-78617143D01*
X110981333Y-78443652D01*
X111152931Y-78323950D01*
X111429379Y-78207183D01*
X111500259Y-78180376D01*
X111730462Y-78101347D01*
X111961542Y-78043292D01*
X112229436Y-78002052D01*
X112570082Y-77973468D01*
X113019418Y-77953378D01*
X113593474Y-77938063D01*
X114155097Y-77926488D01*
X114571361Y-77922795D01*
X114876354Y-77930412D01*
G36*
X59978204Y-78019085D02*
G01*
X60857809Y-78022982D01*
X61747113Y-78028176D01*
X62754975Y-78034625D01*
X63600190Y-78040855D01*
X64299613Y-78047659D01*
X64870097Y-78055828D01*
X65328498Y-78066154D01*
X65691671Y-78079431D01*
X65976471Y-78096450D01*
X66199752Y-78118004D01*
X66378369Y-78144884D01*
X66529177Y-78177884D01*
X66669031Y-78217794D01*
X66814786Y-78265408D01*
X66818137Y-78266532D01*
X67348688Y-78450889D01*
X67766326Y-78616024D01*
X68131117Y-78790675D01*
X68503127Y-79003581D01*
X68939169Y-79281351D01*
X69544943Y-79742548D01*
X70158010Y-80323831D01*
X70731392Y-80974182D01*
X71218115Y-81642583D01*
X71416930Y-81972340D01*
X71736375Y-82687143D01*
X71981987Y-83526895D01*
X72149023Y-84450870D01*
X72232743Y-85418342D01*
X72228407Y-86388584D01*
X72131272Y-87320871D01*
X72075214Y-87627078D01*
X71942576Y-88202689D01*
X71792549Y-88682608D01*
X71599801Y-89125557D01*
X71338998Y-89590255D01*
X71007675Y-90101568D01*
X70290261Y-91027057D01*
X69492857Y-91792696D01*
X68612465Y-92400787D01*
X67646086Y-92853636D01*
X67254288Y-92985921D01*
X66487464Y-93207329D01*
X65837282Y-93364350D01*
X65255714Y-93464052D01*
X64694730Y-93513505D01*
X64106302Y-93519777D01*
X63721671Y-93505833D01*
X63012246Y-93488630D01*
X62473269Y-93516164D01*
X62101234Y-93588875D01*
X61892637Y-93707204D01*
X61868648Y-93738886D01*
X61847898Y-93858219D01*
X61829253Y-94126780D01*
X61813923Y-94514293D01*
X61803113Y-94990483D01*
X61798091Y-95508177D01*
X61789494Y-96237166D01*
X61765199Y-96810524D01*
X61718487Y-97251903D01*
X61642642Y-97584952D01*
X61530947Y-97833321D01*
X61376684Y-98020661D01*
X61173137Y-98170623D01*
X61017672Y-98255995D01*
X60858306Y-98332638D01*
X60706953Y-98388710D01*
X60533157Y-98427225D01*
X60306460Y-98451194D01*
X59996405Y-98463630D01*
X59572537Y-98467547D01*
X59004397Y-98465955D01*
X58900450Y-98465403D01*
X58349459Y-98458965D01*
X57844045Y-98446664D01*
X57418153Y-98429826D01*
X57105728Y-98409776D01*
X56945346Y-98389063D01*
X56515355Y-98260023D01*
X56224398Y-98108882D01*
X56032170Y-97905825D01*
X55898368Y-97621035D01*
X55895309Y-97612283D01*
X55868008Y-97535515D01*
X55843703Y-97464456D01*
X55822253Y-97388811D01*
X55803517Y-97298288D01*
X55787356Y-97182595D01*
X55773628Y-97031437D01*
X55762192Y-96834522D01*
X55752908Y-96581556D01*
X55745636Y-96262247D01*
X55740234Y-95866302D01*
X55736562Y-95383427D01*
X55734479Y-94803329D01*
X55733845Y-94115716D01*
X55734519Y-93310294D01*
X55736360Y-92376769D01*
X55739228Y-91304850D01*
X55742982Y-90084243D01*
X55747481Y-88704654D01*
X55752552Y-87165756D01*
X55769593Y-81961459D01*
X56759048Y-81961459D01*
X56769559Y-82055871D01*
X56775608Y-82153277D01*
X56781331Y-82416037D01*
X56786649Y-82830001D01*
X56791485Y-83381018D01*
X56795763Y-84054938D01*
X56799404Y-84837611D01*
X56802333Y-85714885D01*
X56804471Y-86672611D01*
X56805741Y-87696637D01*
X56806070Y-88747264D01*
X56805712Y-90179351D01*
X56805260Y-91442535D01*
X56805029Y-92547415D01*
X56805336Y-93504592D01*
X56806496Y-94324667D01*
X56808825Y-95018240D01*
X56812637Y-95595913D01*
X56818249Y-96068286D01*
X56825976Y-96445960D01*
X56836134Y-96739535D01*
X56849039Y-96959612D01*
X56865005Y-97116792D01*
X56884348Y-97221676D01*
X56907385Y-97284863D01*
X56934430Y-97316956D01*
X56965799Y-97328554D01*
X57001808Y-97330258D01*
X57042772Y-97332669D01*
X57061754Y-97336502D01*
X57197592Y-97349958D01*
X57481176Y-97362680D01*
X57880747Y-97373769D01*
X58364545Y-97382325D01*
X58850521Y-97387147D01*
X59429521Y-97390097D01*
X59855295Y-97388594D01*
X60154117Y-97379790D01*
X60352260Y-97360837D01*
X60475994Y-97328889D01*
X60551595Y-97281098D01*
X60605334Y-97214617D01*
X60617864Y-97195615D01*
X60666571Y-97082431D01*
X60702474Y-96898152D01*
X60727241Y-96619088D01*
X60742542Y-96221546D01*
X60750047Y-95681838D01*
X60751479Y-95299445D01*
X60755895Y-94581803D01*
X60772172Y-94020683D01*
X60807970Y-93593150D01*
X60870950Y-93276268D01*
X60968769Y-93047105D01*
X61109089Y-92882723D01*
X61299569Y-92760190D01*
X61547867Y-92656570D01*
X61645689Y-92621964D01*
X61897829Y-92540886D01*
X62130850Y-92485496D01*
X62385810Y-92452007D01*
X62703764Y-92436634D01*
X63125769Y-92435591D01*
X63587042Y-92442946D01*
X64269949Y-92447244D01*
X64840071Y-92424474D01*
X65357576Y-92366255D01*
X65882635Y-92264204D01*
X66475417Y-92109939D01*
X66924523Y-91978005D01*
X67832125Y-91611073D01*
X68663440Y-91082506D01*
X69415716Y-90394419D01*
X70086200Y-89548931D01*
X70089417Y-89544201D01*
X70381601Y-89103482D01*
X70590546Y-88752052D01*
X70741221Y-88435980D01*
X70858595Y-88101329D01*
X70967635Y-87694166D01*
X70991552Y-87595484D01*
X71119037Y-86839897D01*
X71166873Y-86010217D01*
X71139358Y-85150472D01*
X71040791Y-84304689D01*
X70875471Y-83516892D01*
X70647695Y-82831110D01*
X70494915Y-82508874D01*
X70203793Y-82049345D01*
X69793919Y-81513339D01*
X69289854Y-80932472D01*
X69168867Y-80801917D01*
X68632189Y-80336372D01*
X67938879Y-79910450D01*
X67109545Y-79535344D01*
X66369374Y-79281583D01*
X66210578Y-79236523D01*
X66048603Y-79198900D01*
X65865475Y-79167829D01*
X65643220Y-79142425D01*
X65363863Y-79121804D01*
X65009430Y-79105080D01*
X64561947Y-79091369D01*
X64003439Y-79079786D01*
X63315931Y-79069446D01*
X62481450Y-79059465D01*
X61685812Y-79051040D01*
X60649613Y-79041444D01*
X59778281Y-79036307D01*
X59057215Y-79036510D01*
X58471812Y-79042932D01*
X58007470Y-79056452D01*
X57649587Y-79077949D01*
X57383562Y-79108305D01*
X57194791Y-79148398D01*
X57068673Y-79199108D01*
X56990605Y-79261314D01*
X56945986Y-79335897D01*
X56945706Y-79336591D01*
X56918328Y-79477067D01*
X56887001Y-79749952D01*
X56854278Y-80115846D01*
X56822711Y-80535350D01*
X56794852Y-80969063D01*
X56773254Y-81377585D01*
X56760468Y-81721517D01*
X56759048Y-81961459D01*
X55769593Y-81961459D01*
X55778562Y-79222647D01*
X56018661Y-78767690D01*
X56170025Y-78505720D01*
X56317678Y-78346804D01*
X56525158Y-78240049D01*
X56781559Y-78156612D01*
X56914945Y-78120874D01*
X57065331Y-78091244D01*
X57249195Y-78067297D01*
X57483015Y-78048607D01*
X57783270Y-78034747D01*
X58166438Y-78025291D01*
X58648997Y-78019813D01*
X59247427Y-78017886D01*
X59978204Y-78019085D01*
G37*
X59978204Y-78019085D02*
X60857809Y-78022982D01*
X61747113Y-78028176D01*
X62754975Y-78034625D01*
X63600190Y-78040855D01*
X64299613Y-78047659D01*
X64870097Y-78055828D01*
X65328498Y-78066154D01*
X65691671Y-78079431D01*
X65976471Y-78096450D01*
X66199752Y-78118004D01*
X66378369Y-78144884D01*
X66529177Y-78177884D01*
X66669031Y-78217794D01*
X66814786Y-78265408D01*
X66818137Y-78266532D01*
X67348688Y-78450889D01*
X67766326Y-78616024D01*
X68131117Y-78790675D01*
X68503127Y-79003581D01*
X68939169Y-79281351D01*
X69544943Y-79742548D01*
X70158010Y-80323831D01*
X70731392Y-80974182D01*
X71218115Y-81642583D01*
X71416930Y-81972340D01*
X71736375Y-82687143D01*
X71981987Y-83526895D01*
X72149023Y-84450870D01*
X72232743Y-85418342D01*
X72228407Y-86388584D01*
X72131272Y-87320871D01*
X72075214Y-87627078D01*
X71942576Y-88202689D01*
X71792549Y-88682608D01*
X71599801Y-89125557D01*
X71338998Y-89590255D01*
X71007675Y-90101568D01*
X70290261Y-91027057D01*
X69492857Y-91792696D01*
X68612465Y-92400787D01*
X67646086Y-92853636D01*
X67254288Y-92985921D01*
X66487464Y-93207329D01*
X65837282Y-93364350D01*
X65255714Y-93464052D01*
X64694730Y-93513505D01*
X64106302Y-93519777D01*
X63721671Y-93505833D01*
X63012246Y-93488630D01*
X62473269Y-93516164D01*
X62101234Y-93588875D01*
X61892637Y-93707204D01*
X61868648Y-93738886D01*
X61847898Y-93858219D01*
X61829253Y-94126780D01*
X61813923Y-94514293D01*
X61803113Y-94990483D01*
X61798091Y-95508177D01*
X61789494Y-96237166D01*
X61765199Y-96810524D01*
X61718487Y-97251903D01*
X61642642Y-97584952D01*
X61530947Y-97833321D01*
X61376684Y-98020661D01*
X61173137Y-98170623D01*
X61017672Y-98255995D01*
X60858306Y-98332638D01*
X60706953Y-98388710D01*
X60533157Y-98427225D01*
X60306460Y-98451194D01*
X59996405Y-98463630D01*
X59572537Y-98467547D01*
X59004397Y-98465955D01*
X58900450Y-98465403D01*
X58349459Y-98458965D01*
X57844045Y-98446664D01*
X57418153Y-98429826D01*
X57105728Y-98409776D01*
X56945346Y-98389063D01*
X56515355Y-98260023D01*
X56224398Y-98108882D01*
X56032170Y-97905825D01*
X55898368Y-97621035D01*
X55895309Y-97612283D01*
X55868008Y-97535515D01*
X55843703Y-97464456D01*
X55822253Y-97388811D01*
X55803517Y-97298288D01*
X55787356Y-97182595D01*
X55773628Y-97031437D01*
X55762192Y-96834522D01*
X55752908Y-96581556D01*
X55745636Y-96262247D01*
X55740234Y-95866302D01*
X55736562Y-95383427D01*
X55734479Y-94803329D01*
X55733845Y-94115716D01*
X55734519Y-93310294D01*
X55736360Y-92376769D01*
X55739228Y-91304850D01*
X55742982Y-90084243D01*
X55747481Y-88704654D01*
X55752552Y-87165756D01*
X55769593Y-81961459D01*
X56759048Y-81961459D01*
X56769559Y-82055871D01*
X56775608Y-82153277D01*
X56781331Y-82416037D01*
X56786649Y-82830001D01*
X56791485Y-83381018D01*
X56795763Y-84054938D01*
X56799404Y-84837611D01*
X56802333Y-85714885D01*
X56804471Y-86672611D01*
X56805741Y-87696637D01*
X56806070Y-88747264D01*
X56805712Y-90179351D01*
X56805260Y-91442535D01*
X56805029Y-92547415D01*
X56805336Y-93504592D01*
X56806496Y-94324667D01*
X56808825Y-95018240D01*
X56812637Y-95595913D01*
X56818249Y-96068286D01*
X56825976Y-96445960D01*
X56836134Y-96739535D01*
X56849039Y-96959612D01*
X56865005Y-97116792D01*
X56884348Y-97221676D01*
X56907385Y-97284863D01*
X56934430Y-97316956D01*
X56965799Y-97328554D01*
X57001808Y-97330258D01*
X57042772Y-97332669D01*
X57061754Y-97336502D01*
X57197592Y-97349958D01*
X57481176Y-97362680D01*
X57880747Y-97373769D01*
X58364545Y-97382325D01*
X58850521Y-97387147D01*
X59429521Y-97390097D01*
X59855295Y-97388594D01*
X60154117Y-97379790D01*
X60352260Y-97360837D01*
X60475994Y-97328889D01*
X60551595Y-97281098D01*
X60605334Y-97214617D01*
X60617864Y-97195615D01*
X60666571Y-97082431D01*
X60702474Y-96898152D01*
X60727241Y-96619088D01*
X60742542Y-96221546D01*
X60750047Y-95681838D01*
X60751479Y-95299445D01*
X60755895Y-94581803D01*
X60772172Y-94020683D01*
X60807970Y-93593150D01*
X60870950Y-93276268D01*
X60968769Y-93047105D01*
X61109089Y-92882723D01*
X61299569Y-92760190D01*
X61547867Y-92656570D01*
X61645689Y-92621964D01*
X61897829Y-92540886D01*
X62130850Y-92485496D01*
X62385810Y-92452007D01*
X62703764Y-92436634D01*
X63125769Y-92435591D01*
X63587042Y-92442946D01*
X64269949Y-92447244D01*
X64840071Y-92424474D01*
X65357576Y-92366255D01*
X65882635Y-92264204D01*
X66475417Y-92109939D01*
X66924523Y-91978005D01*
X67832125Y-91611073D01*
X68663440Y-91082506D01*
X69415716Y-90394419D01*
X70086200Y-89548931D01*
X70089417Y-89544201D01*
X70381601Y-89103482D01*
X70590546Y-88752052D01*
X70741221Y-88435980D01*
X70858595Y-88101329D01*
X70967635Y-87694166D01*
X70991552Y-87595484D01*
X71119037Y-86839897D01*
X71166873Y-86010217D01*
X71139358Y-85150472D01*
X71040791Y-84304689D01*
X70875471Y-83516892D01*
X70647695Y-82831110D01*
X70494915Y-82508874D01*
X70203793Y-82049345D01*
X69793919Y-81513339D01*
X69289854Y-80932472D01*
X69168867Y-80801917D01*
X68632189Y-80336372D01*
X67938879Y-79910450D01*
X67109545Y-79535344D01*
X66369374Y-79281583D01*
X66210578Y-79236523D01*
X66048603Y-79198900D01*
X65865475Y-79167829D01*
X65643220Y-79142425D01*
X65363863Y-79121804D01*
X65009430Y-79105080D01*
X64561947Y-79091369D01*
X64003439Y-79079786D01*
X63315931Y-79069446D01*
X62481450Y-79059465D01*
X61685812Y-79051040D01*
X60649613Y-79041444D01*
X59778281Y-79036307D01*
X59057215Y-79036510D01*
X58471812Y-79042932D01*
X58007470Y-79056452D01*
X57649587Y-79077949D01*
X57383562Y-79108305D01*
X57194791Y-79148398D01*
X57068673Y-79199108D01*
X56990605Y-79261314D01*
X56945986Y-79335897D01*
X56945706Y-79336591D01*
X56918328Y-79477067D01*
X56887001Y-79749952D01*
X56854278Y-80115846D01*
X56822711Y-80535350D01*
X56794852Y-80969063D01*
X56773254Y-81377585D01*
X56760468Y-81721517D01*
X56759048Y-81961459D01*
X55769593Y-81961459D01*
X55778562Y-79222647D01*
X56018661Y-78767690D01*
X56170025Y-78505720D01*
X56317678Y-78346804D01*
X56525158Y-78240049D01*
X56781559Y-78156612D01*
X56914945Y-78120874D01*
X57065331Y-78091244D01*
X57249195Y-78067297D01*
X57483015Y-78048607D01*
X57783270Y-78034747D01*
X58166438Y-78025291D01*
X58648997Y-78019813D01*
X59247427Y-78017886D01*
X59978204Y-78019085D01*
G36*
X47252060Y-78160776D02*
G01*
X47546237Y-78310497D01*
X47727873Y-78444928D01*
X47848709Y-78621131D01*
X47960482Y-78896168D01*
X47987766Y-78972160D01*
X48034908Y-79110081D01*
X48073973Y-79247067D01*
X48105798Y-79400950D01*
X48131225Y-79589561D01*
X48151092Y-79830731D01*
X48166239Y-80142291D01*
X48177505Y-80542073D01*
X48185729Y-81047909D01*
X48191752Y-81677628D01*
X48196413Y-82449064D01*
X48200550Y-83380047D01*
X48201048Y-83502552D01*
X48204510Y-84414798D01*
X48207606Y-85342055D01*
X48210263Y-86253625D01*
X48212408Y-87118812D01*
X48213967Y-87906918D01*
X48214865Y-88587247D01*
X48215030Y-89129101D01*
X48214908Y-89274943D01*
X48215521Y-90206732D01*
X48220237Y-90972581D01*
X48229566Y-91586024D01*
X48244017Y-92060591D01*
X48264100Y-92409813D01*
X48290326Y-92647221D01*
X48323205Y-92786347D01*
X48348942Y-92831048D01*
X48467866Y-92860250D01*
X48758271Y-92886605D01*
X49212151Y-92909779D01*
X49821502Y-92929439D01*
X50578315Y-92945249D01*
X51328822Y-92955382D01*
X52181195Y-92965138D01*
X52873490Y-92976971D01*
X53425124Y-92994929D01*
X53855513Y-93023059D01*
X54184074Y-93065408D01*
X54430223Y-93126022D01*
X54613377Y-93208949D01*
X54752952Y-93318235D01*
X54868366Y-93457928D01*
X54979034Y-93632074D01*
X55035503Y-93727949D01*
X55117583Y-93873682D01*
X55177089Y-94008958D01*
X55217234Y-94164324D01*
X55241228Y-94370333D01*
X55252285Y-94657532D01*
X55253615Y-95056474D01*
X55248431Y-95597706D01*
X55246755Y-95737264D01*
X55238713Y-96315218D01*
X55228130Y-96743866D01*
X55211218Y-97053401D01*
X55184189Y-97274017D01*
X55143253Y-97435907D01*
X55084623Y-97569267D01*
X55004509Y-97704289D01*
X54998821Y-97713284D01*
X54834023Y-97932424D01*
X54635195Y-98088098D01*
X54342555Y-98222222D01*
X54197486Y-98275147D01*
X54071769Y-98318242D01*
X53949690Y-98354673D01*
X53815800Y-98384972D01*
X53654652Y-98409671D01*
X53450800Y-98429302D01*
X53188796Y-98444398D01*
X52853193Y-98455491D01*
X52428544Y-98463113D01*
X51899403Y-98467797D01*
X51250321Y-98470074D01*
X50465853Y-98470478D01*
X49530550Y-98469539D01*
X48598350Y-98468072D01*
X47520347Y-98466109D01*
X46606551Y-98463715D01*
X45841661Y-98460339D01*
X45210380Y-98455425D01*
X44697408Y-98448423D01*
X44287445Y-98438779D01*
X43965193Y-98425939D01*
X43715353Y-98409351D01*
X43522625Y-98388463D01*
X43371710Y-98362720D01*
X43247310Y-98331570D01*
X43134125Y-98294461D01*
X43062250Y-98267983D01*
X42761672Y-98141136D01*
X42573352Y-98008648D01*
X42436453Y-97817332D01*
X42350777Y-97645971D01*
X42149255Y-97215713D01*
X42129615Y-90409748D01*
X43220860Y-90409748D01*
X43221093Y-91461313D01*
X43221870Y-92468649D01*
X43223206Y-93416840D01*
X43225115Y-94290970D01*
X43227612Y-95076124D01*
X43230712Y-95757386D01*
X43234430Y-96319840D01*
X43238780Y-96748571D01*
X43243776Y-97028664D01*
X43249100Y-97143259D01*
X43278321Y-97194114D01*
X43358055Y-97237526D01*
X43501033Y-97274083D01*
X43719989Y-97304371D01*
X44027654Y-97328979D01*
X44436758Y-97348494D01*
X44960036Y-97363503D01*
X45610218Y-97374593D01*
X46400036Y-97382352D01*
X47342222Y-97387368D01*
X48449508Y-97390227D01*
X48607394Y-97390473D01*
X49803177Y-97390783D01*
X50826835Y-97387876D01*
X51685724Y-97381613D01*
X52387198Y-97371858D01*
X52938612Y-97358475D01*
X53347320Y-97341327D01*
X53620679Y-97320276D01*
X53766041Y-97295186D01*
X53768172Y-97294481D01*
X53980364Y-97217827D01*
X54104554Y-97163677D01*
X54111661Y-97158849D01*
X54126062Y-97062561D01*
X54140585Y-96818314D01*
X54153947Y-96457646D01*
X54164864Y-96012098D01*
X54169391Y-95740178D01*
X54171824Y-95116765D01*
X54158878Y-94661414D01*
X54129932Y-94363289D01*
X54084365Y-94211557D01*
X54081556Y-94207505D01*
X54033700Y-94165928D01*
X53944745Y-94132106D01*
X53796025Y-94104842D01*
X53568873Y-94082941D01*
X53244623Y-94065207D01*
X52804608Y-94050443D01*
X52230162Y-94037455D01*
X51502618Y-94025045D01*
X51151741Y-94019788D01*
X50356545Y-94007462D01*
X49719100Y-93995175D01*
X49217660Y-93981404D01*
X48830476Y-93964628D01*
X48535803Y-93943328D01*
X48311893Y-93915982D01*
X48136999Y-93881069D01*
X47989374Y-93837068D01*
X47865578Y-93789958D01*
X47738047Y-93738542D01*
X47626769Y-93687108D01*
X47530602Y-93623759D01*
X47448408Y-93536597D01*
X47379045Y-93413724D01*
X47321373Y-93243244D01*
X47274253Y-93013258D01*
X47236544Y-92711870D01*
X47207105Y-92327181D01*
X47184798Y-91847294D01*
X47168481Y-91260312D01*
X47157014Y-90554338D01*
X47149257Y-89717473D01*
X47144070Y-88737820D01*
X47140313Y-87603482D01*
X47136846Y-86302562D01*
X47136524Y-86182583D01*
X47131356Y-84744796D01*
X47124054Y-83484447D01*
X47114582Y-82399479D01*
X47102907Y-81487836D01*
X47088992Y-80747462D01*
X47072802Y-80176302D01*
X47054301Y-79772299D01*
X47033456Y-79533397D01*
X47021401Y-79472883D01*
X46907872Y-79243898D01*
X46765766Y-79092266D01*
X46757133Y-79087329D01*
X46591586Y-79048804D01*
X46287024Y-79021563D01*
X45883570Y-79005375D01*
X45421345Y-79000014D01*
X44940472Y-79005250D01*
X44481070Y-79020856D01*
X44083263Y-79046602D01*
X43787172Y-79082262D01*
X43686202Y-79104802D01*
X43412964Y-79230185D01*
X43268504Y-79391070D01*
X43266531Y-79396498D01*
X43260684Y-79501134D01*
X43255176Y-79770359D01*
X43250022Y-80189259D01*
X43245236Y-80742916D01*
X43240833Y-81416416D01*
X43236828Y-82194842D01*
X43233235Y-83063280D01*
X43230069Y-84006814D01*
X43227345Y-85010527D01*
X43225077Y-86059505D01*
X43223280Y-87138832D01*
X43221968Y-88233592D01*
X43221156Y-89328869D01*
X43220860Y-90409748D01*
X42129615Y-90409748D01*
X42123940Y-88443562D01*
X42120175Y-87202530D01*
X42116205Y-86011506D01*
X42112089Y-84882857D01*
X42107891Y-83828951D01*
X42103670Y-82862158D01*
X42099488Y-81994846D01*
X42095406Y-81239383D01*
X42091485Y-80608139D01*
X42087787Y-80113481D01*
X42084372Y-79767778D01*
X42081301Y-79583399D01*
X42079995Y-79555989D01*
X42106944Y-79419772D01*
X42195659Y-79178380D01*
X42313616Y-78912798D01*
X42467175Y-78615553D01*
X42610918Y-78429814D01*
X42801912Y-78300504D01*
X43069034Y-78183788D01*
X43279204Y-78107938D01*
X43497655Y-78051656D01*
X43758585Y-78010961D01*
X44096192Y-77981875D01*
X44544675Y-77960420D01*
X45138230Y-77942616D01*
X45142872Y-77942497D01*
X46713544Y-77902446D01*
X47252060Y-78160776D01*
G37*
X47252060Y-78160776D02*
X47546237Y-78310497D01*
X47727873Y-78444928D01*
X47848709Y-78621131D01*
X47960482Y-78896168D01*
X47987766Y-78972160D01*
X48034908Y-79110081D01*
X48073973Y-79247067D01*
X48105798Y-79400950D01*
X48131225Y-79589561D01*
X48151092Y-79830731D01*
X48166239Y-80142291D01*
X48177505Y-80542073D01*
X48185729Y-81047909D01*
X48191752Y-81677628D01*
X48196413Y-82449064D01*
X48200550Y-83380047D01*
X48201048Y-83502552D01*
X48204510Y-84414798D01*
X48207606Y-85342055D01*
X48210263Y-86253625D01*
X48212408Y-87118812D01*
X48213967Y-87906918D01*
X48214865Y-88587247D01*
X48215030Y-89129101D01*
X48214908Y-89274943D01*
X48215521Y-90206732D01*
X48220237Y-90972581D01*
X48229566Y-91586024D01*
X48244017Y-92060591D01*
X48264100Y-92409813D01*
X48290326Y-92647221D01*
X48323205Y-92786347D01*
X48348942Y-92831048D01*
X48467866Y-92860250D01*
X48758271Y-92886605D01*
X49212151Y-92909779D01*
X49821502Y-92929439D01*
X50578315Y-92945249D01*
X51328822Y-92955382D01*
X52181195Y-92965138D01*
X52873490Y-92976971D01*
X53425124Y-92994929D01*
X53855513Y-93023059D01*
X54184074Y-93065408D01*
X54430223Y-93126022D01*
X54613377Y-93208949D01*
X54752952Y-93318235D01*
X54868366Y-93457928D01*
X54979034Y-93632074D01*
X55035503Y-93727949D01*
X55117583Y-93873682D01*
X55177089Y-94008958D01*
X55217234Y-94164324D01*
X55241228Y-94370333D01*
X55252285Y-94657532D01*
X55253615Y-95056474D01*
X55248431Y-95597706D01*
X55246755Y-95737264D01*
X55238713Y-96315218D01*
X55228130Y-96743866D01*
X55211218Y-97053401D01*
X55184189Y-97274017D01*
X55143253Y-97435907D01*
X55084623Y-97569267D01*
X55004509Y-97704289D01*
X54998821Y-97713284D01*
X54834023Y-97932424D01*
X54635195Y-98088098D01*
X54342555Y-98222222D01*
X54197486Y-98275147D01*
X54071769Y-98318242D01*
X53949690Y-98354673D01*
X53815800Y-98384972D01*
X53654652Y-98409671D01*
X53450800Y-98429302D01*
X53188796Y-98444398D01*
X52853193Y-98455491D01*
X52428544Y-98463113D01*
X51899403Y-98467797D01*
X51250321Y-98470074D01*
X50465853Y-98470478D01*
X49530550Y-98469539D01*
X48598350Y-98468072D01*
X47520347Y-98466109D01*
X46606551Y-98463715D01*
X45841661Y-98460339D01*
X45210380Y-98455425D01*
X44697408Y-98448423D01*
X44287445Y-98438779D01*
X43965193Y-98425939D01*
X43715353Y-98409351D01*
X43522625Y-98388463D01*
X43371710Y-98362720D01*
X43247310Y-98331570D01*
X43134125Y-98294461D01*
X43062250Y-98267983D01*
X42761672Y-98141136D01*
X42573352Y-98008648D01*
X42436453Y-97817332D01*
X42350777Y-97645971D01*
X42149255Y-97215713D01*
X42129615Y-90409748D01*
X43220860Y-90409748D01*
X43221093Y-91461313D01*
X43221870Y-92468649D01*
X43223206Y-93416840D01*
X43225115Y-94290970D01*
X43227612Y-95076124D01*
X43230712Y-95757386D01*
X43234430Y-96319840D01*
X43238780Y-96748571D01*
X43243776Y-97028664D01*
X43249100Y-97143259D01*
X43278321Y-97194114D01*
X43358055Y-97237526D01*
X43501033Y-97274083D01*
X43719989Y-97304371D01*
X44027654Y-97328979D01*
X44436758Y-97348494D01*
X44960036Y-97363503D01*
X45610218Y-97374593D01*
X46400036Y-97382352D01*
X47342222Y-97387368D01*
X48449508Y-97390227D01*
X48607394Y-97390473D01*
X49803177Y-97390783D01*
X50826835Y-97387876D01*
X51685724Y-97381613D01*
X52387198Y-97371858D01*
X52938612Y-97358475D01*
X53347320Y-97341327D01*
X53620679Y-97320276D01*
X53766041Y-97295186D01*
X53768172Y-97294481D01*
X53980364Y-97217827D01*
X54104554Y-97163677D01*
X54111661Y-97158849D01*
X54126062Y-97062561D01*
X54140585Y-96818314D01*
X54153947Y-96457646D01*
X54164864Y-96012098D01*
X54169391Y-95740178D01*
X54171824Y-95116765D01*
X54158878Y-94661414D01*
X54129932Y-94363289D01*
X54084365Y-94211557D01*
X54081556Y-94207505D01*
X54033700Y-94165928D01*
X53944745Y-94132106D01*
X53796025Y-94104842D01*
X53568873Y-94082941D01*
X53244623Y-94065207D01*
X52804608Y-94050443D01*
X52230162Y-94037455D01*
X51502618Y-94025045D01*
X51151741Y-94019788D01*
X50356545Y-94007462D01*
X49719100Y-93995175D01*
X49217660Y-93981404D01*
X48830476Y-93964628D01*
X48535803Y-93943328D01*
X48311893Y-93915982D01*
X48136999Y-93881069D01*
X47989374Y-93837068D01*
X47865578Y-93789958D01*
X47738047Y-93738542D01*
X47626769Y-93687108D01*
X47530602Y-93623759D01*
X47448408Y-93536597D01*
X47379045Y-93413724D01*
X47321373Y-93243244D01*
X47274253Y-93013258D01*
X47236544Y-92711870D01*
X47207105Y-92327181D01*
X47184798Y-91847294D01*
X47168481Y-91260312D01*
X47157014Y-90554338D01*
X47149257Y-89717473D01*
X47144070Y-88737820D01*
X47140313Y-87603482D01*
X47136846Y-86302562D01*
X47136524Y-86182583D01*
X47131356Y-84744796D01*
X47124054Y-83484447D01*
X47114582Y-82399479D01*
X47102907Y-81487836D01*
X47088992Y-80747462D01*
X47072802Y-80176302D01*
X47054301Y-79772299D01*
X47033456Y-79533397D01*
X47021401Y-79472883D01*
X46907872Y-79243898D01*
X46765766Y-79092266D01*
X46757133Y-79087329D01*
X46591586Y-79048804D01*
X46287024Y-79021563D01*
X45883570Y-79005375D01*
X45421345Y-79000014D01*
X44940472Y-79005250D01*
X44481070Y-79020856D01*
X44083263Y-79046602D01*
X43787172Y-79082262D01*
X43686202Y-79104802D01*
X43412964Y-79230185D01*
X43268504Y-79391070D01*
X43266531Y-79396498D01*
X43260684Y-79501134D01*
X43255176Y-79770359D01*
X43250022Y-80189259D01*
X43245236Y-80742916D01*
X43240833Y-81416416D01*
X43236828Y-82194842D01*
X43233235Y-83063280D01*
X43230069Y-84006814D01*
X43227345Y-85010527D01*
X43225077Y-86059505D01*
X43223280Y-87138832D01*
X43221968Y-88233592D01*
X43221156Y-89328869D01*
X43220860Y-90409748D01*
X42129615Y-90409748D01*
X42123940Y-88443562D01*
X42120175Y-87202530D01*
X42116205Y-86011506D01*
X42112089Y-84882857D01*
X42107891Y-83828951D01*
X42103670Y-82862158D01*
X42099488Y-81994846D01*
X42095406Y-81239383D01*
X42091485Y-80608139D01*
X42087787Y-80113481D01*
X42084372Y-79767778D01*
X42081301Y-79583399D01*
X42079995Y-79555989D01*
X42106944Y-79419772D01*
X42195659Y-79178380D01*
X42313616Y-78912798D01*
X42467175Y-78615553D01*
X42610918Y-78429814D01*
X42801912Y-78300504D01*
X43069034Y-78183788D01*
X43279204Y-78107938D01*
X43497655Y-78051656D01*
X43758585Y-78010961D01*
X44096192Y-77981875D01*
X44544675Y-77960420D01*
X45138230Y-77942616D01*
X45142872Y-77942497D01*
X46713544Y-77902446D01*
X47252060Y-78160776D01*
G36*
X168742923Y-77730956D02*
G01*
X169004326Y-77788723D01*
X169223551Y-77848135D01*
X169597158Y-77966394D01*
X169860000Y-78098190D01*
X170079109Y-78281767D01*
X170186925Y-78397807D01*
X170370760Y-78618611D01*
X170493256Y-78790631D01*
X170523498Y-78856543D01*
X170539824Y-78920665D01*
X170590172Y-79048678D01*
X170681785Y-79256164D01*
X170821907Y-79558708D01*
X171017781Y-79971892D01*
X171276652Y-80511299D01*
X171605761Y-81192512D01*
X171694975Y-81376710D01*
X171910871Y-81828253D01*
X172101610Y-82238312D01*
X172251696Y-82572723D01*
X172345632Y-82797320D01*
X172366664Y-82857629D01*
X172437757Y-83058801D01*
X172569962Y-83386226D01*
X172747636Y-83803890D01*
X172955135Y-84275779D01*
X173176814Y-84765878D01*
X173397031Y-85238174D01*
X173438804Y-85325827D01*
X173847046Y-86180201D01*
X174188798Y-86898579D01*
X174475935Y-87506459D01*
X174720332Y-88029341D01*
X174933862Y-88492725D01*
X175128402Y-88922110D01*
X175315824Y-89342997D01*
X175424112Y-89589078D01*
X175590486Y-89955678D01*
X175748979Y-90282799D01*
X175873919Y-90518241D01*
X175909623Y-90576357D01*
X176047441Y-90821312D01*
X176172653Y-91104527D01*
X176176504Y-91114873D01*
X176278128Y-91367126D01*
X176422876Y-91699236D01*
X176545936Y-91967523D01*
X176696885Y-92294786D01*
X176887118Y-92716694D01*
X177085067Y-93162961D01*
X177170728Y-93358689D01*
X177474220Y-94050378D01*
X177723299Y-94606579D01*
X177913849Y-95018287D01*
X178041751Y-95276498D01*
X178073520Y-95333247D01*
X178360758Y-95861652D01*
X178557398Y-96357037D01*
X178639044Y-96640044D01*
X178715494Y-96997502D01*
X178727834Y-97287610D01*
X178678749Y-97609634D01*
X178666751Y-97664603D01*
X178594983Y-97948656D01*
X178508995Y-98114795D01*
X178359885Y-98221226D01*
X178116472Y-98319584D01*
X177929789Y-98378964D01*
X177716381Y-98422435D01*
X177445966Y-98452292D01*
X177088261Y-98470830D01*
X176612982Y-98480345D01*
X175989847Y-98483134D01*
X175958990Y-98483138D01*
X175348597Y-98481438D01*
X174887059Y-98474542D01*
X174543740Y-98459760D01*
X174288006Y-98434401D01*
X174089223Y-98395773D01*
X173916756Y-98341184D01*
X173798270Y-98293314D01*
X173498293Y-98144911D01*
X173236183Y-97981752D01*
X173143055Y-97907591D01*
X172908896Y-97651102D01*
X172669865Y-97327395D01*
X172471687Y-97003509D01*
X172366674Y-96769290D01*
X172239180Y-96539986D01*
X172110410Y-96410279D01*
X171969970Y-96316826D01*
X171820418Y-96241319D01*
X171641771Y-96181869D01*
X171414048Y-96136590D01*
X171117268Y-96103592D01*
X170731448Y-96080988D01*
X170236606Y-96066890D01*
X169612762Y-96059410D01*
X168839933Y-96056659D01*
X168365982Y-96056472D01*
X165410961Y-96057159D01*
X165110399Y-96321056D01*
X164907286Y-96551509D01*
X164698538Y-96869250D01*
X164574787Y-97108716D01*
X164282293Y-97584754D01*
X163878426Y-98000652D01*
X163410010Y-98316780D01*
X162943226Y-98489582D01*
X162800335Y-98498472D01*
X162509093Y-98500811D01*
X162100526Y-98496908D01*
X161605655Y-98487074D01*
X161055506Y-98471619D01*
X161013544Y-98470264D01*
X160358901Y-98443148D01*
X159795328Y-98408285D01*
X159347546Y-98367733D01*
X159040273Y-98323553D01*
X158936495Y-98297191D01*
X158746701Y-98215193D01*
X158632608Y-98103882D01*
X158556837Y-97909610D01*
X158501866Y-97673394D01*
X158453040Y-97400416D01*
X158445729Y-97230888D01*
X159517316Y-97230888D01*
X159524144Y-97273191D01*
X159574226Y-97318142D01*
X159699446Y-97351350D01*
X159921362Y-97374353D01*
X160261529Y-97388688D01*
X160741504Y-97395892D01*
X161267881Y-97397558D01*
X161914554Y-97395664D01*
X162408920Y-97383109D01*
X162778177Y-97349582D01*
X163049522Y-97284772D01*
X163250154Y-97178370D01*
X163407269Y-97020065D01*
X163548067Y-96799547D01*
X163699745Y-96506505D01*
X163718723Y-96468475D01*
X163908452Y-96128970D01*
X164121085Y-95808789D01*
X164276366Y-95616115D01*
X164481919Y-95440210D01*
X164757071Y-95258792D01*
X165054928Y-95096082D01*
X165328593Y-94976307D01*
X165531170Y-94923691D01*
X165597723Y-94933560D01*
X165703271Y-94945147D01*
X165966289Y-94955613D01*
X166364742Y-94964615D01*
X166876597Y-94971808D01*
X167479821Y-94976847D01*
X168152379Y-94979387D01*
X168541175Y-94979596D01*
X169347004Y-94979933D01*
X169995161Y-94982743D01*
X170507475Y-94989139D01*
X170905772Y-95000233D01*
X171211882Y-95017139D01*
X171447632Y-95040969D01*
X171634852Y-95072836D01*
X171795368Y-95113853D01*
X171911744Y-95151421D01*
X172537599Y-95427636D01*
X172998800Y-95768439D01*
X173293616Y-96172418D01*
X173357520Y-96329520D01*
X173536893Y-96692943D01*
X173800956Y-97019539D01*
X174102474Y-97259230D01*
X174321020Y-97350996D01*
X174569833Y-97386558D01*
X174932958Y-97411409D01*
X175374190Y-97425949D01*
X175857319Y-97430578D01*
X176346140Y-97425698D01*
X176804443Y-97411708D01*
X177196022Y-97389007D01*
X177484670Y-97357997D01*
X177634178Y-97319078D01*
X177640602Y-97314307D01*
X177659714Y-97191769D01*
X177616432Y-96958835D01*
X177527327Y-96666315D01*
X177408970Y-96365015D01*
X177277932Y-96105744D01*
X177215708Y-96011559D01*
X177058452Y-95765336D01*
X176949571Y-95531879D01*
X176943463Y-95512753D01*
X176861392Y-95299051D01*
X176730657Y-95016404D01*
X176663788Y-94885198D01*
X176541515Y-94640157D01*
X176464571Y-94460241D01*
X176451000Y-94408889D01*
X176415044Y-94302983D01*
X176315123Y-94060928D01*
X176163161Y-93709250D01*
X175971080Y-93274476D01*
X175750801Y-92783132D01*
X175514248Y-92261745D01*
X175273342Y-91736842D01*
X175040006Y-91234948D01*
X174826162Y-90782591D01*
X174748643Y-90621233D01*
X174540582Y-90186444D01*
X174332982Y-89745522D01*
X174155899Y-89362620D01*
X174075814Y-89185191D01*
X173942080Y-88892908D01*
X173753338Y-88492032D01*
X173534391Y-88034756D01*
X173310040Y-87573276D01*
X173303901Y-87560758D01*
X173107498Y-87153398D01*
X172943736Y-86800334D01*
X172827391Y-86534443D01*
X172773244Y-86388604D01*
X172771141Y-86375485D01*
X172728318Y-86248291D01*
X172617916Y-86024962D01*
X172512265Y-85837074D01*
X172313683Y-85461265D01*
X172067447Y-84929138D01*
X171780060Y-84255517D01*
X171458026Y-83455226D01*
X171382352Y-83261516D01*
X171275564Y-83006927D01*
X171106588Y-82628166D01*
X170892388Y-82162169D01*
X170649928Y-81645876D01*
X170413644Y-81152329D01*
X170173902Y-80653097D01*
X169958990Y-80199214D01*
X169782196Y-79819256D01*
X169656807Y-79541798D01*
X169596112Y-79395416D01*
X169594857Y-79391551D01*
X169440209Y-79110406D01*
X169175116Y-78940402D01*
X168778667Y-78870040D01*
X168640388Y-78866628D01*
X168237014Y-78906675D01*
X167930782Y-79044425D01*
X167686574Y-79306289D01*
X167469271Y-79718679D01*
X167451115Y-79761047D01*
X167350700Y-79984467D01*
X167186467Y-80333946D01*
X166974938Y-80775023D01*
X166732638Y-81273233D01*
X166482792Y-81780597D01*
X166255210Y-82246410D01*
X166003005Y-82773783D01*
X165737234Y-83338421D01*
X165468953Y-83916026D01*
X165209220Y-84482301D01*
X164969090Y-85012949D01*
X164759621Y-85483674D01*
X164591868Y-85870177D01*
X164476890Y-86148163D01*
X164425742Y-86293333D01*
X164424145Y-86304465D01*
X164386082Y-86397132D01*
X164279042Y-86628269D01*
X164113740Y-86975501D01*
X163900896Y-87416454D01*
X163651226Y-87928755D01*
X163436865Y-88365416D01*
X163165111Y-88921880D01*
X162921975Y-89428537D01*
X162718266Y-89862143D01*
X162564791Y-90199453D01*
X162472360Y-90417221D01*
X162449586Y-90488721D01*
X162411670Y-90603355D01*
X162306161Y-90851473D01*
X162145421Y-91205843D01*
X161941810Y-91639232D01*
X161707689Y-92124409D01*
X161700095Y-92139946D01*
X161437586Y-92685555D01*
X161179781Y-93236984D01*
X160946671Y-93750354D01*
X160758247Y-94181786D01*
X160654174Y-94435721D01*
X160495459Y-94815993D01*
X160330725Y-95164833D01*
X160188309Y-95423538D01*
X160149586Y-95481104D01*
X160021300Y-95700746D01*
X159880135Y-96012342D01*
X159742622Y-96368523D01*
X159625293Y-96721920D01*
X159544681Y-97025165D01*
X159517316Y-97230888D01*
X158445729Y-97230888D01*
X158442975Y-97167038D01*
X158476542Y-96910356D01*
X158558613Y-96567462D01*
X158599130Y-96417514D01*
X158737274Y-95990557D01*
X158912083Y-95556170D01*
X159088546Y-95200293D01*
X159109494Y-95164755D01*
X159277300Y-94856814D01*
X159475950Y-94446344D01*
X159674309Y-93999280D01*
X159771647Y-93762576D01*
X159973506Y-93282529D01*
X160209220Y-92763675D01*
X160439408Y-92291465D01*
X160526265Y-92125183D01*
X160729522Y-91734091D01*
X160921958Y-91341423D01*
X161070485Y-91015355D01*
X161103437Y-90935960D01*
X161248605Y-90572015D01*
X161407834Y-90172444D01*
X161470367Y-90015403D01*
X161567375Y-89790485D01*
X161728716Y-89437562D01*
X161938969Y-88989443D01*
X162182711Y-88478940D01*
X162444520Y-87938859D01*
X162493420Y-87838901D01*
X162797334Y-87209860D01*
X163122673Y-86521605D01*
X163442926Y-85831209D01*
X163731579Y-85195746D01*
X163931848Y-84742435D01*
X164151622Y-84247378D01*
X164430725Y-83637080D01*
X164747997Y-82956749D01*
X165082277Y-82251591D01*
X165412406Y-81566813D01*
X165549253Y-81286958D01*
X165828574Y-80714185D01*
X166083121Y-80183867D01*
X166301426Y-79720565D01*
X166472025Y-79348843D01*
X166583449Y-79093261D01*
X166622526Y-78987951D01*
X166776830Y-78683674D01*
X167065991Y-78377384D01*
X167448937Y-78102711D01*
X167884593Y-77893281D01*
X168011890Y-77850469D01*
X168318638Y-77761690D01*
X168538338Y-77721899D01*
X168742923Y-77730956D01*
G37*
X168742923Y-77730956D02*
X169004326Y-77788723D01*
X169223551Y-77848135D01*
X169597158Y-77966394D01*
X169860000Y-78098190D01*
X170079109Y-78281767D01*
X170186925Y-78397807D01*
X170370760Y-78618611D01*
X170493256Y-78790631D01*
X170523498Y-78856543D01*
X170539824Y-78920665D01*
X170590172Y-79048678D01*
X170681785Y-79256164D01*
X170821907Y-79558708D01*
X171017781Y-79971892D01*
X171276652Y-80511299D01*
X171605761Y-81192512D01*
X171694975Y-81376710D01*
X171910871Y-81828253D01*
X172101610Y-82238312D01*
X172251696Y-82572723D01*
X172345632Y-82797320D01*
X172366664Y-82857629D01*
X172437757Y-83058801D01*
X172569962Y-83386226D01*
X172747636Y-83803890D01*
X172955135Y-84275779D01*
X173176814Y-84765878D01*
X173397031Y-85238174D01*
X173438804Y-85325827D01*
X173847046Y-86180201D01*
X174188798Y-86898579D01*
X174475935Y-87506459D01*
X174720332Y-88029341D01*
X174933862Y-88492725D01*
X175128402Y-88922110D01*
X175315824Y-89342997D01*
X175424112Y-89589078D01*
X175590486Y-89955678D01*
X175748979Y-90282799D01*
X175873919Y-90518241D01*
X175909623Y-90576357D01*
X176047441Y-90821312D01*
X176172653Y-91104527D01*
X176176504Y-91114873D01*
X176278128Y-91367126D01*
X176422876Y-91699236D01*
X176545936Y-91967523D01*
X176696885Y-92294786D01*
X176887118Y-92716694D01*
X177085067Y-93162961D01*
X177170728Y-93358689D01*
X177474220Y-94050378D01*
X177723299Y-94606579D01*
X177913849Y-95018287D01*
X178041751Y-95276498D01*
X178073520Y-95333247D01*
X178360758Y-95861652D01*
X178557398Y-96357037D01*
X178639044Y-96640044D01*
X178715494Y-96997502D01*
X178727834Y-97287610D01*
X178678749Y-97609634D01*
X178666751Y-97664603D01*
X178594983Y-97948656D01*
X178508995Y-98114795D01*
X178359885Y-98221226D01*
X178116472Y-98319584D01*
X177929789Y-98378964D01*
X177716381Y-98422435D01*
X177445966Y-98452292D01*
X177088261Y-98470830D01*
X176612982Y-98480345D01*
X175989847Y-98483134D01*
X175958990Y-98483138D01*
X175348597Y-98481438D01*
X174887059Y-98474542D01*
X174543740Y-98459760D01*
X174288006Y-98434401D01*
X174089223Y-98395773D01*
X173916756Y-98341184D01*
X173798270Y-98293314D01*
X173498293Y-98144911D01*
X173236183Y-97981752D01*
X173143055Y-97907591D01*
X172908896Y-97651102D01*
X172669865Y-97327395D01*
X172471687Y-97003509D01*
X172366674Y-96769290D01*
X172239180Y-96539986D01*
X172110410Y-96410279D01*
X171969970Y-96316826D01*
X171820418Y-96241319D01*
X171641771Y-96181869D01*
X171414048Y-96136590D01*
X171117268Y-96103592D01*
X170731448Y-96080988D01*
X170236606Y-96066890D01*
X169612762Y-96059410D01*
X168839933Y-96056659D01*
X168365982Y-96056472D01*
X165410961Y-96057159D01*
X165110399Y-96321056D01*
X164907286Y-96551509D01*
X164698538Y-96869250D01*
X164574787Y-97108716D01*
X164282293Y-97584754D01*
X163878426Y-98000652D01*
X163410010Y-98316780D01*
X162943226Y-98489582D01*
X162800335Y-98498472D01*
X162509093Y-98500811D01*
X162100526Y-98496908D01*
X161605655Y-98487074D01*
X161055506Y-98471619D01*
X161013544Y-98470264D01*
X160358901Y-98443148D01*
X159795328Y-98408285D01*
X159347546Y-98367733D01*
X159040273Y-98323553D01*
X158936495Y-98297191D01*
X158746701Y-98215193D01*
X158632608Y-98103882D01*
X158556837Y-97909610D01*
X158501866Y-97673394D01*
X158453040Y-97400416D01*
X158445729Y-97230888D01*
X159517316Y-97230888D01*
X159524144Y-97273191D01*
X159574226Y-97318142D01*
X159699446Y-97351350D01*
X159921362Y-97374353D01*
X160261529Y-97388688D01*
X160741504Y-97395892D01*
X161267881Y-97397558D01*
X161914554Y-97395664D01*
X162408920Y-97383109D01*
X162778177Y-97349582D01*
X163049522Y-97284772D01*
X163250154Y-97178370D01*
X163407269Y-97020065D01*
X163548067Y-96799547D01*
X163699745Y-96506505D01*
X163718723Y-96468475D01*
X163908452Y-96128970D01*
X164121085Y-95808789D01*
X164276366Y-95616115D01*
X164481919Y-95440210D01*
X164757071Y-95258792D01*
X165054928Y-95096082D01*
X165328593Y-94976307D01*
X165531170Y-94923691D01*
X165597723Y-94933560D01*
X165703271Y-94945147D01*
X165966289Y-94955613D01*
X166364742Y-94964615D01*
X166876597Y-94971808D01*
X167479821Y-94976847D01*
X168152379Y-94979387D01*
X168541175Y-94979596D01*
X169347004Y-94979933D01*
X169995161Y-94982743D01*
X170507475Y-94989139D01*
X170905772Y-95000233D01*
X171211882Y-95017139D01*
X171447632Y-95040969D01*
X171634852Y-95072836D01*
X171795368Y-95113853D01*
X171911744Y-95151421D01*
X172537599Y-95427636D01*
X172998800Y-95768439D01*
X173293616Y-96172418D01*
X173357520Y-96329520D01*
X173536893Y-96692943D01*
X173800956Y-97019539D01*
X174102474Y-97259230D01*
X174321020Y-97350996D01*
X174569833Y-97386558D01*
X174932958Y-97411409D01*
X175374190Y-97425949D01*
X175857319Y-97430578D01*
X176346140Y-97425698D01*
X176804443Y-97411708D01*
X177196022Y-97389007D01*
X177484670Y-97357997D01*
X177634178Y-97319078D01*
X177640602Y-97314307D01*
X177659714Y-97191769D01*
X177616432Y-96958835D01*
X177527327Y-96666315D01*
X177408970Y-96365015D01*
X177277932Y-96105744D01*
X177215708Y-96011559D01*
X177058452Y-95765336D01*
X176949571Y-95531879D01*
X176943463Y-95512753D01*
X176861392Y-95299051D01*
X176730657Y-95016404D01*
X176663788Y-94885198D01*
X176541515Y-94640157D01*
X176464571Y-94460241D01*
X176451000Y-94408889D01*
X176415044Y-94302983D01*
X176315123Y-94060928D01*
X176163161Y-93709250D01*
X175971080Y-93274476D01*
X175750801Y-92783132D01*
X175514248Y-92261745D01*
X175273342Y-91736842D01*
X175040006Y-91234948D01*
X174826162Y-90782591D01*
X174748643Y-90621233D01*
X174540582Y-90186444D01*
X174332982Y-89745522D01*
X174155899Y-89362620D01*
X174075814Y-89185191D01*
X173942080Y-88892908D01*
X173753338Y-88492032D01*
X173534391Y-88034756D01*
X173310040Y-87573276D01*
X173303901Y-87560758D01*
X173107498Y-87153398D01*
X172943736Y-86800334D01*
X172827391Y-86534443D01*
X172773244Y-86388604D01*
X172771141Y-86375485D01*
X172728318Y-86248291D01*
X172617916Y-86024962D01*
X172512265Y-85837074D01*
X172313683Y-85461265D01*
X172067447Y-84929138D01*
X171780060Y-84255517D01*
X171458026Y-83455226D01*
X171382352Y-83261516D01*
X171275564Y-83006927D01*
X171106588Y-82628166D01*
X170892388Y-82162169D01*
X170649928Y-81645876D01*
X170413644Y-81152329D01*
X170173902Y-80653097D01*
X169958990Y-80199214D01*
X169782196Y-79819256D01*
X169656807Y-79541798D01*
X169596112Y-79395416D01*
X169594857Y-79391551D01*
X169440209Y-79110406D01*
X169175116Y-78940402D01*
X168778667Y-78870040D01*
X168640388Y-78866628D01*
X168237014Y-78906675D01*
X167930782Y-79044425D01*
X167686574Y-79306289D01*
X167469271Y-79718679D01*
X167451115Y-79761047D01*
X167350700Y-79984467D01*
X167186467Y-80333946D01*
X166974938Y-80775023D01*
X166732638Y-81273233D01*
X166482792Y-81780597D01*
X166255210Y-82246410D01*
X166003005Y-82773783D01*
X165737234Y-83338421D01*
X165468953Y-83916026D01*
X165209220Y-84482301D01*
X164969090Y-85012949D01*
X164759621Y-85483674D01*
X164591868Y-85870177D01*
X164476890Y-86148163D01*
X164425742Y-86293333D01*
X164424145Y-86304465D01*
X164386082Y-86397132D01*
X164279042Y-86628269D01*
X164113740Y-86975501D01*
X163900896Y-87416454D01*
X163651226Y-87928755D01*
X163436865Y-88365416D01*
X163165111Y-88921880D01*
X162921975Y-89428537D01*
X162718266Y-89862143D01*
X162564791Y-90199453D01*
X162472360Y-90417221D01*
X162449586Y-90488721D01*
X162411670Y-90603355D01*
X162306161Y-90851473D01*
X162145421Y-91205843D01*
X161941810Y-91639232D01*
X161707689Y-92124409D01*
X161700095Y-92139946D01*
X161437586Y-92685555D01*
X161179781Y-93236984D01*
X160946671Y-93750354D01*
X160758247Y-94181786D01*
X160654174Y-94435721D01*
X160495459Y-94815993D01*
X160330725Y-95164833D01*
X160188309Y-95423538D01*
X160149586Y-95481104D01*
X160021300Y-95700746D01*
X159880135Y-96012342D01*
X159742622Y-96368523D01*
X159625293Y-96721920D01*
X159544681Y-97025165D01*
X159517316Y-97230888D01*
X158445729Y-97230888D01*
X158442975Y-97167038D01*
X158476542Y-96910356D01*
X158558613Y-96567462D01*
X158599130Y-96417514D01*
X158737274Y-95990557D01*
X158912083Y-95556170D01*
X159088546Y-95200293D01*
X159109494Y-95164755D01*
X159277300Y-94856814D01*
X159475950Y-94446344D01*
X159674309Y-93999280D01*
X159771647Y-93762576D01*
X159973506Y-93282529D01*
X160209220Y-92763675D01*
X160439408Y-92291465D01*
X160526265Y-92125183D01*
X160729522Y-91734091D01*
X160921958Y-91341423D01*
X161070485Y-91015355D01*
X161103437Y-90935960D01*
X161248605Y-90572015D01*
X161407834Y-90172444D01*
X161470367Y-90015403D01*
X161567375Y-89790485D01*
X161728716Y-89437562D01*
X161938969Y-88989443D01*
X162182711Y-88478940D01*
X162444520Y-87938859D01*
X162493420Y-87838901D01*
X162797334Y-87209860D01*
X163122673Y-86521605D01*
X163442926Y-85831209D01*
X163731579Y-85195746D01*
X163931848Y-84742435D01*
X164151622Y-84247378D01*
X164430725Y-83637080D01*
X164747997Y-82956749D01*
X165082277Y-82251591D01*
X165412406Y-81566813D01*
X165549253Y-81286958D01*
X165828574Y-80714185D01*
X166083121Y-80183867D01*
X166301426Y-79720565D01*
X166472025Y-79348843D01*
X166583449Y-79093261D01*
X166622526Y-78987951D01*
X166776830Y-78683674D01*
X167065991Y-78377384D01*
X167448937Y-78102711D01*
X167884593Y-77893281D01*
X168011890Y-77850469D01*
X168318638Y-77761690D01*
X168538338Y-77721899D01*
X168742923Y-77730956D01*
G36*
X156350141Y-77990218D02*
G01*
X156675759Y-78008526D01*
X156927595Y-78041384D01*
X157140864Y-78091813D01*
X157333685Y-78156472D01*
X157641084Y-78288756D01*
X157843625Y-78441722D01*
X158011708Y-78674881D01*
X158072330Y-78780857D01*
X158151938Y-78934122D01*
X158214496Y-79089046D01*
X158261984Y-79268638D01*
X158296380Y-79495910D01*
X158319662Y-79793874D01*
X158333809Y-80185539D01*
X158340798Y-80693918D01*
X158342608Y-81342021D01*
X158341799Y-81915226D01*
X158341314Y-82296829D01*
X158341177Y-82835348D01*
X158341360Y-83508195D01*
X158341832Y-84292780D01*
X158342565Y-85166516D01*
X158343528Y-86106813D01*
X158344692Y-87091083D01*
X158346027Y-88096737D01*
X158347504Y-89101187D01*
X158349093Y-90081843D01*
X158350765Y-91016118D01*
X158352490Y-91881422D01*
X158354238Y-92655167D01*
X158355981Y-93314765D01*
X158357254Y-93717700D01*
X158358199Y-94398654D01*
X158356453Y-95049817D01*
X158352301Y-95640877D01*
X158346026Y-96141521D01*
X158337913Y-96521435D01*
X158328878Y-96741208D01*
X158212337Y-97340129D01*
X157949487Y-97835179D01*
X157540543Y-98226002D01*
X157363194Y-98337956D01*
X156929798Y-98583583D01*
X155134745Y-98522571D01*
X154418281Y-98493853D01*
X153857214Y-98456919D01*
X153427433Y-98403798D01*
X153104829Y-98326523D01*
X152865295Y-98217123D01*
X152684719Y-98067628D01*
X152538994Y-97870071D01*
X152405989Y-97620565D01*
X152343747Y-97487496D01*
X152294559Y-97359181D01*
X152256739Y-97213224D01*
X152228602Y-97027228D01*
X152208463Y-96778794D01*
X152194634Y-96445526D01*
X152185430Y-96005026D01*
X152179166Y-95434898D01*
X152174155Y-94712744D01*
X152173019Y-94525474D01*
X152167721Y-93645219D01*
X152162747Y-92926908D01*
X152157025Y-92352986D01*
X152149486Y-91905896D01*
X152139057Y-91568082D01*
X152124668Y-91321990D01*
X152105248Y-91150062D01*
X152079726Y-91034744D01*
X152047030Y-90958478D01*
X152006091Y-90903711D01*
X151955836Y-90852885D01*
X151948526Y-90845615D01*
X151882025Y-90788486D01*
X151796048Y-90744932D01*
X151667304Y-90713123D01*
X151472501Y-90691225D01*
X151188347Y-90677408D01*
X150791551Y-90669839D01*
X150258820Y-90666686D01*
X149666245Y-90666110D01*
X148982893Y-90667621D01*
X148457060Y-90673076D01*
X148066776Y-90683855D01*
X147790071Y-90701340D01*
X147604977Y-90726911D01*
X147489526Y-90761949D01*
X147422428Y-90807149D01*
X147306600Y-90965057D01*
X147277240Y-91053969D01*
X147276236Y-91166040D01*
X147275281Y-91435990D01*
X147274406Y-91842197D01*
X147273646Y-92363035D01*
X147273034Y-92976879D01*
X147272602Y-93662105D01*
X147272420Y-94197356D01*
X147271095Y-95113062D01*
X147265376Y-95867016D01*
X147251977Y-96476968D01*
X147227615Y-96960668D01*
X147189005Y-97335864D01*
X147132863Y-97620307D01*
X147055904Y-97831747D01*
X146954844Y-97987933D01*
X146826399Y-98106616D01*
X146667284Y-98205544D01*
X146516619Y-98281945D01*
X146358584Y-98353963D01*
X146202695Y-98407838D01*
X146019941Y-98446490D01*
X145781309Y-98472835D01*
X145457789Y-98489793D01*
X145020368Y-98500282D01*
X144440035Y-98507219D01*
X144261217Y-98508809D01*
X143626376Y-98512509D01*
X143141378Y-98509879D01*
X142776612Y-98498848D01*
X142502467Y-98477344D01*
X142289330Y-98443293D01*
X142107590Y-98394624D01*
X141978786Y-98349075D01*
X141687757Y-98219259D01*
X141505249Y-98069047D01*
X141364707Y-97838407D01*
X141329270Y-97763201D01*
X141290669Y-97674575D01*
X141257684Y-97580765D01*
X141229822Y-97467546D01*
X141206588Y-97320694D01*
X141187489Y-97125986D01*
X141172031Y-96869195D01*
X141159718Y-96536100D01*
X141150057Y-96112474D01*
X141142554Y-95584095D01*
X141136714Y-94936737D01*
X141132043Y-94156177D01*
X141128047Y-93228191D01*
X141124233Y-92138554D01*
X141123228Y-91832894D01*
X141119716Y-90821805D01*
X141115901Y-89839334D01*
X141111883Y-88904489D01*
X141107761Y-88036282D01*
X141103637Y-87253721D01*
X141099608Y-86575818D01*
X141095776Y-86021581D01*
X141092240Y-85610021D01*
X141089284Y-85370703D01*
X141086955Y-84889429D01*
X142147830Y-84889429D01*
X142148378Y-85011693D01*
X142149447Y-85138669D01*
X142150684Y-85429405D01*
X142152055Y-85868157D01*
X142153526Y-86439181D01*
X142155061Y-87126730D01*
X142156627Y-87915060D01*
X142158189Y-88788428D01*
X142159712Y-89731087D01*
X142161162Y-90727293D01*
X142161566Y-91025120D01*
X142163688Y-92034934D01*
X142167212Y-92996538D01*
X142171983Y-93894087D01*
X142177846Y-94711735D01*
X142184644Y-95433637D01*
X142192225Y-96043948D01*
X142200431Y-96526822D01*
X142209109Y-96866413D01*
X142218102Y-97046876D01*
X142220711Y-97067005D01*
X142312068Y-97272581D01*
X142437808Y-97381139D01*
X142577316Y-97400268D01*
X142864745Y-97416304D01*
X143268527Y-97428300D01*
X143757089Y-97435309D01*
X144280895Y-97436451D01*
X144873625Y-97432946D01*
X145312421Y-97425642D01*
X145622848Y-97412094D01*
X145830470Y-97389858D01*
X145960854Y-97356492D01*
X146039564Y-97309552D01*
X146079664Y-97264519D01*
X146113138Y-97185046D01*
X146140040Y-97036911D01*
X146160932Y-96803958D01*
X146176374Y-96470032D01*
X146186927Y-96018975D01*
X146193152Y-95434633D01*
X146195610Y-94700848D01*
X146195140Y-93938425D01*
X146193994Y-93099244D01*
X146194664Y-92419981D01*
X146198155Y-91881051D01*
X146205473Y-91462868D01*
X146217622Y-91145848D01*
X146235610Y-90910404D01*
X146260440Y-90736952D01*
X146293118Y-90605905D01*
X146334650Y-90497680D01*
X146376168Y-90411933D01*
X146654404Y-90043847D01*
X146952550Y-89817331D01*
X147342036Y-89589078D01*
X151966947Y-89589078D01*
X152397070Y-89830862D01*
X152746508Y-90081547D01*
X152985275Y-90400097D01*
X153027455Y-90481568D01*
X153081436Y-90597825D01*
X153124927Y-90716459D01*
X153159228Y-90857733D01*
X153185640Y-91041906D01*
X153205462Y-91289240D01*
X153219996Y-91619996D01*
X153230540Y-92054435D01*
X153238396Y-92612816D01*
X153244863Y-93315402D01*
X153249534Y-93942081D01*
X153256525Y-94670008D01*
X153266421Y-95344552D01*
X153278635Y-95943733D01*
X153292583Y-96445569D01*
X153307677Y-96828080D01*
X153323332Y-97069284D01*
X153334900Y-97143799D01*
X153379021Y-97226269D01*
X153448420Y-97288909D01*
X153567683Y-97335767D01*
X153761395Y-97370890D01*
X154054142Y-97398325D01*
X154470509Y-97422119D01*
X155035081Y-97446320D01*
X155215854Y-97453439D01*
X156776295Y-97514345D01*
X157000728Y-97289912D01*
X157107481Y-97163894D01*
X157180382Y-97012386D01*
X157230524Y-96793074D01*
X157269000Y-96463647D01*
X157292517Y-96176925D01*
X157307407Y-95859381D01*
X157316738Y-95393763D01*
X157320503Y-94811412D01*
X157318693Y-94143674D01*
X157311300Y-93421893D01*
X157298316Y-92677411D01*
X157293490Y-92461163D01*
X157278492Y-91680109D01*
X157266486Y-90764883D01*
X157257727Y-89760800D01*
X157252467Y-88713173D01*
X157250961Y-87667314D01*
X157253462Y-86668536D01*
X157257544Y-86043848D01*
X157263992Y-85227679D01*
X157269309Y-84442061D01*
X157273397Y-83711041D01*
X157276157Y-83058666D01*
X157277491Y-82508983D01*
X157277302Y-82086039D01*
X157275491Y-81813882D01*
X157274944Y-81780597D01*
X157267683Y-81369477D01*
X157259859Y-80869162D01*
X157252862Y-80369949D01*
X157251124Y-80233256D01*
X157243086Y-79840877D01*
X157214985Y-79545643D01*
X157144361Y-79334059D01*
X157008750Y-79192630D01*
X156785691Y-79107861D01*
X156452722Y-79066257D01*
X155987381Y-79054324D01*
X155367205Y-79058565D01*
X155297174Y-79059344D01*
X154622816Y-79074073D01*
X154118192Y-79101817D01*
X153773951Y-79143316D01*
X153589304Y-79195023D01*
X153339692Y-79314500D01*
X153276660Y-82050905D01*
X153258590Y-82823270D01*
X153242553Y-83438050D01*
X153226486Y-83917119D01*
X153208328Y-84282353D01*
X153186018Y-84555624D01*
X153157494Y-84758807D01*
X153120693Y-84913777D01*
X153073554Y-85042407D01*
X153014015Y-85166572D01*
X152976147Y-85239152D01*
X152691839Y-85647845D01*
X152401400Y-85885098D01*
X152289460Y-85944768D01*
X152170845Y-85990838D01*
X152021760Y-86025104D01*
X151818413Y-86049363D01*
X151537011Y-86065409D01*
X151153761Y-86075038D01*
X150644869Y-86080047D01*
X149986544Y-86082230D01*
X149784952Y-86082561D01*
X149078418Y-86082691D01*
X148526290Y-86079611D01*
X148103476Y-86071611D01*
X147784883Y-86056984D01*
X147545418Y-86034022D01*
X147359988Y-86001017D01*
X147203501Y-85956260D01*
X147050864Y-85898045D01*
X147046245Y-85896139D01*
X146773308Y-85768414D01*
X146601123Y-85628243D01*
X146470796Y-85415241D01*
X146383892Y-85217003D01*
X146311860Y-85033642D01*
X146260535Y-84863279D01*
X146227647Y-84673712D01*
X146210929Y-84432741D01*
X146208109Y-84108162D01*
X146216921Y-83667775D01*
X146234514Y-83097054D01*
X146248915Y-82473191D01*
X146253745Y-81816615D01*
X146249238Y-81186587D01*
X146235633Y-80642365D01*
X146223722Y-80390331D01*
X146195205Y-79936080D01*
X146168122Y-79627820D01*
X146133767Y-79432325D01*
X146083431Y-79316368D01*
X146008408Y-79246721D01*
X145910543Y-79195196D01*
X145711625Y-79140325D01*
X145373699Y-79103187D01*
X144882871Y-79082755D01*
X144319871Y-79077772D01*
X143578692Y-79091594D01*
X143006319Y-79132089D01*
X142593831Y-79200724D01*
X142332305Y-79298964D01*
X142214411Y-79423968D01*
X142198952Y-79552501D01*
X142186799Y-79829220D01*
X142178625Y-80222824D01*
X142175106Y-80702013D01*
X142176499Y-81183782D01*
X142179309Y-81797919D01*
X142179077Y-82435407D01*
X142176033Y-83039976D01*
X142170407Y-83555352D01*
X142165848Y-83800032D01*
X142156893Y-84226256D01*
X142150657Y-84605400D01*
X142147830Y-84889429D01*
X141086955Y-84889429D01*
X141086911Y-84880544D01*
X141094032Y-84366570D01*
X141109167Y-83911704D01*
X141118216Y-83748137D01*
X141132547Y-83293591D01*
X141125653Y-82779096D01*
X141101976Y-82356971D01*
X141082497Y-81989239D01*
X141073831Y-81503668D01*
X141076300Y-80961616D01*
X141090228Y-80424441D01*
X141091608Y-80389431D01*
X141114360Y-79881957D01*
X141139308Y-79516890D01*
X141173062Y-79257184D01*
X141222234Y-79065796D01*
X141293436Y-78905680D01*
X141383223Y-78755493D01*
X141539739Y-78540057D01*
X141711661Y-78395033D01*
X141957632Y-78281033D01*
X142218388Y-78194539D01*
X142470982Y-78124410D01*
X142726600Y-78074710D01*
X143022298Y-78042371D01*
X143395132Y-78024325D01*
X143882159Y-78017505D01*
X144351443Y-78017942D01*
X145066688Y-78027821D01*
X145627645Y-78054911D01*
X146059243Y-78106252D01*
X146386412Y-78188883D01*
X146634082Y-78309845D01*
X146827180Y-78476176D01*
X146990637Y-78694916D01*
X147040914Y-78777402D01*
X147298388Y-79215631D01*
X147303517Y-81986250D01*
X147306324Y-82791008D01*
X147311990Y-83434106D01*
X147321329Y-83933379D01*
X147335157Y-84306660D01*
X147354290Y-84571785D01*
X147379544Y-84746587D01*
X147411733Y-84848900D01*
X147436057Y-84884281D01*
X147509414Y-84925941D01*
X147649184Y-84957877D01*
X147875610Y-84981223D01*
X148208938Y-84997115D01*
X148669412Y-85006688D01*
X149277278Y-85011076D01*
X149709052Y-85011693D01*
X151854635Y-85011693D01*
X151996221Y-84795606D01*
X152038924Y-84704961D01*
X152073675Y-84563637D01*
X152101779Y-84351830D01*
X152124541Y-84049737D01*
X152143266Y-83637557D01*
X152159259Y-83095486D01*
X152173825Y-82403722D01*
X152181059Y-81990835D01*
X152196385Y-81186075D01*
X152213926Y-80535469D01*
X152235655Y-80013666D01*
X152263545Y-79595316D01*
X152299569Y-79255067D01*
X152345697Y-78967569D01*
X152403905Y-78707470D01*
X152449604Y-78539516D01*
X152561014Y-78433149D01*
X152824924Y-78309289D01*
X153162302Y-78195683D01*
X153451616Y-78117648D01*
X153736943Y-78061842D01*
X154058330Y-78024387D01*
X154455827Y-78001408D01*
X154969479Y-77989027D01*
X155336708Y-77985171D01*
X155915528Y-77983440D01*
X156350141Y-77990218D01*
G37*
X156350141Y-77990218D02*
X156675759Y-78008526D01*
X156927595Y-78041384D01*
X157140864Y-78091813D01*
X157333685Y-78156472D01*
X157641084Y-78288756D01*
X157843625Y-78441722D01*
X158011708Y-78674881D01*
X158072330Y-78780857D01*
X158151938Y-78934122D01*
X158214496Y-79089046D01*
X158261984Y-79268638D01*
X158296380Y-79495910D01*
X158319662Y-79793874D01*
X158333809Y-80185539D01*
X158340798Y-80693918D01*
X158342608Y-81342021D01*
X158341799Y-81915226D01*
X158341314Y-82296829D01*
X158341177Y-82835348D01*
X158341360Y-83508195D01*
X158341832Y-84292780D01*
X158342565Y-85166516D01*
X158343528Y-86106813D01*
X158344692Y-87091083D01*
X158346027Y-88096737D01*
X158347504Y-89101187D01*
X158349093Y-90081843D01*
X158350765Y-91016118D01*
X158352490Y-91881422D01*
X158354238Y-92655167D01*
X158355981Y-93314765D01*
X158357254Y-93717700D01*
X158358199Y-94398654D01*
X158356453Y-95049817D01*
X158352301Y-95640877D01*
X158346026Y-96141521D01*
X158337913Y-96521435D01*
X158328878Y-96741208D01*
X158212337Y-97340129D01*
X157949487Y-97835179D01*
X157540543Y-98226002D01*
X157363194Y-98337956D01*
X156929798Y-98583583D01*
X155134745Y-98522571D01*
X154418281Y-98493853D01*
X153857214Y-98456919D01*
X153427433Y-98403798D01*
X153104829Y-98326523D01*
X152865295Y-98217123D01*
X152684719Y-98067628D01*
X152538994Y-97870071D01*
X152405989Y-97620565D01*
X152343747Y-97487496D01*
X152294559Y-97359181D01*
X152256739Y-97213224D01*
X152228602Y-97027228D01*
X152208463Y-96778794D01*
X152194634Y-96445526D01*
X152185430Y-96005026D01*
X152179166Y-95434898D01*
X152174155Y-94712744D01*
X152173019Y-94525474D01*
X152167721Y-93645219D01*
X152162747Y-92926908D01*
X152157025Y-92352986D01*
X152149486Y-91905896D01*
X152139057Y-91568082D01*
X152124668Y-91321990D01*
X152105248Y-91150062D01*
X152079726Y-91034744D01*
X152047030Y-90958478D01*
X152006091Y-90903711D01*
X151955836Y-90852885D01*
X151948526Y-90845615D01*
X151882025Y-90788486D01*
X151796048Y-90744932D01*
X151667304Y-90713123D01*
X151472501Y-90691225D01*
X151188347Y-90677408D01*
X150791551Y-90669839D01*
X150258820Y-90666686D01*
X149666245Y-90666110D01*
X148982893Y-90667621D01*
X148457060Y-90673076D01*
X148066776Y-90683855D01*
X147790071Y-90701340D01*
X147604977Y-90726911D01*
X147489526Y-90761949D01*
X147422428Y-90807149D01*
X147306600Y-90965057D01*
X147277240Y-91053969D01*
X147276236Y-91166040D01*
X147275281Y-91435990D01*
X147274406Y-91842197D01*
X147273646Y-92363035D01*
X147273034Y-92976879D01*
X147272602Y-93662105D01*
X147272420Y-94197356D01*
X147271095Y-95113062D01*
X147265376Y-95867016D01*
X147251977Y-96476968D01*
X147227615Y-96960668D01*
X147189005Y-97335864D01*
X147132863Y-97620307D01*
X147055904Y-97831747D01*
X146954844Y-97987933D01*
X146826399Y-98106616D01*
X146667284Y-98205544D01*
X146516619Y-98281945D01*
X146358584Y-98353963D01*
X146202695Y-98407838D01*
X146019941Y-98446490D01*
X145781309Y-98472835D01*
X145457789Y-98489793D01*
X145020368Y-98500282D01*
X144440035Y-98507219D01*
X144261217Y-98508809D01*
X143626376Y-98512509D01*
X143141378Y-98509879D01*
X142776612Y-98498848D01*
X142502467Y-98477344D01*
X142289330Y-98443293D01*
X142107590Y-98394624D01*
X141978786Y-98349075D01*
X141687757Y-98219259D01*
X141505249Y-98069047D01*
X141364707Y-97838407D01*
X141329270Y-97763201D01*
X141290669Y-97674575D01*
X141257684Y-97580765D01*
X141229822Y-97467546D01*
X141206588Y-97320694D01*
X141187489Y-97125986D01*
X141172031Y-96869195D01*
X141159718Y-96536100D01*
X141150057Y-96112474D01*
X141142554Y-95584095D01*
X141136714Y-94936737D01*
X141132043Y-94156177D01*
X141128047Y-93228191D01*
X141124233Y-92138554D01*
X141123228Y-91832894D01*
X141119716Y-90821805D01*
X141115901Y-89839334D01*
X141111883Y-88904489D01*
X141107761Y-88036282D01*
X141103637Y-87253721D01*
X141099608Y-86575818D01*
X141095776Y-86021581D01*
X141092240Y-85610021D01*
X141089284Y-85370703D01*
X141086955Y-84889429D01*
X142147830Y-84889429D01*
X142148378Y-85011693D01*
X142149447Y-85138669D01*
X142150684Y-85429405D01*
X142152055Y-85868157D01*
X142153526Y-86439181D01*
X142155061Y-87126730D01*
X142156627Y-87915060D01*
X142158189Y-88788428D01*
X142159712Y-89731087D01*
X142161162Y-90727293D01*
X142161566Y-91025120D01*
X142163688Y-92034934D01*
X142167212Y-92996538D01*
X142171983Y-93894087D01*
X142177846Y-94711735D01*
X142184644Y-95433637D01*
X142192225Y-96043948D01*
X142200431Y-96526822D01*
X142209109Y-96866413D01*
X142218102Y-97046876D01*
X142220711Y-97067005D01*
X142312068Y-97272581D01*
X142437808Y-97381139D01*
X142577316Y-97400268D01*
X142864745Y-97416304D01*
X143268527Y-97428300D01*
X143757089Y-97435309D01*
X144280895Y-97436451D01*
X144873625Y-97432946D01*
X145312421Y-97425642D01*
X145622848Y-97412094D01*
X145830470Y-97389858D01*
X145960854Y-97356492D01*
X146039564Y-97309552D01*
X146079664Y-97264519D01*
X146113138Y-97185046D01*
X146140040Y-97036911D01*
X146160932Y-96803958D01*
X146176374Y-96470032D01*
X146186927Y-96018975D01*
X146193152Y-95434633D01*
X146195610Y-94700848D01*
X146195140Y-93938425D01*
X146193994Y-93099244D01*
X146194664Y-92419981D01*
X146198155Y-91881051D01*
X146205473Y-91462868D01*
X146217622Y-91145848D01*
X146235610Y-90910404D01*
X146260440Y-90736952D01*
X146293118Y-90605905D01*
X146334650Y-90497680D01*
X146376168Y-90411933D01*
X146654404Y-90043847D01*
X146952550Y-89817331D01*
X147342036Y-89589078D01*
X151966947Y-89589078D01*
X152397070Y-89830862D01*
X152746508Y-90081547D01*
X152985275Y-90400097D01*
X153027455Y-90481568D01*
X153081436Y-90597825D01*
X153124927Y-90716459D01*
X153159228Y-90857733D01*
X153185640Y-91041906D01*
X153205462Y-91289240D01*
X153219996Y-91619996D01*
X153230540Y-92054435D01*
X153238396Y-92612816D01*
X153244863Y-93315402D01*
X153249534Y-93942081D01*
X153256525Y-94670008D01*
X153266421Y-95344552D01*
X153278635Y-95943733D01*
X153292583Y-96445569D01*
X153307677Y-96828080D01*
X153323332Y-97069284D01*
X153334900Y-97143799D01*
X153379021Y-97226269D01*
X153448420Y-97288909D01*
X153567683Y-97335767D01*
X153761395Y-97370890D01*
X154054142Y-97398325D01*
X154470509Y-97422119D01*
X155035081Y-97446320D01*
X155215854Y-97453439D01*
X156776295Y-97514345D01*
X157000728Y-97289912D01*
X157107481Y-97163894D01*
X157180382Y-97012386D01*
X157230524Y-96793074D01*
X157269000Y-96463647D01*
X157292517Y-96176925D01*
X157307407Y-95859381D01*
X157316738Y-95393763D01*
X157320503Y-94811412D01*
X157318693Y-94143674D01*
X157311300Y-93421893D01*
X157298316Y-92677411D01*
X157293490Y-92461163D01*
X157278492Y-91680109D01*
X157266486Y-90764883D01*
X157257727Y-89760800D01*
X157252467Y-88713173D01*
X157250961Y-87667314D01*
X157253462Y-86668536D01*
X157257544Y-86043848D01*
X157263992Y-85227679D01*
X157269309Y-84442061D01*
X157273397Y-83711041D01*
X157276157Y-83058666D01*
X157277491Y-82508983D01*
X157277302Y-82086039D01*
X157275491Y-81813882D01*
X157274944Y-81780597D01*
X157267683Y-81369477D01*
X157259859Y-80869162D01*
X157252862Y-80369949D01*
X157251124Y-80233256D01*
X157243086Y-79840877D01*
X157214985Y-79545643D01*
X157144361Y-79334059D01*
X157008750Y-79192630D01*
X156785691Y-79107861D01*
X156452722Y-79066257D01*
X155987381Y-79054324D01*
X155367205Y-79058565D01*
X155297174Y-79059344D01*
X154622816Y-79074073D01*
X154118192Y-79101817D01*
X153773951Y-79143316D01*
X153589304Y-79195023D01*
X153339692Y-79314500D01*
X153276660Y-82050905D01*
X153258590Y-82823270D01*
X153242553Y-83438050D01*
X153226486Y-83917119D01*
X153208328Y-84282353D01*
X153186018Y-84555624D01*
X153157494Y-84758807D01*
X153120693Y-84913777D01*
X153073554Y-85042407D01*
X153014015Y-85166572D01*
X152976147Y-85239152D01*
X152691839Y-85647845D01*
X152401400Y-85885098D01*
X152289460Y-85944768D01*
X152170845Y-85990838D01*
X152021760Y-86025104D01*
X151818413Y-86049363D01*
X151537011Y-86065409D01*
X151153761Y-86075038D01*
X150644869Y-86080047D01*
X149986544Y-86082230D01*
X149784952Y-86082561D01*
X149078418Y-86082691D01*
X148526290Y-86079611D01*
X148103476Y-86071611D01*
X147784883Y-86056984D01*
X147545418Y-86034022D01*
X147359988Y-86001017D01*
X147203501Y-85956260D01*
X147050864Y-85898045D01*
X147046245Y-85896139D01*
X146773308Y-85768414D01*
X146601123Y-85628243D01*
X146470796Y-85415241D01*
X146383892Y-85217003D01*
X146311860Y-85033642D01*
X146260535Y-84863279D01*
X146227647Y-84673712D01*
X146210929Y-84432741D01*
X146208109Y-84108162D01*
X146216921Y-83667775D01*
X146234514Y-83097054D01*
X146248915Y-82473191D01*
X146253745Y-81816615D01*
X146249238Y-81186587D01*
X146235633Y-80642365D01*
X146223722Y-80390331D01*
X146195205Y-79936080D01*
X146168122Y-79627820D01*
X146133767Y-79432325D01*
X146083431Y-79316368D01*
X146008408Y-79246721D01*
X145910543Y-79195196D01*
X145711625Y-79140325D01*
X145373699Y-79103187D01*
X144882871Y-79082755D01*
X144319871Y-79077772D01*
X143578692Y-79091594D01*
X143006319Y-79132089D01*
X142593831Y-79200724D01*
X142332305Y-79298964D01*
X142214411Y-79423968D01*
X142198952Y-79552501D01*
X142186799Y-79829220D01*
X142178625Y-80222824D01*
X142175106Y-80702013D01*
X142176499Y-81183782D01*
X142179309Y-81797919D01*
X142179077Y-82435407D01*
X142176033Y-83039976D01*
X142170407Y-83555352D01*
X142165848Y-83800032D01*
X142156893Y-84226256D01*
X142150657Y-84605400D01*
X142147830Y-84889429D01*
X141086955Y-84889429D01*
X141086911Y-84880544D01*
X141094032Y-84366570D01*
X141109167Y-83911704D01*
X141118216Y-83748137D01*
X141132547Y-83293591D01*
X141125653Y-82779096D01*
X141101976Y-82356971D01*
X141082497Y-81989239D01*
X141073831Y-81503668D01*
X141076300Y-80961616D01*
X141090228Y-80424441D01*
X141091608Y-80389431D01*
X141114360Y-79881957D01*
X141139308Y-79516890D01*
X141173062Y-79257184D01*
X141222234Y-79065796D01*
X141293436Y-78905680D01*
X141383223Y-78755493D01*
X141539739Y-78540057D01*
X141711661Y-78395033D01*
X141957632Y-78281033D01*
X142218388Y-78194539D01*
X142470982Y-78124410D01*
X142726600Y-78074710D01*
X143022298Y-78042371D01*
X143395132Y-78024325D01*
X143882159Y-78017505D01*
X144351443Y-78017942D01*
X145066688Y-78027821D01*
X145627645Y-78054911D01*
X146059243Y-78106252D01*
X146386412Y-78188883D01*
X146634082Y-78309845D01*
X146827180Y-78476176D01*
X146990637Y-78694916D01*
X147040914Y-78777402D01*
X147298388Y-79215631D01*
X147303517Y-81986250D01*
X147306324Y-82791008D01*
X147311990Y-83434106D01*
X147321329Y-83933379D01*
X147335157Y-84306660D01*
X147354290Y-84571785D01*
X147379544Y-84746587D01*
X147411733Y-84848900D01*
X147436057Y-84884281D01*
X147509414Y-84925941D01*
X147649184Y-84957877D01*
X147875610Y-84981223D01*
X148208938Y-84997115D01*
X148669412Y-85006688D01*
X149277278Y-85011076D01*
X149709052Y-85011693D01*
X151854635Y-85011693D01*
X151996221Y-84795606D01*
X152038924Y-84704961D01*
X152073675Y-84563637D01*
X152101779Y-84351830D01*
X152124541Y-84049737D01*
X152143266Y-83637557D01*
X152159259Y-83095486D01*
X152173825Y-82403722D01*
X152181059Y-81990835D01*
X152196385Y-81186075D01*
X152213926Y-80535469D01*
X152235655Y-80013666D01*
X152263545Y-79595316D01*
X152299569Y-79255067D01*
X152345697Y-78967569D01*
X152403905Y-78707470D01*
X152449604Y-78539516D01*
X152561014Y-78433149D01*
X152824924Y-78309289D01*
X153162302Y-78195683D01*
X153451616Y-78117648D01*
X153736943Y-78061842D01*
X154058330Y-78024387D01*
X154455827Y-78001408D01*
X154969479Y-77989027D01*
X155336708Y-77985171D01*
X155915528Y-77983440D01*
X156350141Y-77990218D01*
G36*
X100319563Y-77732852D02*
G01*
X100590572Y-77795674D01*
X100758620Y-77841726D01*
X101177393Y-77984621D01*
X101497171Y-78168135D01*
X101743700Y-78381559D01*
X101960889Y-78621541D01*
X102121476Y-78848290D01*
X102176291Y-78967848D01*
X102231499Y-79115231D01*
X102352036Y-79393833D01*
X102524308Y-79773651D01*
X102734720Y-80224679D01*
X102953546Y-80683462D01*
X103205942Y-81212736D01*
X103450618Y-81735838D01*
X103668704Y-82211701D01*
X103841333Y-82599253D01*
X103931855Y-82812753D01*
X104219070Y-83515580D01*
X104453588Y-84076788D01*
X104646947Y-84522376D01*
X104810684Y-84878345D01*
X104956337Y-85170694D01*
X105076344Y-85391782D01*
X105226147Y-85674830D01*
X105331061Y-85906815D01*
X105366901Y-86029121D01*
X105406680Y-86172778D01*
X105508893Y-86410677D01*
X105599298Y-86591434D01*
X105857630Y-87083645D01*
X106064274Y-87488301D01*
X106246588Y-87862172D01*
X106431928Y-88262031D01*
X106647652Y-88744650D01*
X106762691Y-89005686D01*
X106966589Y-89462435D01*
X107163812Y-89891649D01*
X107334379Y-90250666D01*
X107458310Y-90496824D01*
X107477267Y-90531481D01*
X107633356Y-90842307D01*
X107789605Y-91203505D01*
X107841486Y-91339254D01*
X107956174Y-91633158D01*
X108066742Y-91880482D01*
X108113160Y-91967523D01*
X108182886Y-92104144D01*
X108311055Y-92375969D01*
X108484240Y-92753713D01*
X108689013Y-93208089D01*
X108911556Y-93708923D01*
X109142377Y-94223767D01*
X109363974Y-94703111D01*
X109560659Y-95114127D01*
X109716741Y-95423989D01*
X109812438Y-95593729D01*
X109945531Y-95850186D01*
X110085001Y-96202377D01*
X110192253Y-96544908D01*
X110282025Y-96924112D01*
X110313810Y-97215081D01*
X110292656Y-97497655D01*
X110263049Y-97664565D01*
X110198947Y-97948424D01*
X110118535Y-98113806D01*
X109974101Y-98218974D01*
X109727393Y-98318678D01*
X109430909Y-98389394D01*
X108995772Y-98442702D01*
X108461998Y-98478512D01*
X107869601Y-98496735D01*
X107258598Y-98497279D01*
X106669004Y-98480056D01*
X106140834Y-98444974D01*
X105714103Y-98391944D01*
X105448508Y-98328316D01*
X104978377Y-98073937D01*
X104536547Y-97672953D01*
X104156474Y-97158191D01*
X104037244Y-96943596D01*
X103837373Y-96610679D01*
X103615781Y-96388967D01*
X103389723Y-96252225D01*
X103278776Y-96197816D01*
X103168918Y-96154285D01*
X103040069Y-96120592D01*
X102872147Y-96095695D01*
X102645072Y-96078554D01*
X102338763Y-96068129D01*
X101933139Y-96063378D01*
X101408120Y-96063262D01*
X100743623Y-96066738D01*
X99925889Y-96072720D01*
X96860488Y-96096145D01*
X96668649Y-96320527D01*
X96520947Y-96524631D01*
X96341336Y-96815569D01*
X96217707Y-97038548D01*
X95848601Y-97597087D01*
X95397488Y-98042952D01*
X94897337Y-98343987D01*
X94865841Y-98357002D01*
X94709208Y-98412839D01*
X94539963Y-98452605D01*
X94329166Y-98477731D01*
X94047875Y-98489649D01*
X93667150Y-98489790D01*
X93158050Y-98479586D01*
X92666901Y-98465777D01*
X92094694Y-98443998D01*
X91564026Y-98415132D01*
X91108613Y-98381690D01*
X90762168Y-98346183D01*
X90558407Y-98311119D01*
X90548077Y-98308026D01*
X90351737Y-98226737D01*
X90231012Y-98105912D01*
X90142802Y-97890489D01*
X90098318Y-97733447D01*
X89972331Y-97262929D01*
X89763283Y-97600762D01*
X89560530Y-97855109D01*
X89285305Y-98114061D01*
X89149866Y-98216809D01*
X88745496Y-98495023D01*
X86982228Y-98480113D01*
X86370638Y-98473753D01*
X85907972Y-98464307D01*
X85563648Y-98448561D01*
X85307085Y-98423302D01*
X85107701Y-98385315D01*
X84934914Y-98331389D01*
X84758143Y-98258309D01*
X84723261Y-98242746D01*
X84351284Y-98036631D01*
X84087823Y-97783189D01*
X83982037Y-97632199D01*
X83736512Y-97244107D01*
X83736512Y-94148524D01*
X83736216Y-93321470D01*
X83734610Y-92655279D01*
X83730616Y-92131310D01*
X83723156Y-91730919D01*
X83711153Y-91435466D01*
X83693529Y-91226309D01*
X83669206Y-91084805D01*
X83637107Y-90992312D01*
X83596153Y-90930189D01*
X83547667Y-90881964D01*
X83471278Y-90825376D01*
X83367186Y-90781952D01*
X83211193Y-90749421D01*
X82979097Y-90725515D01*
X82646698Y-90707966D01*
X82189797Y-90694505D01*
X81584193Y-90682864D01*
X81390061Y-90679707D01*
X80801859Y-90672797D01*
X80264650Y-90671073D01*
X79807770Y-90674263D01*
X79460558Y-90682093D01*
X79252352Y-90694288D01*
X79215848Y-90699993D01*
X79105724Y-90737414D01*
X79016368Y-90800359D01*
X78945779Y-90906092D01*
X78891959Y-91071876D01*
X78852908Y-91314974D01*
X78826626Y-91652650D01*
X78811114Y-92102166D01*
X78804371Y-92680785D01*
X78804398Y-93405772D01*
X78808672Y-94215155D01*
X78813363Y-95033063D01*
X78815002Y-95692121D01*
X78812667Y-96212970D01*
X78805434Y-96616252D01*
X78792382Y-96922609D01*
X78772588Y-97152682D01*
X78745129Y-97327114D01*
X78709083Y-97466546D01*
X78663528Y-97591620D01*
X78657058Y-97607418D01*
X78508016Y-97892767D01*
X78305357Y-98099146D01*
X78037219Y-98266540D01*
X77881345Y-98349261D01*
X77739976Y-98410948D01*
X77584369Y-98454751D01*
X77385781Y-98483826D01*
X77115467Y-98501325D01*
X76744685Y-98510402D01*
X76244691Y-98514210D01*
X75767814Y-98515505D01*
X75144919Y-98515666D01*
X74673195Y-98511428D01*
X74324316Y-98500332D01*
X74069960Y-98479919D01*
X73881800Y-98447731D01*
X73731514Y-98401307D01*
X73590776Y-98338190D01*
X73562691Y-98324064D01*
X73251276Y-98108373D01*
X72980942Y-97826593D01*
X72942016Y-97771747D01*
X72705821Y-97414833D01*
X72705086Y-97048360D01*
X73717602Y-97048360D01*
X73906365Y-97252040D01*
X73982274Y-97325591D01*
X74071635Y-97379101D01*
X74202374Y-97415934D01*
X74402416Y-97439454D01*
X74699689Y-97453027D01*
X75122118Y-97460017D01*
X75662287Y-97463613D01*
X76184253Y-97463813D01*
X76651108Y-97459431D01*
X77030128Y-97451135D01*
X77288588Y-97439591D01*
X77386607Y-97428454D01*
X77482369Y-97392083D01*
X77559732Y-97329120D01*
X77620475Y-97222050D01*
X77666375Y-97053355D01*
X77699211Y-96805519D01*
X77720760Y-96461025D01*
X77732799Y-96002356D01*
X77737108Y-95411995D01*
X77735463Y-94672425D01*
X77731537Y-94029901D01*
X77726504Y-93213402D01*
X77724620Y-92555475D01*
X77726816Y-92035199D01*
X77734022Y-91631655D01*
X77747169Y-91323921D01*
X77767188Y-91091079D01*
X77795011Y-90912209D01*
X77831569Y-90766389D01*
X77877792Y-90632701D01*
X77883372Y-90618184D01*
X78048008Y-90289484D01*
X78281218Y-90034364D01*
X78495319Y-89874507D01*
X78934745Y-89576543D01*
X83601883Y-89640931D01*
X84008997Y-89881532D01*
X84383530Y-90180537D01*
X84614828Y-90531152D01*
X84668358Y-90646966D01*
X84711300Y-90764170D01*
X84744821Y-90903031D01*
X84770085Y-91083817D01*
X84788257Y-91326798D01*
X84800504Y-91652242D01*
X84807990Y-92080417D01*
X84811880Y-92631592D01*
X84813341Y-93326036D01*
X84813544Y-93987290D01*
X84813544Y-97034410D01*
X85055872Y-97193546D01*
X85175212Y-97254056D01*
X85342271Y-97300123D01*
X85584789Y-97334868D01*
X85930507Y-97361416D01*
X86407166Y-97382890D01*
X86867753Y-97397558D01*
X87441018Y-97412378D01*
X87863078Y-97417941D01*
X88162081Y-97412369D01*
X88366175Y-97393780D01*
X88503509Y-97360295D01*
X88602232Y-97310033D01*
X88644859Y-97278853D01*
X88836287Y-97127981D01*
X91126132Y-97127981D01*
X91131953Y-97271442D01*
X91181169Y-97317381D01*
X91303217Y-97351167D01*
X91520205Y-97374436D01*
X91854241Y-97388822D01*
X92327435Y-97395963D01*
X92836703Y-97397558D01*
X94493057Y-97397558D01*
X94773957Y-97161197D01*
X94970901Y-96948755D01*
X95183967Y-96648952D01*
X95316475Y-96420737D01*
X95508127Y-96091139D01*
X95723428Y-95778419D01*
X95855439Y-95617703D01*
X96058820Y-95443160D01*
X96334385Y-95262377D01*
X96635222Y-95099254D01*
X96914415Y-94977694D01*
X97125050Y-94921600D01*
X97202613Y-94931340D01*
X97309063Y-94943470D01*
X97572946Y-94954431D01*
X97972192Y-94963863D01*
X98484732Y-94971404D01*
X99088496Y-94976693D01*
X99761413Y-94979368D01*
X100149656Y-94979596D01*
X100953998Y-94979888D01*
X101600762Y-94982579D01*
X102111869Y-94988808D01*
X102509241Y-94999714D01*
X102814801Y-95016437D01*
X103050470Y-95040115D01*
X103238171Y-95071888D01*
X103399825Y-95112894D01*
X103531573Y-95155325D01*
X103921088Y-95320830D01*
X104292981Y-95533286D01*
X104605204Y-95763276D01*
X104815713Y-95981382D01*
X104876250Y-96096145D01*
X105084960Y-96619557D01*
X105362375Y-97016362D01*
X105481901Y-97126971D01*
X105660864Y-97245335D01*
X105874821Y-97323759D01*
X106174722Y-97375999D01*
X106528492Y-97409569D01*
X106967069Y-97433900D01*
X107415755Y-97443160D01*
X107786243Y-97435732D01*
X107825826Y-97433337D01*
X108213161Y-97412625D01*
X108610527Y-97399708D01*
X108790667Y-97397558D01*
X109052477Y-97389307D01*
X109181270Y-97349463D01*
X109223313Y-97255394D01*
X109226265Y-97184461D01*
X109181856Y-96890577D01*
X109069347Y-96538043D01*
X108919815Y-96209607D01*
X108784783Y-96008948D01*
X108629261Y-95781070D01*
X108551842Y-95602505D01*
X108469833Y-95388807D01*
X108339136Y-95106165D01*
X108272268Y-94974951D01*
X108149996Y-94729910D01*
X108073052Y-94549994D01*
X108059480Y-94498642D01*
X108023505Y-94393397D01*
X107923448Y-94151726D01*
X107771114Y-93799877D01*
X107578309Y-93364102D01*
X107356836Y-92870648D01*
X107118500Y-92345765D01*
X106875106Y-91815703D01*
X106638459Y-91306711D01*
X106420363Y-90845039D01*
X106356131Y-90710986D01*
X105992895Y-89950644D01*
X105709563Y-89345300D01*
X105504010Y-88890285D01*
X105374112Y-88580930D01*
X105327599Y-88450350D01*
X105260494Y-88289123D01*
X105128253Y-88016000D01*
X104953098Y-87675900D01*
X104839198Y-87463071D01*
X104648594Y-87099715D01*
X104488363Y-86771590D01*
X104380944Y-86525790D01*
X104351870Y-86440262D01*
X104275055Y-86230248D01*
X104141549Y-85945404D01*
X104046712Y-85767118D01*
X103884045Y-85454946D01*
X103691382Y-85042868D01*
X103460619Y-84512398D01*
X103183654Y-83845052D01*
X102943667Y-83250922D01*
X102789146Y-82886092D01*
X102585186Y-82433271D01*
X102364456Y-81964093D01*
X102247794Y-81725127D01*
X102053720Y-81327543D01*
X101878164Y-80956362D01*
X101744171Y-80660932D01*
X101686845Y-80524060D01*
X101555773Y-80236958D01*
X101406402Y-79977971D01*
X101402114Y-79971689D01*
X101286042Y-79760939D01*
X101238279Y-79591656D01*
X101160319Y-79368173D01*
X100960440Y-79140775D01*
X100689640Y-78953724D01*
X100398919Y-78851283D01*
X100382419Y-78848856D01*
X99913346Y-78857974D01*
X99534561Y-79021445D01*
X99250042Y-79337111D01*
X99161006Y-79511311D01*
X99067973Y-79716248D01*
X98909804Y-80052655D01*
X98700647Y-80490957D01*
X98454653Y-81001578D01*
X98185970Y-81554943D01*
X98053872Y-81825474D01*
X97742236Y-82470645D01*
X97413948Y-83164446D01*
X97092399Y-83856467D01*
X96800981Y-84496295D01*
X96563086Y-85033519D01*
X96533761Y-85101445D01*
X96271482Y-85699466D01*
X95970441Y-86366590D01*
X95663683Y-87030660D01*
X95384252Y-87619519D01*
X95321254Y-87749148D01*
X94934855Y-88541593D01*
X94624776Y-89182811D01*
X94386714Y-89681958D01*
X94216371Y-90048188D01*
X94109444Y-90290659D01*
X94061635Y-90418526D01*
X94058067Y-90438421D01*
X94017661Y-90580055D01*
X93903035Y-90858643D01*
X93724079Y-91252555D01*
X93490680Y-91740163D01*
X93212726Y-92299839D01*
X93153792Y-92416286D01*
X92905413Y-92925121D01*
X92640567Y-93499466D01*
X92397723Y-94054541D01*
X92272024Y-94359499D01*
X92096889Y-94776927D01*
X91919460Y-95161849D01*
X91763127Y-95465434D01*
X91670994Y-95614200D01*
X91537329Y-95845430D01*
X91399390Y-96163521D01*
X91273797Y-96517375D01*
X91177171Y-96855894D01*
X91126132Y-97127981D01*
X88836287Y-97127981D01*
X88852413Y-97115272D01*
X88852413Y-88253428D01*
X88851963Y-86730485D01*
X88850538Y-85378231D01*
X88848029Y-84187854D01*
X88844326Y-83150541D01*
X88839319Y-82257477D01*
X88832899Y-81499851D01*
X88824956Y-80868849D01*
X88815379Y-80355656D01*
X88804059Y-79951461D01*
X88790887Y-79647450D01*
X88775752Y-79434810D01*
X88758544Y-79304727D01*
X88740222Y-79249647D01*
X88668398Y-79195642D01*
X88533134Y-79154075D01*
X88309758Y-79122183D01*
X87973593Y-79097203D01*
X87499967Y-79076371D01*
X87070817Y-79062701D01*
X86385739Y-79047869D01*
X85858660Y-79050142D01*
X85468605Y-79072815D01*
X85194600Y-79119184D01*
X85015669Y-79192544D01*
X84910840Y-79296192D01*
X84864634Y-79409349D01*
X84851710Y-79555998D01*
X84843633Y-79856938D01*
X84840421Y-80287018D01*
X84842094Y-80821090D01*
X84848670Y-81434003D01*
X84860169Y-82100607D01*
X84862507Y-82212473D01*
X84917677Y-84787311D01*
X84677839Y-85214697D01*
X84339978Y-85649581D01*
X84041097Y-85874684D01*
X83644193Y-86107285D01*
X81334345Y-86116908D01*
X80625101Y-86119076D01*
X80070917Y-86117875D01*
X79647359Y-86111682D01*
X79329991Y-86098877D01*
X79094378Y-86077838D01*
X78916084Y-86046942D01*
X78770674Y-86004568D01*
X78633712Y-85949095D01*
X78603854Y-85935682D01*
X78277031Y-85742759D01*
X78052833Y-85482680D01*
X77980879Y-85355825D01*
X77924278Y-85241377D01*
X77879302Y-85125648D01*
X77844569Y-84987411D01*
X77818698Y-84805442D01*
X77800307Y-84558514D01*
X77788015Y-84225402D01*
X77780442Y-83784881D01*
X77776205Y-83215725D01*
X77773923Y-82496710D01*
X77773254Y-82165271D01*
X77770782Y-81369320D01*
X77766067Y-80733952D01*
X77758160Y-80240247D01*
X77746111Y-79869288D01*
X77728971Y-79602155D01*
X77705789Y-79419931D01*
X77675617Y-79303696D01*
X77637504Y-79234533D01*
X77625476Y-79221221D01*
X77542972Y-79168339D01*
X77398579Y-79127319D01*
X77168051Y-79095648D01*
X76827138Y-79070812D01*
X76351594Y-79050298D01*
X75823017Y-79034370D01*
X75234825Y-79019845D01*
X74798621Y-79013524D01*
X74487000Y-79017325D01*
X74272556Y-79033167D01*
X74127883Y-79062967D01*
X74025575Y-79108642D01*
X73946067Y-79165719D01*
X73729092Y-79341414D01*
X73717602Y-97048360D01*
X72705086Y-97048360D01*
X72669323Y-79222647D01*
X72898831Y-78771559D01*
X73062928Y-78489885D01*
X73241549Y-78310331D01*
X73504266Y-78169603D01*
X73608220Y-78126164D01*
X73782920Y-78059997D01*
X73952758Y-78011577D01*
X74147488Y-77978818D01*
X74396866Y-77959630D01*
X74730648Y-77951926D01*
X75178587Y-77953618D01*
X75770439Y-77962619D01*
X75904446Y-77965034D01*
X76525726Y-77977561D01*
X76995646Y-77991404D01*
X77342345Y-78009664D01*
X77593960Y-78035440D01*
X77778627Y-78071833D01*
X77924486Y-78121941D01*
X78059672Y-78188866D01*
X78090212Y-78205837D01*
X78437132Y-78481676D01*
X78649381Y-78773179D01*
X78702464Y-78881334D01*
X78744646Y-78996256D01*
X78777202Y-79138951D01*
X78801408Y-79330425D01*
X78818540Y-79591684D01*
X78829874Y-79943733D01*
X78836685Y-80407579D01*
X78840250Y-81004226D01*
X78841844Y-81754681D01*
X78842060Y-81945417D01*
X78844993Y-84757939D01*
X79065754Y-84936879D01*
X79152425Y-84998978D01*
X79254176Y-85043643D01*
X79397979Y-85072702D01*
X79610802Y-85087982D01*
X79919615Y-85091313D01*
X80351389Y-85084522D01*
X80933092Y-85069437D01*
X80995436Y-85067687D01*
X81559530Y-85052151D01*
X82087178Y-85038266D01*
X82542134Y-85026936D01*
X82888154Y-85019066D01*
X83082309Y-85015624D01*
X83407972Y-84969437D01*
X83635159Y-84823615D01*
X83648298Y-84809859D01*
X83701660Y-84747660D01*
X83743375Y-84675232D01*
X83774412Y-84572211D01*
X83795738Y-84418230D01*
X83808319Y-84192924D01*
X83813123Y-83875928D01*
X83811117Y-83446877D01*
X83803268Y-82885405D01*
X83790543Y-82171146D01*
X83785756Y-81915336D01*
X83735176Y-79222647D01*
X83982664Y-78732341D01*
X84134053Y-78454069D01*
X84270035Y-78291450D01*
X84446954Y-78195596D01*
X84678915Y-78128242D01*
X84970443Y-78081593D01*
X85423567Y-78046157D01*
X86020674Y-78022865D01*
X86744151Y-78012643D01*
X86877855Y-78012273D01*
X87624003Y-78016217D01*
X88213345Y-78034174D01*
X88668406Y-78072234D01*
X89011709Y-78136483D01*
X89265779Y-78233009D01*
X89453140Y-78367901D01*
X89596316Y-78547247D01*
X89717831Y-78777133D01*
X89719262Y-78780250D01*
X89927888Y-79235380D01*
X89931204Y-88136964D01*
X89932023Y-89384337D01*
X89933500Y-90579755D01*
X89935580Y-91711150D01*
X89938212Y-92766459D01*
X89941340Y-93733614D01*
X89944913Y-94600550D01*
X89948877Y-95355201D01*
X89953179Y-95985502D01*
X89957765Y-96479387D01*
X89962582Y-96824789D01*
X89967578Y-97009643D01*
X89970490Y-97038548D01*
X90011552Y-96959703D01*
X90081761Y-96754933D01*
X90150542Y-96522470D01*
X90384601Y-95801133D01*
X90638010Y-95248096D01*
X90782032Y-95019113D01*
X90902533Y-94811932D01*
X91057228Y-94493501D01*
X91218830Y-94121218D01*
X91272703Y-93986958D01*
X91416026Y-93641494D01*
X91617928Y-93182340D01*
X91857121Y-92656567D01*
X92112314Y-92111241D01*
X92267270Y-91788018D01*
X92497672Y-91307151D01*
X92703156Y-90868426D01*
X92869506Y-90502974D01*
X92982508Y-90241929D01*
X93025397Y-90127594D01*
X93091006Y-89947651D01*
X93213154Y-89655809D01*
X93369630Y-89301477D01*
X93538225Y-88934067D01*
X93696726Y-88602987D01*
X93812121Y-88377417D01*
X93909614Y-88187715D01*
X94074056Y-87856274D01*
X94295435Y-87403521D01*
X94563738Y-86849887D01*
X94735942Y-86492611D01*
X94842441Y-86263317D01*
X95003811Y-85905892D01*
X95203717Y-85456985D01*
X95425824Y-84953245D01*
X95617413Y-84514968D01*
X95872145Y-83941633D01*
X96181541Y-83263786D01*
X96519607Y-82537280D01*
X96860349Y-81817965D01*
X97177774Y-81161694D01*
X97183878Y-81149243D01*
X97446872Y-80608013D01*
X97684760Y-80108935D01*
X97885286Y-79678496D01*
X98036192Y-79343184D01*
X98125220Y-79129487D01*
X98142305Y-79078173D01*
X98286593Y-78788615D01*
X98558982Y-78481044D01*
X98916517Y-78191868D01*
X99316242Y-77957495D01*
X99595806Y-77846262D01*
X99896164Y-77757857D01*
X100112755Y-77720150D01*
X100319563Y-77732852D01*
G37*
X100319563Y-77732852D02*
X100590572Y-77795674D01*
X100758620Y-77841726D01*
X101177393Y-77984621D01*
X101497171Y-78168135D01*
X101743700Y-78381559D01*
X101960889Y-78621541D01*
X102121476Y-78848290D01*
X102176291Y-78967848D01*
X102231499Y-79115231D01*
X102352036Y-79393833D01*
X102524308Y-79773651D01*
X102734720Y-80224679D01*
X102953546Y-80683462D01*
X103205942Y-81212736D01*
X103450618Y-81735838D01*
X103668704Y-82211701D01*
X103841333Y-82599253D01*
X103931855Y-82812753D01*
X104219070Y-83515580D01*
X104453588Y-84076788D01*
X104646947Y-84522376D01*
X104810684Y-84878345D01*
X104956337Y-85170694D01*
X105076344Y-85391782D01*
X105226147Y-85674830D01*
X105331061Y-85906815D01*
X105366901Y-86029121D01*
X105406680Y-86172778D01*
X105508893Y-86410677D01*
X105599298Y-86591434D01*
X105857630Y-87083645D01*
X106064274Y-87488301D01*
X106246588Y-87862172D01*
X106431928Y-88262031D01*
X106647652Y-88744650D01*
X106762691Y-89005686D01*
X106966589Y-89462435D01*
X107163812Y-89891649D01*
X107334379Y-90250666D01*
X107458310Y-90496824D01*
X107477267Y-90531481D01*
X107633356Y-90842307D01*
X107789605Y-91203505D01*
X107841486Y-91339254D01*
X107956174Y-91633158D01*
X108066742Y-91880482D01*
X108113160Y-91967523D01*
X108182886Y-92104144D01*
X108311055Y-92375969D01*
X108484240Y-92753713D01*
X108689013Y-93208089D01*
X108911556Y-93708923D01*
X109142377Y-94223767D01*
X109363974Y-94703111D01*
X109560659Y-95114127D01*
X109716741Y-95423989D01*
X109812438Y-95593729D01*
X109945531Y-95850186D01*
X110085001Y-96202377D01*
X110192253Y-96544908D01*
X110282025Y-96924112D01*
X110313810Y-97215081D01*
X110292656Y-97497655D01*
X110263049Y-97664565D01*
X110198947Y-97948424D01*
X110118535Y-98113806D01*
X109974101Y-98218974D01*
X109727393Y-98318678D01*
X109430909Y-98389394D01*
X108995772Y-98442702D01*
X108461998Y-98478512D01*
X107869601Y-98496735D01*
X107258598Y-98497279D01*
X106669004Y-98480056D01*
X106140834Y-98444974D01*
X105714103Y-98391944D01*
X105448508Y-98328316D01*
X104978377Y-98073937D01*
X104536547Y-97672953D01*
X104156474Y-97158191D01*
X104037244Y-96943596D01*
X103837373Y-96610679D01*
X103615781Y-96388967D01*
X103389723Y-96252225D01*
X103278776Y-96197816D01*
X103168918Y-96154285D01*
X103040069Y-96120592D01*
X102872147Y-96095695D01*
X102645072Y-96078554D01*
X102338763Y-96068129D01*
X101933139Y-96063378D01*
X101408120Y-96063262D01*
X100743623Y-96066738D01*
X99925889Y-96072720D01*
X96860488Y-96096145D01*
X96668649Y-96320527D01*
X96520947Y-96524631D01*
X96341336Y-96815569D01*
X96217707Y-97038548D01*
X95848601Y-97597087D01*
X95397488Y-98042952D01*
X94897337Y-98343987D01*
X94865841Y-98357002D01*
X94709208Y-98412839D01*
X94539963Y-98452605D01*
X94329166Y-98477731D01*
X94047875Y-98489649D01*
X93667150Y-98489790D01*
X93158050Y-98479586D01*
X92666901Y-98465777D01*
X92094694Y-98443998D01*
X91564026Y-98415132D01*
X91108613Y-98381690D01*
X90762168Y-98346183D01*
X90558407Y-98311119D01*
X90548077Y-98308026D01*
X90351737Y-98226737D01*
X90231012Y-98105912D01*
X90142802Y-97890489D01*
X90098318Y-97733447D01*
X89972331Y-97262929D01*
X89763283Y-97600762D01*
X89560530Y-97855109D01*
X89285305Y-98114061D01*
X89149866Y-98216809D01*
X88745496Y-98495023D01*
X86982228Y-98480113D01*
X86370638Y-98473753D01*
X85907972Y-98464307D01*
X85563648Y-98448561D01*
X85307085Y-98423302D01*
X85107701Y-98385315D01*
X84934914Y-98331389D01*
X84758143Y-98258309D01*
X84723261Y-98242746D01*
X84351284Y-98036631D01*
X84087823Y-97783189D01*
X83982037Y-97632199D01*
X83736512Y-97244107D01*
X83736512Y-94148524D01*
X83736216Y-93321470D01*
X83734610Y-92655279D01*
X83730616Y-92131310D01*
X83723156Y-91730919D01*
X83711153Y-91435466D01*
X83693529Y-91226309D01*
X83669206Y-91084805D01*
X83637107Y-90992312D01*
X83596153Y-90930189D01*
X83547667Y-90881964D01*
X83471278Y-90825376D01*
X83367186Y-90781952D01*
X83211193Y-90749421D01*
X82979097Y-90725515D01*
X82646698Y-90707966D01*
X82189797Y-90694505D01*
X81584193Y-90682864D01*
X81390061Y-90679707D01*
X80801859Y-90672797D01*
X80264650Y-90671073D01*
X79807770Y-90674263D01*
X79460558Y-90682093D01*
X79252352Y-90694288D01*
X79215848Y-90699993D01*
X79105724Y-90737414D01*
X79016368Y-90800359D01*
X78945779Y-90906092D01*
X78891959Y-91071876D01*
X78852908Y-91314974D01*
X78826626Y-91652650D01*
X78811114Y-92102166D01*
X78804371Y-92680785D01*
X78804398Y-93405772D01*
X78808672Y-94215155D01*
X78813363Y-95033063D01*
X78815002Y-95692121D01*
X78812667Y-96212970D01*
X78805434Y-96616252D01*
X78792382Y-96922609D01*
X78772588Y-97152682D01*
X78745129Y-97327114D01*
X78709083Y-97466546D01*
X78663528Y-97591620D01*
X78657058Y-97607418D01*
X78508016Y-97892767D01*
X78305357Y-98099146D01*
X78037219Y-98266540D01*
X77881345Y-98349261D01*
X77739976Y-98410948D01*
X77584369Y-98454751D01*
X77385781Y-98483826D01*
X77115467Y-98501325D01*
X76744685Y-98510402D01*
X76244691Y-98514210D01*
X75767814Y-98515505D01*
X75144919Y-98515666D01*
X74673195Y-98511428D01*
X74324316Y-98500332D01*
X74069960Y-98479919D01*
X73881800Y-98447731D01*
X73731514Y-98401307D01*
X73590776Y-98338190D01*
X73562691Y-98324064D01*
X73251276Y-98108373D01*
X72980942Y-97826593D01*
X72942016Y-97771747D01*
X72705821Y-97414833D01*
X72705086Y-97048360D01*
X73717602Y-97048360D01*
X73906365Y-97252040D01*
X73982274Y-97325591D01*
X74071635Y-97379101D01*
X74202374Y-97415934D01*
X74402416Y-97439454D01*
X74699689Y-97453027D01*
X75122118Y-97460017D01*
X75662287Y-97463613D01*
X76184253Y-97463813D01*
X76651108Y-97459431D01*
X77030128Y-97451135D01*
X77288588Y-97439591D01*
X77386607Y-97428454D01*
X77482369Y-97392083D01*
X77559732Y-97329120D01*
X77620475Y-97222050D01*
X77666375Y-97053355D01*
X77699211Y-96805519D01*
X77720760Y-96461025D01*
X77732799Y-96002356D01*
X77737108Y-95411995D01*
X77735463Y-94672425D01*
X77731537Y-94029901D01*
X77726504Y-93213402D01*
X77724620Y-92555475D01*
X77726816Y-92035199D01*
X77734022Y-91631655D01*
X77747169Y-91323921D01*
X77767188Y-91091079D01*
X77795011Y-90912209D01*
X77831569Y-90766389D01*
X77877792Y-90632701D01*
X77883372Y-90618184D01*
X78048008Y-90289484D01*
X78281218Y-90034364D01*
X78495319Y-89874507D01*
X78934745Y-89576543D01*
X83601883Y-89640931D01*
X84008997Y-89881532D01*
X84383530Y-90180537D01*
X84614828Y-90531152D01*
X84668358Y-90646966D01*
X84711300Y-90764170D01*
X84744821Y-90903031D01*
X84770085Y-91083817D01*
X84788257Y-91326798D01*
X84800504Y-91652242D01*
X84807990Y-92080417D01*
X84811880Y-92631592D01*
X84813341Y-93326036D01*
X84813544Y-93987290D01*
X84813544Y-97034410D01*
X85055872Y-97193546D01*
X85175212Y-97254056D01*
X85342271Y-97300123D01*
X85584789Y-97334868D01*
X85930507Y-97361416D01*
X86407166Y-97382890D01*
X86867753Y-97397558D01*
X87441018Y-97412378D01*
X87863078Y-97417941D01*
X88162081Y-97412369D01*
X88366175Y-97393780D01*
X88503509Y-97360295D01*
X88602232Y-97310033D01*
X88644859Y-97278853D01*
X88836287Y-97127981D01*
X91126132Y-97127981D01*
X91131953Y-97271442D01*
X91181169Y-97317381D01*
X91303217Y-97351167D01*
X91520205Y-97374436D01*
X91854241Y-97388822D01*
X92327435Y-97395963D01*
X92836703Y-97397558D01*
X94493057Y-97397558D01*
X94773957Y-97161197D01*
X94970901Y-96948755D01*
X95183967Y-96648952D01*
X95316475Y-96420737D01*
X95508127Y-96091139D01*
X95723428Y-95778419D01*
X95855439Y-95617703D01*
X96058820Y-95443160D01*
X96334385Y-95262377D01*
X96635222Y-95099254D01*
X96914415Y-94977694D01*
X97125050Y-94921600D01*
X97202613Y-94931340D01*
X97309063Y-94943470D01*
X97572946Y-94954431D01*
X97972192Y-94963863D01*
X98484732Y-94971404D01*
X99088496Y-94976693D01*
X99761413Y-94979368D01*
X100149656Y-94979596D01*
X100953998Y-94979888D01*
X101600762Y-94982579D01*
X102111869Y-94988808D01*
X102509241Y-94999714D01*
X102814801Y-95016437D01*
X103050470Y-95040115D01*
X103238171Y-95071888D01*
X103399825Y-95112894D01*
X103531573Y-95155325D01*
X103921088Y-95320830D01*
X104292981Y-95533286D01*
X104605204Y-95763276D01*
X104815713Y-95981382D01*
X104876250Y-96096145D01*
X105084960Y-96619557D01*
X105362375Y-97016362D01*
X105481901Y-97126971D01*
X105660864Y-97245335D01*
X105874821Y-97323759D01*
X106174722Y-97375999D01*
X106528492Y-97409569D01*
X106967069Y-97433900D01*
X107415755Y-97443160D01*
X107786243Y-97435732D01*
X107825826Y-97433337D01*
X108213161Y-97412625D01*
X108610527Y-97399708D01*
X108790667Y-97397558D01*
X109052477Y-97389307D01*
X109181270Y-97349463D01*
X109223313Y-97255394D01*
X109226265Y-97184461D01*
X109181856Y-96890577D01*
X109069347Y-96538043D01*
X108919815Y-96209607D01*
X108784783Y-96008948D01*
X108629261Y-95781070D01*
X108551842Y-95602505D01*
X108469833Y-95388807D01*
X108339136Y-95106165D01*
X108272268Y-94974951D01*
X108149996Y-94729910D01*
X108073052Y-94549994D01*
X108059480Y-94498642D01*
X108023505Y-94393397D01*
X107923448Y-94151726D01*
X107771114Y-93799877D01*
X107578309Y-93364102D01*
X107356836Y-92870648D01*
X107118500Y-92345765D01*
X106875106Y-91815703D01*
X106638459Y-91306711D01*
X106420363Y-90845039D01*
X106356131Y-90710986D01*
X105992895Y-89950644D01*
X105709563Y-89345300D01*
X105504010Y-88890285D01*
X105374112Y-88580930D01*
X105327599Y-88450350D01*
X105260494Y-88289123D01*
X105128253Y-88016000D01*
X104953098Y-87675900D01*
X104839198Y-87463071D01*
X104648594Y-87099715D01*
X104488363Y-86771590D01*
X104380944Y-86525790D01*
X104351870Y-86440262D01*
X104275055Y-86230248D01*
X104141549Y-85945404D01*
X104046712Y-85767118D01*
X103884045Y-85454946D01*
X103691382Y-85042868D01*
X103460619Y-84512398D01*
X103183654Y-83845052D01*
X102943667Y-83250922D01*
X102789146Y-82886092D01*
X102585186Y-82433271D01*
X102364456Y-81964093D01*
X102247794Y-81725127D01*
X102053720Y-81327543D01*
X101878164Y-80956362D01*
X101744171Y-80660932D01*
X101686845Y-80524060D01*
X101555773Y-80236958D01*
X101406402Y-79977971D01*
X101402114Y-79971689D01*
X101286042Y-79760939D01*
X101238279Y-79591656D01*
X101160319Y-79368173D01*
X100960440Y-79140775D01*
X100689640Y-78953724D01*
X100398919Y-78851283D01*
X100382419Y-78848856D01*
X99913346Y-78857974D01*
X99534561Y-79021445D01*
X99250042Y-79337111D01*
X99161006Y-79511311D01*
X99067973Y-79716248D01*
X98909804Y-80052655D01*
X98700647Y-80490957D01*
X98454653Y-81001578D01*
X98185970Y-81554943D01*
X98053872Y-81825474D01*
X97742236Y-82470645D01*
X97413948Y-83164446D01*
X97092399Y-83856467D01*
X96800981Y-84496295D01*
X96563086Y-85033519D01*
X96533761Y-85101445D01*
X96271482Y-85699466D01*
X95970441Y-86366590D01*
X95663683Y-87030660D01*
X95384252Y-87619519D01*
X95321254Y-87749148D01*
X94934855Y-88541593D01*
X94624776Y-89182811D01*
X94386714Y-89681958D01*
X94216371Y-90048188D01*
X94109444Y-90290659D01*
X94061635Y-90418526D01*
X94058067Y-90438421D01*
X94017661Y-90580055D01*
X93903035Y-90858643D01*
X93724079Y-91252555D01*
X93490680Y-91740163D01*
X93212726Y-92299839D01*
X93153792Y-92416286D01*
X92905413Y-92925121D01*
X92640567Y-93499466D01*
X92397723Y-94054541D01*
X92272024Y-94359499D01*
X92096889Y-94776927D01*
X91919460Y-95161849D01*
X91763127Y-95465434D01*
X91670994Y-95614200D01*
X91537329Y-95845430D01*
X91399390Y-96163521D01*
X91273797Y-96517375D01*
X91177171Y-96855894D01*
X91126132Y-97127981D01*
X88836287Y-97127981D01*
X88852413Y-97115272D01*
X88852413Y-88253428D01*
X88851963Y-86730485D01*
X88850538Y-85378231D01*
X88848029Y-84187854D01*
X88844326Y-83150541D01*
X88839319Y-82257477D01*
X88832899Y-81499851D01*
X88824956Y-80868849D01*
X88815379Y-80355656D01*
X88804059Y-79951461D01*
X88790887Y-79647450D01*
X88775752Y-79434810D01*
X88758544Y-79304727D01*
X88740222Y-79249647D01*
X88668398Y-79195642D01*
X88533134Y-79154075D01*
X88309758Y-79122183D01*
X87973593Y-79097203D01*
X87499967Y-79076371D01*
X87070817Y-79062701D01*
X86385739Y-79047869D01*
X85858660Y-79050142D01*
X85468605Y-79072815D01*
X85194600Y-79119184D01*
X85015669Y-79192544D01*
X84910840Y-79296192D01*
X84864634Y-79409349D01*
X84851710Y-79555998D01*
X84843633Y-79856938D01*
X84840421Y-80287018D01*
X84842094Y-80821090D01*
X84848670Y-81434003D01*
X84860169Y-82100607D01*
X84862507Y-82212473D01*
X84917677Y-84787311D01*
X84677839Y-85214697D01*
X84339978Y-85649581D01*
X84041097Y-85874684D01*
X83644193Y-86107285D01*
X81334345Y-86116908D01*
X80625101Y-86119076D01*
X80070917Y-86117875D01*
X79647359Y-86111682D01*
X79329991Y-86098877D01*
X79094378Y-86077838D01*
X78916084Y-86046942D01*
X78770674Y-86004568D01*
X78633712Y-85949095D01*
X78603854Y-85935682D01*
X78277031Y-85742759D01*
X78052833Y-85482680D01*
X77980879Y-85355825D01*
X77924278Y-85241377D01*
X77879302Y-85125648D01*
X77844569Y-84987411D01*
X77818698Y-84805442D01*
X77800307Y-84558514D01*
X77788015Y-84225402D01*
X77780442Y-83784881D01*
X77776205Y-83215725D01*
X77773923Y-82496710D01*
X77773254Y-82165271D01*
X77770782Y-81369320D01*
X77766067Y-80733952D01*
X77758160Y-80240247D01*
X77746111Y-79869288D01*
X77728971Y-79602155D01*
X77705789Y-79419931D01*
X77675617Y-79303696D01*
X77637504Y-79234533D01*
X77625476Y-79221221D01*
X77542972Y-79168339D01*
X77398579Y-79127319D01*
X77168051Y-79095648D01*
X76827138Y-79070812D01*
X76351594Y-79050298D01*
X75823017Y-79034370D01*
X75234825Y-79019845D01*
X74798621Y-79013524D01*
X74487000Y-79017325D01*
X74272556Y-79033167D01*
X74127883Y-79062967D01*
X74025575Y-79108642D01*
X73946067Y-79165719D01*
X73729092Y-79341414D01*
X73717602Y-97048360D01*
X72705086Y-97048360D01*
X72669323Y-79222647D01*
X72898831Y-78771559D01*
X73062928Y-78489885D01*
X73241549Y-78310331D01*
X73504266Y-78169603D01*
X73608220Y-78126164D01*
X73782920Y-78059997D01*
X73952758Y-78011577D01*
X74147488Y-77978818D01*
X74396866Y-77959630D01*
X74730648Y-77951926D01*
X75178587Y-77953618D01*
X75770439Y-77962619D01*
X75904446Y-77965034D01*
X76525726Y-77977561D01*
X76995646Y-77991404D01*
X77342345Y-78009664D01*
X77593960Y-78035440D01*
X77778627Y-78071833D01*
X77924486Y-78121941D01*
X78059672Y-78188866D01*
X78090212Y-78205837D01*
X78437132Y-78481676D01*
X78649381Y-78773179D01*
X78702464Y-78881334D01*
X78744646Y-78996256D01*
X78777202Y-79138951D01*
X78801408Y-79330425D01*
X78818540Y-79591684D01*
X78829874Y-79943733D01*
X78836685Y-80407579D01*
X78840250Y-81004226D01*
X78841844Y-81754681D01*
X78842060Y-81945417D01*
X78844993Y-84757939D01*
X79065754Y-84936879D01*
X79152425Y-84998978D01*
X79254176Y-85043643D01*
X79397979Y-85072702D01*
X79610802Y-85087982D01*
X79919615Y-85091313D01*
X80351389Y-85084522D01*
X80933092Y-85069437D01*
X80995436Y-85067687D01*
X81559530Y-85052151D01*
X82087178Y-85038266D01*
X82542134Y-85026936D01*
X82888154Y-85019066D01*
X83082309Y-85015624D01*
X83407972Y-84969437D01*
X83635159Y-84823615D01*
X83648298Y-84809859D01*
X83701660Y-84747660D01*
X83743375Y-84675232D01*
X83774412Y-84572211D01*
X83795738Y-84418230D01*
X83808319Y-84192924D01*
X83813123Y-83875928D01*
X83811117Y-83446877D01*
X83803268Y-82885405D01*
X83790543Y-82171146D01*
X83785756Y-81915336D01*
X83735176Y-79222647D01*
X83982664Y-78732341D01*
X84134053Y-78454069D01*
X84270035Y-78291450D01*
X84446954Y-78195596D01*
X84678915Y-78128242D01*
X84970443Y-78081593D01*
X85423567Y-78046157D01*
X86020674Y-78022865D01*
X86744151Y-78012643D01*
X86877855Y-78012273D01*
X87624003Y-78016217D01*
X88213345Y-78034174D01*
X88668406Y-78072234D01*
X89011709Y-78136483D01*
X89265779Y-78233009D01*
X89453140Y-78367901D01*
X89596316Y-78547247D01*
X89717831Y-78777133D01*
X89719262Y-78780250D01*
X89927888Y-79235380D01*
X89931204Y-88136964D01*
X89932023Y-89384337D01*
X89933500Y-90579755D01*
X89935580Y-91711150D01*
X89938212Y-92766459D01*
X89941340Y-93733614D01*
X89944913Y-94600550D01*
X89948877Y-95355201D01*
X89953179Y-95985502D01*
X89957765Y-96479387D01*
X89962582Y-96824789D01*
X89967578Y-97009643D01*
X89970490Y-97038548D01*
X90011552Y-96959703D01*
X90081761Y-96754933D01*
X90150542Y-96522470D01*
X90384601Y-95801133D01*
X90638010Y-95248096D01*
X90782032Y-95019113D01*
X90902533Y-94811932D01*
X91057228Y-94493501D01*
X91218830Y-94121218D01*
X91272703Y-93986958D01*
X91416026Y-93641494D01*
X91617928Y-93182340D01*
X91857121Y-92656567D01*
X92112314Y-92111241D01*
X92267270Y-91788018D01*
X92497672Y-91307151D01*
X92703156Y-90868426D01*
X92869506Y-90502974D01*
X92982508Y-90241929D01*
X93025397Y-90127594D01*
X93091006Y-89947651D01*
X93213154Y-89655809D01*
X93369630Y-89301477D01*
X93538225Y-88934067D01*
X93696726Y-88602987D01*
X93812121Y-88377417D01*
X93909614Y-88187715D01*
X94074056Y-87856274D01*
X94295435Y-87403521D01*
X94563738Y-86849887D01*
X94735942Y-86492611D01*
X94842441Y-86263317D01*
X95003811Y-85905892D01*
X95203717Y-85456985D01*
X95425824Y-84953245D01*
X95617413Y-84514968D01*
X95872145Y-83941633D01*
X96181541Y-83263786D01*
X96519607Y-82537280D01*
X96860349Y-81817965D01*
X97177774Y-81161694D01*
X97183878Y-81149243D01*
X97446872Y-80608013D01*
X97684760Y-80108935D01*
X97885286Y-79678496D01*
X98036192Y-79343184D01*
X98125220Y-79129487D01*
X98142305Y-79078173D01*
X98286593Y-78788615D01*
X98558982Y-78481044D01*
X98916517Y-78191868D01*
X99316242Y-77957495D01*
X99595806Y-77846262D01*
X99896164Y-77757857D01*
X100112755Y-77720150D01*
X100319563Y-77732852D01*
G36*
X31870530Y-77733890D02*
G01*
X32137147Y-77788284D01*
X32338829Y-77839348D01*
X32752557Y-77969000D01*
X33059088Y-78129990D01*
X33312195Y-78341401D01*
X33522284Y-78577564D01*
X33674273Y-78805232D01*
X33716934Y-78907991D01*
X33771312Y-79053985D01*
X33892020Y-79333743D01*
X34066560Y-79719761D01*
X34282433Y-80184530D01*
X34527143Y-80700545D01*
X34605778Y-80864277D01*
X34856656Y-81388584D01*
X35082900Y-81868029D01*
X35272008Y-82275588D01*
X35411483Y-82584237D01*
X35488824Y-82766949D01*
X35498278Y-82793959D01*
X35574076Y-83002822D01*
X35710976Y-83335347D01*
X35892099Y-83753512D01*
X36100566Y-84219296D01*
X36319498Y-84694679D01*
X36532015Y-85141639D01*
X36622277Y-85325827D01*
X36781276Y-85657480D01*
X36903296Y-85932955D01*
X36969867Y-86109602D01*
X36976846Y-86144497D01*
X37017409Y-86261124D01*
X37128032Y-86495929D01*
X37290155Y-86810982D01*
X37424145Y-87058594D01*
X37610730Y-87402629D01*
X37759377Y-87687792D01*
X37851676Y-87878092D01*
X37872908Y-87935969D01*
X37909199Y-88050332D01*
X38007182Y-88290636D01*
X38150525Y-88621164D01*
X38322893Y-89006197D01*
X38507952Y-89410017D01*
X38689370Y-89796906D01*
X38850811Y-90131144D01*
X38975944Y-90377014D01*
X39039290Y-90486604D01*
X39155018Y-90694052D01*
X39292481Y-90995369D01*
X39387382Y-91234116D01*
X39524906Y-91581424D01*
X39671735Y-91915665D01*
X39755749Y-92086766D01*
X39867411Y-92312658D01*
X40023998Y-92649180D01*
X40200366Y-93041699D01*
X40299843Y-93268936D01*
X40483632Y-93687986D01*
X40668578Y-94100840D01*
X40826143Y-94444137D01*
X40886579Y-94571638D01*
X41007006Y-94836667D01*
X41085962Y-95040638D01*
X41104003Y-95115155D01*
X41153586Y-95240249D01*
X41277768Y-95441098D01*
X41332392Y-95517754D01*
X41568317Y-95935514D01*
X41751369Y-96447375D01*
X41861550Y-96979490D01*
X41878864Y-97458012D01*
X41873025Y-97514253D01*
X41828186Y-97799189D01*
X41777740Y-98013917D01*
X41750959Y-98080680D01*
X41635084Y-98162173D01*
X41406216Y-98265517D01*
X41225161Y-98330961D01*
X40915292Y-98397469D01*
X40469051Y-98446938D01*
X39927676Y-98479298D01*
X39332404Y-98494477D01*
X38724474Y-98492405D01*
X38145121Y-98473012D01*
X37635584Y-98436225D01*
X37237101Y-98381974D01*
X37059615Y-98338128D01*
X36585328Y-98110389D01*
X36169525Y-97753887D01*
X35796773Y-97251828D01*
X35452697Y-96589784D01*
X35339378Y-96467885D01*
X35127645Y-96323652D01*
X35039515Y-96275650D01*
X34934299Y-96227094D01*
X34816163Y-96187871D01*
X34665216Y-96156797D01*
X34461569Y-96132689D01*
X34185331Y-96114366D01*
X33816612Y-96100642D01*
X33335522Y-96090337D01*
X32722171Y-96082266D01*
X31956669Y-96075248D01*
X31626116Y-96072644D01*
X30764565Y-96065565D01*
X30063478Y-96061905D01*
X29503815Y-96066193D01*
X29066537Y-96082952D01*
X28732606Y-96116711D01*
X28482983Y-96171994D01*
X28298628Y-96253329D01*
X28160504Y-96365241D01*
X28049571Y-96512257D01*
X27946790Y-96698903D01*
X27833123Y-96929705D01*
X27808011Y-96980352D01*
X27478531Y-97539962D01*
X27109681Y-97954857D01*
X26667933Y-98259730D01*
X26485591Y-98348790D01*
X26218096Y-98461703D01*
X26020185Y-98532991D01*
X25947076Y-98547268D01*
X25843810Y-98538990D01*
X25589900Y-98526143D01*
X25214114Y-98509961D01*
X24745218Y-98491682D01*
X24211981Y-98472539D01*
X24185629Y-98471632D01*
X23625959Y-98447411D01*
X23106461Y-98415673D01*
X22662364Y-98379284D01*
X22328902Y-98341112D01*
X22146266Y-98305676D01*
X21921938Y-98208778D01*
X21796319Y-98062295D01*
X21715510Y-97820358D01*
X21646220Y-97558043D01*
X21590181Y-97360265D01*
X21578347Y-97322841D01*
X21577334Y-97139845D01*
X21583945Y-97106961D01*
X22710875Y-97106961D01*
X22724657Y-97277670D01*
X22741874Y-97301405D01*
X22876037Y-97339984D01*
X23153099Y-97371543D01*
X23536575Y-97395677D01*
X23989980Y-97411982D01*
X24476829Y-97420054D01*
X24960638Y-97419489D01*
X25404921Y-97409882D01*
X25773195Y-97390830D01*
X26028974Y-97361929D01*
X26115311Y-97338772D01*
X26344466Y-97192801D01*
X26531507Y-97024637D01*
X26689287Y-96814375D01*
X26862188Y-96531072D01*
X26925304Y-96412089D01*
X27288819Y-95819165D01*
X27701852Y-95383274D01*
X28085500Y-95143772D01*
X28350997Y-95036926D01*
X28563407Y-94971346D01*
X28628385Y-94961559D01*
X29848701Y-94959558D01*
X30902859Y-94960129D01*
X31804196Y-94963669D01*
X32566045Y-94970574D01*
X33201743Y-94981244D01*
X33724623Y-94996073D01*
X34148022Y-95015460D01*
X34485274Y-95039802D01*
X34749714Y-95069495D01*
X34954677Y-95104938D01*
X35113498Y-95146526D01*
X35140570Y-95155503D01*
X35575770Y-95347466D01*
X35965383Y-95596541D01*
X36270909Y-95871978D01*
X36453847Y-96143029D01*
X36480644Y-96225778D01*
X36612735Y-96561877D01*
X36837028Y-96891208D01*
X37106605Y-97156248D01*
X37350944Y-97292829D01*
X37589111Y-97337763D01*
X37969532Y-97375247D01*
X38455051Y-97403654D01*
X39008509Y-97421358D01*
X39592751Y-97426730D01*
X40170619Y-97418143D01*
X40195510Y-97417413D01*
X40857688Y-97397558D01*
X40798962Y-97030311D01*
X40711470Y-96695893D01*
X40575719Y-96366575D01*
X40558727Y-96334728D01*
X40408443Y-96062859D01*
X40272233Y-95816424D01*
X40253214Y-95782011D01*
X40080314Y-95441892D01*
X39854393Y-94953849D01*
X39584657Y-94338332D01*
X39303957Y-93672823D01*
X39131479Y-93265848D01*
X38964935Y-92887505D01*
X38827387Y-92589478D01*
X38763307Y-92461163D01*
X38632827Y-92192034D01*
X38485243Y-91851833D01*
X38408961Y-91660722D01*
X38276126Y-91345491D01*
X38137685Y-91064793D01*
X38065262Y-90942700D01*
X37954248Y-90749383D01*
X37804017Y-90449209D01*
X37643880Y-90101230D01*
X37616163Y-90037841D01*
X37471436Y-89705974D01*
X37329284Y-89385383D01*
X37179354Y-89053940D01*
X37011292Y-88689514D01*
X36814744Y-88269975D01*
X36579356Y-87773194D01*
X36294773Y-87177042D01*
X35950643Y-86459387D01*
X35621505Y-85774590D01*
X35443523Y-85397884D01*
X35277723Y-85035501D01*
X35153564Y-84752128D01*
X35131003Y-84697558D01*
X34811085Y-83910633D01*
X34546358Y-83269619D01*
X34327543Y-82752900D01*
X34145358Y-82338858D01*
X33990524Y-82005877D01*
X33878711Y-81780597D01*
X33659302Y-81345816D01*
X33435596Y-80890262D01*
X33222022Y-80444766D01*
X33033009Y-80040161D01*
X32882984Y-79707278D01*
X32786377Y-79476948D01*
X32757007Y-79383673D01*
X32677637Y-79220166D01*
X32474185Y-79055225D01*
X32198636Y-78922378D01*
X31944153Y-78859427D01*
X31528396Y-78874079D01*
X31157081Y-79009542D01*
X30881192Y-79243431D01*
X30810084Y-79357276D01*
X30306995Y-80384058D01*
X29822956Y-81384356D01*
X29365334Y-82342230D01*
X28941496Y-83241740D01*
X28558809Y-84066945D01*
X28224638Y-84801905D01*
X27946351Y-85430680D01*
X27731313Y-85937329D01*
X27586892Y-86305912D01*
X27551142Y-86409278D01*
X27432348Y-86704709D01*
X27290277Y-86969334D01*
X27269637Y-87000106D01*
X27154194Y-87179767D01*
X27102760Y-87289515D01*
X27102590Y-87292200D01*
X27065239Y-87386447D01*
X26961498Y-87615301D01*
X26803829Y-87952115D01*
X26604698Y-88370239D01*
X26395435Y-88804140D01*
X26153563Y-89309350D01*
X25927948Y-89792533D01*
X25735357Y-90216884D01*
X25592553Y-90545598D01*
X25526852Y-90710986D01*
X25423427Y-90964267D01*
X25258589Y-91329110D01*
X25054394Y-91758158D01*
X24832897Y-92204052D01*
X24816239Y-92236781D01*
X24560370Y-92757098D01*
X24289776Y-93337948D01*
X24039760Y-93902028D01*
X23873564Y-94301092D01*
X23696835Y-94722804D01*
X23518928Y-95110324D01*
X23362324Y-95416654D01*
X23262769Y-95578068D01*
X23114589Y-95825105D01*
X22971818Y-96146150D01*
X22847947Y-96496564D01*
X22756469Y-96831714D01*
X22710875Y-97106961D01*
X21583945Y-97106961D01*
X21638136Y-96837408D01*
X21745874Y-96458383D01*
X21885665Y-96045624D01*
X22042630Y-95641984D01*
X22201886Y-95290319D01*
X22348555Y-95033481D01*
X22393888Y-94974237D01*
X22472875Y-94839104D01*
X22597512Y-94576414D01*
X22749525Y-94226346D01*
X22883793Y-93897205D01*
X23094036Y-93392560D01*
X23342763Y-92833920D01*
X23589385Y-92311233D01*
X23693755Y-92102152D01*
X23894873Y-91698984D01*
X24100914Y-91268630D01*
X24296595Y-90845132D01*
X24466633Y-90462534D01*
X24595744Y-90154877D01*
X24668646Y-89956206D01*
X24679268Y-89906959D01*
X24717014Y-89813576D01*
X24822774Y-89582782D01*
X24985336Y-89238240D01*
X25193484Y-88803614D01*
X25436005Y-88302568D01*
X25565349Y-88037197D01*
X25873635Y-87398289D01*
X26200777Y-86706823D01*
X26522185Y-86015686D01*
X26813271Y-85377764D01*
X27049447Y-84845944D01*
X27055424Y-84832187D01*
X27275443Y-84336813D01*
X27554439Y-83726093D01*
X27871264Y-83045310D01*
X28204771Y-82339750D01*
X28533811Y-81654697D01*
X28669146Y-81376710D01*
X28950367Y-80797668D01*
X29209831Y-80255664D01*
X29435441Y-79776587D01*
X29615099Y-79386327D01*
X29736707Y-79110771D01*
X29783587Y-78991795D01*
X30012311Y-78574046D01*
X30396534Y-78219900D01*
X30919122Y-77943769D01*
X31111971Y-77874498D01*
X31432821Y-77774851D01*
X31660714Y-77728697D01*
X31870530Y-77733890D01*
G37*
X31870530Y-77733890D02*
X32137147Y-77788284D01*
X32338829Y-77839348D01*
X32752557Y-77969000D01*
X33059088Y-78129990D01*
X33312195Y-78341401D01*
X33522284Y-78577564D01*
X33674273Y-78805232D01*
X33716934Y-78907991D01*
X33771312Y-79053985D01*
X33892020Y-79333743D01*
X34066560Y-79719761D01*
X34282433Y-80184530D01*
X34527143Y-80700545D01*
X34605778Y-80864277D01*
X34856656Y-81388584D01*
X35082900Y-81868029D01*
X35272008Y-82275588D01*
X35411483Y-82584237D01*
X35488824Y-82766949D01*
X35498278Y-82793959D01*
X35574076Y-83002822D01*
X35710976Y-83335347D01*
X35892099Y-83753512D01*
X36100566Y-84219296D01*
X36319498Y-84694679D01*
X36532015Y-85141639D01*
X36622277Y-85325827D01*
X36781276Y-85657480D01*
X36903296Y-85932955D01*
X36969867Y-86109602D01*
X36976846Y-86144497D01*
X37017409Y-86261124D01*
X37128032Y-86495929D01*
X37290155Y-86810982D01*
X37424145Y-87058594D01*
X37610730Y-87402629D01*
X37759377Y-87687792D01*
X37851676Y-87878092D01*
X37872908Y-87935969D01*
X37909199Y-88050332D01*
X38007182Y-88290636D01*
X38150525Y-88621164D01*
X38322893Y-89006197D01*
X38507952Y-89410017D01*
X38689370Y-89796906D01*
X38850811Y-90131144D01*
X38975944Y-90377014D01*
X39039290Y-90486604D01*
X39155018Y-90694052D01*
X39292481Y-90995369D01*
X39387382Y-91234116D01*
X39524906Y-91581424D01*
X39671735Y-91915665D01*
X39755749Y-92086766D01*
X39867411Y-92312658D01*
X40023998Y-92649180D01*
X40200366Y-93041699D01*
X40299843Y-93268936D01*
X40483632Y-93687986D01*
X40668578Y-94100840D01*
X40826143Y-94444137D01*
X40886579Y-94571638D01*
X41007006Y-94836667D01*
X41085962Y-95040638D01*
X41104003Y-95115155D01*
X41153586Y-95240249D01*
X41277768Y-95441098D01*
X41332392Y-95517754D01*
X41568317Y-95935514D01*
X41751369Y-96447375D01*
X41861550Y-96979490D01*
X41878864Y-97458012D01*
X41873025Y-97514253D01*
X41828186Y-97799189D01*
X41777740Y-98013917D01*
X41750959Y-98080680D01*
X41635084Y-98162173D01*
X41406216Y-98265517D01*
X41225161Y-98330961D01*
X40915292Y-98397469D01*
X40469051Y-98446938D01*
X39927676Y-98479298D01*
X39332404Y-98494477D01*
X38724474Y-98492405D01*
X38145121Y-98473012D01*
X37635584Y-98436225D01*
X37237101Y-98381974D01*
X37059615Y-98338128D01*
X36585328Y-98110389D01*
X36169525Y-97753887D01*
X35796773Y-97251828D01*
X35452697Y-96589784D01*
X35339378Y-96467885D01*
X35127645Y-96323652D01*
X35039515Y-96275650D01*
X34934299Y-96227094D01*
X34816163Y-96187871D01*
X34665216Y-96156797D01*
X34461569Y-96132689D01*
X34185331Y-96114366D01*
X33816612Y-96100642D01*
X33335522Y-96090337D01*
X32722171Y-96082266D01*
X31956669Y-96075248D01*
X31626116Y-96072644D01*
X30764565Y-96065565D01*
X30063478Y-96061905D01*
X29503815Y-96066193D01*
X29066537Y-96082952D01*
X28732606Y-96116711D01*
X28482983Y-96171994D01*
X28298628Y-96253329D01*
X28160504Y-96365241D01*
X28049571Y-96512257D01*
X27946790Y-96698903D01*
X27833123Y-96929705D01*
X27808011Y-96980352D01*
X27478531Y-97539962D01*
X27109681Y-97954857D01*
X26667933Y-98259730D01*
X26485591Y-98348790D01*
X26218096Y-98461703D01*
X26020185Y-98532991D01*
X25947076Y-98547268D01*
X25843810Y-98538990D01*
X25589900Y-98526143D01*
X25214114Y-98509961D01*
X24745218Y-98491682D01*
X24211981Y-98472539D01*
X24185629Y-98471632D01*
X23625959Y-98447411D01*
X23106461Y-98415673D01*
X22662364Y-98379284D01*
X22328902Y-98341112D01*
X22146266Y-98305676D01*
X21921938Y-98208778D01*
X21796319Y-98062295D01*
X21715510Y-97820358D01*
X21646220Y-97558043D01*
X21590181Y-97360265D01*
X21578347Y-97322841D01*
X21577334Y-97139845D01*
X21583945Y-97106961D01*
X22710875Y-97106961D01*
X22724657Y-97277670D01*
X22741874Y-97301405D01*
X22876037Y-97339984D01*
X23153099Y-97371543D01*
X23536575Y-97395677D01*
X23989980Y-97411982D01*
X24476829Y-97420054D01*
X24960638Y-97419489D01*
X25404921Y-97409882D01*
X25773195Y-97390830D01*
X26028974Y-97361929D01*
X26115311Y-97338772D01*
X26344466Y-97192801D01*
X26531507Y-97024637D01*
X26689287Y-96814375D01*
X26862188Y-96531072D01*
X26925304Y-96412089D01*
X27288819Y-95819165D01*
X27701852Y-95383274D01*
X28085500Y-95143772D01*
X28350997Y-95036926D01*
X28563407Y-94971346D01*
X28628385Y-94961559D01*
X29848701Y-94959558D01*
X30902859Y-94960129D01*
X31804196Y-94963669D01*
X32566045Y-94970574D01*
X33201743Y-94981244D01*
X33724623Y-94996073D01*
X34148022Y-95015460D01*
X34485274Y-95039802D01*
X34749714Y-95069495D01*
X34954677Y-95104938D01*
X35113498Y-95146526D01*
X35140570Y-95155503D01*
X35575770Y-95347466D01*
X35965383Y-95596541D01*
X36270909Y-95871978D01*
X36453847Y-96143029D01*
X36480644Y-96225778D01*
X36612735Y-96561877D01*
X36837028Y-96891208D01*
X37106605Y-97156248D01*
X37350944Y-97292829D01*
X37589111Y-97337763D01*
X37969532Y-97375247D01*
X38455051Y-97403654D01*
X39008509Y-97421358D01*
X39592751Y-97426730D01*
X40170619Y-97418143D01*
X40195510Y-97417413D01*
X40857688Y-97397558D01*
X40798962Y-97030311D01*
X40711470Y-96695893D01*
X40575719Y-96366575D01*
X40558727Y-96334728D01*
X40408443Y-96062859D01*
X40272233Y-95816424D01*
X40253214Y-95782011D01*
X40080314Y-95441892D01*
X39854393Y-94953849D01*
X39584657Y-94338332D01*
X39303957Y-93672823D01*
X39131479Y-93265848D01*
X38964935Y-92887505D01*
X38827387Y-92589478D01*
X38763307Y-92461163D01*
X38632827Y-92192034D01*
X38485243Y-91851833D01*
X38408961Y-91660722D01*
X38276126Y-91345491D01*
X38137685Y-91064793D01*
X38065262Y-90942700D01*
X37954248Y-90749383D01*
X37804017Y-90449209D01*
X37643880Y-90101230D01*
X37616163Y-90037841D01*
X37471436Y-89705974D01*
X37329284Y-89385383D01*
X37179354Y-89053940D01*
X37011292Y-88689514D01*
X36814744Y-88269975D01*
X36579356Y-87773194D01*
X36294773Y-87177042D01*
X35950643Y-86459387D01*
X35621505Y-85774590D01*
X35443523Y-85397884D01*
X35277723Y-85035501D01*
X35153564Y-84752128D01*
X35131003Y-84697558D01*
X34811085Y-83910633D01*
X34546358Y-83269619D01*
X34327543Y-82752900D01*
X34145358Y-82338858D01*
X33990524Y-82005877D01*
X33878711Y-81780597D01*
X33659302Y-81345816D01*
X33435596Y-80890262D01*
X33222022Y-80444766D01*
X33033009Y-80040161D01*
X32882984Y-79707278D01*
X32786377Y-79476948D01*
X32757007Y-79383673D01*
X32677637Y-79220166D01*
X32474185Y-79055225D01*
X32198636Y-78922378D01*
X31944153Y-78859427D01*
X31528396Y-78874079D01*
X31157081Y-79009542D01*
X30881192Y-79243431D01*
X30810084Y-79357276D01*
X30306995Y-80384058D01*
X29822956Y-81384356D01*
X29365334Y-82342230D01*
X28941496Y-83241740D01*
X28558809Y-84066945D01*
X28224638Y-84801905D01*
X27946351Y-85430680D01*
X27731313Y-85937329D01*
X27586892Y-86305912D01*
X27551142Y-86409278D01*
X27432348Y-86704709D01*
X27290277Y-86969334D01*
X27269637Y-87000106D01*
X27154194Y-87179767D01*
X27102760Y-87289515D01*
X27102590Y-87292200D01*
X27065239Y-87386447D01*
X26961498Y-87615301D01*
X26803829Y-87952115D01*
X26604698Y-88370239D01*
X26395435Y-88804140D01*
X26153563Y-89309350D01*
X25927948Y-89792533D01*
X25735357Y-90216884D01*
X25592553Y-90545598D01*
X25526852Y-90710986D01*
X25423427Y-90964267D01*
X25258589Y-91329110D01*
X25054394Y-91758158D01*
X24832897Y-92204052D01*
X24816239Y-92236781D01*
X24560370Y-92757098D01*
X24289776Y-93337948D01*
X24039760Y-93902028D01*
X23873564Y-94301092D01*
X23696835Y-94722804D01*
X23518928Y-95110324D01*
X23362324Y-95416654D01*
X23262769Y-95578068D01*
X23114589Y-95825105D01*
X22971818Y-96146150D01*
X22847947Y-96496564D01*
X22756469Y-96831714D01*
X22710875Y-97106961D01*
X21583945Y-97106961D01*
X21638136Y-96837408D01*
X21745874Y-96458383D01*
X21885665Y-96045624D01*
X22042630Y-95641984D01*
X22201886Y-95290319D01*
X22348555Y-95033481D01*
X22393888Y-94974237D01*
X22472875Y-94839104D01*
X22597512Y-94576414D01*
X22749525Y-94226346D01*
X22883793Y-93897205D01*
X23094036Y-93392560D01*
X23342763Y-92833920D01*
X23589385Y-92311233D01*
X23693755Y-92102152D01*
X23894873Y-91698984D01*
X24100914Y-91268630D01*
X24296595Y-90845132D01*
X24466633Y-90462534D01*
X24595744Y-90154877D01*
X24668646Y-89956206D01*
X24679268Y-89906959D01*
X24717014Y-89813576D01*
X24822774Y-89582782D01*
X24985336Y-89238240D01*
X25193484Y-88803614D01*
X25436005Y-88302568D01*
X25565349Y-88037197D01*
X25873635Y-87398289D01*
X26200777Y-86706823D01*
X26522185Y-86015686D01*
X26813271Y-85377764D01*
X27049447Y-84845944D01*
X27055424Y-84832187D01*
X27275443Y-84336813D01*
X27554439Y-83726093D01*
X27871264Y-83045310D01*
X28204771Y-82339750D01*
X28533811Y-81654697D01*
X28669146Y-81376710D01*
X28950367Y-80797668D01*
X29209831Y-80255664D01*
X29435441Y-79776587D01*
X29615099Y-79386327D01*
X29736707Y-79110771D01*
X29783587Y-78991795D01*
X30012311Y-78574046D01*
X30396534Y-78219900D01*
X30919122Y-77943769D01*
X31111971Y-77874498D01*
X31432821Y-77774851D01*
X31660714Y-77728697D01*
X31870530Y-77733890D01*
M02*
