  0
SECTION
  2
HEADER
  9
$ACADVER
  1
AC1014
  9
$HANDSEED
  5
FFFF
  9
$MEASUREMENT
 70
     1
  0
ENDSEC
  0
SECTION
  2
TABLES
  0
TABLE
  2
VPORT
  5
8
330
0
100
AcDbSymbolTable
 70
     4
  0
VPORT
  5
2E
330
8
100
AcDbSymbolTableRecord
100
AcDbViewportTableRecord
  2
*ACTIVE
 70
     0
 10
0.0
 20
0.0
 11
1.0
 21
1.0
 12
210.0
 22
148.5
 13
0.0
 23
0.0
 14
10.0
 24
10.0
 15
10.0
 25
10.0
 16
0.0
 26
0.0
 36
1.0
 17
0.0
 27
0.0
 37
0.0
 40
341.0
 41
1.24
 42
50.0
 43
0.0
 44
0.0
 50
0.0
 51
0.0
 71
     0
 72
   100
 73
     1
 74
     3
 75
     0
 76
     0
 77
     0
 78
     0
  0
ENDTAB
  0
TABLE
  2
LTYPE
  5
5
330
0
100
AcDbSymbolTable
 70
     1
  0
LTYPE
  5
14
330
5
100
AcDbSymbolTableRecord
100
AcDbLinetypeTableRecord
  2
BYBLOCK
 70
     0
  3

 72
    65
 73
     0
 40
0.0
  0
LTYPE
  5
15
330
5
100
AcDbSymbolTableRecord
100
AcDbLinetypeTableRecord
  2
BYLAYER
 70
     0
  3

 72
    65
 73
     0
 40
0.0
  0
LTYPE
  5
16
330
5
100
AcDbSymbolTableRecord
100
AcDbLinetypeTableRecord
  2
CONTINUOUS
 70
     0
  3
Solid line
 72
    65
 73
     0
 40
0.0
  0
ENDTAB
  0
TABLE
  2
LAYER
  5
2
100
AcDbSymbolTable
 70
2
  0
LAYER
  5
50
100
AcDbSymbolTableRecord
100
AcDbLayerTableRecord
  2
0
 70
0
  6
CONTINUOUS
  0
LAYER
  5
51
100
AcDbSymbolTableRecord
100
AcDbLayerTableRecord
  2
Top_Main_Left
 70
0
  6
CONTINUOUS
  0
ENDTAB
  0
TABLE
  2
STYLE
  5
3
330
0
100
AcDbSymbolTable
 70
     1
  0
STYLE
  5
11
330
3
100
AcDbSymbolTableRecord
100
AcDbTextStyleTableRecord
  2
STANDARD
 70
     0
 40
0.0
 41
1.0
 50
0.0
 71
     0
 42
2.5
  3
txt
  4

  0
ENDTAB
  0
TABLE
  2
VIEW
  5
6
330
0
100
AcDbSymbolTable
 70
     0
  0
ENDTAB
  0
TABLE
  2
UCS
  5
7
330
0
100
AcDbSymbolTable
 70
     0
  0
ENDTAB
  0
TABLE
  2
APPID
  5
9
330
0
100
AcDbSymbolTable
 70
     2
  0
APPID
  5
12
330
9
100
AcDbSymbolTableRecord
100
AcDbRegAppTableRecord
  2
ACAD
 70
     0
  0
ENDTAB
  0
TABLE
  2
DIMSTYLE
  5
A
330
0
100
AcDbSymbolTable
 70
     1
  0
DIMSTYLE
105
27
330
A
100
AcDbSymbolTableRecord
100
AcDbDimStyleTableRecord
  2
ISO-25
 70
     0
  3

  4

  5

  6

  7

 40
1.0
 41
2.5
 42
0.625
 43
3.75
 44
1.25
 45
0.0
 46
0.0
 47
0.0
 48
0.0
140
2.5
141
2.5
142
0.0
143
0.03937007874016
144
1.0
145
0.0
146
1.0
147
0.625
 71
     0
 72
     0
 73
     0
 74
     0
 75
     0
 76
     0
 77
     1
 78
     8
170
     0
171
     3
172
     1
173
     0
174
     0
175
     0
176
     0
177
     0
178
     0
270
     2
271
     2
272
     2
273
     2
274
     3
340
11
275
     0
280
     0
281
     0
282
     0
283
     0
284
     8
285
     0
286
     0
287
     3
288
     0
  0
ENDTAB
  0
TABLE
  2
BLOCK_RECORD
  5
1
330
0
100
AcDbSymbolTable
 70
     1
  0
BLOCK_RECORD
  5
1F
330
1
100
AcDbSymbolTableRecord
100
AcDbBlockTableRecord
  2
*MODEL_SPACE
  0
BLOCK_RECORD
  5
1B
330
1
100
AcDbSymbolTableRecord
100
AcDbBlockTableRecord
  2
*PAPER_SPACE
  0
ENDTAB
  0
ENDSEC
  0
SECTION
  2
BLOCKS
  0
BLOCK
  5
20
330
1F
100
AcDbEntity
  8
0
100
AcDbBlockBegin
  2
*MODEL_SPACE
 70
     0
 10
0.0
 20
0.0
 30
0.0
  3
*MODEL_SPACE
  1

  0
ENDBLK
  5
21
330
1F
100
AcDbEntity
  8
0
100
AcDbBlockEnd
  0
BLOCK
  5
1C
330
1B
100
AcDbEntity
 67
     1
  8
0
100
AcDbBlockBegin
  2
*PAPER_SPACE
  1

  0
ENDBLK
  5
1D
330
1B
100
AcDbEntity
 67
     1
  8
0
100
AcDbBlockEnd
  0
ENDSEC
  0
SECTION
  2
ENTITIES
  0
SPLINE
  5
100
100
AcDbEntity
  8
Top_Main_Left
 62
5
100
AcDbSpline
 70
8
 71
3
 72
8
 73
4
 74
0
 40
0
 40
0
 40
0
 40
0
 40
1
 40
1
 40
1
 40
1
 10
5.380936
 20
56.433246
 30
0.0
 10
5.380936
 20
56.008899
 30
0.0
 10
5.212365
 20
55.601933
 30
0.0
 10
4.912307
 20
55.301875
 30
0.0
  0
SPLINE
  5
101
100
AcDbEntity
  8
Top_Main_Left
 62
5
100
AcDbSpline
 70
8
 71
3
 72
8
 73
4
 74
0
 40
0
 40
0
 40
0
 40
0
 40
1
 40
1
 40
1
 40
1
 10
4.912307
 20
55.301875
 30
0.0
 10
4.612248
 20
55.001817
 30
0.0
 10
4.205282
 20
54.833246
 30
0.0
 10
3.780936
 20
54.833246
 30
0.0
  0
SPLINE
  5
102
100
AcDbEntity
  8
Top_Main_Left
 62
5
100
AcDbSpline
 70
8
 71
3
 72
8
 73
4
 74
0
 40
0
 40
0
 40
0
 40
0
 40
1
 40
1
 40
1
 40
1
 10
3.780936
 20
54.833246
 30
0.0
 10
3.356589
 20
54.833246
 30
0.0
 10
2.949623
 20
55.001817
 30
0.0
 10
2.649565
 20
55.301875
 30
0.0
  0
SPLINE
  5
103
100
AcDbEntity
  8
Top_Main_Left
 62
5
100
AcDbSpline
 70
8
 71
3
 72
8
 73
4
 74
0
 40
0
 40
0
 40
0
 40
0
 40
1
 40
1
 40
1
 40
1
 10
2.649565
 20
55.301875
 30
0.0
 10
2.349507
 20
55.601933
 30
0.0
 10
2.180936
 20
56.008899
 30
0.0
 10
2.180936
 20
56.433246
 30
0.0
  0
SPLINE
  5
104
100
AcDbEntity
  8
Top_Main_Left
 62
5
100
AcDbSpline
 70
8
 71
3
 72
8
 73
4
 74
0
 40
0
 40
0
 40
0
 40
0
 40
1
 40
1
 40
1
 40
1
 10
2.180936
 20
56.433246
 30
0.0
 10
2.180936
 20
56.857592
 30
0.0
 10
2.349507
 20
57.264558
 30
0.0
 10
2.649565
 20
57.564617
 30
0.0
  0
SPLINE
  5
105
100
AcDbEntity
  8
Top_Main_Left
 62
5
100
AcDbSpline
 70
8
 71
3
 72
8
 73
4
 74
0
 40
0
 40
0
 40
0
 40
0
 40
1
 40
1
 40
1
 40
1
 10
2.649565
 20
57.564617
 30
0.0
 10
2.949623
 20
57.864675
 30
0.0
 10
3.356589
 20
58.033246
 30
0.0
 10
3.780936
 20
58.033246
 30
0.0
  0
SPLINE
  5
106
100
AcDbEntity
  8
Top_Main_Left
 62
5
100
AcDbSpline
 70
8
 71
3
 72
8
 73
4
 74
0
 40
0
 40
0
 40
0
 40
0
 40
1
 40
1
 40
1
 40
1
 10
3.780936
 20
58.033246
 30
0.0
 10
4.205282
 20
58.033246
 30
0.0
 10
4.612248
 20
57.864675
 30
0.0
 10
4.912307
 20
57.564617
 30
0.0
  0
SPLINE
  5
107
100
AcDbEntity
  8
Top_Main_Left
 62
5
100
AcDbSpline
 70
8
 71
3
 72
8
 73
4
 74
0
 40
0
 40
0
 40
0
 40
0
 40
1
 40
1
 40
1
 40
1
 10
4.912307
 20
57.564617
 30
0.0
 10
5.212365
 20
57.264558
 30
0.0
 10
5.380936
 20
56.857592
 30
0.0
 10
5.380936
 20
56.433246
 30
0.0
  0
SPLINE
  5
108
100
AcDbEntity
  8
Top_Main_Left
 62
5
100
AcDbSpline
 70
8
 71
3
 72
8
 73
4
 74
0
 40
0
 40
0
 40
0
 40
0
 40
1
 40
1
 40
1
 40
1
 10
31.800880
 20
91.146346
 30
0.0
 10
31.800880
 20
90.722000
 30
0.0
 10
31.632309
 20
90.315033
 30
0.0
 10
31.332251
 20
90.014975
 30
0.0
  0
SPLINE
  5
109
100
AcDbEntity
  8
Top_Main_Left
 62
5
100
AcDbSpline
 70
8
 71
3
 72
8
 73
4
 74
0
 40
0
 40
0
 40
0
 40
0
 40
1
 40
1
 40
1
 40
1
 10
31.332251
 20
90.014975
 30
0.0
 10
31.032193
 20
89.714917
 30
0.0
 10
30.625226
 20
89.546346
 30
0.0
 10
30.200880
 20
89.546346
 30
0.0
  0
SPLINE
  5
10a
100
AcDbEntity
  8
Top_Main_Left
 62
5
100
AcDbSpline
 70
8
 71
3
 72
8
 73
4
 74
0
 40
0
 40
0
 40
0
 40
0
 40
1
 40
1
 40
1
 40
1
 10
30.200880
 20
89.546346
 30
0.0
 10
29.776534
 20
89.546346
 30
0.0
 10
29.369567
 20
89.714917
 30
0.0
 10
29.069509
 20
90.014975
 30
0.0
  0
SPLINE
  5
10b
100
AcDbEntity
  8
Top_Main_Left
 62
5
100
AcDbSpline
 70
8
 71
3
 72
8
 73
4
 74
0
 40
0
 40
0
 40
0
 40
0
 40
1
 40
1
 40
1
 40
1
 10
29.069509
 20
90.014975
 30
0.0
 10
28.769451
 20
90.315033
 30
0.0
 10
28.600880
 20
90.722000
 30
0.0
 10
28.600880
 20
91.146346
 30
0.0
  0
SPLINE
  5
10c
100
AcDbEntity
  8
Top_Main_Left
 62
5
100
AcDbSpline
 70
8
 71
3
 72
8
 73
4
 74
0
 40
0
 40
0
 40
0
 40
0
 40
1
 40
1
 40
1
 40
1
 10
28.600880
 20
91.146346
 30
0.0
 10
28.600880
 20
91.570692
 30
0.0
 10
28.769451
 20
91.977659
 30
0.0
 10
29.069509
 20
92.277717
 30
0.0
  0
SPLINE
  5
10d
100
AcDbEntity
  8
Top_Main_Left
 62
5
100
AcDbSpline
 70
8
 71
3
 72
8
 73
4
 74
0
 40
0
 40
0
 40
0
 40
0
 40
1
 40
1
 40
1
 40
1
 10
29.069509
 20
92.277717
 30
0.0
 10
29.369567
 20
92.577775
 30
0.0
 10
29.776534
 20
92.746346
 30
0.0
 10
30.200880
 20
92.746346
 30
0.0
  0
SPLINE
  5
10e
100
AcDbEntity
  8
Top_Main_Left
 62
5
100
AcDbSpline
 70
8
 71
3
 72
8
 73
4
 74
0
 40
0
 40
0
 40
0
 40
0
 40
1
 40
1
 40
1
 40
1
 10
30.200880
 20
92.746346
 30
0.0
 10
30.625226
 20
92.746346
 30
0.0
 10
31.032193
 20
92.577775
 30
0.0
 10
31.332251
 20
92.277717
 30
0.0
  0
SPLINE
  5
10f
100
AcDbEntity
  8
Top_Main_Left
 62
5
100
AcDbSpline
 70
8
 71
3
 72
8
 73
4
 74
0
 40
0
 40
0
 40
0
 40
0
 40
1
 40
1
 40
1
 40
1
 10
31.332251
 20
92.277717
 30
0.0
 10
31.632309
 20
91.977659
 30
0.0
 10
31.800880
 20
91.570692
 30
0.0
 10
31.800880
 20
91.146346
 30
0.0
  0
LWPOLYLINE
  5
110
100
AcDbEntity
  8
Top_Main_Left
 62
5
100
AcDbPolyline
 90
1
 70
1
 10
5.380936
 20
56.433246
 30
0.0
  0
SPLINE
  5
111
100
AcDbEntity
  8
Top_Main_Left
 62
5
100
AcDbSpline
 70
8
 71
3
 72
8
 73
4
 74
0
 40
0
 40
0
 40
0
 40
0
 40
1
 40
1
 40
1
 40
1
 10
31.800880
 20
15.421350
 30
0.0
 10
31.800880
 20
14.997004
 30
0.0
 10
31.632309
 20
14.590038
 30
0.0
 10
31.332251
 20
14.289980
 30
0.0
  0
SPLINE
  5
112
100
AcDbEntity
  8
Top_Main_Left
 62
5
100
AcDbSpline
 70
8
 71
3
 72
8
 73
4
 74
0
 40
0
 40
0
 40
0
 40
0
 40
1
 40
1
 40
1
 40
1
 10
31.332251
 20
14.289980
 30
0.0
 10
31.032193
 20
13.989921
 30
0.0
 10
30.625226
 20
13.821350
 30
0.0
 10
30.200880
 20
13.821350
 30
0.0
  0
SPLINE
  5
113
100
AcDbEntity
  8
Top_Main_Left
 62
5
100
AcDbSpline
 70
8
 71
3
 72
8
 73
4
 74
0
 40
0
 40
0
 40
0
 40
0
 40
1
 40
1
 40
1
 40
1
 10
30.200880
 20
13.821350
 30
0.0
 10
29.776534
 20
13.821350
 30
0.0
 10
29.369567
 20
13.989921
 30
0.0
 10
29.069509
 20
14.289980
 30
0.0
  0
SPLINE
  5
114
100
AcDbEntity
  8
Top_Main_Left
 62
5
100
AcDbSpline
 70
8
 71
3
 72
8
 73
4
 74
0
 40
0
 40
0
 40
0
 40
0
 40
1
 40
1
 40
1
 40
1
 10
29.069509
 20
14.289980
 30
0.0
 10
28.769451
 20
14.590038
 30
0.0
 10
28.600880
 20
14.997004
 30
0.0
 10
28.600880
 20
15.421350
 30
0.0
  0
SPLINE
  5
115
100
AcDbEntity
  8
Top_Main_Left
 62
5
100
AcDbSpline
 70
8
 71
3
 72
8
 73
4
 74
0
 40
0
 40
0
 40
0
 40
0
 40
1
 40
1
 40
1
 40
1
 10
28.600880
 20
15.421350
 30
0.0
 10
28.600880
 20
15.845697
 30
0.0
 10
28.769451
 20
16.252663
 30
0.0
 10
29.069509
 20
16.552721
 30
0.0
  0
SPLINE
  5
116
100
AcDbEntity
  8
Top_Main_Left
 62
5
100
AcDbSpline
 70
8
 71
3
 72
8
 73
4
 74
0
 40
0
 40
0
 40
0
 40
0
 40
1
 40
1
 40
1
 40
1
 10
29.069509
 20
16.552721
 30
0.0
 10
29.369567
 20
16.852780
 30
0.0
 10
29.776534
 20
17.021351
 30
0.0
 10
30.200880
 20
17.021351
 30
0.0
  0
SPLINE
  5
117
100
AcDbEntity
  8
Top_Main_Left
 62
5
100
AcDbSpline
 70
8
 71
3
 72
8
 73
4
 74
0
 40
0
 40
0
 40
0
 40
0
 40
1
 40
1
 40
1
 40
1
 10
30.200880
 20
17.021351
 30
0.0
 10
30.625226
 20
17.021351
 30
0.0
 10
31.032193
 20
16.852780
 30
0.0
 10
31.332251
 20
16.552721
 30
0.0
  0
SPLINE
  5
118
100
AcDbEntity
  8
Top_Main_Left
 62
5
100
AcDbSpline
 70
8
 71
3
 72
8
 73
4
 74
0
 40
0
 40
0
 40
0
 40
0
 40
1
 40
1
 40
1
 40
1
 10
31.332251
 20
16.552721
 30
0.0
 10
31.632309
 20
16.252663
 30
0.0
 10
31.800880
 20
15.845697
 30
0.0
 10
31.800880
 20
15.421350
 30
0.0
  0
LWPOLYLINE
  5
119
100
AcDbEntity
  8
Top_Main_Left
 62
5
100
AcDbPolyline
 90
1
 70
1
 10
31.800880
 20
91.146346
 30
0.0
  0
SPLINE
  5
11a
100
AcDbEntity
  8
Top_Main_Left
 62
5
100
AcDbSpline
 70
8
 71
3
 72
8
 73
4
 74
0
 40
0
 40
0
 40
0
 40
0
 40
1
 40
1
 40
1
 40
1
 10
25.056348
 20
99.147973
 30
0.0
 10
17.009504
 20
99.147973
 30
0.0
 10
7.531436
 20
98.216250
 30
0.0
 10
7.531436
 20
97.058695
 30
0.0
  0
LWPOLYLINE
  5
11b
100
AcDbEntity
  8
Top_Main_Left
 62
5
100
AcDbPolyline
 90
1
 70
1
 10
31.800880
 20
15.421350
 30
0.0
  0
SPLINE
  5
11c
100
AcDbEntity
  8
Top_Main_Left
 62
5
100
AcDbSpline
 70
8
 71
3
 72
8
 73
4
 74
0
 40
0
 40
0
 40
0
 40
0
 40
1
 40
1
 40
1
 40
1
 10
7.531436
 20
90.778757
 30
0.0
 10
1.919378
 20
90.342697
 30
0.0
 10
0.162436
 20
89.546119
 30
0.0
 10
0.162436
 20
88.629017
 30
0.0
  0
LWPOLYLINE
  5
11d
100
AcDbEntity
  8
Top_Main_Left
 62
5
100
AcDbPolyline
 90
2
 70
0
 10
7.531436
 20
97.058695
 30
0.0
 10
7.531436
 20
90.778757
 30
0.0
  0
SPLINE
  5
11e
100
AcDbEntity
  8
Top_Main_Left
 62
5
100
AcDbSpline
 70
8
 71
3
 72
8
 73
4
 74
0
 40
0
 40
0
 40
0
 40
0
 40
1
 40
1
 40
1
 40
1
 10
0.162436
 20
44.210021
 30
0.0
 10
0.158036
 20
44.207621
 30
0.0
 10
0.146436
 20
44.205621
 30
0.0
 10
0.146436
 20
44.203321
 30
0.0
  0
LWPOLYLINE
  5
11f
100
AcDbEntity
  8
Top_Main_Left
 62
5
100
AcDbPolyline
 90
2
 70
0
 10
0.162436
 20
88.629017
 30
0.0
 10
0.162436
 20
44.210021
 30
0.0
  0
SPLINE
  5
120
100
AcDbEntity
  8
Top_Main_Left
 62
5
100
AcDbSpline
 70
8
 71
3
 72
8
 73
4
 74
0
 40
0
 40
0
 40
0
 40
0
 40
1
 40
1
 40
1
 40
1
 10
0.146436
 20
17.621999
 30
0.0
 10
0.146436
 20
17.619599
 30
0.0
 10
0.158039
 20
17.617599
 30
0.0
 10
0.162436
 20
17.615299
 30
0.0
  0
LWPOLYLINE
  5
121
100
AcDbEntity
  8
Top_Main_Left
 62
5
100
AcDbPolyline
 90
2
 70
0
 10
0.146436
 20
44.203321
 30
0.0
 10
0.146436
 20
17.621999
 30
0.0
  0
SPLINE
  5
122
100
AcDbEntity
  8
Top_Main_Left
 62
5
100
AcDbSpline
 70
8
 71
3
 72
8
 73
4
 74
0
 40
0
 40
0
 40
0
 40
0
 40
1
 40
1
 40
1
 40
1
 10
0.162436
 20
13.796408
 30
0.0
 10
0.162436
 20
12.879307
 30
0.0
 10
1.919369
 20
12.082728
 30
0.0
 10
7.531436
 20
11.646669
 30
0.0
  0
LWPOLYLINE
  5
123
100
AcDbEntity
  8
Top_Main_Left
 62
5
100
AcDbPolyline
 90
2
 70
0
 10
0.162436
 20
17.615299
 30
0.0
 10
0.162436
 20
13.796408
 30
0.0
  0
SPLINE
  5
124
100
AcDbEntity
  8
Top_Main_Left
 62
5
100
AcDbSpline
 70
8
 71
3
 72
8
 73
4
 74
0
 40
0
 40
0
 40
0
 40
0
 40
1
 40
1
 40
1
 40
1
 10
7.531436
 20
2.236228
 30
0.0
 10
7.531436
 20
1.078681
 30
0.0
 10
17.009504
 20
0.146434
 30
0.0
 10
25.056348
 20
0.146434
 30
0.0
  0
SPLINE
  5
125
100
AcDbEntity
  8
Top_Main_Left
 62
5
100
AcDbSpline
 70
8
 71
3
 72
8
 73
4
 74
0
 40
0
 40
0
 40
0
 40
0
 40
1
 40
1
 40
1
 40
1
 10
25.056348
 20
0.146434
 30
0.0
 10
25.323436
 20
0.146434
 30
0.0
 10
25.583546
 20
0.149334
 30
0.0
 10
25.846998
 20
0.151334
 30
0.0
  0
SPLINE
  5
126
100
AcDbEntity
  8
Top_Main_Left
 62
5
100
AcDbSpline
 70
8
 71
3
 72
8
 73
4
 74
0
 40
0
 40
0
 40
0
 40
0
 40
1
 40
1
 40
1
 40
1
 10
25.846998
 20
0.151334
 30
0.0
 10
26.083198
 20
0.149234
 30
0.0
 10
26.316538
 20
0.146434
 30
0.0
 10
26.555998
 20
0.146434
 30
0.0
  0
SPLINE
  5
127
100
AcDbEntity
  8
Top_Main_Left
 62
5
100
AcDbSpline
 70
8
 71
3
 72
8
 73
4
 74
0
 40
0
 40
0
 40
0
 40
0
 40
1
 40
1
 40
1
 40
1
 10
26.555998
 20
0.146434
 30
0.0
 10
33.771914
 20
0.146434
 30
0.0
 10
39.581042
 20
1.078681
 30
0.0
 10
39.581042
 20
2.236228
 30
0.0
  0
LWPOLYLINE
  5
128
100
AcDbEntity
  8
Top_Main_Left
 62
5
100
AcDbPolyline
 90
2
 70
0
 10
7.531436
 20
11.646669
 30
0.0
 10
7.531436
 20
2.236228
 30
0.0
  0
SPLINE
  5
129
100
AcDbEntity
  8
Top_Main_Left
 62
5
100
AcDbSpline
 70
8
 71
3
 72
8
 73
4
 74
0
 40
0
 40
0
 40
0
 40
0
 40
1
 40
1
 40
1
 40
1
 10
42.581437
 20
25.455095
 30
0.0
 10
39.394332
 20
25.425245
 30
0.0
 10
32.516047
 20
25.404965
 30
0.0
 10
28.096990
 20
25.404965
 30
0.0
  0
SPLINE
  5
12a
100
AcDbEntity
  8
Top_Main_Left
 62
5
100
AcDbSpline
 70
8
 71
3
 72
8
 73
4
 74
0
 40
0
 40
0
 40
0
 40
0
 40
1
 40
1
 40
1
 40
1
 10
28.096990
 20
25.404965
 30
0.0
 10
23.908569
 20
25.404965
 30
0.0
 10
20.246949
 20
25.423835
 30
0.0
 10
17.142102
 20
25.450955
 30
0.0
  0
LWPOLYLINE
  5
12b
100
AcDbEntity
  8
Top_Main_Left
 62
5
100
AcDbPolyline
 90
3
 70
0
 10
39.581042
 20
2.236228
 30
0.0
 10
42.581437
 20
13.845661
 30
0.0
 10
42.581437
 20
25.455095
 30
0.0
  0
SPLINE
  5
12c
100
AcDbEntity
  8
Top_Main_Left
 62
5
100
AcDbSpline
 70
8
 71
3
 72
8
 73
4
 74
0
 40
0
 40
0
 40
0
 40
0
 40
1
 40
1
 40
1
 40
1
 10
17.142102
 20
44.203303
 30
0.0
 10
17.142102
 20
44.293193
 30
0.0
 10
13.737997
 20
44.364958
 30
0.0
 10
9.467118
 20
44.368668
 30
0.0
  0
LWPOLYLINE
  5
12d
100
AcDbEntity
  8
Top_Main_Left
 62
5
100
AcDbPolyline
 90
2
 70
0
 10
17.142102
 20
25.450955
 30
0.0
 10
17.142102
 20
44.203303
 30
0.0
  0
SPLINE
  5
12e
100
AcDbEntity
  8
Top_Main_Left
 62
5
100
AcDbSpline
 70
8
 71
3
 72
8
 73
4
 74
0
 40
0
 40
0
 40
0
 40
0
 40
1
 40
1
 40
1
 40
1
 10
9.467118
 20
85.982667
 30
0.0
 10
9.467118
 20
86.103387
 30
0.0
 10
17.775942
 20
86.200742
 30
0.0
 10
28.096990
 20
86.200742
 30
0.0
  0
SPLINE
  5
12f
100
AcDbEntity
  8
Top_Main_Left
 62
5
100
AcDbSpline
 70
8
 71
3
 72
8
 73
4
 74
0
 40
0
 40
0
 40
0
 40
0
 40
1
 40
1
 40
1
 40
1
 10
28.096990
 20
86.200742
 30
0.0
 10
32.516048
 20
86.200742
 30
0.0
 10
39.394332
 20
86.179952
 30
0.0
 10
42.581437
 20
86.150102
 30
0.0
  0
LWPOLYLINE
  5
130
100
AcDbEntity
  8
Top_Main_Left
 62
5
100
AcDbPolyline
 90
2
 70
0
 10
9.467118
 20
44.368668
 30
0.0
 10
9.467118
 20
85.982667
 30
0.0
  0
SPLINE
  5
131
100
AcDbEntity
  8
Top_Main_Left
 62
5
100
AcDbSpline
 70
8
 71
3
 72
8
 73
4
 74
0
 40
0
 40
0
 40
0
 40
0
 40
1
 40
1
 40
1
 40
1
 10
42.581437
 20
95.059115
 30
0.0
 10
42.581437
 20
96.216670
 30
0.0
 10
33.103192
 20
99.147973
 30
0.0
 10
25.056348
 20
99.147973
 30
0.0
  0
LWPOLYLINE
  5
132
100
AcDbEntity
  8
Top_Main_Left
 62
5
100
AcDbPolyline
 90
3
 70
0
 10
42.581437
 20
86.150102
 30
0.0
 10
42.581437
 20
89.057415
 30
0.0
 10
42.581437
 20
95.059115
 30
0.0
  0
LWPOLYLINE
  5
133
100
AcDbEntity
  8
Top_Main_Left
 62
5
100
AcDbPolyline
 90
1
 70
1
 10
25.056348
 20
99.147973
 30
0.0
  0
ENDSEC
  0
SECTION
  2
OBJECTS
  0
DICTIONARY
  5
C
330
0
100
AcDbDictionary
  3
ACAD_GROUP
350
D
  3
ACAD_MLINESTYLE
350
17
  0
DICTIONARY
  5
D
330
C
100
AcDbDictionary
  0
DICTIONARY
  5
1A
330
C
100
AcDbDictionary
  0
DICTIONARY
  5
17
330
C
100
AcDbDictionary
  3
STANDARD
350
18
  0
DICTIONARY
  5
19
330
C
100
AcDbDictionary
  0
ENDSEC
  0
EOF
